<svg width="416" height="294" viewBox="0 0 416 294" fill="none" xmlns="http://www.w3.org/2000/svg">
<g clip-path="url(#clip0_85_4436)">
<path d="M331.408 239.362H273.908V239.516H331.408V239.362Z" fill="#DEE2F9"/>
<path d="M250.869 241.967H224.798V242.121H250.869V241.967Z" fill="#DEE2F9"/>
<path d="M199.975 206.587H80.7704C78.8257 206.587 77.2515 205.006 77.2515 203.062V35.4943C77.27 33.562 78.8381 32.0063 80.7704 32.0001H199.975C201.919 32.0001 203.5 33.5805 203.5 35.5252V203.062C203.5 205.006 201.919 206.587 199.975 206.587ZM80.7704 32.1236C78.9121 32.1236 77.4058 33.6361 77.4058 35.4943V203.062C77.4058 204.92 78.9121 206.426 80.7704 206.432H199.975C201.833 206.432 203.339 204.92 203.345 203.062V35.4943C203.345 33.6361 201.833 32.1298 199.975 32.1236H80.7704Z" fill="#DEE2F9"/>
<path d="M333.513 206.587H214.303C212.358 206.587 210.784 205.006 210.778 203.062V35.4943C210.797 33.562 212.371 32.0063 214.303 32.0001H333.513C335.446 32.0063 337.008 33.562 337.026 35.4943V203.062C337.026 205.006 335.458 206.581 333.513 206.587ZM214.303 32.1236C212.445 32.1236 210.939 33.6361 210.932 35.4943V203.062C210.932 204.92 212.445 206.426 214.303 206.432H333.513C335.372 206.432 336.878 204.92 336.884 203.062V35.4943C336.884 33.6361 335.372 32.1298 333.513 32.1236H214.303Z" fill="#DEE2F9"/>
<path d="M362.338 234.121H53.6625V234.275H362.338V234.121Z" fill="#DEE2F9"/>
<path d="M138.647 238.325H118.2V238.479H138.647V238.325Z" fill="#DEE2F9"/>
<path d="M184.473 243.98H159.316V244.134H184.473V243.98Z" fill="#DEE2F9"/>
<path d="M117.583 242.047H86.0487V242.202H117.583V242.047Z" fill="#DEE2F9"/>
<path d="M331.408 239.362H273.908V239.516H331.408V239.362Z" fill="#DEE2F9"/>
<path d="M250.869 241.967H224.798V242.121H250.869V241.967Z" fill="#DEE2F9"/>
<path d="M199.975 206.587H80.7704C78.8257 206.587 77.2515 205.006 77.2515 203.062V35.4943C77.27 33.562 78.8381 32.0063 80.7704 32.0001H199.975C201.919 32.0001 203.5 33.5805 203.5 35.5252V203.062C203.5 205.006 201.919 206.587 199.975 206.587ZM80.7704 32.1236C78.9121 32.1236 77.4058 33.6361 77.4058 35.4943V203.062C77.4058 204.92 78.9121 206.426 80.7704 206.432H199.975C201.833 206.432 203.339 204.92 203.345 203.062V35.4943C203.345 33.6361 201.833 32.1298 199.975 32.1236H80.7704Z" fill="#DEE2F9"/>
<path d="M333.513 206.587H214.303C212.358 206.587 210.784 205.006 210.778 203.062V35.4943C210.797 33.562 212.371 32.0063 214.303 32.0001H333.513C335.446 32.0063 337.008 33.562 337.026 35.4943V203.062C337.026 205.006 335.458 206.581 333.513 206.587ZM214.303 32.1236C212.445 32.1236 210.939 33.6361 210.932 35.4943V203.062C210.932 204.92 212.445 206.426 214.303 206.432H333.513C335.372 206.432 336.878 204.92 336.884 203.062V35.4943C336.884 33.6361 335.372 32.1298 333.513 32.1236H214.303Z" fill="#DEE2F9"/>
<path d="M328.748 41.1678H236.491V108.422H328.748V41.1678Z" fill="#E7E4ED"/>
<path d="M326.772 41.1678H234.515V108.422H326.772V41.1678Z" fill="#EEE4EE"/>
<path d="M322.809 45.6189H239.207V103.767H322.809V45.6189Z" fill="#FAFAFA"/>
<path d="M240.399 45.6189H239.201V103.767H240.399V45.6189Z" fill="#E7E4ED"/>
<path d="M322.037 45.6189L285.984 103.767H271.155L306.27 45.6189H322.037Z" fill="white"/>
<path d="M301.652 45.6189L265.599 103.767H250.77L285.885 45.6189H301.652Z" fill="white"/>
<path d="M338.773 184.776H222.952V234.121H338.773V184.776Z" fill="#E7E4ED"/>
<path d="M331.816 184.776H215.995V234.121H331.816V184.776Z" fill="#EEE4EE"/>
<path d="M327.698 188.69H221.211V206.605H327.698V188.69Z" fill="#FAFAFA"/>
<path d="M327.698 211.6H221.211V229.515H327.698V211.6Z" fill="#FAFAFA"/>
<path d="M340.477 180.825H214.346V184.776H340.477V180.825Z" fill="#E7E4ED"/>
<path opacity="0.05" d="M340.477 180.825H331.81V184.776H340.477V180.825Z" fill="black"/>
<path d="M304.961 158.612H325.081L322.42 180.658H302.115L304.961 158.612Z" fill="#ECECEC"/>
<path d="M307.431 161.767H321.796L319.895 177.51H305.399L307.431 161.767Z" fill="#F5F5F5"/>
<path d="M324.222 165.687L325.08 180.658H322.42L324.222 165.687Z" fill="#E7E4ED"/>
<path d="M308.227 161.767L306.196 177.51H305.399L307.431 161.767H308.227Z" fill="#E7E4ED"/>
<path d="M124.892 97.964H88.3267V143.173H124.892V97.964Z" fill="#E7E4ED"/>
<path d="M122.077 97.964H85.5116V143.173H122.077V97.964Z" fill="#EEE4EE"/>
<path d="M118.361 102.569H89.2404V138.573H118.361V102.569Z" fill="#FAFAFA"/>
<path d="M90.4257 102.569H89.2404V138.573H90.4257V102.569Z" fill="#E7E4ED"/>
<path d="M108.727 124.681C111.449 121.959 111.449 117.546 108.727 114.824C106.005 112.102 101.592 112.102 98.8705 114.824C96.1486 117.546 96.1486 121.959 98.8705 124.681C101.592 127.403 106.005 127.403 108.727 124.681Z" fill="#E7E4ED"/>
<path d="M86.098 182.029L85.7029 234.343L127.121 234.652C128.3 234.627 129.238 233.658 129.226 232.472L129.35 215.767C129.325 210.044 130.029 204.34 131.442 198.79C131.807 197.407 131.955 195.975 131.875 194.548C131.529 188.085 126.547 182.794 120.349 182.306C120.052 182.276 119.756 182.276 119.472 182.276L86.0918 182.022L86.098 182.029Z" fill="#E7E4ED"/>
<path d="M73.893 198.351C75.1956 203.556 75.8192 208.902 75.7451 214.267L75.6093 231.954C75.5722 233.133 76.4982 234.121 77.6836 234.164L93.7347 234.287C94.9138 234.263 95.8522 233.293 95.8398 232.108L95.9633 215.403C95.9386 209.68 96.6424 203.975 98.0561 198.425C98.4203 197.043 98.5685 195.61 98.4883 194.184C98.1425 187.721 93.1605 182.43 86.9623 181.942C79.6529 181.368 73.5288 187.35 73.467 194.851C73.4547 196.03 73.5967 197.209 73.8868 198.357L73.893 198.351Z" fill="#F5F5F5"/>
<path d="M103.178 202.812L102.94 234.561L155.747 234.957L155.985 203.208L103.178 202.812Z" fill="#ECECEC"/>
<path d="M194.091 174.886L193.826 210.427L183.146 210.346L116.182 209.84L116.447 174.299C116.484 169.379 120.182 165.348 124.948 164.78C125.355 164.73 125.769 164.7 126.189 164.706L184.491 165.144C189.831 165.187 194.128 169.546 194.085 174.886H194.091Z" fill="#E7E4ED"/>
<path d="M183.405 174.886L183.139 210.346L116.175 209.84L116.441 174.299C116.478 169.379 120.176 165.348 124.942 164.78L173.805 165.144C179.145 165.187 183.442 169.546 183.399 174.886H183.405Z" fill="#ECECEC"/>
<path d="M153.019 201.605C153.488 201.617 153.858 202.012 153.84 202.481L153.753 214.094C153.753 214.563 153.365 214.94 152.895 214.94L103.791 214.569C102.217 214.557 100.951 213.273 100.964 211.698L101.019 204.062C101.032 202.488 102.316 201.222 103.89 201.234L152.994 201.605C152.994 201.605 153.006 201.605 153.013 201.605H153.019Z" fill="#EEE4EE"/>
<path d="M152.932 182.263L152.537 234.577L203.382 234.96C204.561 234.936 205.506 233.966 205.487 232.781L205.611 216.075C205.592 210.353 206.296 204.648 207.704 199.098C208.074 197.715 208.222 196.283 208.136 194.857C207.79 188.393 202.814 183.103 196.616 182.615C196.32 182.584 196.023 182.584 195.733 182.584L152.926 182.263H152.932Z" fill="#E7E4ED"/>
<path d="M143.357 198.87C144.647 204.074 145.259 209.42 145.172 214.785L145.036 232.472C145.006 233.651 145.932 234.639 147.111 234.682L163.162 234.806C164.341 234.781 165.286 233.812 165.267 232.627L165.39 215.921C165.372 210.198 166.076 204.494 167.483 198.944C167.854 197.561 168.002 196.129 167.915 194.703C167.57 188.239 162.594 182.948 156.396 182.461C149.086 181.887 142.956 187.869 142.9 195.37C142.9 196.555 143.049 197.734 143.357 198.876V198.87Z" fill="#F5F5F5"/>
<path d="M187.109 72.2514H86.0487V75.758H187.109V72.2514Z" fill="#E7E4ED"/>
<path d="M179.38 72.2514H86.0487V75.758H179.38V72.2514Z" fill="#EEE4EE"/>
<path d="M86.0487 75.7579L93.7718 83.339H95.8708L93.7718 75.7579H86.0487Z" fill="#ECECEC"/>
<path d="M88.1415 75.7579L95.8707 83.339V75.7579H88.1415Z" fill="#E7E4ED"/>
<path d="M112.283 71.6475C116.147 70.017 117.957 65.563 116.327 61.6992C114.696 57.8354 110.242 56.025 106.379 57.6556C102.515 59.2861 100.704 63.7401 102.335 67.6039C103.966 71.4676 108.42 73.278 112.283 71.6475Z" fill="#ECECEC"/>
<path d="M101.736 64.658L101.427 57.0646H116.922V64.658H101.736Z" fill="#ECECEC"/>
<path d="M127.269 40.4023H122.676V72.2514H127.269V40.4023Z" fill="#EEE4EE"/>
<path d="M132.714 40.4023H128.115V72.2514H132.714V40.4023Z" fill="#EEE4EE"/>
<path d="M138.332 40.4023H133.733V72.2514H138.332V40.4023Z" fill="#EEE4EE"/>
<path d="M127.269 67.5842H122.676V69.2943H127.269V67.5842Z" fill="#E7E4ED"/>
<path d="M132.714 67.5842H128.115V69.2943H132.714V67.5842Z" fill="#E7E4ED"/>
<path d="M138.332 67.5842H133.733V69.2943H138.332V67.5842Z" fill="#E7E4ED"/>
<path d="M127.269 43.8409H122.676V45.551H127.269V43.8409Z" fill="#E7E4ED"/>
<path d="M132.714 43.8409H128.115V45.551H132.714V43.8409Z" fill="#E7E4ED"/>
<path d="M138.332 43.8409H133.733V45.551H138.332V43.8409Z" fill="#E7E4ED"/>
<path d="M131.319 49.4033H129.516V61.8058H131.319V49.4033Z" fill="#E7E4ED"/>
<path d="M125.874 49.4033H124.071V61.8058H125.874V49.4033Z" fill="#E7E4ED"/>
<path d="M136.937 49.4033H135.134V61.8058H136.937V49.4033Z" fill="#E7E4ED"/>
<path d="M143.709 40.4023H139.116V72.2514H143.709V40.4023Z" fill="#EEE4EE"/>
<path d="M149.16 40.4023H144.561V72.2514H149.16V40.4023Z" fill="#EEE4EE"/>
<path d="M154.778 40.4023H150.179V72.2514H154.778V40.4023Z" fill="#EEE4EE"/>
<path d="M143.709 67.5842H139.116V69.2943H143.709V67.5842Z" fill="#E7E4ED"/>
<path d="M149.16 67.5842H144.561V69.2943H149.16V67.5842Z" fill="#E7E4ED"/>
<path d="M154.778 67.5842H150.179V69.2943H154.778V67.5842Z" fill="#E7E4ED"/>
<path d="M143.709 43.8409H139.116V45.551H143.709V43.8409Z" fill="#E7E4ED"/>
<path d="M149.16 43.8409H144.561V45.551H149.16V43.8409Z" fill="#E7E4ED"/>
<path d="M154.778 43.8409H150.179V45.551H154.778V43.8409Z" fill="#E7E4ED"/>
<path d="M147.765 49.4033H145.963V61.8058H147.765V49.4033Z" fill="#E7E4ED"/>
<path d="M142.32 49.4033H140.517V61.8058H142.32V49.4033Z" fill="#E7E4ED"/>
<path d="M153.383 49.4033H151.58V61.8058H153.383V49.4033Z" fill="#E7E4ED"/>
<path d="M177.281 75.7579L185.01 83.339H187.103L185.01 75.7579H177.281Z" fill="#ECECEC"/>
<path d="M179.38 75.7579L187.103 83.339V75.7579H179.38Z" fill="#E7E4ED"/>
<path d="M208 262C274.107 262 327.698 258.871 327.698 255.012C327.698 251.152 274.107 248.023 208 248.023C141.893 248.023 88.302 251.152 88.302 255.012C88.302 258.871 141.893 262 208 262Z" fill="#E7E4ED"/>
<path d="M227.675 152.741L227.119 153.019C222.798 144.438 213.902 137.795 202.722 134.795C192.307 131.998 181.51 132.474 171.385 133.4C169.045 133.61 166.662 133.857 164.353 134.097C156.315 134.931 148.006 135.789 139.795 135.431C125.121 134.789 110.959 130.072 99.939 122.152C95.8892 119.244 92.2283 115.873 89.0366 112.163L89.3762 111.614C92.5679 115.342 96.2349 118.732 100.297 121.652C111.224 129.504 125.263 134.178 139.826 134.814C147.987 135.172 156.272 134.314 164.292 133.48C166.6 133.246 168.983 132.999 171.329 132.783C181.51 131.85 192.375 131.381 202.876 134.196C214.229 137.246 223.267 144.006 227.675 152.741Z" fill="#4603A6"/>
<path d="M228.842 146.852L228.286 147.13C223.965 138.549 215.069 131.906 203.888 128.906C193.474 126.109 182.676 126.578 172.552 127.504C170.212 127.72 167.829 127.967 165.52 128.202C157.482 129.035 149.173 129.9 140.962 129.541C126.615 128.912 111.632 122.757 99.8526 112.651C97.34 110.496 95.0249 108.218 92.9259 105.829L93.2037 105.378C105.47 119.374 123.948 128.177 140.993 128.924C149.154 129.282 157.445 128.424 165.458 127.591C167.767 127.35 170.15 127.103 172.496 126.887C182.676 125.961 193.542 125.485 204.043 128.307C215.396 131.356 224.434 138.11 228.842 146.852Z" fill="#4603A6"/>
<path d="M228.842 141.049L228.286 141.327C223.965 132.745 215.069 126.103 203.889 123.096C193.474 120.306 182.676 120.775 172.552 121.701C170.064 121.93 167.527 122.201 165.076 122.46C157.18 123.312 149.018 124.183 140.962 123.738C123.151 122.744 107.773 112.62 97.161 98.9456L97.4944 98.3961C108.008 112.021 123.287 122.133 140.993 123.121C149 123.565 157.143 122.695 165.008 121.849C167.465 121.584 170.002 121.312 172.496 121.084C182.676 120.158 193.542 119.682 204.043 122.504C215.396 125.547 224.434 132.307 228.842 141.049Z" fill="#4603A6"/>
<path d="M230.243 134.993L229.688 135.27C225.366 126.689 216.47 120.04 205.29 117.04C194.875 114.244 184.072 114.719 173.953 115.645C171.465 115.873 168.928 116.145 166.477 116.404C158.581 117.25 150.42 118.127 142.363 117.676C126.288 116.781 111.274 107.051 100.908 92.8461L101.248 92.2844C111.514 106.459 126.423 116.17 142.394 117.065C150.401 117.509 158.538 116.639 166.409 115.793C168.866 115.528 171.404 115.256 173.898 115.028C183.59 114.145 194.912 113.62 205.444 116.447C216.797 119.491 225.835 126.251 230.243 134.993Z" fill="#4603A6"/>
<path d="M231.712 127.893L231.163 128.171C226.835 119.59 217.939 112.947 206.759 109.947C196.344 107.15 185.547 107.619 175.429 108.545C172.935 108.774 170.397 109.045 167.946 109.311C160.05 110.157 151.889 111.033 143.833 110.583C127.349 109.663 114.126 99.6803 105.205 85.8454L105.563 85.2713C114.379 99.0753 127.498 109.052 143.87 109.965C151.877 110.41 160.013 109.539 167.885 108.694C170.336 108.434 172.873 108.163 175.373 107.934C185.059 107.045 196.382 106.52 206.92 109.348C218.273 112.398 227.305 119.158 231.712 127.893Z" fill="#4603A6"/>
<path d="M194.727 115.219C194.727 116.361 193.375 117.287 191.702 117.287C190.029 117.287 188.677 116.361 188.677 115.219C188.677 114.077 190.029 113.151 191.702 113.151C193.375 113.151 194.727 114.077 194.727 115.219Z" fill="#27005E"/>
<path d="M194.616 115.731L194.017 115.589L196.801 104.119L197.308 104.409L194.616 115.731Z" fill="#27005E"/>
<path d="M201.938 120.565C201.938 121.707 200.586 122.633 198.913 122.633C197.24 122.633 195.888 121.707 195.888 120.565C195.888 119.423 197.24 118.497 198.913 118.497C200.586 118.497 201.938 119.423 201.938 120.565Z" fill="#27005E"/>
<path d="M201.827 121.084L201.228 120.936L204.382 108.107L204.907 108.373L201.827 121.084Z" fill="#27005E"/>
<path d="M203.395 113.151L195.888 109.058L196.233 107.595L203.747 111.669L203.395 113.151Z" fill="#27005E"/>
<path d="M204.666 108.255L196.801 104.119L196.567 106.187L204.142 110.015L204.666 108.255Z" fill="#27005E"/>
<path d="M135.35 124.609C135.011 125.825 133.319 126.412 131.572 125.924C129.825 125.436 128.683 124.053 129.016 122.843C129.35 121.633 131.047 121.041 132.794 121.528C134.541 122.016 135.684 123.399 135.35 124.609Z" fill="#27005E"/>
<path d="M130.671 109.36L129.566 123.374L128.948 123.325L129.751 113.132L129.998 109.99C130.257 109.829 130.485 109.626 130.671 109.36Z" fill="#27005E"/>
<path d="M130.671 109.36L130.041 112.892C129.948 112.978 129.856 113.058 129.751 113.132C129.022 113.7 128.09 113.99 127.17 114.132C126.547 114.231 125.911 114.274 125.294 114.423C124.084 114.725 122.954 115.404 122.213 116.41C122.46 114.855 122.787 113.163 123.979 112.126C124.911 111.311 126.189 111.07 127.393 110.78C128.282 110.564 129.257 110.447 129.998 109.99C130.257 109.829 130.486 109.626 130.671 109.36Z" fill="#27005E"/>
<path d="M175.867 77.8816C174.873 80.4251 173.077 82.592 172.2 85.1787C170.41 90.4694 169.508 94.8958 164.878 98.5629C155.772 105.798 145.969 107.187 136.554 99.6679C133.788 97.464 131.264 94.8526 129.695 91.6856C127.084 86.4196 127.658 78.6904 133.461 75.7703C136.955 74.0047 141.314 74.6899 144.759 72.8255C148.13 71.0043 149.84 67.1953 152.513 64.4481C154.902 61.9972 158.328 60.5217 161.835 60.2007C163.063 60.0834 164.304 60.1081 165.508 60.281C167.175 60.5217 168.78 61.0465 170.218 61.8737C175.318 64.8 178.157 72.0292 175.873 77.8816H175.867Z" fill="#27005E"/>
<path d="M179.942 90.0557C179.942 90.0557 193.431 80.6041 195.32 78.5854C197.209 76.5666 200.234 60.0587 200.234 57.1571L198.598 53.6259L200.234 48.7118L204.265 49.4711V53.6321L203.382 56.9102C203.382 56.9102 204.29 72.0538 199.777 81.3202C199.326 82.2401 198.684 83.0488 197.894 83.697C194.567 86.4257 184.436 94.655 180.565 96.7478C175.904 99.2666 179.935 90.0681 179.935 90.0681L179.942 90.0557Z" fill="#C27E68"/>
<path d="M161.563 94.3463C161.563 94.3463 153.007 86.2405 144.876 77.1223C144.876 77.1223 140.456 64.4419 139.894 56.5645L141.789 52.3418L140.647 45.6189L136.221 46.8474L134.042 53.0518L135.733 56.5522C135.733 56.5522 136.14 71.6834 140.499 82.1722C140.499 82.1722 150.5 95.4329 159.39 101.446C159.39 101.446 164.619 102.156 161.557 94.3402L161.563 94.3463Z" fill="#C27E68"/>
<path d="M169.064 237.214L166.712 252.116L161.526 250.777L162.866 235.658L169.064 237.214Z" fill="#C27E68"/>
<path d="M119.034 166.848L111.953 158.606L114.293 154.976L123.337 161.341L119.034 166.848Z" fill="#C27E68"/>
<path d="M179.522 189.542C178.318 199.926 173.749 227.12 172.57 234.034C172.391 235.071 172.299 235.658 172.299 235.658L160.915 234.269L161.106 232.602L166.471 185.652C166.088 182.362 165.767 177.837 165.508 173.41C165.07 165.953 164.823 158.767 164.804 158.193C164.804 158.18 164.804 158.168 164.804 158.156C164.804 158.156 164.804 158.211 164.804 158.31C164.779 158.724 164.755 159.082 164.736 159.366C164.736 159.434 164.736 159.508 164.724 159.582C164.724 159.619 164.724 159.656 164.724 159.693C164.236 166.953 161.686 197.462 152.871 196.493C144.228 195.53 125.837 175.071 121.003 169.533C120.244 168.663 119.818 168.157 119.818 168.157L124.263 162.039C124.874 162.434 125.497 162.841 126.121 163.273C136.029 170.058 147.037 180.936 147.037 180.936C147.037 180.936 148.148 162.323 148.704 149.544C149.259 136.764 157.013 125.992 157.013 125.992H180.361C180.361 125.992 180.929 177.596 179.534 189.542H179.522Z" fill="#27005E"/>
<path d="M159.402 232.392V238.053L172.188 240.245L174.015 234.219L159.402 232.392Z" fill="#4603A6"/>
<path d="M119.799 170.984L127.442 161.638L123.528 158.606L115.916 168.058L119.799 170.984Z" fill="#4603A6"/>
<path d="M161.384 248.647L167.02 249.733C167.02 249.733 167.36 252.968 171.188 254.246C175.015 255.524 175.602 255.129 175.503 256.407C175.404 257.685 172.039 258.271 169.601 257.092C167.162 255.913 161.279 255.129 159.804 254.543C158.334 253.956 161.384 248.647 161.384 248.647Z" fill="#27005E"/>
<path d="M192.455 92.1424L184.837 97.1121L182.997 98.3097C182.997 98.3097 180.88 120.429 180.349 125.992H156.995L154.828 104.829L154.044 97.1738L148.271 92.2288L153.945 82.8019L162.514 89.0309L173.515 89.1606L186.56 82.8019L192.449 92.1486L192.455 92.1424Z" fill="#4603A6"/>
<path d="M175.577 79.1904C173.54 81.9191 169.403 82.7834 169.403 82.7834C167.088 82.8328 161.409 82.4685 161.088 72.7453C161.075 72.3934 161.075 72.0477 161.088 71.7143C161.44 62.9418 170.212 61.8614 170.212 61.8614C170.212 61.8614 170.391 61.954 170.7 62.1639C171.57 62.7565 173.472 64.0592 175.219 67.3805C177.577 71.8748 177.614 76.4494 175.577 79.1842V79.1904Z" fill="#C27E68"/>
<path d="M168.829 75.5419C168.829 75.5419 170.471 76.684 172.564 75.9061" stroke="#27005E" stroke-linecap="round" stroke-linejoin="round"/>
<path d="M166.86 69.64C166.86 69.64 167.181 68.2756 169.002 68.2263" stroke="#27005E" stroke-linecap="round" stroke-linejoin="round"/>
<path d="M172.379 66.1519C172.379 66.1519 173.379 65.3309 174.657 65.9235" stroke="#27005E" stroke-linecap="round" stroke-linejoin="round"/>
<path d="M169.373 70.7265C169.564 71.1216 169.508 71.5476 169.243 71.6711C168.984 71.7945 168.613 71.5785 168.422 71.1834C168.23 70.7883 168.286 70.3623 168.551 70.2388C168.811 70.1153 169.181 70.3314 169.366 70.7265H169.373Z" fill="#27005E"/>
<path d="M174.398 68.8374C174.589 69.2325 174.534 69.6585 174.268 69.782C174.009 69.9054 173.638 69.6894 173.447 69.2943C173.256 68.8992 173.311 68.4732 173.577 68.3497C173.836 68.2262 174.206 68.4423 174.398 68.8374Z" fill="#27005E"/>
<path d="M168.558 70.2388L169.391 69.4486C169.391 69.4486 169.595 70.3685 168.558 70.2388Z" fill="#27005E"/>
<path d="M173.496 68.4423L174.33 67.6521C174.33 67.6521 174.534 68.572 173.496 68.4423Z" fill="#27005E"/>
<path d="M172.379 70.5722L173.385 73.5417C173.385 73.5417 174.046 73.5849 174.929 72.7268L172.379 70.5722Z" fill="#AC5342"/>
<path d="M170.089 82.1598C169.965 82.3512 169.329 85.8146 170.403 87.3271C171.478 88.8396 173.521 89.1544 173.521 89.1544C173.521 89.1544 175.75 94.7661 172.379 95.8959C169.014 97.0318 163.532 93.624 162.52 89.0248C162.52 89.0248 164.557 88.3827 163.952 80.672C163.341 72.9551 170.082 82.1598 170.082 82.1598H170.089Z" fill="#C27E68"/>
<path d="M170.7 62.1701C170.829 70.2018 161.483 71.6587 161.094 71.7205C161.446 62.9479 169.41 61.4786 169.41 61.4786C169.41 61.4786 170.397 61.9602 170.7 62.1701Z" fill="#27005E"/>
<path d="M162.643 73.6281C161.903 71.9921 159.909 70.4425 158.742 71.5785C157.124 73.1527 159.205 75.8814 160.711 76.116C161.365 76.2148 162.267 76.2642 162.693 75.6406C163.057 75.1097 162.977 74.3627 162.65 73.6281H162.643Z" fill="#C27E68"/>
<path opacity="0.2" d="M156.612 94.4266L154.834 104.823L154.056 97.1738L156.612 94.4266Z" fill="#27005E"/>
<path opacity="0.2" d="M184.843 97.1059L183.004 98.3036L182.541 94.4266L184.843 97.1059Z" fill="#27005E"/>
<path d="M180.559 123.868L180.355 125.992H157.001L156.785 123.868H180.559Z" fill="white" stroke="white" stroke-miterlimit="10"/>
<path d="M160.297 125.992H159.773L159.606 123.868H160.137L160.297 125.992Z" fill="#4603A6"/>
<path d="M164.502 125.992H163.971L163.915 123.868H164.446L164.502 125.992Z" fill="#4603A6"/>
<path d="M169.385 123.868L169.274 125.992H168.743L168.854 123.868H169.385Z" fill="#4603A6"/>
<path d="M174.219 123.868L174.027 125.992H173.503L173.694 123.868H174.219Z" fill="#4603A6"/>
<path d="M178.565 123.868L178.324 125.992H177.799L178.034 123.868H178.565Z" fill="#4603A6"/>
<path d="M113.095 160.323L116.052 155.748C116.052 155.748 113.521 151.155 112.675 151.266C111.829 151.377 103.446 159.539 102.717 161.749C102.192 163.341 102.909 163.934 103.835 163.909C104.754 163.885 109.31 159.915 113.101 160.323H113.095Z" fill="#27005E"/>
<path d="M165.502 60.281C159.637 61.7194 159.186 68.0719 159.229 70.4055C159.229 70.5413 159.229 70.6525 159.229 70.7574C159.242 71.0784 159.26 71.2636 159.26 71.2636L157.501 71.7266C157.451 71.3871 157.414 71.0599 157.384 70.7327C156.754 64.1394 159.797 61.3305 161.822 60.2007C163.051 60.0834 164.292 60.1081 165.495 60.281H165.502Z" fill="#4603A6"/>
<path d="M160.68 78.1101C160.483 78.1842 160.273 78.2335 160.069 78.2521C160.057 78.2521 160.05 78.2521 160.05 78.2521C158.581 78.3941 157.013 77.2334 156.328 75.3999C155.624 73.5046 156.106 71.5353 157.39 70.7266C157.532 70.634 157.68 70.5599 157.84 70.5043C158.131 70.3932 158.439 70.3438 158.736 70.3438C158.902 70.3438 159.063 70.3623 159.229 70.3994C160.458 70.6278 161.637 71.6896 162.205 73.2083C162.989 75.3135 162.31 77.5051 160.686 78.1101H160.68Z" fill="#4603A6"/>
<path d="M159.223 70.4055C160.452 70.634 161.631 71.6958 162.199 73.2145C162.983 75.3196 162.304 77.5112 160.68 78.1162C160.483 78.1903 160.273 78.2397 160.069 78.2582C160.291 78.1533 162.224 77.1964 161.822 74.0664C161.686 73.0293 160.952 71.4921 159.236 70.7636C159.075 70.6957 158.908 70.634 158.729 70.5784C158.729 70.5784 158.729 70.4981 158.729 70.3562C158.779 68.893 159.334 60.7564 165.496 60.2872C159.631 61.7256 159.18 68.0781 159.223 70.4117V70.4055Z" fill="white"/>
<path opacity="0.2" d="M165.508 173.41C165.07 165.953 164.823 158.767 164.804 158.193C164.804 158.18 164.804 158.168 164.804 158.156C165.032 154.631 165.502 147.593 165.502 147.593C165.502 147.593 167.138 164.471 165.502 173.41H165.508Z" fill="#27005E"/>
<path d="M241.547 82.9686L307.486 82.9871C312.505 82.9871 316.481 87.2345 316.141 92.2473L305.671 248.209C305.362 252.765 301.578 256.308 297.01 256.308L231.626 256.29C226.619 256.29 222.65 252.061 222.971 247.06L232.885 91.0991C233.176 86.5307 236.966 82.9686 241.547 82.9686Z" fill="#4603A6"/>
<path opacity="0.2" d="M241.547 82.9686L307.486 82.9871C312.505 82.9871 316.481 87.2345 316.141 92.2473L305.671 248.209C305.362 252.765 301.578 256.308 297.01 256.308L231.626 256.29C226.619 256.29 222.65 252.061 222.971 247.06L232.885 91.0991C233.176 86.5307 236.966 82.9686 241.547 82.9686Z" fill="black"/>
<path d="M239.917 82.9686L303.998 82.9871C309.548 82.9871 313.944 87.6851 313.573 93.2289L303.226 247.357C302.887 252.394 298.701 256.314 293.645 256.308L230.114 256.29C224.576 256.29 220.187 251.61 220.538 246.085L230.336 91.9572C230.657 86.9011 234.849 82.9686 239.917 82.9686Z" fill="#4603A6"/>
<path opacity="0.2" d="M285.132 92.7412H266.525C265.574 92.7351 264.796 91.9572 264.796 91.0065C264.796 90.0558 265.574 89.2779 266.525 89.2779H285.132C286.083 89.2841 286.86 90.0619 286.86 91.0126C286.86 91.9634 286.083 92.7412 285.132 92.7412Z" fill="black"/>
<path opacity="0.2" d="M257.055 91.0003C257.055 92.3399 255.968 93.4265 254.629 93.4265C253.289 93.4265 252.202 92.3399 252.202 91.0003C252.202 89.6606 253.289 88.5741 254.629 88.5741C255.968 88.5741 257.055 89.6606 257.055 91.0003Z" fill="black"/>
<path opacity="0.2" d="M263.004 249.401C265.188 247.217 265.188 243.675 263.004 241.491C260.819 239.307 257.278 239.307 255.094 241.491C252.909 243.675 252.909 247.217 255.094 249.401C257.278 251.585 260.819 251.585 263.004 249.401Z" fill="black"/>
<path d="M229.323 236.325L295.676 236.343L306.202 98.39L237.818 98.3653L229.323 236.325Z" fill="white"/>
<path opacity="0.2" d="M229.323 236.325H227.496L235.836 98.3653H237.818L229.323 236.325Z" fill="black"/>
<path d="M288.12 175.509H245.998C243.516 175.509 241.485 173.478 241.485 170.997C241.485 168.515 243.516 166.484 245.998 166.484H288.12C290.601 166.484 292.633 168.515 292.633 170.997C292.633 173.478 290.601 175.509 288.12 175.509Z" fill="#4603A6"/>
<path d="M292.731 114.052H250.61C248.128 114.052 246.097 112.021 246.097 109.539C246.097 107.058 248.128 105.026 250.61 105.026H292.731C295.213 105.026 297.244 107.058 297.244 109.539C297.244 112.021 295.213 114.052 292.731 114.052Z" fill="#4603A6"/>
<path d="M288.75 226.354H238.071C237.887 226.354 237.738 226.504 237.738 226.688V227.638C237.738 227.823 237.887 227.972 238.071 227.972H288.75C288.934 227.972 289.083 227.823 289.083 227.638V226.688C289.083 226.504 288.934 226.354 288.75 226.354Z" fill="#2D002A"/>
<path d="M240.09 229.515C241.392 229.515 242.448 228.459 242.448 227.157C242.448 225.854 241.392 224.799 240.09 224.799C238.788 224.799 237.732 225.854 237.732 227.157C237.732 228.459 238.788 229.515 240.09 229.515Z" fill="#4603A6"/>
<path d="M241.411 227.157C241.411 227.885 240.825 228.472 240.096 228.472C239.368 228.472 238.781 227.885 238.781 227.157C238.781 226.428 239.368 225.842 240.096 225.842C240.825 225.842 241.411 226.428 241.411 227.157Z" fill="white"/>
<path d="M248.375 121.022L291.126 121.146C293.447 121.152 295.287 123.115 295.139 125.43L293.281 154.921C293.145 157.044 291.386 158.699 289.256 158.699H246.535C244.208 158.699 242.368 156.736 242.51 154.421L244.331 124.806C244.461 122.677 246.233 121.016 248.369 121.022H248.375Z" fill="#4603A6"/>
<path opacity="0.2" d="M248.375 121.022L291.126 121.146C293.447 121.152 295.287 123.115 295.139 125.43L293.281 154.921C293.145 157.044 291.386 158.699 289.256 158.699H246.535C244.208 158.699 242.368 156.736 242.51 154.421L244.331 124.806C244.461 122.677 246.233 121.016 248.369 121.022H248.375Z" fill="black"/>
<path d="M269.525 125.677C262.413 125.269 256.295 131.116 255.857 138.74C255.419 146.364 260.827 152.877 267.939 153.285C275.05 153.692 281.168 147.846 281.607 140.222C282.045 132.597 276.637 126.084 269.525 125.677ZM268.55 142.629C266.926 142.537 265.698 141.055 265.796 139.314C265.895 137.573 267.29 136.24 268.914 136.338C270.538 136.431 271.766 137.913 271.667 139.654C271.569 141.395 270.173 142.728 268.55 142.629Z" fill="white"/>
<path d="M291.169 194.697H256.135C255.678 194.697 255.308 194.326 255.308 193.869C255.308 193.413 255.678 193.042 256.135 193.042H291.169C291.626 193.042 291.997 193.413 291.997 193.869C291.997 194.326 291.626 194.697 291.169 194.697Z" fill="#4603A6"/>
<path opacity="0.5" d="M291.169 194.697H256.135C255.678 194.697 255.308 194.326 255.308 193.869C255.308 193.413 255.678 193.042 256.135 193.042H291.169C291.626 193.042 291.997 193.413 291.997 193.869C291.997 194.326 291.626 194.697 291.169 194.697Z" fill="white"/>
<path d="M290.071 211.748H254.869C254.412 211.748 254.042 211.377 254.042 210.921C254.042 210.464 254.412 210.093 254.869 210.093H290.071C290.527 210.093 290.898 210.464 290.898 210.921C290.898 211.377 290.527 211.748 290.071 211.748Z" fill="#4603A6"/>
<path opacity="0.5" d="M290.071 211.748H254.869C254.412 211.748 254.042 211.377 254.042 210.921C254.042 210.464 254.412 210.093 254.869 210.093H290.071C290.527 210.093 290.898 210.464 290.898 210.921C290.898 211.377 290.527 211.748 290.071 211.748Z" fill="white"/>
<path d="M246.984 198.753C249.678 197.801 251.089 194.845 250.137 192.151C249.185 189.457 246.229 188.046 243.535 188.998C240.841 189.95 239.43 192.906 240.382 195.6C241.334 198.294 244.29 199.705 246.984 198.753Z" fill="#4603A6"/>
<path d="M248.939 212.228C249.667 209.465 248.018 206.635 245.255 205.906C242.493 205.178 239.663 206.827 238.934 209.59C238.206 212.353 239.855 215.183 242.618 215.911C245.38 216.64 248.211 214.991 248.939 212.228Z" fill="#4603A6"/>
<path d="M243.103 208.161V213.267L246.208 210.717L243.103 208.161Z" fill="white"/>
<path d="M244.325 191.314V196.419L247.424 193.863L244.325 191.314Z" fill="white"/>
</g>
<defs>
<clipPath id="clip0_85_4436">
<rect width="308.675" height="230" fill="white" transform="translate(53.6625 32.0001)"/>
</clipPath>
</defs>
</svg>
