<svg width="310" height="230" viewBox="0 0 310 230" fill="none" xmlns="http://www.w3.org/2000/svg">
<g clip-path="url(#clip0_38_5186)">
<path d="M278.408 207.362H220.908V207.516H278.408V207.362Z" fill="#DEE2F9"/>
<path d="M197.869 209.967H171.798V210.121H197.869V209.967Z" fill="#DEE2F9"/>
<path d="M146.974 174.587H27.7703C25.8256 174.587 24.2514 173.006 24.2514 171.062V3.49432C24.2699 1.56202 25.838 0.00629557 27.7703 0.00012207H146.974C148.919 0.00012207 150.5 1.58054 150.5 3.52519V171.062C150.5 173.006 148.919 174.587 146.974 174.587ZM27.7703 0.123592C25.9121 0.123592 24.4057 1.6361 24.4057 3.49432V171.062C24.4057 172.92 25.9121 174.426 27.7703 174.432H146.974C148.833 174.432 150.339 172.92 150.345 171.062V3.49432C150.345 1.6361 148.833 0.129766 146.974 0.123592H27.7703Z" fill="#DEE2F9"/>
<path d="M280.513 174.587H161.303C159.358 174.587 157.784 173.006 157.778 171.062V3.49432C157.797 1.56202 159.371 0.00629557 161.303 0.00012207H280.513C282.446 0.00629557 284.008 1.56202 284.026 3.49432V171.062C284.026 173.006 282.458 174.581 280.513 174.587ZM161.303 0.123592C159.445 0.123592 157.939 1.6361 157.932 3.49432V171.062C157.932 172.92 159.445 174.426 161.303 174.432H280.513C282.372 174.432 283.878 172.92 283.884 171.062V3.49432C283.884 1.6361 282.372 0.129766 280.513 0.123592H161.303Z" fill="#DEE2F9"/>
<path d="M309.338 202.121H0.662445V202.275H309.338V202.121Z" fill="#DEE2F9"/>
<path d="M85.6469 206.325H65.2003V206.479H85.6469V206.325Z" fill="#DEE2F9"/>
<path d="M131.473 211.98H106.316V212.134H131.473V211.98Z" fill="#DEE2F9"/>
<path d="M64.5829 210.047H33.0486V210.202H64.5829V210.047Z" fill="#DEE2F9"/>
<path d="M278.408 207.362H220.908V207.516H278.408V207.362Z" fill="#DEE2F9"/>
<path d="M197.869 209.967H171.798V210.121H197.869V209.967Z" fill="#DEE2F9"/>
<path d="M146.974 174.587H27.7703C25.8256 174.587 24.2514 173.006 24.2514 171.062V3.49432C24.2699 1.56202 25.838 0.00629557 27.7703 0.00012207H146.974C148.919 0.00012207 150.5 1.58054 150.5 3.52519V171.062C150.5 173.006 148.919 174.587 146.974 174.587ZM27.7703 0.123592C25.9121 0.123592 24.4057 1.6361 24.4057 3.49432V171.062C24.4057 172.92 25.9121 174.426 27.7703 174.432H146.974C148.833 174.432 150.339 172.92 150.345 171.062V3.49432C150.345 1.6361 148.833 0.129766 146.974 0.123592H27.7703Z" fill="#DEE2F9"/>
<path d="M280.513 174.587H161.303C159.358 174.587 157.784 173.006 157.778 171.062V3.49432C157.797 1.56202 159.371 0.00629557 161.303 0.00012207H280.513C282.446 0.00629557 284.008 1.56202 284.026 3.49432V171.062C284.026 173.006 282.458 174.581 280.513 174.587ZM161.303 0.123592C159.445 0.123592 157.939 1.6361 157.932 3.49432V171.062C157.932 172.92 159.445 174.426 161.303 174.432H280.513C282.372 174.432 283.878 172.92 283.884 171.062V3.49432C283.884 1.6361 282.372 0.129766 280.513 0.123592H161.303Z" fill="#DEE2F9"/>
<path d="M275.748 9.16779H183.491V76.4219H275.748V9.16779Z" fill="#E7E4ED"/>
<path d="M273.772 9.16779H181.515V76.4219H273.772V9.16779Z" fill="#EEE4EE"/>
<path d="M269.809 13.6189H186.207V71.7671H269.809V13.6189Z" fill="#FAFAFA"/>
<path d="M187.399 13.6189H186.201V71.7671H187.399V13.6189Z" fill="#E7E4ED"/>
<path d="M269.037 13.6189L232.984 71.7671H218.155L253.27 13.6189H269.037Z" fill="white"/>
<path d="M248.652 13.6189L212.599 71.7671H197.77L232.885 13.6189H248.652Z" fill="white"/>
<path d="M285.773 152.776H169.952V202.121H285.773V152.776Z" fill="#E7E4ED"/>
<path d="M278.816 152.776H162.995V202.121H278.816V152.776Z" fill="#EEE4EE"/>
<path d="M274.698 156.69H168.211V174.605H274.698V156.69Z" fill="#FAFAFA"/>
<path d="M274.698 179.6H168.211V197.515H274.698V179.6Z" fill="#FAFAFA"/>
<path d="M287.477 148.825H161.346V152.776H287.477V148.825Z" fill="#E7E4ED"/>
<path opacity="0.05" d="M287.477 148.825H278.81V152.776H287.477V148.825Z" fill="black"/>
<path d="M251.961 126.612H272.08L269.42 148.658H249.115L251.961 126.612Z" fill="#ECECEC"/>
<path d="M254.43 129.767H268.796L266.895 145.51H252.399L254.43 129.767Z" fill="#F5F5F5"/>
<path d="M271.222 133.687L272.08 148.658H269.42L271.222 133.687Z" fill="#E7E4ED"/>
<path d="M255.227 129.767L253.196 145.51H252.399L254.43 129.767H255.227Z" fill="#E7E4ED"/>
<path d="M71.8923 65.964H35.3267V111.173H71.8923V65.964Z" fill="#E7E4ED"/>
<path d="M69.0772 65.964H32.5115V111.173H69.0772V65.964Z" fill="#EEE4EE"/>
<path d="M65.3607 70.5694H36.2403V106.573H65.3607V70.5694Z" fill="#FAFAFA"/>
<path d="M37.4256 70.5694H36.2403V106.573H37.4256V70.5694Z" fill="#E7E4ED"/>
<path d="M55.7273 92.6812C58.4492 89.9593 58.4492 85.5462 55.7273 82.8243C53.0054 80.1024 48.5923 80.1024 45.8704 82.8243C43.1485 85.5462 43.1485 89.9593 45.8704 92.6812C48.5923 95.4031 53.0054 95.4031 55.7273 92.6812Z" fill="#E7E4ED"/>
<path d="M33.098 150.029L32.7029 202.343L74.121 202.652C75.3001 202.627 76.2385 201.658 76.2261 200.472L76.3496 183.767C76.3249 178.044 77.0287 172.34 78.4424 166.79C78.8067 165.407 78.9548 163.975 78.8746 162.548C78.5289 156.085 73.5468 150.794 67.3486 150.306C67.0523 150.276 66.756 150.276 66.472 150.276L33.0919 150.022L33.098 150.029Z" fill="#E7E4ED"/>
<path d="M20.893 166.351C22.1956 171.556 22.8192 176.902 22.7451 182.267L22.6093 199.954C22.5722 201.133 23.4982 202.121 24.6836 202.164L40.7347 202.287C41.9138 202.263 42.8522 201.293 42.8398 200.108L42.9633 183.403C42.9386 177.68 43.6424 171.975 45.0561 166.425C45.4203 165.043 45.5685 163.61 45.4883 162.184C45.1425 155.721 40.1605 150.43 33.9623 149.942C26.6529 149.368 20.5288 155.35 20.467 162.851C20.4547 164.03 20.5967 165.209 20.8868 166.357L20.893 166.351Z" fill="#F5F5F5"/>
<path d="M50.1784 170.812L49.9401 202.561L102.747 202.957L102.985 171.208L50.1784 170.812Z" fill="#ECECEC"/>
<path d="M141.091 142.886L140.826 178.427L130.146 178.346L63.1815 177.84L63.447 142.299C63.484 137.379 67.182 133.348 71.9479 132.78C72.3553 132.73 72.769 132.7 73.1888 132.706L131.491 133.144C136.831 133.187 141.128 137.546 141.085 142.886H141.091Z" fill="#E7E4ED"/>
<path d="M130.405 142.886L130.139 178.346L63.1753 177.84L63.4408 142.299C63.4778 137.379 67.1758 133.348 71.9417 132.78L120.805 133.144C126.145 133.187 130.442 137.546 130.399 142.886H130.405Z" fill="#ECECEC"/>
<path d="M100.019 169.605C100.488 169.617 100.858 170.012 100.84 170.481L100.753 182.094C100.753 182.563 100.365 182.94 99.8953 182.94L50.7913 182.569C49.2171 182.557 47.9515 181.273 47.9638 179.698L48.0194 172.062C48.0317 170.488 49.3158 169.222 50.8901 169.234L99.9941 169.605C99.9941 169.605 100.006 169.605 100.013 169.605H100.019Z" fill="#EEE4EE"/>
<path d="M99.9324 150.263L99.5373 202.577L150.382 202.96C151.561 202.936 152.506 201.966 152.487 200.781L152.611 184.075C152.592 178.353 153.296 172.648 154.704 167.098C155.074 165.715 155.222 164.283 155.136 162.857C154.79 156.393 149.814 151.103 143.616 150.615C143.32 150.584 143.023 150.584 142.733 150.584L99.9262 150.263H99.9324Z" fill="#E7E4ED"/>
<path d="M90.3573 166.87C91.6475 172.074 92.2587 177.42 92.1723 182.785L92.0365 200.472C92.0056 201.651 92.9316 202.639 94.1108 202.682L110.162 202.806C111.341 202.781 112.286 201.812 112.267 200.627L112.391 183.921C112.372 178.198 113.076 172.494 114.483 166.944C114.854 165.561 115.002 164.129 114.915 162.703C114.57 156.239 109.594 150.948 103.396 150.461C96.0863 149.887 89.956 155.869 89.9005 163.37C89.9005 164.555 90.0486 165.734 90.3573 166.876V166.87Z" fill="#F5F5F5"/>
<path d="M134.109 40.2514H33.0486V43.758H134.109V40.2514Z" fill="#E7E4ED"/>
<path d="M126.38 40.2514H33.0486V43.758H126.38V40.2514Z" fill="#EEE4EE"/>
<path d="M33.0486 43.7579L40.7717 51.339H42.8707L40.7717 43.7579H33.0486Z" fill="#ECECEC"/>
<path d="M35.1414 43.7579L42.8707 51.339V43.7579H35.1414Z" fill="#E7E4ED"/>
<path d="M59.2832 39.6475C63.147 38.017 64.9574 33.563 63.3268 29.6992C61.6963 25.8354 57.2423 24.025 53.3785 25.6556C49.5148 27.2861 47.7044 31.7401 49.3349 35.6039C50.9654 39.4676 55.4194 41.278 59.2832 39.6475Z" fill="#ECECEC"/>
<path d="M48.7355 32.658L48.4268 25.0646H63.9223V32.658H48.7355Z" fill="#ECECEC"/>
<path d="M74.2691 8.40228H69.676V40.2514H74.2691V8.40228Z" fill="#EEE4EE"/>
<path d="M79.7141 8.40228H75.1149V40.2514H79.7141V8.40228Z" fill="#EEE4EE"/>
<path d="M85.332 8.40228H80.7328V40.2514H85.332V8.40228Z" fill="#EEE4EE"/>
<path d="M74.2691 35.5842H69.676V37.2943H74.2691V35.5842Z" fill="#E7E4ED"/>
<path d="M79.7141 35.5842H75.1149V37.2943H79.7141V35.5842Z" fill="#E7E4ED"/>
<path d="M85.332 35.5842H80.7328V37.2943H85.332V35.5842Z" fill="#E7E4ED"/>
<path d="M74.2691 11.8409H69.676V13.551H74.2691V11.8409Z" fill="#E7E4ED"/>
<path d="M79.7141 11.8409H75.1149V13.551H79.7141V11.8409Z" fill="#E7E4ED"/>
<path d="M85.332 11.8409H80.7328V13.551H85.332V11.8409Z" fill="#E7E4ED"/>
<path d="M78.3189 17.4033H76.5163V29.8058H78.3189V17.4033Z" fill="#E7E4ED"/>
<path d="M72.8739 17.4033H71.0712V29.8058H72.8739V17.4033Z" fill="#E7E4ED"/>
<path d="M83.9368 17.4033H82.1342V29.8058H83.9368V17.4033Z" fill="#E7E4ED"/>
<path d="M90.7091 8.40228H86.1161V40.2514H90.7091V8.40228Z" fill="#EEE4EE"/>
<path d="M96.1604 8.40228H91.5611V40.2514H96.1604V8.40228Z" fill="#EEE4EE"/>
<path d="M101.778 8.40228H97.179V40.2514H101.778V8.40228Z" fill="#EEE4EE"/>
<path d="M90.7091 35.5842H86.1161V37.2943H90.7091V35.5842Z" fill="#E7E4ED"/>
<path d="M96.1604 35.5842H91.5611V37.2943H96.1604V35.5842Z" fill="#E7E4ED"/>
<path d="M101.778 35.5842H97.179V37.2943H101.778V35.5842Z" fill="#E7E4ED"/>
<path d="M90.7091 11.8409H86.1161V13.551H90.7091V11.8409Z" fill="#E7E4ED"/>
<path d="M96.1604 11.8409H91.5611V13.551H96.1604V11.8409Z" fill="#E7E4ED"/>
<path d="M101.778 11.8409H97.179V13.551H101.778V11.8409Z" fill="#E7E4ED"/>
<path d="M94.7651 17.4033H92.9625V29.8058H94.7651V17.4033Z" fill="#E7E4ED"/>
<path d="M89.3201 17.4033H87.5175V29.8058H89.3201V17.4033Z" fill="#E7E4ED"/>
<path d="M100.383 17.4033H98.5804V29.8058H100.383V17.4033Z" fill="#E7E4ED"/>
<path d="M124.281 43.7579L132.01 51.339H134.103L132.01 43.7579H124.281Z" fill="#ECECEC"/>
<path d="M126.38 43.7579L134.103 51.339V43.7579H126.38Z" fill="#E7E4ED"/>
<path d="M155 230C221.107 230 274.698 226.871 274.698 223.012C274.698 219.152 221.107 216.023 155 216.023C88.8926 216.023 35.302 219.152 35.302 223.012C35.302 226.871 88.8926 230 155 230Z" fill="#E7E4ED"/>
<path d="M174.675 120.741L174.119 121.019C169.798 112.438 160.902 105.795 149.722 102.795C139.307 99.9985 128.51 100.474 118.385 101.4C116.045 101.61 113.662 101.857 111.353 102.097C103.315 102.931 95.0059 103.789 86.7952 103.431C72.1207 102.789 57.9587 98.0724 46.939 90.1517C42.8892 87.244 39.2283 83.8733 36.0366 80.163L36.3762 79.6136C39.5679 83.3424 43.2349 86.7316 47.2971 89.6517C58.2242 97.5044 72.2627 102.178 86.826 102.814C94.9874 103.172 103.272 102.314 111.292 101.48C113.601 101.246 115.983 100.999 118.329 100.783C128.51 99.8503 139.375 99.3811 149.876 102.196C161.229 105.246 170.267 112.006 174.675 120.741Z" fill="#4603A6"/>
<path d="M175.842 114.852L175.286 115.13C170.965 106.549 162.069 99.9059 150.888 96.9056C140.474 94.109 129.676 94.5782 119.552 95.5042C117.212 95.7203 114.829 95.9672 112.52 96.2018C104.482 97.0352 96.1727 97.8995 87.9619 97.5414C73.6147 96.9117 58.6316 90.7568 46.8526 80.6507C44.34 78.4962 42.0249 76.2182 39.9259 73.829L40.2037 73.3784C52.4705 87.3737 70.9478 96.1771 87.9928 96.9241C96.1542 97.2822 104.445 96.424 112.458 95.5906C114.767 95.3498 117.15 95.1029 119.496 94.8868C129.676 93.9608 140.542 93.4855 151.043 96.3067C162.396 99.3565 171.434 106.11 175.842 114.852Z" fill="#4603A6"/>
<path d="M175.842 109.049L175.286 109.327C170.965 100.745 162.069 94.1028 150.888 91.0963C140.474 88.3059 129.676 88.7751 119.552 89.7011C117.064 89.9295 114.527 90.2011 112.076 90.4604C104.18 91.3124 96.0184 92.1828 87.962 91.7383C70.1514 90.7444 54.7732 80.6199 44.1609 66.9456L44.4943 66.3961C55.0078 80.021 70.2872 90.1332 87.9928 91.121C95.9999 91.5655 104.143 90.695 112.008 89.8492C114.465 89.5838 117.002 89.3122 119.496 89.0837C129.676 88.1577 140.542 87.6824 151.043 90.5036C162.396 93.5472 171.434 100.307 175.842 109.049Z" fill="#4603A6"/>
<path d="M177.243 102.993L176.688 103.27C172.366 94.6893 163.47 88.0404 152.29 85.0401C141.875 82.2435 131.072 82.7189 120.953 83.6449C118.465 83.8733 115.928 84.1449 113.477 84.4042C105.581 85.25 97.4197 86.1266 89.3633 85.676C73.2875 84.7808 58.2736 75.0514 47.9083 60.8461L48.2478 60.2844C58.5143 74.4587 73.4233 84.1696 89.3942 85.0648C97.4012 85.5093 105.538 84.6388 113.409 83.7931C115.866 83.5276 118.403 83.256 120.898 83.0275C130.59 82.1447 141.912 81.62 152.444 84.4474C163.797 87.491 172.835 94.251 177.243 102.993Z" fill="#4603A6"/>
<path d="M178.712 95.8932L178.163 96.171C173.835 87.5898 164.939 80.9471 153.759 77.9468C143.344 75.1502 132.547 75.6194 122.429 76.5454C119.935 76.7738 117.397 77.0455 114.946 77.3109C107.05 78.1567 98.889 79.0333 90.8326 78.5827C74.3494 77.6628 61.1257 67.6803 52.205 53.8454L52.5631 53.2713C61.3788 67.0753 74.4975 77.0516 90.8697 77.9653C98.8767 78.4098 107.013 77.5393 114.885 76.6936C117.335 76.4343 119.873 76.1626 122.373 75.9342C132.059 75.0452 143.381 74.5205 153.92 77.348C165.273 80.3977 174.305 87.1577 178.712 95.8932Z" fill="#4603A6"/>
<path d="M141.727 83.2189C141.727 84.361 140.375 85.2871 138.702 85.2871C137.029 85.2871 135.677 84.361 135.677 83.2189C135.677 82.0768 137.029 81.1508 138.702 81.1508C140.375 81.1508 141.727 82.0768 141.727 83.2189Z" fill="#27005E"/>
<path d="M141.616 83.7313L141.017 83.5893L143.801 72.119L144.307 72.4091L141.616 83.7313Z" fill="#27005E"/>
<path d="M148.938 88.5652C148.938 89.7073 147.586 90.6333 145.913 90.6333C144.24 90.6333 142.888 89.7073 142.888 88.5652C142.888 87.4231 144.24 86.4971 145.913 86.4971C147.586 86.4971 148.938 87.4231 148.938 88.5652Z" fill="#27005E"/>
<path d="M148.826 89.0838L148.228 88.9356L151.382 76.1071L151.907 76.3725L148.826 89.0838Z" fill="#27005E"/>
<path d="M150.395 81.1508L142.888 77.0578L143.233 75.5947L150.746 79.6692L150.395 81.1508Z" fill="#27005E"/>
<path d="M151.666 76.2552L143.801 72.119L143.567 74.1871L151.142 78.0147L151.666 76.2552Z" fill="#27005E"/>
<path d="M82.3502 92.6089C82.0107 93.8251 80.3191 94.4115 78.572 93.9238C76.8249 93.4361 75.6828 92.0533 76.0162 90.8432C76.3496 89.6332 78.0473 89.0406 79.7944 89.5283C81.5415 90.016 82.6836 91.3989 82.3502 92.6089Z" fill="#27005E"/>
<path d="M77.6707 77.3603L76.5657 91.3741L75.9483 91.3247L76.7509 81.1323L76.9978 77.99C77.2571 77.8295 77.4855 77.6258 77.6707 77.3603Z" fill="#27005E"/>
<path d="M77.6707 77.3603L77.041 80.8915C76.9484 80.978 76.8558 81.0582 76.7509 81.1323C76.0224 81.7003 75.0902 81.9904 74.1703 82.1324C73.5468 82.2312 72.9109 82.2744 72.2936 82.4226C71.0836 82.7251 69.9538 83.4041 69.213 84.4104C69.46 82.8547 69.7871 81.1632 70.9786 80.126C71.9108 79.3111 73.1887 79.0704 74.3926 78.7802C75.2816 78.5641 76.257 78.4468 76.9978 77.99C77.2571 77.8295 77.4855 77.6258 77.6707 77.3603Z" fill="#27005E"/>
<path d="M122.867 45.8816C121.873 48.4251 120.076 50.592 119.2 53.1787C117.41 58.4694 116.508 62.8958 111.878 66.5629C102.772 73.7982 92.9686 75.1872 83.554 67.6679C80.7883 65.464 78.2634 62.8526 76.6953 59.6856C74.0839 54.4196 74.658 46.6904 80.4611 43.7703C83.9553 42.0047 88.3138 42.6899 91.7586 40.8255C95.1294 39.0043 96.8394 35.1953 99.5125 32.4481C101.902 29.9972 105.328 28.5217 108.835 28.2007C110.063 28.0834 111.304 28.1081 112.508 28.281C114.175 28.5217 115.78 29.0465 117.218 29.8737C122.317 32.8 125.157 40.0292 122.873 45.8816H122.867Z" fill="#27005E"/>
<path d="M126.941 58.0557C126.941 58.0557 140.431 48.6041 142.32 46.5854C144.209 44.5666 147.234 28.0587 147.234 25.1571L145.598 21.6259L147.234 16.7118L151.265 17.4711V21.6321L150.382 24.9102C150.382 24.9102 151.29 40.0538 146.777 49.3202C146.326 50.2401 145.684 51.0488 144.894 51.697C141.566 54.4257 131.436 62.655 127.565 64.7478C122.904 67.2666 126.935 58.0681 126.935 58.0681L126.941 58.0557Z" fill="#C27E68"/>
<path d="M108.563 62.3463C108.563 62.3463 100.006 54.2405 91.8759 45.1223C91.8759 45.1223 87.4557 32.4419 86.8939 24.5645L88.7892 20.3418L87.6471 13.6189L83.2207 14.8474L81.0414 21.0518L82.733 24.5522C82.733 24.5522 83.1404 39.6834 87.4989 50.1722C87.4989 50.1722 97.5 63.4329 106.39 69.4459C106.39 69.4459 111.619 70.1558 108.557 62.3402L108.563 62.3463Z" fill="#C27E68"/>
<path d="M116.064 205.214L113.712 220.116L108.526 218.777L109.865 203.658L116.064 205.214Z" fill="#C27E68"/>
<path d="M66.0336 134.848L58.9526 126.606L61.2924 122.976L70.3366 129.341L66.0336 134.848Z" fill="#C27E68"/>
<path d="M126.522 157.542C125.318 167.926 120.749 195.12 119.57 202.034C119.391 203.071 119.299 203.658 119.299 203.658L107.915 202.269L108.106 200.602L113.471 153.652C113.088 150.362 112.767 145.837 112.508 141.41C112.069 133.953 111.823 126.767 111.804 126.193C111.804 126.18 111.804 126.168 111.804 126.156C111.804 126.156 111.804 126.211 111.804 126.31C111.779 126.724 111.755 127.082 111.736 127.366C111.736 127.434 111.736 127.508 111.724 127.582C111.724 127.619 111.724 127.656 111.724 127.693C111.236 134.953 108.686 165.462 99.8706 164.493C91.2277 163.53 72.8369 143.071 68.003 137.533C67.2437 136.663 66.8177 136.157 66.8177 136.157L71.2626 130.039C71.8738 130.434 72.4973 130.841 73.1208 131.273C83.0293 138.058 94.0367 148.936 94.0367 148.936C94.0367 148.936 95.1479 130.323 95.7035 117.544C96.2591 104.764 104.013 93.9917 104.013 93.9917H127.361C127.361 93.9917 127.929 145.596 126.534 157.542H126.522Z" fill="#27005E"/>
<path d="M106.402 200.392V206.053L119.187 208.245L121.015 202.219L106.402 200.392Z" fill="#4603A6"/>
<path d="M66.7991 138.984L74.4419 129.638L70.5279 126.606L62.916 136.058L66.7991 138.984Z" fill="#4603A6"/>
<path d="M108.384 216.647L114.02 217.733C114.02 217.733 114.36 220.968 118.187 222.246C122.015 223.524 122.601 223.129 122.503 224.407C122.404 225.685 119.039 226.271 116.601 225.092C114.162 223.913 108.279 223.129 106.803 222.543C105.334 221.956 108.384 216.647 108.384 216.647Z" fill="#27005E"/>
<path d="M139.455 60.1424L131.837 65.1121L129.997 66.3097C129.997 66.3097 127.88 88.4294 127.349 93.9917H103.995L101.828 72.8289L101.044 65.1738L95.2714 60.2288L100.945 50.8019L109.514 57.0309L120.515 57.1606L133.559 50.8019L139.449 60.1486L139.455 60.1424Z" fill="#4603A6"/>
<path d="M122.577 47.1904C120.539 49.9191 116.403 50.7834 116.403 50.7834C114.088 50.8328 108.409 50.4685 108.088 40.7453C108.075 40.3934 108.075 40.0477 108.088 39.7143C108.439 30.9418 117.212 29.8614 117.212 29.8614C117.212 29.8614 117.391 29.954 117.7 30.1639C118.57 30.7565 120.472 32.0592 122.219 35.3805C124.577 39.8748 124.614 44.4494 122.577 47.1842V47.1904Z" fill="#C27E68"/>
<path d="M115.829 43.5419C115.829 43.5419 117.471 44.684 119.564 43.9061" stroke="#27005E" stroke-linecap="round" stroke-linejoin="round"/>
<path d="M113.86 37.64C113.86 37.64 114.181 36.2756 116.002 36.2263" stroke="#27005E" stroke-linecap="round" stroke-linejoin="round"/>
<path d="M119.379 34.1519C119.379 34.1519 120.379 33.3309 121.657 33.9235" stroke="#27005E" stroke-linecap="round" stroke-linejoin="round"/>
<path d="M116.372 38.7265C116.564 39.1216 116.508 39.5476 116.243 39.6711C115.983 39.7945 115.613 39.5785 115.422 39.1834C115.23 38.7883 115.286 38.3623 115.551 38.2388C115.811 38.1153 116.181 38.3314 116.366 38.7265H116.372Z" fill="#27005E"/>
<path d="M121.398 36.8374C121.589 37.2325 121.533 37.6585 121.268 37.782C121.009 37.9054 120.638 37.6894 120.447 37.2943C120.256 36.8992 120.311 36.4732 120.577 36.3497C120.836 36.2262 121.206 36.4423 121.398 36.8374Z" fill="#27005E"/>
<path d="M115.557 38.2388L116.391 37.4486C116.391 37.4486 116.595 38.3685 115.557 38.2388Z" fill="#27005E"/>
<path d="M120.496 36.4423L121.33 35.6521C121.33 35.6521 121.533 36.572 120.496 36.4423Z" fill="#27005E"/>
<path d="M119.379 38.5722L120.385 41.5417C120.385 41.5417 121.046 41.5849 121.929 40.7268L119.379 38.5722Z" fill="#AC5342"/>
<path d="M117.089 50.1598C116.965 50.3512 116.329 53.8146 117.403 55.3271C118.478 56.8396 120.521 57.1544 120.521 57.1544C120.521 57.1544 122.75 62.7661 119.379 63.8959C116.014 65.0318 110.532 61.624 109.52 57.0248C109.52 57.0248 111.557 56.3827 110.952 48.672C110.341 40.9551 117.082 50.1598 117.082 50.1598H117.089Z" fill="#C27E68"/>
<path d="M117.7 30.1701C117.829 38.2018 108.483 39.6587 108.094 39.7205C108.446 30.9479 116.409 29.4786 116.409 29.4786C116.409 29.4786 117.397 29.9602 117.7 30.1701Z" fill="#27005E"/>
<path d="M109.643 41.6281C108.902 39.9921 106.908 38.4425 105.742 39.5785C104.124 41.1527 106.205 43.8814 107.711 44.116C108.365 44.2148 109.267 44.2642 109.693 43.6406C110.057 43.1097 109.977 42.3627 109.649 41.6281H109.643Z" fill="#C27E68"/>
<path opacity="0.2" d="M103.612 62.4266L101.834 72.8228L101.056 65.1738L103.612 62.4266Z" fill="#27005E"/>
<path opacity="0.2" d="M131.843 65.1059L130.003 66.3036L129.54 62.4266L131.843 65.1059Z" fill="#27005E"/>
<path d="M127.559 91.868L127.355 93.9917H104.001L103.785 91.868H127.559Z" fill="white" stroke="white" stroke-miterlimit="10"/>
<path d="M107.297 93.9917H106.773L106.606 91.868H107.137L107.297 93.9917Z" fill="#4603A6"/>
<path d="M111.501 93.9917H110.971L110.915 91.868H111.446L111.501 93.9917Z" fill="#4603A6"/>
<path d="M116.385 91.868L116.274 93.9917H115.743L115.854 91.868H116.385Z" fill="#4603A6"/>
<path d="M121.219 91.868L121.027 93.9917H120.502L120.694 91.868H121.219Z" fill="#4603A6"/>
<path d="M125.565 91.868L125.324 93.9917H124.799L125.034 91.868H125.565Z" fill="#4603A6"/>
<path d="M60.0947 128.323L63.0518 123.748C63.0518 123.748 60.5207 119.155 59.6749 119.266C58.8292 119.377 50.4456 127.539 49.7171 129.749C49.1923 131.341 49.9085 131.934 50.8345 131.909C51.7543 131.885 56.3104 127.915 60.1009 128.323H60.0947Z" fill="#27005E"/>
<path d="M112.502 28.281C106.637 29.7194 106.186 36.0719 106.229 38.4055C106.229 38.5413 106.229 38.6525 106.229 38.7574C106.242 39.0784 106.26 39.2636 106.26 39.2636L104.501 39.7267C104.451 39.3871 104.414 39.0599 104.383 38.7327C103.754 32.1394 106.797 29.3305 108.822 28.2007C110.051 28.0834 111.292 28.1081 112.495 28.281H112.502Z" fill="#4603A6"/>
<path d="M107.68 46.1101C107.483 46.1842 107.273 46.2335 107.069 46.2521C107.057 46.2521 107.05 46.2521 107.05 46.2521C105.581 46.3941 104.013 45.2334 103.328 43.3999C102.624 41.5046 103.106 39.5353 104.39 38.7266C104.532 38.634 104.68 38.5599 104.84 38.5043C105.13 38.3932 105.439 38.3438 105.735 38.3438C105.902 38.3438 106.063 38.3623 106.229 38.3994C107.458 38.6278 108.637 39.6896 109.205 41.2083C109.989 43.3135 109.31 45.5051 107.686 46.1101H107.68Z" fill="#4603A6"/>
<path d="M106.223 38.4055C107.452 38.634 108.631 39.6958 109.199 41.2145C109.983 43.3196 109.304 45.5112 107.68 46.1162C107.483 46.1903 107.273 46.2397 107.069 46.2582C107.291 46.1533 109.223 45.1964 108.822 42.0664C108.686 41.0293 107.952 39.4921 106.236 38.7636C106.075 38.6957 105.908 38.634 105.729 38.5784C105.729 38.5784 105.729 38.4981 105.729 38.3562C105.779 36.893 106.334 28.7564 112.495 28.2872C106.631 29.7256 106.18 36.0781 106.223 38.4117V38.4055Z" fill="white"/>
<path opacity="0.2" d="M112.508 141.41C112.069 133.953 111.823 126.767 111.804 126.193C111.804 126.18 111.804 126.168 111.804 126.156C112.032 122.631 112.502 115.593 112.502 115.593C112.502 115.593 114.138 132.471 112.502 141.41H112.508Z" fill="#27005E"/>
<path d="M188.547 50.9686L254.486 50.9871C259.505 50.9871 263.481 55.2345 263.141 60.2473L252.671 216.209C252.362 220.765 248.578 224.308 244.01 224.308L178.626 224.29C173.619 224.29 169.65 220.061 169.971 215.06L179.885 59.0991C180.176 54.5307 183.966 50.9686 188.547 50.9686Z" fill="#4603A6"/>
<path opacity="0.2" d="M188.547 50.9686L254.486 50.9871C259.505 50.9871 263.481 55.2345 263.141 60.2473L252.671 216.209C252.362 220.765 248.578 224.308 244.01 224.308L178.626 224.29C173.619 224.29 169.65 220.061 169.971 215.06L179.885 59.0991C180.176 54.5307 183.966 50.9686 188.547 50.9686Z" fill="black"/>
<path d="M186.917 50.9686L250.998 50.9871C256.548 50.9871 260.943 55.6851 260.573 61.2289L250.226 215.357C249.887 220.394 245.701 224.314 240.645 224.308L177.113 224.29C171.576 224.29 167.187 219.61 167.538 214.085L177.336 59.9572C177.657 54.9011 181.849 50.9686 186.917 50.9686Z" fill="#4603A6"/>
<path opacity="0.2" d="M232.132 60.7412H213.525C212.574 60.7351 211.796 59.9572 211.796 59.0065C211.796 58.0558 212.574 57.2779 213.525 57.2779H232.132C233.082 57.2841 233.86 58.0619 233.86 59.0126C233.86 59.9634 233.082 60.7412 232.132 60.7412Z" fill="black"/>
<path opacity="0.2" d="M204.055 59.0003C204.055 60.3399 202.968 61.4265 201.628 61.4265C200.289 61.4265 199.202 60.3399 199.202 59.0003C199.202 57.6606 200.289 56.5741 201.628 56.5741C202.968 56.5741 204.055 57.6606 204.055 59.0003Z" fill="black"/>
<path opacity="0.2" d="M210.003 217.401C212.188 215.217 212.188 211.675 210.003 209.491C207.819 207.307 204.278 207.307 202.093 209.491C199.909 211.675 199.909 215.217 202.093 217.401C204.278 219.585 207.819 219.585 210.003 217.401Z" fill="black"/>
<path d="M176.323 204.325L242.676 204.343L253.202 66.39L184.818 66.3653L176.323 204.325Z" fill="white"/>
<path opacity="0.2" d="M176.323 204.325H174.496L182.836 66.3653H184.818L176.323 204.325Z" fill="black"/>
<path d="M235.12 143.509H192.998C190.516 143.509 188.485 141.478 188.485 138.997C188.485 136.515 190.516 134.484 192.998 134.484H235.12C237.601 134.484 239.633 136.515 239.633 138.997C239.633 141.478 237.601 143.509 235.12 143.509Z" fill="#4603A6"/>
<path d="M239.731 82.0522H197.61C195.128 82.0522 193.097 80.0211 193.097 77.5393C193.097 75.0576 195.128 73.0265 197.61 73.0265H239.731C242.213 73.0265 244.244 75.0576 244.244 77.5393C244.244 80.0211 242.213 82.0522 239.731 82.0522Z" fill="#4603A6"/>
<path d="M235.749 194.354H185.071C184.887 194.354 184.738 194.504 184.738 194.688V195.638C184.738 195.823 184.887 195.972 185.071 195.972H235.749C235.934 195.972 236.083 195.823 236.083 195.638V194.688C236.083 194.504 235.934 194.354 235.749 194.354Z" fill="#2D002A"/>
<path d="M187.09 197.515C188.392 197.515 189.448 196.459 189.448 195.157C189.448 193.854 188.392 192.799 187.09 192.799C185.787 192.799 184.732 193.854 184.732 195.157C184.732 196.459 185.787 197.515 187.09 197.515Z" fill="#4603A6"/>
<path d="M188.411 195.157C188.411 195.885 187.825 196.472 187.096 196.472C186.368 196.472 185.781 195.885 185.781 195.157C185.781 194.428 186.368 193.842 187.096 193.842C187.825 193.842 188.411 194.428 188.411 195.157Z" fill="white"/>
<path d="M195.375 89.0221L238.126 89.1455C240.447 89.1517 242.287 91.1149 242.139 93.4299L240.281 122.921C240.145 125.044 238.386 126.699 236.256 126.699H193.535C191.208 126.699 189.368 124.736 189.51 122.421L191.331 92.8064C191.461 90.6766 193.233 89.0159 195.369 89.0221H195.375Z" fill="#4603A6"/>
<path opacity="0.2" d="M195.375 89.0221L238.126 89.1455C240.447 89.1517 242.287 91.1149 242.139 93.4299L240.281 122.921C240.145 125.044 238.386 126.699 236.256 126.699H193.535C191.208 126.699 189.368 124.736 189.51 122.421L191.331 92.8064C191.461 90.6766 193.233 89.0159 195.369 89.0221H195.375Z" fill="black"/>
<path d="M216.525 93.6769C209.413 93.2694 203.295 99.1157 202.857 106.74C202.419 114.364 207.827 120.877 214.939 121.285C222.05 121.692 228.168 115.846 228.607 108.222C229.045 100.597 223.637 94.0843 216.525 93.6769ZM215.55 110.629C213.926 110.537 212.698 109.055 212.796 107.314C212.895 105.573 214.29 104.24 215.914 104.338C217.538 104.431 218.766 105.913 218.667 107.654C218.569 109.395 217.173 110.728 215.55 110.629Z" fill="white"/>
<path d="M238.169 162.697H203.135C202.678 162.697 202.308 162.326 202.308 161.869C202.308 161.413 202.678 161.042 203.135 161.042H238.169C238.626 161.042 238.997 161.413 238.997 161.869C238.997 162.326 238.626 162.697 238.169 162.697Z" fill="#4603A6"/>
<path opacity="0.5" d="M238.169 162.697H203.135C202.678 162.697 202.308 162.326 202.308 161.869C202.308 161.413 202.678 161.042 203.135 161.042H238.169C238.626 161.042 238.997 161.413 238.997 161.869C238.997 162.326 238.626 162.697 238.169 162.697Z" fill="white"/>
<path d="M237.071 179.748H201.869C201.412 179.748 201.042 179.377 201.042 178.921C201.042 178.464 201.412 178.093 201.869 178.093H237.071C237.527 178.093 237.898 178.464 237.898 178.921C237.898 179.377 237.527 179.748 237.071 179.748Z" fill="#4603A6"/>
<path opacity="0.5" d="M237.071 179.748H201.869C201.412 179.748 201.042 179.377 201.042 178.921C201.042 178.464 201.412 178.093 201.869 178.093H237.071C237.527 178.093 237.898 178.464 237.898 178.921C237.898 179.377 237.527 179.748 237.071 179.748Z" fill="white"/>
<path d="M193.984 166.753C196.678 165.801 198.089 162.845 197.137 160.151C196.185 157.457 193.229 156.046 190.535 156.998C187.841 157.95 186.43 160.906 187.382 163.6C188.334 166.294 191.29 167.705 193.984 166.753Z" fill="#4603A6"/>
<path d="M195.939 180.228C196.667 177.465 195.018 174.635 192.255 173.906C189.493 173.178 186.663 174.827 185.934 177.59C185.206 180.353 186.855 183.183 189.618 183.911C192.38 184.64 195.211 182.991 195.939 180.228Z" fill="#4603A6"/>
<path d="M190.103 176.161V181.267L193.208 178.717L190.103 176.161Z" fill="white"/>
<path d="M191.325 159.314V164.419L194.424 161.863L191.325 159.314Z" fill="white"/>
</g>
<defs>
<clipPath id="clip0_38_5186">
<rect width="308.675" height="230" fill="white" transform="translate(0.662445 0.00012207)"/>
</clipPath>
</defs>
</svg>
