<svg width="1440" height="761" viewBox="0 0 1440 761" fill="none" xmlns="http://www.w3.org/2000/svg">
<rect width="1440" height="761" fill="#27005E"/>
<g opacity="0.2" clip-path="url(#clip0_2012_47)">
<path d="M1440 0H0V761H1440V0Z" fill="url(#paint0_linear_2012_47)"/>
<g filter="url(#filter0_d_2012_47)">
<path d="M468.467 919.408L606.367 1057.31L1351.62 312.06L1213.72 174.16L468.467 919.408Z" fill="url(#paint1_linear_2012_47)"/>
</g>
<g filter="url(#filter1_d_2012_47)">
<path d="M749.061 302.61L826.948 380.498L1653.44 -445.996L1575.56 -523.884L749.061 302.61Z" fill="url(#paint2_linear_2012_47)"/>
</g>
<g filter="url(#filter2_d_2012_47)">
<path d="M534.912 -218.19L457.024 -140.303L1283.52 686.192L1361.41 608.304L534.912 -218.19Z" fill="url(#paint3_linear_2012_47)"/>
</g>
<g filter="url(#filter3_d_2012_47)">
<path d="M1537.87 1372.14L1798.83 1111.18L972.334 284.689L711.376 545.646L1537.87 1372.14Z" fill="url(#paint4_linear_2012_47)"/>
</g>
<g filter="url(#filter4_d_2012_47)">
<path d="M1906.74 1271.42L2330.41 847.745L1503.92 21.2508L1080.25 444.921L1906.74 1271.42Z" fill="url(#paint5_linear_2012_47)"/>
</g>
<g filter="url(#filter5_d_2012_47)">
<path d="M808.39 662.28C794.6 662.28 783.37 651.05 783.37 637.26C783.37 623.47 794.6 612.24 808.39 612.24C822.18 612.24 833.41 623.47 833.41 637.26C833.41 651.05 822.18 662.28 808.39 662.28ZM808.39 624.72C801.46 624.72 795.83 630.35 795.83 637.28C795.83 644.21 801.46 649.84 808.39 649.84C815.32 649.84 820.95 644.21 820.95 637.28C820.95 630.35 815.32 624.72 808.39 624.72Z" fill="#D904CB"/>
</g>
<g filter="url(#filter6_d_2012_47)">
<path d="M352.33 712.32C338.54 712.32 327.31 701.09 327.31 687.3C327.31 673.51 338.54 662.28 352.33 662.28C366.12 662.28 377.35 673.51 377.35 687.3C377.35 701.09 366.12 712.32 352.33 712.32ZM352.33 674.75C345.4 674.75 339.77 680.38 339.77 687.31C339.77 694.24 345.4 699.87 352.33 699.87C359.26 699.87 364.89 694.24 364.89 687.31C364.89 680.38 359.26 674.75 352.33 674.75Z" fill="#D904CB"/>
</g>
<g filter="url(#filter7_d_2012_47)">
<path d="M908.1 271.61C894.31 271.61 883.08 260.38 883.08 246.59C883.08 232.8 894.31 221.57 908.1 221.57C921.89 221.57 933.12 232.8 933.12 246.59C933.12 260.38 921.89 271.61 908.1 271.61ZM908.1 234.04C901.17 234.04 895.54 239.67 895.54 246.6C895.54 253.53 901.17 259.16 908.1 259.16C915.03 259.16 920.66 253.53 920.66 246.6C920.66 239.67 915.03 234.04 908.1 234.04Z" fill="#D904CB"/>
</g>
<g filter="url(#filter8_d_2012_47)">
<path d="M845.98 612.25C839.08 612.25 833.46 606.63 833.46 599.73C833.46 592.83 839.08 587.21 845.98 587.21C852.88 587.21 858.5 592.83 858.5 599.73C858.5 606.63 852.88 612.25 845.98 612.25ZM845.98 593.45C842.51 593.45 839.7 596.27 839.7 599.73C839.7 603.19 842.52 606.01 845.98 606.01C849.44 606.01 852.26 603.19 852.26 599.73C852.26 596.27 849.44 593.45 845.98 593.45Z" fill="#D904CB"/>
</g>
<g filter="url(#filter9_d_2012_47)">
<path d="M658.26 358.3C651.36 358.3 645.74 352.68 645.74 345.78C645.74 338.88 651.36 333.26 658.26 333.26C665.16 333.26 670.78 338.88 670.78 345.78C670.78 352.68 665.16 358.3 658.26 358.3ZM658.26 339.51C654.79 339.51 651.98 342.33 651.98 345.79C651.98 349.25 654.8 352.07 658.26 352.07C661.72 352.07 664.54 349.25 664.54 345.79C664.54 342.33 661.72 339.51 658.26 339.51Z" fill="#D904CB"/>
</g>
<g filter="url(#filter10_d_2012_47)">
<path d="M80.4199 183.96C94.2099 183.96 105.44 195.19 105.44 208.98C105.44 222.77 94.2099 234 80.4199 234C66.6299 234 55.3999 222.77 55.3999 208.98C55.3999 195.19 66.6299 183.96 80.4199 183.96ZM80.4199 221.53C87.3499 221.53 92.9799 215.9 92.9799 208.97C92.9799 202.04 87.3499 196.41 80.4199 196.41C73.4899 196.41 67.8599 202.04 67.8599 208.97C67.8599 215.9 73.4899 221.53 80.4199 221.53Z" fill="#D904CB"/>
</g>
<g filter="url(#filter11_d_2012_47)">
<path d="M42.8301 234C49.7301 234 55.3501 239.62 55.3501 246.52C55.3501 253.42 49.7301 259.04 42.8301 259.04C35.9301 259.04 30.3101 253.42 30.3101 246.52C30.3101 239.62 35.9301 234 42.8301 234ZM42.8301 252.79C46.3001 252.79 49.1101 249.97 49.1101 246.51C49.1101 243.05 46.2901 240.23 42.8301 240.23C39.3701 240.23 36.5501 243.05 36.5501 246.51C36.5501 249.97 39.3701 252.79 42.8301 252.79Z" fill="#D904CB"/>
</g>
<g filter="url(#filter12_d_2012_47)">
<path d="M1361.15 142.53C1354.25 142.53 1348.63 136.91 1348.63 130.01C1348.63 123.11 1354.25 117.49 1361.15 117.49C1368.05 117.49 1373.67 123.11 1373.67 130.01C1373.67 136.91 1368.05 142.53 1361.15 142.53ZM1361.15 123.74C1357.68 123.74 1354.87 126.56 1354.87 130.02C1354.87 133.48 1357.69 136.3 1361.15 136.3C1364.61 136.3 1367.43 133.48 1367.43 130.02C1367.43 126.56 1364.61 123.74 1361.15 123.74Z" fill="#D904CB"/>
</g>
<g filter="url(#filter13_d_2012_47)">
<path d="M1400.38 612.25C1393.48 612.25 1387.86 606.63 1387.86 599.73C1387.86 592.83 1393.48 587.21 1400.38 587.21C1407.28 587.21 1412.9 592.83 1412.9 599.73C1412.9 606.63 1407.28 612.25 1400.38 612.25ZM1400.38 593.46C1396.91 593.46 1394.1 596.28 1394.1 599.74C1394.1 603.2 1396.92 606.02 1400.38 606.02C1403.84 606.02 1406.66 603.2 1406.66 599.74C1406.66 596.28 1403.84 593.46 1400.38 593.46Z" fill="#D904CB"/>
</g>
</g>
<g style="mix-blend-mode:color">
<rect width="1440" height="761" fill="#27005E"/>
</g>
<defs>
<filter id="filter0_d_2012_47" x="431.467" y="151.16" width="943.148" height="943.148" filterUnits="userSpaceOnUse" color-interpolation-filters="sRGB">
<feFlood flood-opacity="0" result="BackgroundImageFix"/>
<feColorMatrix in="SourceAlpha" type="matrix" values="0 0 0 0 0 0 0 0 0 0 0 0 0 0 0 0 0 0 127 0" result="hardAlpha"/>
<feOffset dx="-7" dy="7"/>
<feGaussianBlur stdDeviation="15"/>
<feColorMatrix type="matrix" values="0 0 0 0 0.176471 0 0 0 0 0 0 0 0 0 0.164706 0 0 0 0.75 0"/>
<feBlend mode="normal" in2="BackgroundImageFix" result="effect1_dropShadow_2012_47"/>
<feBlend mode="normal" in="SourceGraphic" in2="effect1_dropShadow_2012_47" result="shape"/>
</filter>
<filter id="filter1_d_2012_47" x="712.061" y="-546.884" width="964.382" height="964.382" filterUnits="userSpaceOnUse" color-interpolation-filters="sRGB">
<feFlood flood-opacity="0" result="BackgroundImageFix"/>
<feColorMatrix in="SourceAlpha" type="matrix" values="0 0 0 0 0 0 0 0 0 0 0 0 0 0 0 0 0 0 127 0" result="hardAlpha"/>
<feOffset dx="-7" dy="7"/>
<feGaussianBlur stdDeviation="15"/>
<feColorMatrix type="matrix" values="0 0 0 0 0.176471 0 0 0 0 0 0 0 0 0 0.164706 0 0 0 0.75 0"/>
<feBlend mode="normal" in2="BackgroundImageFix" result="effect1_dropShadow_2012_47"/>
<feBlend mode="normal" in="SourceGraphic" in2="effect1_dropShadow_2012_47" result="shape"/>
</filter>
<filter id="filter2_d_2012_47" x="420.024" y="-241.19" width="964.382" height="964.382" filterUnits="userSpaceOnUse" color-interpolation-filters="sRGB">
<feFlood flood-opacity="0" result="BackgroundImageFix"/>
<feColorMatrix in="SourceAlpha" type="matrix" values="0 0 0 0 0 0 0 0 0 0 0 0 0 0 0 0 0 0 127 0" result="hardAlpha"/>
<feOffset dx="-7" dy="7"/>
<feGaussianBlur stdDeviation="15"/>
<feColorMatrix type="matrix" values="0 0 0 0 0.176471 0 0 0 0 0 0 0 0 0 0.164706 0 0 0 0.75 0"/>
<feBlend mode="normal" in2="BackgroundImageFix" result="effect1_dropShadow_2012_47"/>
<feBlend mode="normal" in="SourceGraphic" in2="effect1_dropShadow_2012_47" result="shape"/>
</filter>
<filter id="filter3_d_2012_47" x="674.376" y="261.689" width="1147.45" height="1147.45" filterUnits="userSpaceOnUse" color-interpolation-filters="sRGB">
<feFlood flood-opacity="0" result="BackgroundImageFix"/>
<feColorMatrix in="SourceAlpha" type="matrix" values="0 0 0 0 0 0 0 0 0 0 0 0 0 0 0 0 0 0 127 0" result="hardAlpha"/>
<feOffset dx="-7" dy="7"/>
<feGaussianBlur stdDeviation="15"/>
<feColorMatrix type="matrix" values="0 0 0 0 0.176471 0 0 0 0 0 0 0 0 0 0.164706 0 0 0 0.75 0"/>
<feBlend mode="normal" in2="BackgroundImageFix" result="effect1_dropShadow_2012_47"/>
<feBlend mode="normal" in="SourceGraphic" in2="effect1_dropShadow_2012_47" result="shape"/>
</filter>
<filter id="filter4_d_2012_47" x="1043.25" y="-1.74915" width="1310.16" height="1310.16" filterUnits="userSpaceOnUse" color-interpolation-filters="sRGB">
<feFlood flood-opacity="0" result="BackgroundImageFix"/>
<feColorMatrix in="SourceAlpha" type="matrix" values="0 0 0 0 0 0 0 0 0 0 0 0 0 0 0 0 0 0 127 0" result="hardAlpha"/>
<feOffset dx="-7" dy="7"/>
<feGaussianBlur stdDeviation="15"/>
<feColorMatrix type="matrix" values="0 0 0 0 0.176471 0 0 0 0 0 0 0 0 0 0.164706 0 0 0 0.75 0"/>
<feBlend mode="normal" in2="BackgroundImageFix" result="effect1_dropShadow_2012_47"/>
<feBlend mode="normal" in="SourceGraphic" in2="effect1_dropShadow_2012_47" result="shape"/>
</filter>
<filter id="filter5_d_2012_47" x="746.37" y="589.24" width="110.04" height="110.04" filterUnits="userSpaceOnUse" color-interpolation-filters="sRGB">
<feFlood flood-opacity="0" result="BackgroundImageFix"/>
<feColorMatrix in="SourceAlpha" type="matrix" values="0 0 0 0 0 0 0 0 0 0 0 0 0 0 0 0 0 0 127 0" result="hardAlpha"/>
<feOffset dx="-7" dy="7"/>
<feGaussianBlur stdDeviation="15"/>
<feColorMatrix type="matrix" values="0 0 0 0 0.176471 0 0 0 0 0 0 0 0 0 0.164706 0 0 0 0.75 0"/>
<feBlend mode="normal" in2="BackgroundImageFix" result="effect1_dropShadow_2012_47"/>
<feBlend mode="normal" in="SourceGraphic" in2="effect1_dropShadow_2012_47" result="shape"/>
</filter>
<filter id="filter6_d_2012_47" x="290.31" y="639.28" width="110.04" height="110.04" filterUnits="userSpaceOnUse" color-interpolation-filters="sRGB">
<feFlood flood-opacity="0" result="BackgroundImageFix"/>
<feColorMatrix in="SourceAlpha" type="matrix" values="0 0 0 0 0 0 0 0 0 0 0 0 0 0 0 0 0 0 127 0" result="hardAlpha"/>
<feOffset dx="-7" dy="7"/>
<feGaussianBlur stdDeviation="15"/>
<feColorMatrix type="matrix" values="0 0 0 0 0.176471 0 0 0 0 0 0 0 0 0 0.164706 0 0 0 0.75 0"/>
<feBlend mode="normal" in2="BackgroundImageFix" result="effect1_dropShadow_2012_47"/>
<feBlend mode="normal" in="SourceGraphic" in2="effect1_dropShadow_2012_47" result="shape"/>
</filter>
<filter id="filter7_d_2012_47" x="846.08" y="198.57" width="110.04" height="110.04" filterUnits="userSpaceOnUse" color-interpolation-filters="sRGB">
<feFlood flood-opacity="0" result="BackgroundImageFix"/>
<feColorMatrix in="SourceAlpha" type="matrix" values="0 0 0 0 0 0 0 0 0 0 0 0 0 0 0 0 0 0 127 0" result="hardAlpha"/>
<feOffset dx="-7" dy="7"/>
<feGaussianBlur stdDeviation="15"/>
<feColorMatrix type="matrix" values="0 0 0 0 0.176471 0 0 0 0 0 0 0 0 0 0.164706 0 0 0 0.75 0"/>
<feBlend mode="normal" in2="BackgroundImageFix" result="effect1_dropShadow_2012_47"/>
<feBlend mode="normal" in="SourceGraphic" in2="effect1_dropShadow_2012_47" result="shape"/>
</filter>
<filter id="filter8_d_2012_47" x="796.46" y="564.21" width="85.04" height="85.04" filterUnits="userSpaceOnUse" color-interpolation-filters="sRGB">
<feFlood flood-opacity="0" result="BackgroundImageFix"/>
<feColorMatrix in="SourceAlpha" type="matrix" values="0 0 0 0 0 0 0 0 0 0 0 0 0 0 0 0 0 0 127 0" result="hardAlpha"/>
<feOffset dx="-7" dy="7"/>
<feGaussianBlur stdDeviation="15"/>
<feColorMatrix type="matrix" values="0 0 0 0 0.176471 0 0 0 0 0 0 0 0 0 0.164706 0 0 0 0.75 0"/>
<feBlend mode="normal" in2="BackgroundImageFix" result="effect1_dropShadow_2012_47"/>
<feBlend mode="normal" in="SourceGraphic" in2="effect1_dropShadow_2012_47" result="shape"/>
</filter>
<filter id="filter9_d_2012_47" x="608.74" y="310.26" width="85.04" height="85.04" filterUnits="userSpaceOnUse" color-interpolation-filters="sRGB">
<feFlood flood-opacity="0" result="BackgroundImageFix"/>
<feColorMatrix in="SourceAlpha" type="matrix" values="0 0 0 0 0 0 0 0 0 0 0 0 0 0 0 0 0 0 127 0" result="hardAlpha"/>
<feOffset dx="-7" dy="7"/>
<feGaussianBlur stdDeviation="15"/>
<feColorMatrix type="matrix" values="0 0 0 0 0.176471 0 0 0 0 0 0 0 0 0 0.164706 0 0 0 0.75 0"/>
<feBlend mode="normal" in2="BackgroundImageFix" result="effect1_dropShadow_2012_47"/>
<feBlend mode="normal" in="SourceGraphic" in2="effect1_dropShadow_2012_47" result="shape"/>
</filter>
<filter id="filter10_d_2012_47" x="18.3999" y="160.96" width="110.04" height="110.04" filterUnits="userSpaceOnUse" color-interpolation-filters="sRGB">
<feFlood flood-opacity="0" result="BackgroundImageFix"/>
<feColorMatrix in="SourceAlpha" type="matrix" values="0 0 0 0 0 0 0 0 0 0 0 0 0 0 0 0 0 0 127 0" result="hardAlpha"/>
<feOffset dx="-7" dy="7"/>
<feGaussianBlur stdDeviation="15"/>
<feColorMatrix type="matrix" values="0 0 0 0 0.176471 0 0 0 0 0 0 0 0 0 0.164706 0 0 0 0.75 0"/>
<feBlend mode="normal" in2="BackgroundImageFix" result="effect1_dropShadow_2012_47"/>
<feBlend mode="normal" in="SourceGraphic" in2="effect1_dropShadow_2012_47" result="shape"/>
</filter>
<filter id="filter11_d_2012_47" x="-6.68994" y="211" width="85.04" height="85.04" filterUnits="userSpaceOnUse" color-interpolation-filters="sRGB">
<feFlood flood-opacity="0" result="BackgroundImageFix"/>
<feColorMatrix in="SourceAlpha" type="matrix" values="0 0 0 0 0 0 0 0 0 0 0 0 0 0 0 0 0 0 127 0" result="hardAlpha"/>
<feOffset dx="-7" dy="7"/>
<feGaussianBlur stdDeviation="15"/>
<feColorMatrix type="matrix" values="0 0 0 0 0.176471 0 0 0 0 0 0 0 0 0 0.164706 0 0 0 0.75 0"/>
<feBlend mode="normal" in2="BackgroundImageFix" result="effect1_dropShadow_2012_47"/>
<feBlend mode="normal" in="SourceGraphic" in2="effect1_dropShadow_2012_47" result="shape"/>
</filter>
<filter id="filter12_d_2012_47" x="1311.63" y="94.49" width="85.04" height="85.04" filterUnits="userSpaceOnUse" color-interpolation-filters="sRGB">
<feFlood flood-opacity="0" result="BackgroundImageFix"/>
<feColorMatrix in="SourceAlpha" type="matrix" values="0 0 0 0 0 0 0 0 0 0 0 0 0 0 0 0 0 0 127 0" result="hardAlpha"/>
<feOffset dx="-7" dy="7"/>
<feGaussianBlur stdDeviation="15"/>
<feColorMatrix type="matrix" values="0 0 0 0 0.176471 0 0 0 0 0 0 0 0 0 0.164706 0 0 0 0.75 0"/>
<feBlend mode="normal" in2="BackgroundImageFix" result="effect1_dropShadow_2012_47"/>
<feBlend mode="normal" in="SourceGraphic" in2="effect1_dropShadow_2012_47" result="shape"/>
</filter>
<filter id="filter13_d_2012_47" x="1350.86" y="564.21" width="85.04" height="85.04" filterUnits="userSpaceOnUse" color-interpolation-filters="sRGB">
<feFlood flood-opacity="0" result="BackgroundImageFix"/>
<feColorMatrix in="SourceAlpha" type="matrix" values="0 0 0 0 0 0 0 0 0 0 0 0 0 0 0 0 0 0 127 0" result="hardAlpha"/>
<feOffset dx="-7" dy="7"/>
<feGaussianBlur stdDeviation="15"/>
<feColorMatrix type="matrix" values="0 0 0 0 0.176471 0 0 0 0 0 0 0 0 0 0.164706 0 0 0 0.75 0"/>
<feBlend mode="normal" in2="BackgroundImageFix" result="effect1_dropShadow_2012_47"/>
<feBlend mode="normal" in="SourceGraphic" in2="effect1_dropShadow_2012_47" result="shape"/>
</filter>
<linearGradient id="paint0_linear_2012_47" x1="0" y1="380.5" x2="1440" y2="380.5" gradientUnits="userSpaceOnUse">
<stop stop-color="#920489"/>
<stop offset="0.21" stop-color="#8E0385"/>
<stop offset="0.41" stop-color="#82037A"/>
<stop offset="0.6" stop-color="#6F0268"/>
<stop offset="0.79" stop-color="#55014F"/>
<stop offset="0.97" stop-color="#33002F"/>
<stop offset="1" stop-color="#2D002A"/>
</linearGradient>
<linearGradient id="paint1_linear_2012_47" x1="573.755" y1="643.19" x2="1424.05" y2="590.438" gradientUnits="userSpaceOnUse">
<stop stop-color="#2D002A"/>
<stop offset="0.06" stop-color="#360032"/>
<stop offset="0.34" stop-color="#5D0157"/>
<stop offset="0.61" stop-color="#7A0372"/>
<stop offset="0.83" stop-color="#8B0383"/>
<stop offset="1" stop-color="#920489"/>
</linearGradient>
<linearGradient id="paint2_linear_2012_47" x1="749.069" y1="-71.6928" x2="1653.45" y2="-71.6923" gradientUnits="userSpaceOnUse">
<stop stop-color="#920489"/>
<stop offset="0.17" stop-color="#94078B"/>
<stop offset="0.34" stop-color="#9B1393"/>
<stop offset="0.5" stop-color="#A7269F"/>
<stop offset="0.65" stop-color="#B940B1"/>
<stop offset="0.81" stop-color="#CF63C8"/>
<stop offset="0.96" stop-color="#E98CE3"/>
<stop offset="1" stop-color="#F299EC"/>
</linearGradient>
<linearGradient id="paint3_linear_2012_47" x1="457.022" y1="234.001" x2="1361.4" y2="234.001" gradientUnits="userSpaceOnUse">
<stop stop-color="#2D002A"/>
<stop offset="0.03" stop-color="#33002F"/>
<stop offset="0.21" stop-color="#55014F"/>
<stop offset="0.4" stop-color="#6F0268"/>
<stop offset="0.59" stop-color="#82037A"/>
<stop offset="0.79" stop-color="#8E0385"/>
<stop offset="1" stop-color="#920489"/>
</linearGradient>
<linearGradient id="paint4_linear_2012_47" x1="711.369" y1="828.42" x2="1798.82" y2="828.42" gradientUnits="userSpaceOnUse">
<stop stop-color="#D904CB"/>
<stop offset="0.07" stop-color="#CE04C1"/>
<stop offset="0.29" stop-color="#B404A8"/>
<stop offset="0.52" stop-color="#A10496"/>
<stop offset="0.75" stop-color="#95048C"/>
<stop offset="1" stop-color="#920489"/>
</linearGradient>
<linearGradient id="paint5_linear_2012_47" x1="1080.25" y1="646.325" x2="2330.42" y2="646.325" gradientUnits="userSpaceOnUse">
<stop stop-color="#920489"/>
<stop offset="0.17" stop-color="#94078B"/>
<stop offset="0.34" stop-color="#9B1393"/>
<stop offset="0.5" stop-color="#A7269F"/>
<stop offset="0.65" stop-color="#B940B1"/>
<stop offset="0.81" stop-color="#CF63C8"/>
<stop offset="0.96" stop-color="#E98CE3"/>
<stop offset="1" stop-color="#F299EC"/>
</linearGradient>
<clipPath id="clip0_2012_47">
<rect width="1440" height="761" fill="white"/>
</clipPath>
</defs>
</svg>
