<svg width="416" height="294" viewBox="0 0 416 294" fill="none" xmlns="http://www.w3.org/2000/svg">
<g clip-path="url(#clip0_85_4117)">
<path d="M208 262C290.898 262 358.099 258.66 358.099 254.54C358.099 250.419 290.898 247.079 208 247.079C125.102 247.079 57.9006 250.419 57.9006 254.54C57.9006 258.66 125.102 262 208 262Z" fill="#E7E4ED"/>
<path d="M169.225 102.695V97.1051C169.225 96.5598 168.783 96.1126 168.232 96.1126H166.793C166.373 96.1126 165.996 95.829 165.904 95.4145C165.407 93.244 164.557 91.2043 163.411 89.3719C163.182 89.0065 163.226 88.5321 163.531 88.2267L164.546 87.2123C164.933 86.8251 164.933 86.1979 164.546 85.8107L160.592 81.8569C160.205 81.4697 159.577 81.4697 159.19 81.8569L158.181 82.8658C157.876 83.1712 157.402 83.2148 157.036 82.9858C155.198 81.8405 153.164 80.9897 150.994 80.4935C150.585 80.4008 150.295 80.0245 150.295 79.6045V78.1702C150.295 77.6249 149.854 77.1777 149.303 77.1777H143.713C143.168 77.1777 142.72 77.6194 142.72 78.1702V79.6045C142.72 80.0245 142.437 80.4008 142.022 80.4935C139.852 80.9897 137.812 81.8405 135.974 82.9858C135.609 83.2148 135.134 83.1712 134.829 82.8658L133.82 81.8569C133.433 81.4697 132.806 81.4697 132.419 81.8569L128.465 85.8107C128.078 86.1979 128.078 86.8251 128.465 87.2123L129.474 88.2212C129.779 88.5266 129.823 89.0011 129.594 89.3665C128.448 91.2043 127.603 93.2385 127.101 95.409C127.009 95.8181 126.632 96.1071 126.212 96.1071H124.773C124.227 96.1071 123.78 96.5489 123.78 97.0997V102.69C123.78 103.235 124.222 103.682 124.773 103.682H126.212C126.632 103.682 127.009 103.966 127.101 104.38C127.598 106.551 128.448 108.59 129.594 110.423C129.823 110.788 129.779 111.263 129.474 111.568L128.459 112.582C128.072 112.97 128.072 113.597 128.459 113.984L132.413 117.938C132.8 118.325 133.428 118.325 133.815 117.938L134.829 116.923C135.134 116.618 135.609 116.574 135.974 116.804C137.807 117.949 139.846 118.794 142.017 119.29C142.426 119.383 142.715 119.759 142.715 120.179V121.619C142.715 122.164 143.157 122.612 143.708 122.612H149.297C149.843 122.612 150.29 122.17 150.29 121.619V120.179C150.29 119.759 150.579 119.383 150.988 119.29C153.159 118.794 155.193 117.943 157.031 116.804C157.396 116.574 157.871 116.618 158.176 116.923L159.19 117.938C159.577 118.325 160.205 118.325 160.592 117.938L164.546 113.984C164.933 113.597 164.933 112.97 164.546 112.582L163.531 111.568C163.226 111.263 163.182 110.788 163.411 110.423C164.557 108.59 165.402 106.551 165.904 104.38C165.996 103.971 166.373 103.682 166.793 103.682H168.232C168.778 103.682 169.225 103.24 169.225 102.69V102.695ZM146.516 115.664C137.812 115.664 130.766 108.601 130.766 99.8974C130.766 91.1934 137.812 84.1474 146.516 84.1474C155.22 84.1474 162.266 91.2098 162.266 99.8974C162.266 108.585 155.22 115.664 146.516 115.664Z" stroke="#DEE2F9" stroke-width="0.79" stroke-miterlimit="10"/>
<path d="M194.933 121.619V117.812C194.933 117.442 194.633 117.136 194.257 117.136H193.275C192.986 117.136 192.735 116.94 192.67 116.662C192.332 115.184 191.754 113.793 190.974 112.544C190.816 112.293 190.848 111.972 191.056 111.764L191.743 111.077C192.005 110.815 192.005 110.385 191.743 110.123L189.049 107.429C188.787 107.167 188.356 107.167 188.094 107.429L187.407 108.116C187.2 108.323 186.878 108.356 186.627 108.198C185.379 107.418 183.988 106.84 182.51 106.502C182.232 106.436 182.035 106.185 182.035 105.896V104.92C182.035 104.549 181.736 104.244 181.359 104.244H177.547C177.176 104.244 176.871 104.544 176.871 104.92V105.896C176.871 106.185 176.675 106.436 176.396 106.502C174.919 106.84 173.528 107.418 172.279 108.198C172.028 108.356 171.706 108.323 171.499 108.116L170.812 107.429C170.55 107.167 170.119 107.167 169.858 107.429L167.164 110.123C166.902 110.385 166.902 110.815 167.164 111.077L167.851 111.764C168.058 111.972 168.091 112.293 167.932 112.544C167.153 113.793 166.575 115.184 166.236 116.662C166.171 116.94 165.92 117.136 165.631 117.136H164.649C164.279 117.136 163.973 117.436 163.973 117.812V121.619C163.973 121.99 164.273 122.295 164.649 122.295H165.631C165.92 122.295 166.171 122.492 166.236 122.77C166.575 124.248 167.153 125.638 167.932 126.887C168.091 127.138 168.058 127.46 167.851 127.667L167.164 128.354C166.902 128.616 166.902 129.047 167.164 129.309L169.858 132.003C170.119 132.264 170.55 132.264 170.812 132.003L171.505 131.31C171.712 131.103 172.034 131.07 172.284 131.228C173.533 132.008 174.924 132.586 176.402 132.924C176.68 132.99 176.876 133.241 176.876 133.53V134.511C176.876 134.882 177.176 135.188 177.553 135.188H181.365C181.736 135.188 182.041 134.888 182.041 134.511V133.53C182.041 133.241 182.237 132.99 182.515 132.924C183.993 132.586 185.384 132.008 186.633 131.228C186.884 131.07 187.205 131.103 187.413 131.31L188.105 132.003C188.367 132.264 188.798 132.264 189.06 132.003L191.754 129.309C192.016 129.047 192.016 128.616 191.754 128.354L191.061 127.662C190.854 127.454 190.821 127.133 190.979 126.882C191.759 125.633 192.337 124.242 192.675 122.764C192.741 122.486 192.992 122.29 193.281 122.29H194.262C194.633 122.29 194.939 121.99 194.939 121.614L194.933 121.619ZM179.456 129.849C173.861 129.849 169.329 125.306 169.329 119.71C169.329 114.115 173.861 109.583 179.456 109.583C185.051 109.583 189.583 114.126 189.583 119.71C189.583 125.295 185.051 129.849 179.456 129.849Z" fill="#E1CFFA"/>
<path d="M123.202 222.483C124.223 222.483 125.051 221.656 125.051 220.635C125.051 219.613 124.223 218.786 123.202 218.786C122.181 218.786 121.353 219.613 121.353 220.635C121.353 221.656 122.181 222.483 123.202 222.483Z" fill="#E1CFFA"/>
<path d="M328.813 172.027C329.835 172.027 330.662 171.199 330.662 170.178C330.662 169.157 329.835 168.329 328.813 168.329C327.792 168.329 326.965 169.157 326.965 170.178C326.965 171.199 327.792 172.027 328.813 172.027Z" fill="#E1CFFA"/>
<path d="M325.121 106.087C326.143 106.087 326.97 105.259 326.97 104.238C326.97 103.217 326.143 102.39 325.121 102.39C324.1 102.39 323.273 103.217 323.273 104.238C323.273 105.259 324.1 106.087 325.121 106.087Z" fill="#E1CFFA"/>
<path d="M300.504 82.9858C301.142 82.9858 301.66 82.4682 301.66 81.8296C301.66 81.1911 301.142 80.6735 300.504 80.6735C299.865 80.6735 299.348 81.1911 299.348 81.8296C299.348 82.4682 299.865 82.9858 300.504 82.9858Z" fill="#E1CFFA"/>
<path d="M130.428 66.3959C130.428 67.034 129.91 67.5521 129.272 67.5521C128.634 67.5521 128.116 67.034 128.116 66.3959C128.116 65.7578 128.634 65.2397 129.272 65.2397C129.91 65.2397 130.428 65.7578 130.428 66.3959Z" fill="#E1CFFA"/>
<path d="M156.065 137.729C156.065 138.367 155.547 138.885 154.909 138.885C154.271 138.885 153.753 138.367 153.753 137.729C153.753 137.091 154.271 136.573 154.909 136.573C155.547 136.573 156.065 137.091 156.065 137.729Z" fill="#E1CFFA"/>
<path d="M113.571 222.483C113.571 223.121 113.053 223.639 112.415 223.639C111.777 223.639 111.259 223.121 111.259 222.483C111.259 221.845 111.777 221.327 112.415 221.327C113.053 221.327 113.571 221.845 113.571 222.483Z" fill="#E1CFFA"/>
<path d="M301.197 223.574C302.218 223.574 303.045 222.746 303.045 221.725C303.045 220.704 302.218 219.877 301.197 219.877C300.175 219.877 299.348 220.704 299.348 221.725C299.348 222.746 300.175 223.574 301.197 223.574Z" fill="#E1CFFA"/>
<path d="M340.462 223.574C341.483 223.574 342.311 222.746 342.311 221.725C342.311 220.704 341.483 219.877 340.462 219.877C339.441 219.877 338.614 220.704 338.614 221.725C338.614 222.746 339.441 223.574 340.462 223.574Z" fill="#E1CFFA"/>
<path d="M162.266 63.211C163.287 63.211 164.115 62.3833 164.115 61.3623C164.115 60.3412 163.287 59.5135 162.266 59.5135C161.245 59.5135 160.417 60.3412 160.417 61.3623C160.417 62.3833 161.245 63.211 162.266 63.211Z" fill="#E1CFFA"/>
<path d="M289.679 145.38C289.679 146.744 288.571 147.851 287.208 147.851C285.845 147.851 284.738 146.744 284.738 145.38C284.738 144.017 285.845 142.91 287.208 142.91C288.571 142.91 289.679 144.017 289.679 145.38Z" fill="#E1CFFA"/>
<path d="M107.436 114.824C107.436 116.187 106.329 117.294 104.965 117.294C103.602 117.294 102.495 116.187 102.495 114.824C102.495 113.46 103.602 112.353 104.965 112.353C106.329 112.353 107.436 113.46 107.436 114.824Z" fill="#E1CFFA"/>
<path d="M100.488 74.1128H97.3738C97.175 74.1128 97.0139 74.2739 97.0139 74.4727V77.5867C97.0139 77.7855 97.175 77.9467 97.3738 77.9467H100.488C100.687 77.9467 100.848 77.7855 100.848 77.5867V74.4727C100.848 74.2739 100.687 74.1128 100.488 74.1128Z" fill="white"/>
<path d="M105.614 74.1128H102.5C102.301 74.1128 102.14 74.2739 102.14 74.4727V77.5867C102.14 77.7855 102.301 77.9467 102.5 77.9467H105.614C105.813 77.9467 105.974 77.7855 105.974 77.5867V74.4727C105.974 74.2739 105.813 74.1128 105.614 74.1128Z" fill="white"/>
<path d="M110.741 74.1128H107.627C107.428 74.1128 107.267 74.2739 107.267 74.4727V77.5867C107.267 77.7855 107.428 77.9467 107.627 77.9467H110.741C110.939 77.9467 111.1 77.7855 111.1 77.5867V74.4727C111.1 74.2739 110.939 74.1128 110.741 74.1128Z" fill="white"/>
<path d="M304.48 208.669H301.366C301.167 208.669 301.006 208.831 301.006 209.029V212.143C301.006 212.342 301.167 212.503 301.366 212.503H304.48C304.678 212.503 304.839 212.342 304.839 212.143V209.029C304.839 208.831 304.678 208.669 304.48 208.669Z" fill="#E1CFFA"/>
<path d="M309.606 208.669H306.492C306.293 208.669 306.132 208.831 306.132 209.029V212.143C306.132 212.342 306.293 212.503 306.492 212.503H309.606C309.805 212.503 309.966 212.342 309.966 212.143V209.029C309.966 208.831 309.805 208.669 309.606 208.669Z" fill="#E1CFFA"/>
<path d="M314.732 208.669H311.618C311.42 208.669 311.258 208.831 311.258 209.029V212.143C311.258 212.342 311.42 212.503 311.618 212.503H314.732C314.931 212.503 315.092 212.342 315.092 212.143V209.029C315.092 208.831 314.931 208.669 314.732 208.669Z" fill="#E1CFFA"/>
<path d="M124.544 206.57H121.43C121.231 206.57 121.07 206.731 121.07 206.93V210.044C121.07 210.242 121.231 210.404 121.43 210.404H124.544C124.742 210.404 124.904 210.242 124.904 210.044V206.93C124.904 206.731 124.742 206.57 124.544 206.57Z" fill="#E1CFFA"/>
<path d="M129.67 206.57H126.556C126.357 206.57 126.196 206.731 126.196 206.93V210.044C126.196 210.242 126.357 210.404 126.556 210.404H129.67C129.869 210.404 130.03 210.242 130.03 210.044V206.93C130.03 206.731 129.869 206.57 129.67 206.57Z" fill="#E1CFFA"/>
<path d="M134.796 206.57H131.682C131.484 206.57 131.322 206.731 131.322 206.93V210.044C131.322 210.242 131.484 210.404 131.682 210.404H134.796C134.995 210.404 135.156 210.242 135.156 210.044V206.93C135.156 206.731 134.995 206.57 134.796 206.57Z" fill="#E1CFFA"/>
<path d="M263.447 55.8051H189.66C183.229 55.8051 178.016 61.018 178.016 67.4485V231.689C178.016 238.12 183.229 243.332 189.66 243.332H263.447C269.877 243.332 275.09 238.12 275.09 231.689V67.4485C275.09 61.018 269.877 55.8051 263.447 55.8051Z" fill="#C09FEF"/>
<path d="M263.07 57.4466H190.03C184.398 57.4466 179.832 62.0125 179.832 67.6448V230.467C179.832 236.1 184.398 240.666 190.03 240.666H263.07C268.703 240.666 273.269 236.1 273.269 230.467V67.6448C273.269 62.0125 268.703 57.4466 263.07 57.4466Z" fill="white"/>
<path d="M269.178 67.3285V229.966C269.178 233.778 266.086 236.87 262.274 236.87H190.827C187.015 236.87 183.922 233.778 183.922 229.966V67.3285C183.922 63.5164 187.015 60.4243 190.827 60.4243H202.743C203.403 60.4243 204.008 60.7951 204.302 61.3895L205.568 63.9146C206.146 65.0816 207.335 65.8124 208.627 65.8124H244.468C245.761 65.8124 246.95 65.0816 247.528 63.9146L248.793 61.3895C249.087 60.8006 249.693 60.4243 250.353 60.4243H262.269C266.081 60.4243 269.173 63.5164 269.173 67.3285H269.178Z" fill="#E1CFFA"/>
<path d="M241.594 62.8511H212.728C212.057 62.8511 211.512 62.3058 211.512 61.635C211.512 60.9642 212.057 60.4188 212.728 60.4188H241.594C242.265 60.4188 242.81 60.9642 242.81 61.635C242.81 62.3058 242.265 62.8511 241.594 62.8511Z" fill="#E1CFFA"/>
<path d="M257.84 199.404H193.602C191.078 199.404 189.032 201.45 189.032 203.974V226.655C189.032 229.179 191.078 231.225 193.602 231.225H257.84C260.364 231.225 262.41 229.179 262.41 226.655V203.974C262.41 201.45 260.364 199.404 257.84 199.404Z" stroke="#27005E" stroke-linecap="round" stroke-linejoin="round"/>
<path d="M254.585 130.792H222.714C220.895 130.792 219.42 132.267 219.42 134.086V149.841C219.42 151.661 220.895 153.135 222.714 153.135H254.585C256.404 153.135 257.879 151.661 257.879 149.841V134.086C257.879 132.267 256.404 130.792 254.585 130.792Z" stroke="#27005E" stroke-linecap="round" stroke-linejoin="round"/>
<path d="M261.445 158.496H195.631C193.463 158.496 191.705 160.254 191.705 162.423V190.182C191.705 192.35 193.463 194.108 195.631 194.108H261.445C263.614 194.108 265.372 192.35 265.372 190.182V162.423C265.372 160.254 263.614 158.496 261.445 158.496Z" fill="#27005E"/>
<path d="M262.411 159.532V187.308C262.411 189.473 260.654 191.223 258.489 191.223H192.953C190.788 191.223 189.032 189.473 189.032 187.308V159.532C189.032 157.367 190.788 155.611 192.953 155.611H258.489C260.654 155.611 262.411 157.367 262.411 159.532Z" fill="#C09FEF"/>
<path d="M214.375 163.721H195.07C193.606 163.721 192.419 164.907 192.419 166.371V185.677C192.419 187.141 193.606 188.327 195.07 188.327H214.375C215.839 188.327 217.026 187.141 217.026 185.677V166.371C217.026 164.907 215.839 163.721 214.375 163.721Z" fill="white"/>
<path d="M237.264 166.835H220.26C219.796 166.835 219.42 166.458 219.42 165.995C219.42 165.531 219.796 165.155 220.26 165.155H237.264C237.728 165.155 238.104 165.531 238.104 165.995C238.104 166.458 237.728 166.835 237.264 166.835Z" fill="#E7E4ED"/>
<path d="M229.514 170.178H220.26C219.796 170.178 219.42 169.802 219.42 169.338C219.42 168.874 219.796 168.498 220.26 168.498H229.514C229.978 168.498 230.354 168.874 230.354 169.338C230.354 169.802 229.978 170.178 229.514 170.178Z" fill="#E7E4ED"/>
<path d="M257.966 170.178H232.923C232.459 170.178 232.083 169.802 232.083 169.338C232.083 168.874 232.459 168.498 232.923 168.498H257.966C258.429 168.498 258.806 168.874 258.806 169.338C258.806 169.802 258.429 170.178 257.966 170.178Z" fill="#E7E4ED"/>
<path d="M234.575 173.521H220.254C219.791 173.521 219.414 173.145 219.414 172.681C219.414 172.217 219.791 171.841 220.254 171.841H234.575C235.039 171.841 235.415 172.217 235.415 172.681C235.415 173.145 235.039 173.521 234.575 173.521Z" fill="#E7E4ED"/>
<path d="M246.731 173.521H237.727C237.264 173.521 236.893 173.145 236.893 172.681C236.893 172.217 237.269 171.841 237.727 171.841H246.731C247.195 171.841 247.566 172.217 247.566 172.681C247.566 173.145 247.189 173.521 246.731 173.521Z" fill="#E7E4ED"/>
<path d="M257.966 173.521H249.676C249.213 173.521 248.836 173.145 248.836 172.681C248.836 172.217 249.213 171.841 249.676 171.841H257.966C258.429 171.841 258.806 172.217 258.806 172.681C258.806 173.145 258.429 173.521 257.966 173.521Z" fill="#E7E4ED"/>
<path d="M257.966 176.864H220.26C219.796 176.864 219.42 176.488 219.42 176.024C219.42 175.561 219.796 175.184 220.26 175.184H257.966C258.429 175.184 258.806 175.561 258.806 176.024C258.806 176.488 258.429 176.864 257.966 176.864Z" fill="#E7E4ED"/>
<path d="M241.011 180.207H220.26C219.796 180.207 219.42 179.831 219.42 179.367C219.42 178.904 219.796 178.527 220.26 178.527H241.011C241.474 178.527 241.85 178.904 241.85 179.367C241.85 179.831 241.474 180.207 241.011 180.207Z" fill="#E7E4ED"/>
<path d="M257.966 180.207H244.359C243.895 180.207 243.519 179.831 243.519 179.367C243.519 178.904 243.895 178.527 244.359 178.527H257.966C258.429 178.527 258.806 178.904 258.806 179.367C258.806 179.831 258.429 180.207 257.966 180.207Z" fill="#E7E4ED"/>
<path d="M232.448 183.55H220.254C219.791 183.55 219.414 183.174 219.414 182.71C219.414 182.247 219.791 181.87 220.254 181.87H232.448C232.912 181.87 233.288 182.247 233.288 182.71C233.288 183.174 232.912 183.55 232.448 183.55Z" fill="#E7E4ED"/>
<path d="M247.942 183.55H235.748C235.284 183.55 234.908 183.174 234.908 182.71C234.908 182.247 235.284 181.87 235.748 181.87H247.942C248.406 181.87 248.782 182.247 248.782 182.71C248.782 183.174 248.406 183.55 247.942 183.55Z" fill="#E7E4ED"/>
<path d="M257.966 183.55H250.892C250.429 183.55 250.053 183.174 250.053 182.71C250.053 182.247 250.429 181.87 250.892 181.87H257.966C258.429 181.87 258.806 182.247 258.806 182.71C258.806 183.174 258.429 183.55 257.966 183.55Z" fill="#E7E4ED"/>
<path d="M237.264 186.893H220.26C219.796 186.893 219.42 186.517 219.42 186.053C219.42 185.59 219.796 185.213 220.26 185.213H237.264C237.728 185.213 238.104 185.59 238.104 186.053C238.104 186.517 237.728 186.893 237.264 186.893Z" fill="#E7E4ED"/>
<path d="M257.966 166.835H240.961C240.498 166.835 240.122 166.458 240.122 165.995C240.122 165.531 240.498 165.155 240.961 165.155H257.966C258.429 165.155 258.806 165.531 258.806 165.995C258.806 166.458 258.429 166.835 257.966 166.835Z" fill="#E7E4ED"/>
<path d="M262.411 159.532V160.7H189.032V159.532C189.032 157.367 190.788 155.611 192.953 155.611H258.489C260.654 155.611 262.411 157.367 262.411 159.532Z" fill="#4603A6"/>
<path d="M248.58 158.251C248.58 158.753 248.171 159.162 247.669 159.162C247.168 159.162 246.759 158.753 246.759 158.251C246.759 157.749 247.168 157.34 247.669 157.34C248.171 157.34 248.58 157.749 248.58 158.251Z" fill="#E1CFFA"/>
<path d="M253.227 158.251C253.227 158.753 252.818 159.162 252.316 159.162C251.814 159.162 251.405 158.753 251.405 158.251C251.405 157.749 251.814 157.34 252.316 157.34C252.818 157.34 253.227 157.749 253.227 158.251Z" fill="#E1CFFA"/>
<path d="M257.879 158.251C257.879 158.753 257.469 159.162 256.968 159.162C256.466 159.162 256.057 158.753 256.057 158.251C256.057 157.749 256.466 157.34 256.968 157.34C257.469 157.34 257.879 157.749 257.879 158.251Z" fill="#E1CFFA"/>
<path d="M211.747 130.814H197.224C195.07 130.814 193.324 132.56 193.324 134.713V149.236C193.324 151.39 195.07 153.135 197.224 153.135H211.747C213.9 153.135 215.646 151.39 215.646 149.236V134.713C215.646 132.56 213.9 130.814 211.747 130.814Z" stroke="#C09FEF" stroke-width="0.9" stroke-miterlimit="10"/>
<path d="M201.003 138.743L197.791 141.961L201.03 145.206" stroke="#C09FEF" stroke-width="1.67" stroke-linecap="round" stroke-linejoin="round"/>
<path d="M207.967 138.743L211.185 141.961L207.945 145.206" stroke="#C09FEF" stroke-width="1.67" stroke-linecap="round" stroke-linejoin="round"/>
<path d="M205.993 138.743L202.983 145.206" stroke="#C09FEF" stroke-width="1.67" stroke-linecap="round" stroke-linejoin="round"/>
<path d="M257.949 71.8659H193.493C191.03 71.8659 189.032 73.8632 189.032 76.3269V121.739C189.032 124.203 191.03 126.2 193.493 126.2H257.949C260.413 126.2 262.41 124.203 262.41 121.739V76.3269C262.41 73.8632 260.413 71.8659 257.949 71.8659Z" fill="#E7E4ED"/>
<path d="M247.549 96.8489C253.423 96.8489 258.184 92.0876 258.184 86.2143C258.184 80.3411 253.423 75.5798 247.549 75.5798C241.676 75.5798 236.915 80.3411 236.915 86.2143C236.915 92.0876 241.676 96.8489 247.549 96.8489Z" fill="#F0F3FD"/>
<path d="M232.165 126.2H193.493C191.034 126.2 189.032 124.204 189.032 121.739V114.589L205.955 85.2763C206.838 83.7438 209.053 83.7438 209.936 85.2763L222.714 107.407L232.203 123.844C232.661 124.629 232.59 125.524 232.165 126.2Z" fill="white"/>
<path d="M248.842 126.2H211.861L222.714 107.407L228.56 97.2797C229.356 95.8999 231.347 95.8999 232.143 97.2797L248.842 126.2Z" fill="#F0F3FD"/>
<path d="M184.593 185.317L188.312 181.505C188.312 181.505 188.443 179.804 188.645 179.449C188.847 179.089 189.37 177.764 189.632 177.617C189.894 177.469 190.412 177.617 190.412 177.617C190.412 177.617 190.93 177.442 191.159 177.442C191.388 177.442 191.825 177.655 191.825 177.655C191.825 177.655 192.381 177.617 192.61 177.617C192.839 177.617 192.915 177.682 192.915 177.682C192.915 177.682 193.81 176.651 194.246 176.302C194.682 175.953 195.342 175.315 195.539 175.321C195.724 175.321 195.806 175.648 195.669 175.997C195.533 176.346 194.944 176.902 194.944 176.902L193.253 179.471C193.253 179.471 193.542 179.356 193.695 179.258C193.848 179.16 194.884 178.195 194.944 178.157C195.004 178.118 195.468 177.807 195.74 178.118C196.013 178.429 193.968 180.872 193.641 181.205C193.313 181.538 191.437 182.487 191.437 182.487C191.437 182.487 189.452 186.053 189.261 186.282C189.071 186.511 184.593 185.317 184.593 185.317Z" fill="#D89492"/>
<path d="M188.094 167.729C188.094 167.729 186.017 179.754 184.064 180.033C184.064 180.033 176.266 180.349 174.526 170.881C173.021 162.674 179.063 160.923 181.894 161.55C184.719 162.178 188.705 162.587 188.1 167.724L188.094 167.729Z" fill="#D89492"/>
<path d="M181.196 178.113C181.196 178.113 180.105 179.585 179.718 183.152C179.718 183.152 176.467 183.616 173.473 182.072C173.473 182.072 175.088 177.039 175.284 171.574" fill="#D89492"/>
<path d="M178.998 159.543C174.733 160.487 175.077 163.143 175.077 163.143C173.081 163.639 172.65 164.463 172.666 168.144C172.683 171.83 174.013 176.253 174.749 176.613C175.486 176.973 179.652 176.989 180.001 176.864C180.35 176.739 181.806 173.357 181.468 172.763C181.13 172.168 181.485 169.829 182.455 169.742C183.426 169.654 183.235 171.16 183.235 171.16L184.032 170.985L184.648 169.474C190.281 169.807 191.737 163.388 191.737 163.388C190.385 162.505 183.257 158.605 178.992 159.543H178.998Z" fill="#4603A6"/>
<path d="M131.671 240.955L135.98 241.576L134.551 246.61L129.883 245.432C129.883 245.432 127.985 242.858 130.853 240.955C130.99 240.862 131.442 240.906 131.671 240.955Z" fill="#D89490"/>
<path d="M163.848 228.03L157.494 208.795C157.494 208.795 155.569 208.108 154.582 208.795C154.582 208.795 147.961 212.356 148.67 222.5C149.205 230.151 150.819 238.446 151.473 241.773L134.524 241.146C134.524 241.146 132.435 243.632 133.787 246.866C133.787 246.866 155.089 252.593 158.089 253.122C160.526 253.553 163.199 253.885 164.486 252.778C166.754 250.831 163.853 228.024 163.853 228.024L163.848 228.03Z" fill="#27005E"/>
<path d="M151.746 240.955L156.055 241.576L154.626 246.61L149.957 245.432C149.957 245.432 148.06 242.858 150.928 240.955C151.064 240.862 151.517 240.906 151.746 240.955Z" fill="#D89490"/>
<path d="M150.181 243.594C150.083 244.587 150.95 245.476 150.792 245.727C150.634 245.972 147.738 250.837 147.738 250.837C147.738 250.837 149.925 251.791 149.57 253.165H144.029C144.029 253.165 142.584 251.862 142.617 249.991C142.617 249.991 142.993 247.837 143.98 245.934C144.967 244.031 147.214 239.728 147.214 239.728C147.214 239.728 147.896 239.449 149.063 239.76C150.426 240.126 151.741 240.96 151.741 240.96C151.741 240.96 150.415 241.151 150.176 243.6L150.181 243.594Z" fill="#C09FEF"/>
<path d="M194.557 248.742C193.188 243.638 180.323 221.851 175.966 215.966C167.022 212.083 157.494 208.789 157.494 208.789C153.551 209.733 151.61 217.673 153.846 222.969C155.378 226.601 165.107 235.741 171.068 241.124L154.533 241.102C154.533 241.102 152.586 244.014 154.353 246.779C154.353 246.779 181.85 253.029 184.26 253.383C186.671 253.738 192.086 253.383 192.086 253.383C192.086 253.383 195.708 253.034 194.557 248.737V248.742Z" fill="#4603A6"/>
<path d="M130.112 243.594C130.014 244.587 130.881 245.476 130.723 245.727C130.564 245.972 127.669 250.837 127.669 250.837C127.669 250.837 129.855 251.791 129.501 253.165H123.96C123.96 253.165 122.515 251.862 122.548 249.991C122.548 249.991 122.924 247.837 123.911 245.934C124.898 244.031 127.145 239.728 127.145 239.728C127.145 239.728 127.827 239.449 128.994 239.76C130.357 240.126 131.671 240.96 131.671 240.96C131.671 240.96 130.346 241.151 130.106 243.6L130.112 243.594Z" fill="#C09FEF"/>
<path d="M215.259 181.614L206.391 197.211L200.038 190.88L194.781 198.706L196.308 199.436L195.757 199.895C195.757 199.895 208.011 205.861 209.483 204.546C210.95 203.232 217.795 183.386 217.795 183.386L215.259 181.614Z" fill="#D89492"/>
<path d="M201.172 191.872C201.172 191.872 199.498 198.935 196.149 202.283L187.582 199.022C187.582 199.022 183.606 205.708 179.718 210.834C178.223 212.814 177.727 215.601 175.971 215.966C175.862 215.928 175.758 215.895 175.649 215.868C170.888 214.439 163.864 215.955 158.067 213.801C151.664 211.418 152.908 210.076 152.908 210.076C152.908 210.076 156.791 203.079 158.994 195.668C159.976 192.39 160.657 189.353 161.11 186.98C161.923 182.781 165.287 179.498 169.53 178.925C169.579 178.92 169.623 178.909 169.672 178.904C174.526 178.287 187.233 179.787 189.703 180.845C192.174 181.903 201.172 191.872 201.172 191.872Z" fill="#C09FEF"/>
<path d="M187.582 199.022C187.582 199.022 183.606 205.708 179.718 210.834C178.223 212.814 177.727 215.601 175.971 215.966C176.74 215.694 178.016 211.647 178.469 210.736C178.927 209.831 179.652 208.92 181.223 205.741C182.788 202.556 184.915 197.888 184.915 197.888L187.582 199.022Z" fill="#4603A6"/>
<path d="M171.068 241.124C173.942 240.693 176.996 241.08 179.614 242.351C176.8 241.854 173.904 241.495 171.068 241.124Z" fill="#2D002A"/>
<path d="M221.885 175.871C221.743 175.855 220.832 176.586 220.396 176.946L220.903 175.975C220.903 175.975 221.574 175.332 221.814 174.977C222.054 174.623 221.929 174.268 221.738 174.246C221.607 174.235 220.805 174.868 220.342 175.244L220.445 175.048C220.445 175.048 221.116 174.404 221.356 174.05C221.596 173.695 221.47 173.341 221.28 173.325C221.089 173.308 219.551 174.595 219.551 174.595L218.804 175.599L219.371 174.503C219.371 174.503 219.671 174.137 219.867 173.745C220.063 173.346 219.922 173.226 219.813 173.096C219.704 172.965 218.667 173.734 218.4 174.045C218.138 174.355 217.298 175.604 217.233 175.779L216.366 177.568C216.311 177.049 216.224 176.161 216.164 175.593C216.077 174.781 215.335 174.584 215.313 174.983C215.286 175.381 214.877 177.328 214.97 178.386C215.062 179.444 215.242 180.136 215.308 180.731C215.373 181.325 214.757 182.514 214.757 182.514C214.757 182.514 217.228 184.046 217.631 183.588C218.04 183.13 218.907 182.11 219.327 181.423C219.905 180.48 220.292 179.242 220.292 179.242L221.061 177.595C221.061 177.595 221.732 176.951 221.972 176.597C222.212 176.242 222.087 175.888 221.896 175.871H221.885Z" fill="#D89492"/>
<path d="M313.816 165.161H284.879C283.025 165.161 281.52 166.666 281.52 168.52V175.359C281.52 177.071 282.801 178.484 284.454 178.691C284.694 178.724 284.879 178.925 284.879 179.171V182.912C284.879 183.13 285.157 183.217 285.283 183.043L288.233 178.92C288.326 178.789 288.473 178.718 288.631 178.718H313.822C315.676 178.718 317.181 177.213 317.181 175.359V168.52C317.181 166.666 315.676 165.161 313.822 165.161H313.816Z" stroke="white" stroke-width="0.9" stroke-miterlimit="10"/>
<path d="M289.319 171.928C289.319 172.539 288.822 173.036 288.211 173.036C287.601 173.036 287.104 172.539 287.104 171.928C287.104 171.318 287.601 170.821 288.211 170.821C288.822 170.821 289.319 171.318 289.319 171.928Z" stroke="white" stroke-width="0.9" stroke-miterlimit="10"/>
<path d="M294.887 171.928C294.887 172.539 294.39 173.036 293.78 173.036C293.169 173.036 292.672 172.539 292.672 171.928C292.672 171.318 293.169 170.821 293.78 170.821C294.39 170.821 294.887 171.318 294.887 171.928Z" stroke="white" stroke-width="0.9" stroke-miterlimit="10"/>
<path d="M300.455 171.928C300.455 172.539 299.958 173.036 299.348 173.036C298.737 173.036 298.241 172.539 298.241 171.928C298.241 171.318 298.737 170.821 299.348 170.821C299.958 170.821 300.455 171.318 300.455 171.928Z" stroke="white" stroke-width="0.9" stroke-miterlimit="10"/>
<path d="M306.023 171.928C306.023 172.539 305.527 173.036 304.916 173.036C304.305 173.036 303.809 172.539 303.809 171.928C303.809 171.318 304.305 170.821 304.916 170.821C305.527 170.821 306.023 171.318 306.023 171.928Z" stroke="white" stroke-width="0.9" stroke-miterlimit="10"/>
<path d="M311.591 171.928C311.591 172.539 311.095 173.036 310.484 173.036C309.873 173.036 309.377 172.539 309.377 171.928C309.377 171.318 309.873 170.821 310.484 170.821C311.095 170.821 311.591 171.318 311.591 171.928Z" stroke="white" stroke-width="0.9" stroke-miterlimit="10"/>
<path d="M134.873 156.179H163.809C165.664 156.179 167.169 157.684 167.169 159.538V166.377C167.169 168.089 165.887 169.502 164.235 169.709C163.995 169.742 163.809 169.943 163.809 170.189V173.93C163.809 174.148 163.531 174.235 163.406 174.061L160.456 169.938C160.363 169.807 160.216 169.736 160.057 169.736H134.867C133.013 169.736 131.508 168.231 131.508 166.377V159.538C131.508 157.684 133.013 156.179 134.867 156.179H134.873Z" stroke="white" stroke-width="0.9" stroke-miterlimit="10"/>
<path d="M159.37 162.941C159.37 163.552 159.867 164.048 160.477 164.048C161.088 164.048 161.584 163.552 161.584 162.941C161.584 162.33 161.088 161.834 160.477 161.834C159.867 161.834 159.37 162.33 159.37 162.941Z" stroke="white" stroke-width="0.9" stroke-miterlimit="10"/>
<path d="M153.802 162.941C153.802 163.552 154.298 164.048 154.909 164.048C155.52 164.048 156.016 163.552 156.016 162.941C156.016 162.33 155.52 161.834 154.909 161.834C154.298 161.834 153.802 162.33 153.802 162.941Z" stroke="white" stroke-width="0.9" stroke-miterlimit="10"/>
<path d="M148.234 162.941C148.234 163.552 148.73 164.048 149.341 164.048C149.952 164.048 150.448 163.552 150.448 162.941C150.448 162.33 149.952 161.834 149.341 161.834C148.73 161.834 148.234 162.33 148.234 162.941Z" stroke="white" stroke-width="0.9" stroke-miterlimit="10"/>
<path d="M142.666 162.941C142.666 163.552 143.162 164.048 143.773 164.048C144.384 164.048 144.88 163.552 144.88 162.941C144.88 162.33 144.384 161.834 143.773 161.834C143.162 161.834 142.666 162.33 142.666 162.941Z" stroke="white" stroke-width="0.9" stroke-miterlimit="10"/>
<path d="M137.098 162.941C137.098 163.552 137.594 164.048 138.205 164.048C138.816 164.048 139.312 163.552 139.312 162.941C139.312 162.33 138.816 161.834 138.205 161.834C137.594 161.834 137.098 162.33 137.098 162.941Z" stroke="white" stroke-width="0.9" stroke-miterlimit="10"/>
<path d="M309.644 110.434H256.897C253.99 110.434 251.629 108.078 251.629 105.166C251.629 102.259 253.985 99.8974 256.897 99.8974H309.644C312.551 99.8974 314.912 102.253 314.912 105.166C314.912 108.072 312.556 110.434 309.644 110.434Z" fill="white" stroke="#4603A6" stroke-width="0.9" stroke-miterlimit="10"/>
<path d="M308.87 104.8C308.87 106.349 307.615 107.603 306.067 107.603C304.518 107.603 303.263 106.349 303.263 104.8C303.263 103.251 304.518 101.997 306.067 101.997C307.615 101.997 308.87 103.251 308.87 104.8Z" stroke="#4603A6" stroke-width="1.67" stroke-miterlimit="10"/>
<path d="M308.046 106.785L309.595 108.329" stroke="#4603A6" stroke-width="1.67" stroke-miterlimit="10" stroke-linecap="round"/>
<path d="M229.743 232.011H216.475C214.153 232.011 212.27 233.893 212.27 236.215V249.484C212.27 251.806 214.153 253.689 216.475 253.689H229.743C232.066 253.689 233.948 251.806 233.948 249.484V236.215C233.948 233.893 232.066 232.011 229.743 232.011Z" fill="#27005E"/>
<path d="M225.795 232.011H212.526C210.204 232.011 208.322 233.893 208.322 236.215V249.484C208.322 251.806 210.204 253.689 212.526 253.689H225.795C228.117 253.689 230 251.806 230 249.484V236.215C230 233.893 228.117 232.011 225.795 232.011Z" fill="#4603A6"/>
<path d="M216.595 238.757L222.817 242.351C223.199 242.574 223.199 243.125 222.817 243.349L216.595 246.943C216.213 247.166 215.733 246.888 215.733 246.446V239.264C215.733 238.822 216.213 238.544 216.595 238.768V238.757Z" fill="white"/>
<path d="M289.068 194.315H271.725C268.689 194.315 266.228 196.777 266.228 199.813V217.155C266.228 220.191 268.689 222.652 271.725 222.652H289.068C292.104 222.652 294.565 220.191 294.565 217.155V199.813C294.565 196.777 292.104 194.315 289.068 194.315Z" fill="#27005E"/>
<path d="M283.903 194.315H266.561C263.525 194.315 261.063 196.777 261.063 199.813V217.155C261.063 220.191 263.525 222.652 266.561 222.652H283.903C286.939 222.652 289.4 220.191 289.4 217.155V199.813C289.4 196.777 286.939 194.315 283.903 194.315Z" fill="#4603A6"/>
<path d="M278.64 201.269C278.64 203.15 277.119 204.672 275.237 204.672C273.356 204.672 271.834 203.145 271.834 201.269C271.834 199.393 273.356 197.866 275.237 197.866C277.119 197.866 278.64 199.393 278.64 201.269Z" fill="white"/>
<path d="M282.333 212.798V217.826C282.333 218.279 281.967 218.649 281.509 218.649H268.96C268.508 218.649 268.137 218.279 268.137 217.826V212.798C268.137 208.877 271.316 205.703 275.232 205.703C279.153 205.703 282.327 208.882 282.327 212.798H282.333Z" fill="white"/>
<path d="M289.793 116.498H278.651C278.188 116.498 277.817 116.122 277.817 115.658C277.817 115.195 278.193 114.818 278.651 114.818H289.793C290.257 114.818 290.633 115.195 290.633 115.658C290.633 116.122 290.257 116.498 289.793 116.498Z" fill="#F0F3FD"/>
<path d="M300.94 116.498H292.88C292.416 116.498 292.04 116.122 292.04 115.658C292.04 115.195 292.416 114.818 292.88 114.818H300.94C301.404 114.818 301.78 115.195 301.78 115.658C301.78 116.122 301.404 116.498 300.94 116.498Z" fill="#F0F3FD"/>
<path d="M283.385 120.179H278.651C278.188 120.179 277.817 119.803 277.817 119.339C277.817 118.876 278.193 118.5 278.651 118.5H283.385C283.849 118.5 284.225 118.876 284.225 119.339C284.225 119.803 283.849 120.179 283.385 120.179Z" fill="#F0F3FD"/>
<path d="M300.94 120.179H286.199C285.736 120.179 285.359 119.803 285.359 119.339C285.359 118.876 285.736 118.5 286.199 118.5H300.94C301.404 118.5 301.78 118.876 301.78 119.339C301.78 119.803 301.404 120.179 300.94 120.179Z" fill="#F0F3FD"/>
<path d="M293.338 123.86H278.651C278.188 123.86 277.817 123.484 277.817 123.021C277.817 122.557 278.193 122.181 278.651 122.181H293.338C293.801 122.181 294.178 122.557 294.178 123.021C294.178 123.484 293.801 123.86 293.338 123.86Z" fill="#F0F3FD"/>
<path d="M300.94 123.86H296.206C295.743 123.86 295.367 123.484 295.367 123.021C295.367 122.557 295.743 122.181 296.206 122.181H300.94C301.404 122.181 301.78 122.557 301.78 123.021C301.78 123.484 301.404 123.86 300.94 123.86Z" fill="#F0F3FD"/>
<path d="M122.744 132.843H103.28C100.398 132.843 98.0609 135.179 98.0609 138.062V157.526C98.0609 160.408 100.398 162.745 103.28 162.745H122.744C125.626 162.745 127.963 160.408 127.963 157.526V138.062C127.963 135.179 125.626 132.843 122.744 132.843Z" fill="#27005E"/>
<path d="M121.462 130.252H99.9261C97.6159 130.252 95.7432 132.125 95.7432 134.435V155.971C95.7432 158.281 97.6159 160.154 99.9261 160.154H121.462C123.772 160.154 125.645 158.281 125.645 155.971V134.435C125.645 132.125 123.772 130.252 121.462 130.252Z" fill="#C09FEF" stroke="#DEE2F9" stroke-miterlimit="10"/>
<path d="M115.872 141.781H115.714V140.069C115.714 137.254 113.429 134.969 110.615 134.969C107.801 134.969 105.516 137.254 105.516 140.069V141.781H105.483C104.693 141.781 104.054 142.419 104.054 143.21V149.667C104.054 150.458 104.693 151.096 105.483 151.096H115.872C116.663 151.096 117.301 150.458 117.301 149.667V143.21C117.301 142.419 116.663 141.781 115.872 141.781ZM106.814 140.069C106.814 137.969 108.521 136.262 110.621 136.262C112.72 136.262 114.427 137.969 114.427 140.069V141.781H106.814V140.069Z" fill="white"/>
<path d="M112.36 145.097C112.36 144.066 111.422 143.253 110.353 143.466C109.726 143.592 109.203 144.11 109.072 144.737C108.914 145.495 109.274 146.187 109.857 146.531C109.977 146.602 110.042 146.733 110.01 146.864L109.721 147.933C109.546 148.565 110.026 149.192 110.686 149.192C111.346 149.192 111.82 148.565 111.651 147.933L111.368 146.875C111.33 146.738 111.4 146.607 111.52 146.536C112.022 146.253 112.366 145.713 112.366 145.091L112.36 145.097Z" fill="#7F8AF4"/>
<path d="M116.69 153.359H104.671C104.333 153.359 104.06 153.086 104.06 152.748C104.06 152.41 104.333 152.137 104.671 152.137H116.69C117.029 152.137 117.301 152.41 117.301 152.748C117.301 153.086 117.029 153.359 116.69 153.359Z" fill="white"/>
<path d="M116.69 155.437H104.671C104.333 155.437 104.06 155.164 104.06 154.826C104.06 154.488 104.333 154.215 104.671 154.215H116.69C117.029 154.215 117.301 154.488 117.301 154.826C117.301 155.164 117.029 155.437 116.69 155.437Z" fill="white"/>
<path d="M145.769 141.977H138.952C138.538 141.977 138.205 141.645 138.205 141.23C138.205 140.816 138.538 140.483 138.952 140.483H145.769C146.184 140.483 146.516 140.816 146.516 141.23C146.516 141.645 146.184 141.977 145.769 141.977Z" fill="#F0F3FD"/>
<path d="M152.635 145.293H138.952C138.538 145.293 138.205 144.96 138.205 144.546C138.205 144.131 138.538 143.799 138.952 143.799H152.635C153.05 143.799 153.382 144.131 153.382 144.546C153.382 144.96 153.05 145.293 152.635 145.293Z" fill="#F0F3FD"/>
<path d="M140.572 148.609H138.957C138.543 148.609 138.21 148.276 138.21 147.862C138.21 147.447 138.543 147.115 138.957 147.115H140.572C140.986 147.115 141.319 147.447 141.319 147.862C141.319 148.276 140.986 148.609 140.572 148.609Z" fill="#F0F3FD"/>
<path d="M152.635 148.609H143.108C142.693 148.609 142.361 148.276 142.361 147.862C142.361 147.447 142.693 147.115 143.108 147.115H152.635C153.05 147.115 153.382 147.447 153.382 147.862C153.382 148.276 153.05 148.609 152.635 148.609Z" fill="#F0F3FD"/>
<path d="M152.635 141.977H148.501C148.087 141.977 147.754 141.645 147.754 141.23C147.754 140.816 148.087 140.483 148.501 140.483H152.635C153.05 140.483 153.382 140.816 153.382 141.23C153.382 141.645 153.05 141.977 152.635 141.977Z" fill="#F0F3FD"/>
<path d="M114.198 243.916C113.309 243.916 112.48 244.161 111.766 244.581C111.482 242.034 109.323 240.06 106.699 240.06C103.885 240.06 101.6 242.34 101.6 245.159C101.6 245.35 101.611 245.536 101.633 245.716C101.399 245.672 101.159 245.65 100.913 245.65C98.7644 245.65 97.0193 247.395 97.0193 249.544C97.0193 251.693 98.7644 253.438 100.913 253.438H114.198C116.827 253.438 118.959 251.306 118.959 248.677C118.959 246.048 116.827 243.916 114.198 243.916Z" fill="#E7E4ED"/>
<path d="M80.4185 223.476C80.2877 222.761 80.3095 222.036 80.484 221.338C81.0839 218.993 81.771 214.576 80.244 209.809C77.6972 201.852 67.3735 194.812 67.3735 194.812C67.3735 194.812 70.1767 206.548 72.4781 211.549C74.1633 215.208 77.1137 219.375 78.7552 221.567C79.2078 222.178 79.5187 222.876 79.655 223.623C81.3238 232.862 81.0839 240.011 81.0784 240.12L81.8528 240.153C81.8528 240.044 82.1037 232.818 80.4131 223.481L80.4185 223.476Z" fill="#E1CFFA"/>
<path d="M88.6535 215.999C90.704 209.515 91.6584 201.874 91.6584 201.874C91.6584 201.874 82.4037 209.515 81.6402 215.421C81.1766 219.042 81.7547 221.943 82.2728 223.656C82.4909 224.381 82.5727 225.139 82.4909 225.892C81.5529 234.59 82.2891 241.255 82.3001 241.358L82.9981 241.276C82.9872 241.178 82.3055 234.977 83.1072 226.759C83.2163 225.635 83.6689 224.572 84.3833 223.689C85.7085 222.052 87.6009 219.32 88.6535 215.994V215.999Z" fill="#C09FEF"/>
<path d="M98.0609 201.574C98.0609 201.574 88.0863 205.277 85.4795 213.419C83.8925 218.377 84.6396 222.958 85.2614 225.33C85.4359 225.995 85.425 226.693 85.2614 227.359C82.9272 236.734 82.889 246.436 82.889 246.561H83.6853C83.6853 246.436 83.7234 236.963 85.9758 227.773C86.1994 226.863 86.5975 226.001 87.1592 225.248C88.8607 222.958 91.7566 218.835 93.4308 215.197C95.7923 210.082 98.0609 201.574 98.0609 201.574Z" fill="#E1CFFA"/>
<path d="M80.4622 235.943C80.2168 232.534 79.2842 229.464 78.1608 226.89C77.9372 226.372 77.8554 225.81 77.9263 225.254C78.068 224.179 78.1226 222.505 77.6917 220.384C76.8846 216.386 71.5783 207.753 63.8996 207.246C63.8996 207.246 66.55 211.505 67.9134 215.072C69.6368 219.582 72.1018 224.299 76.1866 226.11C76.9064 226.426 77.4681 227.026 77.7681 227.752C78.7497 230.14 79.5405 232.927 79.7641 235.997L80.4622 235.948V235.943Z" fill="#C09FEF"/>
<path d="M75.2704 253.432H87.9445L91.233 233.336C91.3803 232.447 90.6931 231.64 89.7933 231.64H73.427C72.5272 231.64 71.84 232.447 71.9873 233.336L75.2758 253.432H75.2704Z" fill="#E1CFFA"/>
<path d="M292.46 61.5771C294.741 52.0546 288.87 42.4861 279.348 40.2053C269.825 37.9244 260.257 43.7949 257.976 53.3173C255.695 62.8398 261.565 72.4083 271.088 74.6891C280.61 76.97 290.179 71.0995 292.46 61.5771Z" stroke="#DEE2F9" stroke-width="0.79" stroke-miterlimit="10"/>
<path d="M281.466 71.533C289.25 68.0887 292.768 58.9865 289.323 51.2028C285.879 43.4191 276.777 39.9014 268.993 43.3458C261.209 46.7902 257.692 55.8923 261.136 63.676C264.58 71.4597 273.682 74.9774 281.466 71.533Z" fill="#C09FEF"/>
<path d="M276.639 57.4466C276.639 58.221 276.012 58.8482 275.237 58.8482C274.463 58.8482 273.836 58.221 273.836 57.4466C273.836 56.6722 274.463 56.045 275.237 56.045C276.012 56.045 276.639 56.6722 276.639 57.4466Z" fill="white"/>
<path d="M275.079 57.1739C274.867 57.2939 274.599 57.2121 274.485 57.0049L269.953 48.8299C269.833 48.6172 269.909 48.35 270.122 48.2355C270.335 48.1155 270.602 48.1919 270.716 48.4045L275.248 56.5795C275.368 56.7922 275.292 57.0594 275.079 57.1739Z" fill="white"/>
<path d="M275.456 57.6703C275.625 57.5012 275.903 57.5012 276.077 57.6703L279.998 61.5914C280.168 61.7604 280.168 62.0386 279.998 62.2131C279.829 62.3822 279.551 62.3822 279.377 62.2131L275.456 58.292C275.287 58.1229 275.287 57.8448 275.456 57.6703Z" fill="white"/>
<path d="M275.33 45.1106V43.3382" stroke="white" stroke-width="2" stroke-miterlimit="10" stroke-linecap="round"/>
<path d="M287.568 57.5448H289.34" stroke="white" stroke-width="2" stroke-miterlimit="10" stroke-linecap="round"/>
<path d="M275.139 69.7827V71.5551" stroke="white" stroke-width="2" stroke-miterlimit="10" stroke-linecap="round"/>
<path d="M262.896 57.3539H261.124" stroke="white" stroke-width="2" stroke-miterlimit="10" stroke-linecap="round"/>
<g opacity="0.5">
<path d="M269.146 46.7194L268.262 45.1815" stroke="#DEE2F9" stroke-miterlimit="10" stroke-linecap="round"/>
<path d="M285.965 51.3605L287.497 50.477" stroke="#DEE2F9" stroke-miterlimit="10" stroke-linecap="round"/>
<path d="M281.318 68.1793L282.207 69.7118" stroke="#DEE2F9" stroke-miterlimit="10" stroke-linecap="round"/>
<path d="M264.505 63.5329L262.967 64.4218" stroke="#DEE2F9" stroke-miterlimit="10" stroke-linecap="round"/>
</g>
<g opacity="0.5">
<path d="M264.598 51.1968L263.065 50.3134" stroke="#DEE2F9" stroke-miterlimit="10" stroke-linecap="round"/>
<path d="M281.482 46.8121L282.371 45.2797" stroke="#DEE2F9" stroke-miterlimit="10" stroke-linecap="round"/>
<path d="M285.872 63.6965L287.404 64.5854" stroke="#DEE2F9" stroke-miterlimit="10" stroke-linecap="round"/>
<path d="M268.982 68.0866L268.099 69.6191" stroke="#DEE2F9" stroke-miterlimit="10" stroke-linecap="round"/>
</g>
</g>
<defs>
<clipPath id="clip0_85_4117">
<rect width="300.199" height="230" fill="white" transform="translate(57.9006 32.0001)"/>
</clipPath>
</defs>
</svg>
