<svg width="302" height="230" viewBox="0 0 302 230" fill="none" xmlns="http://www.w3.org/2000/svg">
<g clip-path="url(#clip0_38_4317)">
<path d="M151 230C233.898 230 301.099 226.66 301.099 222.54C301.099 218.419 233.898 215.079 151 215.079C68.1024 215.079 0.900635 218.419 0.900635 222.54C0.900635 226.66 68.1024 230 151 230Z" fill="#E7E4ED"/>
<path d="M112.225 70.6951V65.1051C112.225 64.5598 111.783 64.1126 111.232 64.1126H109.793C109.373 64.1126 108.996 63.829 108.904 63.4145C108.407 61.244 107.557 59.2043 106.411 57.3719C106.182 57.0065 106.226 56.5321 106.531 56.2267L107.546 55.2123C107.933 54.8251 107.933 54.1979 107.546 53.8107L103.592 49.8569C103.205 49.4697 102.577 49.4697 102.19 49.8569L101.181 50.8658C100.876 51.1712 100.402 51.2148 100.036 50.9858C98.1983 49.8405 96.1641 48.9897 93.9935 48.4935C93.5845 48.4008 93.2955 48.0245 93.2955 47.6045V46.1702C93.2955 45.6249 92.8537 45.1777 92.3029 45.1777H86.713C86.1676 45.1777 85.7204 45.6194 85.7204 46.1702V47.6045C85.7204 48.0245 85.4368 48.4008 85.0224 48.4935C82.8518 48.9897 80.8122 49.8405 78.9743 50.9858C78.6089 51.2148 78.1345 51.1712 77.8291 50.8658L76.8202 49.8569C76.433 49.4697 75.8058 49.4697 75.4186 49.8569L71.4647 53.8107C71.0775 54.1979 71.0775 54.8251 71.4647 55.2123L72.4736 56.2212C72.779 56.5266 72.8227 57.0011 72.5936 57.3665C71.4484 59.2043 70.6031 61.2385 70.1013 63.409C70.0086 63.8181 69.6323 64.1071 69.2124 64.1071H67.7726C67.2273 64.1071 66.7801 64.5489 66.7801 65.0997V70.6896C66.7801 71.235 67.2218 71.6822 67.7726 71.6822H69.2124C69.6323 71.6822 70.0086 71.9657 70.1013 72.3802C70.5976 74.5508 71.4484 76.5904 72.5936 78.4228C72.8227 78.7882 72.779 79.2627 72.4736 79.5681L71.4593 80.5824C71.0721 80.9696 71.0721 81.5968 71.4593 81.984L75.4131 85.9379C75.8003 86.3251 76.4275 86.3251 76.8147 85.9379L77.8291 84.9235C78.1345 84.6181 78.6089 84.5745 78.9743 84.8035C80.8067 85.9488 82.8464 86.7941 85.0169 87.2904C85.4259 87.3831 85.715 87.7594 85.715 88.1793V89.619C85.715 90.1644 86.1567 90.6116 86.7075 90.6116H92.2975C92.8428 90.6116 93.29 90.1699 93.29 89.619V88.1793C93.29 87.7594 93.5791 87.3831 93.9881 87.2904C96.1586 86.7941 98.1928 85.9433 100.031 84.8035C100.396 84.5745 100.871 84.6181 101.176 84.9235L102.19 85.9379C102.577 86.3251 103.205 86.3251 103.592 85.9379L107.546 81.984C107.933 81.5968 107.933 80.9696 107.546 80.5824L106.531 79.5681C106.226 79.2627 106.182 78.7882 106.411 78.4228C107.557 76.5904 108.402 74.5508 108.904 72.3802C108.996 71.9712 109.373 71.6822 109.793 71.6822H111.232C111.778 71.6822 112.225 71.2404 112.225 70.6896V70.6951ZM89.5161 83.6637C80.8122 83.6637 73.7661 76.6013 73.7661 67.8974C73.7661 59.1934 80.8122 52.1474 89.5161 52.1474C98.2201 52.1474 105.266 59.2098 105.266 67.8974C105.266 76.5849 98.2201 83.6637 89.5161 83.6637Z" stroke="#DEE2F9" stroke-width="0.79" stroke-miterlimit="10"/>
<path d="M137.933 89.6191V85.8124C137.933 85.4416 137.633 85.1362 137.257 85.1362H136.275C135.986 85.1362 135.735 84.9399 135.67 84.6617C135.332 83.1838 134.754 81.7931 133.974 80.5443C133.816 80.2934 133.848 79.9716 134.056 79.7644L134.743 79.0773C135.005 78.8155 135.005 78.3846 134.743 78.1229L132.049 75.4288C131.787 75.167 131.356 75.167 131.094 75.4288L130.407 76.116C130.2 76.3232 129.878 76.3559 129.627 76.1978C128.378 75.4179 126.988 74.8398 125.51 74.5017C125.232 74.4362 125.035 74.1854 125.035 73.8963V72.9201C125.035 72.5493 124.735 72.2439 124.359 72.2439H120.547C120.176 72.2439 119.871 72.5438 119.871 72.9201V73.8963C119.871 74.1854 119.675 74.4362 119.396 74.5017C117.918 74.8398 116.528 75.4179 115.279 76.1978C115.028 76.3559 114.706 76.3232 114.499 76.116L113.812 75.4288C113.55 75.167 113.119 75.167 112.858 75.4288L110.163 78.1229C109.902 78.3846 109.902 78.8155 110.163 79.0773L110.851 79.7644C111.058 79.9716 111.091 80.2934 110.932 80.5443C110.153 81.7931 109.574 83.1838 109.236 84.6617C109.171 84.9399 108.92 85.1362 108.631 85.1362H107.649C107.278 85.1362 106.973 85.4361 106.973 85.8124V89.6191C106.973 89.9899 107.273 90.2953 107.649 90.2953H108.631C108.92 90.2953 109.171 90.4916 109.236 90.7698C109.574 92.2477 110.153 93.6384 110.932 94.8872C111.091 95.1381 111.058 95.4599 110.851 95.6671L110.163 96.3542C109.902 96.616 109.902 97.0469 110.163 97.3086L112.858 100.003C113.119 100.264 113.55 100.264 113.812 100.003L114.504 99.3101C114.712 99.1029 115.034 99.0701 115.284 99.2283C116.533 100.008 117.924 100.586 119.402 100.924C119.68 100.99 119.876 101.241 119.876 101.53V102.511C119.876 102.882 120.176 103.188 120.553 103.188H124.365C124.735 103.188 125.041 102.888 125.041 102.511V101.53C125.041 101.241 125.237 100.99 125.515 100.924C126.993 100.586 128.384 100.008 129.633 99.2283C129.884 99.0701 130.205 99.1029 130.413 99.3101L131.105 100.003C131.367 100.264 131.798 100.264 132.06 100.003L134.754 97.3086C135.015 97.0469 135.015 96.616 134.754 96.3542L134.061 95.6616C133.854 95.4544 133.821 95.1326 133.979 94.8818C134.759 93.6329 135.337 92.2422 135.675 90.7643C135.741 90.4862 135.992 90.2898 136.281 90.2898H137.262C137.633 90.2898 137.939 89.9899 137.939 89.6136L137.933 89.6191ZM122.456 97.8485C116.86 97.8485 112.329 93.3057 112.329 87.7103C112.329 82.1149 116.86 77.583 122.456 77.583C128.051 77.583 132.583 82.1258 132.583 87.7103C132.583 93.2948 128.051 97.8485 122.456 97.8485Z" fill="#E1CFFA"/>
<path d="M66.202 190.483C67.223 190.483 68.0507 189.656 68.0507 188.635C68.0507 187.613 67.223 186.786 66.202 186.786C65.1809 186.786 64.3532 187.613 64.3532 188.635C64.3532 189.656 65.1809 190.483 66.202 190.483Z" fill="#E1CFFA"/>
<path d="M271.814 140.027C272.835 140.027 273.662 139.199 273.662 138.178C273.662 137.157 272.835 136.329 271.814 136.329C270.792 136.329 269.965 137.157 269.965 138.178C269.965 139.199 270.792 140.027 271.814 140.027Z" fill="#E1CFFA"/>
<path d="M268.121 74.0872C269.142 74.0872 269.97 73.2595 269.97 72.2384C269.97 71.2174 269.142 70.3896 268.121 70.3896C267.1 70.3896 266.273 71.2174 266.273 72.2384C266.273 73.2595 267.1 74.0872 268.121 74.0872Z" fill="#E1CFFA"/>
<path d="M243.504 50.9858C244.142 50.9858 244.66 50.4682 244.66 49.8296C244.66 49.1911 244.142 48.6735 243.504 48.6735C242.865 48.6735 242.348 49.1911 242.348 49.8296C242.348 50.4682 242.865 50.9858 243.504 50.9858Z" fill="#E1CFFA"/>
<path d="M73.4281 34.3959C73.4281 35.034 72.91 35.5521 72.2719 35.5521C71.6338 35.5521 71.1157 35.034 71.1157 34.3959C71.1157 33.7578 71.6338 33.2397 72.2719 33.2397C72.91 33.2397 73.4281 33.7578 73.4281 34.3959Z" fill="#E1CFFA"/>
<path d="M99.0654 105.729C99.0654 106.367 98.5473 106.885 97.9092 106.885C97.2711 106.885 96.7531 106.367 96.7531 105.729C96.7531 105.091 97.2711 104.573 97.9092 104.573C98.5473 104.573 99.0654 105.091 99.0654 105.729Z" fill="#E1CFFA"/>
<path d="M56.5709 190.483C56.5709 191.121 56.0528 191.639 55.4148 191.639C54.7767 191.639 54.2586 191.121 54.2586 190.483C54.2586 189.845 54.7767 189.327 55.4148 189.327C56.0528 189.327 56.5709 189.845 56.5709 190.483Z" fill="#E1CFFA"/>
<path d="M244.197 191.574C245.218 191.574 246.045 190.746 246.045 189.725C246.045 188.704 245.218 187.877 244.197 187.877C243.175 187.877 242.348 188.704 242.348 189.725C242.348 190.746 243.175 191.574 244.197 191.574Z" fill="#E1CFFA"/>
<path d="M283.462 191.574C284.483 191.574 285.311 190.746 285.311 189.725C285.311 188.704 284.483 187.877 283.462 187.877C282.441 187.877 281.614 188.704 281.614 189.725C281.614 190.746 282.441 191.574 283.462 191.574Z" fill="#E1CFFA"/>
<path d="M105.266 31.211C106.287 31.211 107.115 30.3833 107.115 29.3623C107.115 28.3412 106.287 27.5135 105.266 27.5135C104.245 27.5135 103.417 28.3412 103.417 29.3623C103.417 30.3833 104.245 31.211 105.266 31.211Z" fill="#E1CFFA"/>
<path d="M232.679 113.38C232.679 114.744 231.571 115.851 230.208 115.851C228.845 115.851 227.738 114.744 227.738 113.38C227.738 112.017 228.845 110.91 230.208 110.91C231.571 110.91 232.679 112.017 232.679 113.38Z" fill="#E1CFFA"/>
<path d="M50.4357 82.8239C50.4357 84.1873 49.3286 85.2944 47.9652 85.2944C46.6018 85.2944 45.4947 84.1873 45.4947 82.8239C45.4947 81.4605 46.6018 80.3534 47.9652 80.3534C49.3286 80.3534 50.4357 81.4605 50.4357 82.8239Z" fill="#E1CFFA"/>
<path d="M43.4878 42.1128H40.3738C40.175 42.1128 40.0139 42.2739 40.0139 42.4727V45.5867C40.0139 45.7855 40.175 45.9467 40.3738 45.9467H43.4878C43.6866 45.9467 43.8477 45.7855 43.8477 45.5867V42.4727C43.8477 42.2739 43.6866 42.1128 43.4878 42.1128Z" fill="white"/>
<path d="M48.6142 42.1128H45.5002C45.3014 42.1128 45.1403 42.2739 45.1403 42.4727V45.5867C45.1403 45.7855 45.3014 45.9467 45.5002 45.9467H48.6142C48.813 45.9467 48.9741 45.7855 48.9741 45.5867V42.4727C48.9741 42.2739 48.813 42.1128 48.6142 42.1128Z" fill="white"/>
<path d="M53.7405 42.1128H50.6265C50.4278 42.1128 50.2666 42.2739 50.2666 42.4727V45.5867C50.2666 45.7855 50.4278 45.9467 50.6265 45.9467H53.7405C53.9393 45.9467 54.1005 45.7855 54.1005 45.5867V42.4727C54.1005 42.2739 53.9393 42.1128 53.7405 42.1128Z" fill="white"/>
<path d="M247.48 176.669H244.366C244.167 176.669 244.006 176.831 244.006 177.029V180.143C244.006 180.342 244.167 180.503 244.366 180.503H247.48C247.678 180.503 247.84 180.342 247.84 180.143V177.029C247.84 176.831 247.678 176.669 247.48 176.669Z" fill="#E1CFFA"/>
<path d="M252.606 176.669H249.492C249.293 176.669 249.132 176.831 249.132 177.029V180.143C249.132 180.342 249.293 180.503 249.492 180.503H252.606C252.805 180.503 252.966 180.342 252.966 180.143V177.029C252.966 176.831 252.805 176.669 252.606 176.669Z" fill="#E1CFFA"/>
<path d="M257.732 176.669H254.618C254.42 176.669 254.258 176.831 254.258 177.029V180.143C254.258 180.342 254.42 180.503 254.618 180.503H257.732C257.931 180.503 258.092 180.342 258.092 180.143V177.029C258.092 176.831 257.931 176.669 257.732 176.669Z" fill="#E1CFFA"/>
<path d="M67.5436 174.57H64.4296C64.2308 174.57 64.0697 174.731 64.0697 174.93V178.044C64.0697 178.242 64.2308 178.404 64.4296 178.404H67.5436C67.7424 178.404 67.9036 178.242 67.9036 178.044V174.93C67.9036 174.731 67.7424 174.57 67.5436 174.57Z" fill="#E1CFFA"/>
<path d="M72.67 174.57H69.556C69.3573 174.57 69.1961 174.731 69.1961 174.93V178.044C69.1961 178.242 69.3573 178.404 69.556 178.404H72.67C72.8688 178.404 73.03 178.242 73.03 178.044V174.93C73.03 174.731 72.8688 174.57 72.67 174.57Z" fill="#E1CFFA"/>
<path d="M77.7964 174.57H74.6824C74.4836 174.57 74.3224 174.731 74.3224 174.93V178.044C74.3224 178.242 74.4836 178.404 74.6824 178.404H77.7964C77.9952 178.404 78.1563 178.242 78.1563 178.044V174.93C78.1563 174.731 77.9952 174.57 77.7964 174.57Z" fill="#E1CFFA"/>
<path d="M206.447 23.8051H132.66C126.229 23.8051 121.016 29.018 121.016 35.4485V199.689C121.016 206.12 126.229 211.332 132.66 211.332H206.447C212.877 211.332 218.09 206.12 218.09 199.689V35.4485C218.09 29.018 212.877 23.8051 206.447 23.8051Z" fill="#C09FEF"/>
<path d="M206.07 25.4466H133.03C127.398 25.4466 122.832 30.0125 122.832 35.6448V198.467C122.832 204.1 127.398 208.666 133.03 208.666H206.07C211.703 208.666 216.269 204.1 216.269 198.467V35.6448C216.269 30.0125 211.703 25.4466 206.07 25.4466Z" fill="white"/>
<path d="M212.178 35.3285V197.966C212.178 201.778 209.086 204.87 205.274 204.87H133.827C130.015 204.87 126.922 201.778 126.922 197.966V35.3285C126.922 31.5164 130.015 28.4243 133.827 28.4243H145.743C146.403 28.4243 147.008 28.7951 147.302 29.3895L148.568 31.9146C149.146 33.0816 150.335 33.8124 151.627 33.8124H187.468C188.761 33.8124 189.95 33.0816 190.528 31.9146L191.793 29.3895C192.087 28.8006 192.693 28.4243 193.353 28.4243H205.269C209.081 28.4243 212.173 31.5164 212.173 35.3285H212.178Z" fill="#E1CFFA"/>
<path d="M184.594 30.8511H155.728C155.057 30.8511 154.512 30.3058 154.512 29.635C154.512 28.9642 155.057 28.4188 155.728 28.4188H184.594C185.265 28.4188 185.81 28.9642 185.81 29.635C185.81 30.3058 185.265 30.8511 184.594 30.8511Z" fill="#E1CFFA"/>
<path d="M200.84 167.404H136.602C134.078 167.404 132.032 169.45 132.032 171.974V194.655C132.032 197.179 134.078 199.225 136.602 199.225H200.84C203.364 199.225 205.411 197.179 205.411 194.655V171.974C205.411 169.45 203.364 167.404 200.84 167.404Z" stroke="#27005E" stroke-linecap="round" stroke-linejoin="round"/>
<path d="M197.585 98.792H165.714C163.895 98.792 162.42 100.267 162.42 102.086V117.841C162.42 119.661 163.895 121.135 165.714 121.135H197.585C199.404 121.135 200.879 119.661 200.879 117.841V102.086C200.879 100.267 199.404 98.792 197.585 98.792Z" stroke="#27005E" stroke-linecap="round" stroke-linejoin="round"/>
<path d="M204.445 126.496H138.631C136.463 126.496 134.705 128.254 134.705 130.423V158.182C134.705 160.35 136.463 162.108 138.631 162.108H204.445C206.614 162.108 208.372 160.35 208.372 158.182V130.423C208.372 128.254 206.614 126.496 204.445 126.496Z" fill="#27005E"/>
<path d="M205.411 127.532V155.308C205.411 157.473 203.654 159.223 201.489 159.223H135.954C133.788 159.223 132.032 157.473 132.032 155.308V127.532C132.032 125.367 133.788 123.611 135.954 123.611H201.489C203.654 123.611 205.411 125.367 205.411 127.532Z" fill="#C09FEF"/>
<path d="M157.375 131.721H138.07C136.606 131.721 135.419 132.907 135.419 134.371V153.677C135.419 155.141 136.606 156.327 138.07 156.327H157.375C158.839 156.327 160.026 155.141 160.026 153.677V134.371C160.026 132.907 158.839 131.721 157.375 131.721Z" fill="white"/>
<path d="M180.264 134.835H163.26C162.796 134.835 162.42 134.458 162.42 133.995C162.42 133.531 162.796 133.155 163.26 133.155H180.264C180.728 133.155 181.104 133.531 181.104 133.995C181.104 134.458 180.728 134.835 180.264 134.835Z" fill="#E7E4ED"/>
<path d="M172.514 138.178H163.26C162.796 138.178 162.42 137.802 162.42 137.338C162.42 136.874 162.796 136.498 163.26 136.498H172.514C172.978 136.498 173.354 136.874 173.354 137.338C173.354 137.802 172.978 138.178 172.514 138.178Z" fill="#E7E4ED"/>
<path d="M200.966 138.178H175.923C175.459 138.178 175.083 137.802 175.083 137.338C175.083 136.874 175.459 136.498 175.923 136.498H200.966C201.429 136.498 201.806 136.874 201.806 137.338C201.806 137.802 201.429 138.178 200.966 138.178Z" fill="#E7E4ED"/>
<path d="M177.575 141.521H163.254C162.791 141.521 162.414 141.145 162.414 140.681C162.414 140.217 162.791 139.841 163.254 139.841H177.575C178.039 139.841 178.415 140.217 178.415 140.681C178.415 141.145 178.039 141.521 177.575 141.521Z" fill="#E7E4ED"/>
<path d="M189.731 141.521H180.728C180.264 141.521 179.893 141.145 179.893 140.681C179.893 140.217 180.269 139.841 180.728 139.841H189.731C190.195 139.841 190.566 140.217 190.566 140.681C190.566 141.145 190.19 141.521 189.731 141.521Z" fill="#E7E4ED"/>
<path d="M200.966 141.521H192.676C192.213 141.521 191.837 141.145 191.837 140.681C191.837 140.217 192.213 139.841 192.676 139.841H200.966C201.429 139.841 201.806 140.217 201.806 140.681C201.806 141.145 201.429 141.521 200.966 141.521Z" fill="#E7E4ED"/>
<path d="M200.966 144.864H163.26C162.796 144.864 162.42 144.488 162.42 144.024C162.42 143.561 162.796 143.184 163.26 143.184H200.966C201.429 143.184 201.806 143.561 201.806 144.024C201.806 144.488 201.429 144.864 200.966 144.864Z" fill="#E7E4ED"/>
<path d="M184.011 148.207H163.26C162.796 148.207 162.42 147.831 162.42 147.367C162.42 146.904 162.796 146.527 163.26 146.527H184.011C184.474 146.527 184.85 146.904 184.85 147.367C184.85 147.831 184.474 148.207 184.011 148.207Z" fill="#E7E4ED"/>
<path d="M200.966 148.207H187.359C186.896 148.207 186.519 147.831 186.519 147.367C186.519 146.904 186.896 146.527 187.359 146.527H200.966C201.429 146.527 201.806 146.904 201.806 147.367C201.806 147.831 201.429 148.207 200.966 148.207Z" fill="#E7E4ED"/>
<path d="M175.448 151.55H163.254C162.791 151.55 162.414 151.174 162.414 150.71C162.414 150.247 162.791 149.87 163.254 149.87H175.448C175.912 149.87 176.288 150.247 176.288 150.71C176.288 151.174 175.912 151.55 175.448 151.55Z" fill="#E7E4ED"/>
<path d="M190.942 151.55H178.748C178.284 151.55 177.908 151.174 177.908 150.71C177.908 150.247 178.284 149.87 178.748 149.87H190.942C191.406 149.87 191.782 150.247 191.782 150.71C191.782 151.174 191.406 151.55 190.942 151.55Z" fill="#E7E4ED"/>
<path d="M200.966 151.55H193.893C193.429 151.55 193.053 151.174 193.053 150.71C193.053 150.247 193.429 149.87 193.893 149.87H200.966C201.429 149.87 201.806 150.247 201.806 150.71C201.806 151.174 201.429 151.55 200.966 151.55Z" fill="#E7E4ED"/>
<path d="M180.264 154.893H163.26C162.796 154.893 162.42 154.517 162.42 154.053C162.42 153.59 162.796 153.213 163.26 153.213H180.264C180.728 153.213 181.104 153.59 181.104 154.053C181.104 154.517 180.728 154.893 180.264 154.893Z" fill="#E7E4ED"/>
<path d="M200.966 134.835H183.962C183.498 134.835 183.122 134.458 183.122 133.995C183.122 133.531 183.498 133.155 183.962 133.155H200.966C201.429 133.155 201.806 133.531 201.806 133.995C201.806 134.458 201.429 134.835 200.966 134.835Z" fill="#E7E4ED"/>
<path d="M205.411 127.532V128.7H132.032V127.532C132.032 125.367 133.788 123.611 135.954 123.611H201.489C203.654 123.611 205.411 125.367 205.411 127.532Z" fill="#4603A6"/>
<path d="M191.58 126.251C191.58 126.753 191.171 127.162 190.669 127.162C190.168 127.162 189.759 126.753 189.759 126.251C189.759 125.749 190.168 125.34 190.669 125.34C191.171 125.34 191.58 125.749 191.58 126.251Z" fill="#E1CFFA"/>
<path d="M196.227 126.251C196.227 126.753 195.818 127.162 195.316 127.162C194.814 127.162 194.405 126.753 194.405 126.251C194.405 125.749 194.814 125.34 195.316 125.34C195.818 125.34 196.227 125.749 196.227 126.251Z" fill="#E1CFFA"/>
<path d="M200.879 126.251C200.879 126.753 200.47 127.162 199.968 127.162C199.466 127.162 199.057 126.753 199.057 126.251C199.057 125.749 199.466 125.34 199.968 125.34C200.47 125.34 200.879 125.749 200.879 126.251Z" fill="#E1CFFA"/>
<path d="M154.747 98.8138H140.224C138.07 98.8138 136.324 100.56 136.324 102.713V117.236C136.324 119.39 138.07 121.135 140.224 121.135H154.747C156.9 121.135 158.646 119.39 158.646 117.236V102.713C158.646 100.56 156.9 98.8138 154.747 98.8138Z" stroke="#C09FEF" stroke-width="0.9" stroke-miterlimit="10"/>
<path d="M144.003 106.743L140.791 109.961L144.03 113.206" stroke="#C09FEF" stroke-width="1.67" stroke-linecap="round" stroke-linejoin="round"/>
<path d="M150.967 106.743L154.185 109.961L150.945 113.206" stroke="#C09FEF" stroke-width="1.67" stroke-linecap="round" stroke-linejoin="round"/>
<path d="M148.993 106.743L145.983 113.206" stroke="#C09FEF" stroke-width="1.67" stroke-linecap="round" stroke-linejoin="round"/>
<path d="M200.949 39.8659H136.493C134.03 39.8659 132.032 41.8632 132.032 44.3269V89.7391C132.032 92.2028 134.03 94.2001 136.493 94.2001H200.949C203.413 94.2001 205.411 92.2028 205.411 89.7391V44.3269C205.411 41.8632 203.413 39.8659 200.949 39.8659Z" fill="#E7E4ED"/>
<path d="M190.549 64.8489C196.423 64.8489 201.184 60.0876 201.184 54.2143C201.184 48.3411 196.423 43.5798 190.549 43.5798C184.676 43.5798 179.915 48.3411 179.915 54.2143C179.915 60.0876 184.676 64.8489 190.549 64.8489Z" fill="#F0F3FD"/>
<path d="M175.165 94.2001H136.493C134.034 94.2001 132.032 92.2041 132.032 89.739V82.5894L148.955 53.2763C149.838 51.7438 152.053 51.7438 152.936 53.2763L165.714 75.407L175.203 91.8441C175.661 92.6295 175.59 93.5238 175.165 94.2001Z" fill="white"/>
<path d="M191.842 94.2001H154.861L165.714 75.407L171.56 65.2797C172.356 63.8999 174.347 63.8999 175.143 65.2797L191.842 94.2001Z" fill="#F0F3FD"/>
<path d="M127.593 153.317L131.313 149.505C131.313 149.505 131.443 147.804 131.645 147.449C131.847 147.089 132.371 145.764 132.632 145.617C132.894 145.469 133.412 145.617 133.412 145.617C133.412 145.617 133.93 145.442 134.159 145.442C134.388 145.442 134.825 145.655 134.825 145.655C134.825 145.655 135.381 145.617 135.61 145.617C135.839 145.617 135.915 145.682 135.915 145.682C135.915 145.682 136.81 144.651 137.246 144.302C137.682 143.953 138.342 143.315 138.539 143.321C138.724 143.321 138.806 143.648 138.669 143.997C138.533 144.346 137.944 144.902 137.944 144.902L136.253 147.471C136.253 147.471 136.543 147.356 136.695 147.258C136.848 147.16 137.884 146.195 137.944 146.157C138.004 146.118 138.468 145.807 138.74 146.118C139.013 146.429 136.968 148.872 136.641 149.205C136.313 149.538 134.437 150.487 134.437 150.487C134.437 150.487 132.452 154.053 132.261 154.282C132.071 154.511 127.593 153.317 127.593 153.317Z" fill="#D89492"/>
<path d="M131.094 135.729C131.094 135.729 129.017 147.754 127.064 148.033C127.064 148.033 119.266 148.349 117.526 138.881C116.021 130.674 122.063 128.923 124.894 129.55C127.719 130.178 131.705 130.587 131.1 135.724L131.094 135.729Z" fill="#D89492"/>
<path d="M124.196 146.113C124.196 146.113 123.105 147.585 122.718 151.152C122.718 151.152 119.467 151.616 116.473 150.072C116.473 150.072 118.088 145.039 118.284 139.574" fill="#D89492"/>
<path d="M121.998 127.543C117.733 128.487 118.077 131.143 118.077 131.143C116.081 131.639 115.65 132.463 115.666 136.144C115.683 139.83 117.013 144.253 117.749 144.613C118.486 144.973 122.652 144.989 123.001 144.864C123.35 144.739 124.806 141.357 124.468 140.763C124.13 140.168 124.485 137.829 125.455 137.742C126.426 137.654 126.235 139.16 126.235 139.16L127.031 138.985L127.648 137.474C133.281 137.807 134.737 131.388 134.737 131.388C133.385 130.505 126.257 126.605 121.992 127.543H121.998Z" fill="#4603A6"/>
<path d="M74.6715 208.955L78.9798 209.576L77.551 214.61L72.8827 213.432C72.8827 213.432 70.9848 210.858 73.8534 208.955C73.9898 208.862 74.4424 208.906 74.6715 208.955Z" fill="#D89490"/>
<path d="M106.848 196.03L100.494 176.795C100.494 176.795 98.5691 176.108 97.582 176.795C97.582 176.795 90.9614 180.356 91.6703 190.5C92.2048 198.151 93.819 206.446 94.4735 209.773L77.5237 209.146C77.5237 209.146 75.435 211.632 76.7875 214.866C76.7875 214.866 98.0892 220.593 101.089 221.122C103.526 221.553 106.199 221.885 107.486 220.778C109.754 218.831 106.853 196.024 106.853 196.024L106.848 196.03Z" fill="#27005E"/>
<path d="M94.7462 208.955L99.0545 209.576L97.6257 214.61L92.9574 213.432C92.9574 213.432 91.0595 210.858 93.9281 208.955C94.0645 208.862 94.5171 208.906 94.7462 208.955Z" fill="#D89490"/>
<path d="M93.181 211.594C93.0828 212.587 93.9499 213.476 93.7918 213.727C93.6336 213.972 90.7378 218.837 90.7378 218.837C90.7378 218.837 92.9247 219.791 92.5702 221.165H87.0293C87.0293 221.165 85.5841 219.862 85.6168 217.991C85.6168 217.991 85.9931 215.837 86.9802 213.934C87.9674 212.031 90.2142 207.728 90.2142 207.728C90.2142 207.728 90.8959 207.449 92.063 207.76C93.4264 208.126 94.7407 208.96 94.7407 208.96C94.7407 208.96 93.4155 209.151 93.1755 211.6L93.181 211.594Z" fill="#C09FEF"/>
<path d="M137.557 216.742C136.188 211.638 123.323 189.851 118.966 183.966C110.022 180.083 100.494 176.789 100.494 176.789C96.5513 177.733 94.6098 185.673 96.8458 190.969C98.3783 194.601 108.107 203.741 114.068 209.124L97.533 209.102C97.533 209.102 95.586 212.014 97.353 214.779C97.353 214.779 124.85 221.029 127.261 221.383C129.671 221.738 135.086 221.383 135.086 221.383C135.086 221.383 138.708 221.034 137.557 216.737V216.742Z" fill="#4603A6"/>
<path d="M73.1117 211.594C73.0136 212.587 73.8807 213.476 73.7225 213.727C73.5644 213.972 70.6685 218.837 70.6685 218.837C70.6685 218.837 72.8554 219.791 72.5009 221.165H66.9601C66.9601 221.165 65.5149 219.862 65.5476 217.991C65.5476 217.991 65.9239 215.837 66.911 213.934C67.8981 212.031 70.145 207.728 70.145 207.728C70.145 207.728 70.8267 207.449 71.9938 207.76C73.3572 208.126 74.6715 208.96 74.6715 208.96C74.6715 208.96 73.3462 209.151 73.1063 211.6L73.1117 211.594Z" fill="#C09FEF"/>
<path d="M158.259 149.614L149.391 165.211L143.038 158.88L137.781 166.706L139.308 167.436L138.757 167.895C138.757 167.895 151.011 173.861 152.483 172.546C153.95 171.232 160.795 151.386 160.795 151.386L158.259 149.614Z" fill="#D89492"/>
<path d="M144.172 159.872C144.172 159.872 142.498 166.935 139.149 170.283L130.582 167.022C130.582 167.022 126.606 173.708 122.718 178.834C121.223 180.814 120.727 183.601 118.971 183.966C118.862 183.928 118.758 183.895 118.649 183.868C113.888 182.439 106.864 183.955 101.067 181.801C94.6644 179.418 95.9078 178.076 95.9078 178.076C95.9078 178.076 99.7908 171.079 101.994 163.668C102.976 160.39 103.657 157.353 104.11 154.98C104.923 150.781 108.287 147.498 112.53 146.925C112.579 146.92 112.623 146.909 112.672 146.904C117.526 146.287 130.233 147.787 132.703 148.845C135.174 149.903 144.172 159.872 144.172 159.872Z" fill="#C09FEF"/>
<path d="M130.582 167.022C130.582 167.022 126.606 173.708 122.718 178.834C121.223 180.814 120.727 183.601 118.971 183.966C119.74 183.694 121.016 179.647 121.469 178.736C121.927 177.831 122.652 176.92 124.223 173.741C125.788 170.556 127.915 165.888 127.915 165.888L130.582 167.022Z" fill="#4603A6"/>
<path d="M114.068 209.124C116.942 208.693 119.996 209.08 122.614 210.351C119.8 209.854 116.904 209.495 114.068 209.124Z" fill="#2D002A"/>
<path d="M164.885 143.871C164.743 143.855 163.832 144.586 163.396 144.946L163.903 143.975C163.903 143.975 164.574 143.332 164.814 142.977C165.054 142.623 164.929 142.268 164.738 142.246C164.607 142.235 163.805 142.868 163.341 143.244L163.445 143.048C163.445 143.048 164.116 142.404 164.356 142.05C164.596 141.695 164.47 141.341 164.28 141.325C164.089 141.308 162.551 142.595 162.551 142.595L161.804 143.599L162.371 142.503C162.371 142.503 162.671 142.137 162.867 141.745C163.063 141.346 162.922 141.226 162.813 141.096C162.703 140.965 161.667 141.734 161.4 142.045C161.138 142.355 160.298 143.604 160.233 143.779L159.366 145.568C159.311 145.049 159.224 144.161 159.164 143.593C159.077 142.781 158.335 142.584 158.313 142.983C158.286 143.381 157.877 145.328 157.97 146.386C158.062 147.444 158.242 148.136 158.308 148.731C158.373 149.325 157.757 150.514 157.757 150.514C157.757 150.514 160.228 152.046 160.631 151.588C161.04 151.13 161.907 150.11 162.327 149.423C162.905 148.48 163.292 147.242 163.292 147.242L164.061 145.595C164.061 145.595 164.732 144.951 164.972 144.597C165.212 144.242 165.087 143.888 164.896 143.871H164.885Z" fill="#D89492"/>
<path d="M256.816 133.161H227.879C226.025 133.161 224.52 134.666 224.52 136.52V143.359C224.52 145.071 225.802 146.484 227.454 146.691C227.694 146.724 227.879 146.925 227.879 147.171V150.912C227.879 151.13 228.158 151.217 228.283 151.043L231.233 146.92C231.326 146.789 231.473 146.718 231.631 146.718H256.822C258.676 146.718 260.181 145.213 260.181 143.359V136.52C260.181 134.666 258.676 133.161 256.822 133.161H256.816Z" stroke="white" stroke-width="0.9" stroke-miterlimit="10"/>
<path d="M232.319 139.928C232.319 140.539 231.822 141.036 231.212 141.036C230.601 141.036 230.104 140.539 230.104 139.928C230.104 139.318 230.601 138.821 231.212 138.821C231.822 138.821 232.319 139.318 232.319 139.928Z" stroke="white" stroke-width="0.9" stroke-miterlimit="10"/>
<path d="M237.887 139.928C237.887 140.539 237.39 141.036 236.78 141.036C236.169 141.036 235.673 140.539 235.673 139.928C235.673 139.318 236.169 138.821 236.78 138.821C237.39 138.821 237.887 139.318 237.887 139.928Z" stroke="white" stroke-width="0.9" stroke-miterlimit="10"/>
<path d="M243.455 139.928C243.455 140.539 242.959 141.036 242.348 141.036C241.737 141.036 241.241 140.539 241.241 139.928C241.241 139.318 241.737 138.821 242.348 138.821C242.959 138.821 243.455 139.318 243.455 139.928Z" stroke="white" stroke-width="0.9" stroke-miterlimit="10"/>
<path d="M249.023 139.928C249.023 140.539 248.527 141.036 247.916 141.036C247.305 141.036 246.809 140.539 246.809 139.928C246.809 139.318 247.305 138.821 247.916 138.821C248.527 138.821 249.023 139.318 249.023 139.928Z" stroke="white" stroke-width="0.9" stroke-miterlimit="10"/>
<path d="M254.591 139.928C254.591 140.539 254.095 141.036 253.484 141.036C252.873 141.036 252.377 140.539 252.377 139.928C252.377 139.318 252.873 138.821 253.484 138.821C254.095 138.821 254.591 139.318 254.591 139.928Z" stroke="white" stroke-width="0.9" stroke-miterlimit="10"/>
<path d="M77.8727 124.179H106.809C108.664 124.179 110.169 125.684 110.169 127.538V134.377C110.169 136.089 108.887 137.502 107.235 137.709C106.995 137.742 106.809 137.943 106.809 138.189V141.93C106.809 142.148 106.531 142.235 106.406 142.061L103.456 137.938C103.363 137.807 103.216 137.736 103.057 137.736H77.8672C76.013 137.736 74.5078 136.231 74.5078 134.377V127.538C74.5078 125.684 76.013 124.179 77.8672 124.179H77.8727Z" stroke="white" stroke-width="0.9" stroke-miterlimit="10"/>
<path d="M102.37 130.941C102.37 131.552 102.867 132.048 103.477 132.048C104.088 132.048 104.584 131.552 104.584 130.941C104.584 130.33 104.088 129.834 103.477 129.834C102.867 129.834 102.37 130.33 102.37 130.941Z" stroke="white" stroke-width="0.9" stroke-miterlimit="10"/>
<path d="M96.8021 130.941C96.8021 131.552 97.2984 132.048 97.9092 132.048C98.52 132.048 99.0163 131.552 99.0163 130.941C99.0163 130.33 98.52 129.834 97.9092 129.834C97.2984 129.834 96.8021 130.33 96.8021 130.941Z" stroke="white" stroke-width="0.9" stroke-miterlimit="10"/>
<path d="M91.234 130.941C91.234 131.552 91.7303 132.048 92.3411 132.048C92.9519 132.048 93.4481 131.552 93.4481 130.941C93.4481 130.33 92.9519 129.834 92.3411 129.834C91.7303 129.834 91.234 130.33 91.234 130.941Z" stroke="white" stroke-width="0.9" stroke-miterlimit="10"/>
<path d="M85.6659 130.941C85.6659 131.552 86.1621 132.048 86.773 132.048C87.3838 132.048 87.88 131.552 87.88 130.941C87.88 130.33 87.3838 129.834 86.773 129.834C86.1621 129.834 85.6659 130.33 85.6659 130.941Z" stroke="white" stroke-width="0.9" stroke-miterlimit="10"/>
<path d="M80.0977 130.941C80.0977 131.552 80.594 132.048 81.2048 132.048C81.8156 132.048 82.3119 131.552 82.3119 130.941C82.3119 130.33 81.8156 129.834 81.2048 129.834C80.594 129.834 80.0977 130.33 80.0977 130.941Z" stroke="white" stroke-width="0.9" stroke-miterlimit="10"/>
<path d="M252.644 78.4338H199.897C196.99 78.4338 194.629 76.0778 194.629 73.1656C194.629 70.2588 196.985 67.8974 199.897 67.8974H252.644C255.551 67.8974 257.912 70.2534 257.912 73.1656C257.912 76.0723 255.556 78.4338 252.644 78.4338Z" fill="white" stroke="#4603A6" stroke-width="0.9" stroke-miterlimit="10"/>
<path d="M251.87 72.8002C251.87 74.349 250.615 75.6033 249.067 75.6033C247.518 75.6033 246.263 74.349 246.263 72.8002C246.263 71.2513 247.518 69.997 249.067 69.997C250.615 69.997 251.87 71.2513 251.87 72.8002Z" stroke="#4603A6" stroke-width="1.67" stroke-miterlimit="10"/>
<path d="M251.046 74.7853L252.595 76.3286" stroke="#4603A6" stroke-width="1.67" stroke-miterlimit="10" stroke-linecap="round"/>
<path d="M172.744 200.011H159.475C157.153 200.011 155.27 201.893 155.27 204.215V217.484C155.27 219.806 157.153 221.689 159.475 221.689H172.744C175.066 221.689 176.948 219.806 176.948 217.484V204.215C176.948 201.893 175.066 200.011 172.744 200.011Z" fill="#27005E"/>
<path d="M168.795 200.011H155.526C153.204 200.011 151.322 201.893 151.322 204.215V217.484C151.322 219.806 153.204 221.689 155.526 221.689H168.795C171.117 221.689 173 219.806 173 217.484V204.215C173 201.893 171.117 200.011 168.795 200.011Z" fill="#4603A6"/>
<path d="M159.595 206.757L165.817 210.351C166.199 210.574 166.199 211.125 165.817 211.349L159.595 214.943C159.213 215.166 158.733 214.888 158.733 214.446V207.264C158.733 206.822 159.213 206.544 159.595 206.768V206.757Z" fill="white"/>
<path d="M232.068 162.315H214.725C211.689 162.315 209.228 164.777 209.228 167.813V185.155C209.228 188.191 211.689 190.652 214.725 190.652H232.068C235.104 190.652 237.565 188.191 237.565 185.155V167.813C237.565 164.777 235.104 162.315 232.068 162.315Z" fill="#27005E"/>
<path d="M226.903 162.315H209.561C206.525 162.315 204.064 164.777 204.064 167.813V185.155C204.064 188.191 206.525 190.652 209.561 190.652H226.903C229.939 190.652 232.4 188.191 232.4 185.155V167.813C232.4 164.777 229.939 162.315 226.903 162.315Z" fill="#4603A6"/>
<path d="M221.64 169.269C221.64 171.15 220.119 172.672 218.237 172.672C216.356 172.672 214.834 171.145 214.834 169.269C214.834 167.393 216.356 165.866 218.237 165.866C220.119 165.866 221.64 167.393 221.64 169.269Z" fill="white"/>
<path d="M225.333 180.798V185.826C225.333 186.279 224.967 186.649 224.509 186.649H211.96C211.508 186.649 211.137 186.279 211.137 185.826V180.798C211.137 176.877 214.316 173.703 218.232 173.703C222.153 173.703 225.327 176.882 225.327 180.798H225.333Z" fill="white"/>
<path d="M232.793 84.4981H221.651C221.188 84.4981 220.817 84.1218 220.817 83.6583C220.817 83.1947 221.193 82.8184 221.651 82.8184H232.793C233.257 82.8184 233.633 83.1947 233.633 83.6583C233.633 84.1218 233.257 84.4981 232.793 84.4981Z" fill="#F0F3FD"/>
<path d="M243.94 84.4981H235.88C235.416 84.4981 235.04 84.1218 235.04 83.6583C235.04 83.1947 235.416 82.8184 235.88 82.8184H243.94C244.404 82.8184 244.78 83.1947 244.78 83.6583C244.78 84.1218 244.404 84.4981 243.94 84.4981Z" fill="#F0F3FD"/>
<path d="M226.385 88.1793H221.651C221.188 88.1793 220.817 87.803 220.817 87.3394C220.817 86.8759 221.193 86.4996 221.651 86.4996H226.385C226.849 86.4996 227.225 86.8759 227.225 87.3394C227.225 87.803 226.849 88.1793 226.385 88.1793Z" fill="#F0F3FD"/>
<path d="M243.94 88.1793H229.199C228.736 88.1793 228.359 87.803 228.359 87.3394C228.359 86.8759 228.736 86.4996 229.199 86.4996H243.94C244.404 86.4996 244.78 86.8759 244.78 87.3394C244.78 87.803 244.404 88.1793 243.94 88.1793Z" fill="#F0F3FD"/>
<path d="M236.338 91.8605H221.651C221.188 91.8605 220.817 91.4842 220.817 91.0206C220.817 90.5571 221.193 90.1808 221.651 90.1808H236.338C236.801 90.1808 237.178 90.5571 237.178 91.0206C237.178 91.4842 236.801 91.8605 236.338 91.8605Z" fill="#F0F3FD"/>
<path d="M243.94 91.8605H239.206C238.743 91.8605 238.367 91.4842 238.367 91.0206C238.367 90.5571 238.743 90.1808 239.206 90.1808H243.94C244.404 90.1808 244.78 90.5571 244.78 91.0206C244.78 91.4842 244.404 91.8605 243.94 91.8605Z" fill="#F0F3FD"/>
<path d="M65.7439 100.843H46.28C43.3976 100.843 41.0609 103.179 41.0609 106.062V125.526C41.0609 128.408 43.3976 130.745 46.28 130.745H65.7439C68.6263 130.745 70.963 128.408 70.963 125.526V106.062C70.963 103.179 68.6263 100.843 65.7439 100.843Z" fill="#27005E"/>
<path d="M64.4623 98.2521H42.9261C40.6159 98.2521 38.7432 100.125 38.7432 102.435V123.971C38.7432 126.281 40.6159 128.154 42.9261 128.154H64.4623C66.7725 128.154 68.6452 126.281 68.6452 123.971V102.435C68.6452 100.125 66.7725 98.2521 64.4623 98.2521Z" fill="#C09FEF" stroke="#DEE2F9" stroke-miterlimit="10"/>
<path d="M58.8724 109.781H58.7142V108.069C58.7142 105.254 56.4292 102.969 53.6151 102.969C50.8011 102.969 48.516 105.254 48.516 108.069V109.781H48.4833C47.6925 109.781 47.0544 110.419 47.0544 111.21V117.667C47.0544 118.458 47.6925 119.096 48.4833 119.096H58.8724C59.6632 119.096 60.3012 118.458 60.3012 117.667V111.21C60.3012 110.419 59.6632 109.781 58.8724 109.781ZM49.814 108.069C49.814 105.969 51.5209 104.262 53.6206 104.262C55.7202 104.262 57.4272 105.969 57.4272 108.069V109.781H49.814V108.069Z" fill="white"/>
<path d="M55.3603 113.097C55.3603 112.066 54.4223 111.253 53.3533 111.466C52.7262 111.592 52.2026 112.11 52.0718 112.737C51.9136 113.495 52.2735 114.187 52.8571 114.531C52.977 114.602 53.0425 114.733 53.0098 114.864L52.7207 115.933C52.5462 116.565 53.0261 117.192 53.686 117.192C54.3459 117.192 54.8204 116.565 54.6513 115.933L54.3677 114.875C54.3295 114.738 54.4004 114.607 54.5204 114.536C55.0222 114.253 55.3657 113.713 55.3657 113.091L55.3603 113.097Z" fill="#7F8AF4"/>
<path d="M59.6904 121.359H47.6707C47.3326 121.359 47.0599 121.086 47.0599 120.748C47.0599 120.41 47.3326 120.137 47.6707 120.137H59.6904C60.0285 120.137 60.3012 120.41 60.3012 120.748C60.3012 121.086 60.0285 121.359 59.6904 121.359Z" fill="white"/>
<path d="M59.6904 123.437H47.6707C47.3326 123.437 47.0599 123.164 47.0599 122.826C47.0599 122.488 47.3326 122.215 47.6707 122.215H59.6904C60.0285 122.215 60.3012 122.488 60.3012 122.826C60.3012 123.164 60.0285 123.437 59.6904 123.437Z" fill="white"/>
<path d="M88.769 109.977H81.952C81.5375 109.977 81.2049 109.645 81.2049 109.23C81.2049 108.816 81.5375 108.483 81.952 108.483H88.769C89.1835 108.483 89.5161 108.816 89.5161 109.23C89.5161 109.645 89.1835 109.977 88.769 109.977Z" fill="#F0F3FD"/>
<path d="M95.6351 113.293H81.952C81.5375 113.293 81.2049 112.96 81.2049 112.546C81.2049 112.131 81.5375 111.799 81.952 111.799H95.6351C96.0496 111.799 96.3822 112.131 96.3822 112.546C96.3822 112.96 96.0496 113.293 95.6351 113.293Z" fill="#F0F3FD"/>
<path d="M83.5717 116.609H81.9575C81.543 116.609 81.2103 116.276 81.2103 115.862C81.2103 115.447 81.543 115.115 81.9575 115.115H83.5717C83.9862 115.115 84.3189 115.447 84.3189 115.862C84.3189 116.276 83.9862 116.609 83.5717 116.609Z" fill="#F0F3FD"/>
<path d="M95.6351 116.609H86.1077C85.6932 116.609 85.3605 116.276 85.3605 115.862C85.3605 115.447 85.6932 115.115 86.1077 115.115H95.6351C96.0496 115.115 96.3822 115.447 96.3822 115.862C96.3822 116.276 96.0496 116.609 95.6351 116.609Z" fill="#F0F3FD"/>
<path d="M95.6351 109.977H91.5013C91.0868 109.977 90.7541 109.645 90.7541 109.23C90.7541 108.816 91.0868 108.483 91.5013 108.483H95.6351C96.0496 108.483 96.3822 108.816 96.3822 109.23C96.3822 109.645 96.0496 109.977 95.6351 109.977Z" fill="#F0F3FD"/>
<path d="M57.1981 211.916C56.3092 211.916 55.4802 212.161 54.7658 212.581C54.4822 210.034 52.3226 208.06 49.6994 208.06C46.8854 208.06 44.6003 210.34 44.6003 213.159C44.6003 213.35 44.6112 213.536 44.633 213.716C44.3985 213.672 44.1586 213.65 43.9132 213.65C41.7644 213.65 40.0193 215.395 40.0193 217.544C40.0193 219.693 41.7644 221.438 43.9132 221.438H57.1981C59.8268 221.438 61.9591 219.306 61.9591 216.677C61.9591 214.048 59.8268 211.916 57.1981 211.916Z" fill="#E7E4ED"/>
<path d="M23.4185 191.476C23.2877 190.761 23.3095 190.036 23.484 189.338C24.0839 186.993 24.771 182.576 23.244 177.809C20.6972 169.852 10.3735 162.812 10.3735 162.812C10.3735 162.812 13.1767 174.548 15.4781 179.549C17.1633 183.208 20.1137 187.375 21.7552 189.567C22.2078 190.178 22.5187 190.876 22.655 191.623C24.3238 200.862 24.0839 208.011 24.0784 208.12L24.8528 208.153C24.8528 208.044 25.1037 200.818 23.4131 191.481L23.4185 191.476Z" fill="#E1CFFA"/>
<path d="M31.6535 183.999C33.704 177.515 34.6584 169.874 34.6584 169.874C34.6584 169.874 25.4037 177.515 24.6402 183.421C24.1766 187.042 24.7547 189.943 25.2728 191.656C25.4909 192.381 25.5727 193.139 25.4909 193.892C24.5529 202.59 25.2891 209.255 25.3001 209.358L25.9981 209.276C25.9872 209.178 25.3055 202.977 26.1072 194.759C26.2163 193.635 26.6689 192.572 27.3833 191.689C28.7085 190.052 30.6009 187.32 31.6535 183.994V183.999Z" fill="#C09FEF"/>
<path d="M41.0609 169.574C41.0609 169.574 31.0863 173.277 28.4795 181.419C26.8925 186.377 27.6396 190.958 28.2614 193.33C28.4359 193.995 28.425 194.693 28.2614 195.359C25.9272 204.734 25.889 214.436 25.889 214.561H26.6853C26.6853 214.436 26.7234 204.963 28.9758 195.773C29.1994 194.863 29.5975 194.001 30.1592 193.248C31.8607 190.958 34.7566 186.835 36.4308 183.197C38.7923 178.082 41.0609 169.574 41.0609 169.574Z" fill="#E1CFFA"/>
<path d="M23.4622 203.943C23.2168 200.534 22.2842 197.464 21.1608 194.89C20.9372 194.372 20.8554 193.81 20.9263 193.254C21.068 192.179 21.1226 190.505 20.6917 188.384C19.8846 184.386 14.5783 175.753 6.8996 175.246C6.8996 175.246 9.55005 179.505 10.9134 183.072C12.6368 187.582 15.1018 192.299 19.1866 194.11C19.9064 194.426 20.4681 195.026 20.7681 195.752C21.7497 198.14 22.5405 200.927 22.7641 203.997L23.4622 203.948V203.943Z" fill="#C09FEF"/>
<path d="M18.2704 221.432H30.9445L34.233 201.336C34.3803 200.447 33.6931 199.64 32.7933 199.64H16.427C15.5272 199.64 14.84 200.447 14.9873 201.336L18.2758 221.432H18.2704Z" fill="#E1CFFA"/>
<path d="M235.46 29.5771C237.741 20.0546 231.87 10.4861 222.348 8.20527C212.825 5.9244 203.257 11.7949 200.976 21.3173C198.695 30.8398 204.565 40.4083 214.088 42.6891C223.61 44.97 233.179 39.0995 235.46 29.5771Z" stroke="#DEE2F9" stroke-width="0.79" stroke-miterlimit="10"/>
<path d="M224.466 39.533C232.25 36.0887 235.767 26.9865 232.323 19.2028C228.879 11.4191 219.777 7.9014 211.993 11.3458C204.209 14.7902 200.691 23.8923 204.136 31.676C207.58 39.4597 216.682 42.9774 224.466 39.533Z" fill="#C09FEF"/>
<path d="M219.639 25.4466C219.639 26.221 219.012 26.8482 218.237 26.8482C217.463 26.8482 216.836 26.221 216.836 25.4466C216.836 24.6722 217.463 24.045 218.237 24.045C219.012 24.045 219.639 24.6722 219.639 25.4466Z" fill="white"/>
<path d="M218.079 25.1739C217.867 25.2939 217.599 25.2121 217.485 25.0049L212.953 16.8299C212.833 16.6172 212.909 16.35 213.122 16.2355C213.335 16.1155 213.602 16.1919 213.716 16.4045L218.248 24.5795C218.368 24.7922 218.292 25.0594 218.079 25.1739Z" fill="white"/>
<path d="M218.456 25.6703C218.625 25.5012 218.903 25.5012 219.077 25.6703L222.998 29.5914C223.167 29.7604 223.167 30.0386 222.998 30.2131C222.829 30.3822 222.551 30.3822 222.377 30.2131L218.456 26.292C218.286 26.1229 218.286 25.8448 218.456 25.6703Z" fill="white"/>
<path d="M218.33 13.1106V11.3382" stroke="white" stroke-width="2" stroke-miterlimit="10" stroke-linecap="round"/>
<path d="M230.568 25.5448H232.34" stroke="white" stroke-width="2" stroke-miterlimit="10" stroke-linecap="round"/>
<path d="M218.139 37.7827V39.5551" stroke="white" stroke-width="2" stroke-miterlimit="10" stroke-linecap="round"/>
<path d="M205.896 25.3539H204.124" stroke="white" stroke-width="2" stroke-miterlimit="10" stroke-linecap="round"/>
<g opacity="0.5">
<path d="M212.146 14.7194L211.262 13.1815" stroke="#DEE2F9" stroke-miterlimit="10" stroke-linecap="round"/>
<path d="M228.965 19.3605L230.497 18.477" stroke="#DEE2F9" stroke-miterlimit="10" stroke-linecap="round"/>
<path d="M224.318 36.1793L225.207 37.7118" stroke="#DEE2F9" stroke-miterlimit="10" stroke-linecap="round"/>
<path d="M207.505 31.5329L205.967 32.4218" stroke="#DEE2F9" stroke-miterlimit="10" stroke-linecap="round"/>
</g>
<g opacity="0.5">
<path d="M207.597 19.1968L206.065 18.3134" stroke="#DEE2F9" stroke-miterlimit="10" stroke-linecap="round"/>
<path d="M224.482 14.8121L225.371 13.2797" stroke="#DEE2F9" stroke-miterlimit="10" stroke-linecap="round"/>
<path d="M228.872 31.6965L230.404 32.5854" stroke="#DEE2F9" stroke-miterlimit="10" stroke-linecap="round"/>
<path d="M211.982 36.0866L211.099 37.6191" stroke="#DEE2F9" stroke-miterlimit="10" stroke-linecap="round"/>
</g>
</g>
<defs>
<clipPath id="clip0_38_4317">
<rect width="300.199" height="230" fill="white" transform="translate(0.900635 0.00012207)"/>
</clipPath>
</defs>
</svg>
