<svg width="416" height="294" viewBox="0 0 416 294" fill="none" xmlns="http://www.w3.org/2000/svg">
<g clip-path="url(#clip0_85_3643)">
<path d="M332.68 246.27H312.023V246.426H332.68V246.27Z" fill="#ECECEC"/>
<path d="M258.658 247.967H253.238V248.123H258.658V247.967Z" fill="#ECECEC"/>
<path d="M311.399 240.482H299.43V240.638H311.399V240.482Z" fill="#ECECEC"/>
<path d="M111.73 241.53H84.792V241.686H111.73V241.53Z" fill="#ECECEC"/>
<path d="M121.235 241.53H117.287V241.686H121.235V241.53Z" fill="#ECECEC"/>
<path d="M192.501 244.162H134.071V244.318H192.501V244.162Z" fill="#ECECEC"/>
<path d="M199.898 208.417H79.4654C77.5008 208.417 75.9041 206.82 75.9041 204.856V35.5615C75.9041 33.5968 77.5008 32.0001 79.4654 32.0001H199.904C201.869 32.0001 203.466 33.5968 203.466 35.5615V204.856C203.466 206.82 201.869 208.417 199.904 208.417H199.898ZM79.4654 32.1561C77.5881 32.1561 76.06 33.6841 76.06 35.5615V204.856C76.06 206.733 77.5881 208.261 79.4654 208.261H199.904C201.782 208.261 203.31 206.733 203.31 204.856V35.5615C203.31 33.6841 201.782 32.1561 199.904 32.1561H79.4654Z" fill="#ECECEC"/>
<path d="M334.807 208.417H214.368C212.403 208.417 210.807 206.82 210.807 204.856V35.5615C210.807 33.5968 212.403 32.0001 214.368 32.0001H334.807C336.771 32.0001 338.368 33.5968 338.368 35.5615V204.856C338.368 206.82 336.771 208.417 334.807 208.417ZM214.368 32.1561C212.491 32.1561 210.963 33.6841 210.963 35.5615V204.856C210.963 206.733 212.491 208.261 214.368 208.261H334.807C336.684 208.261 338.212 206.733 338.212 204.856V35.5615C338.212 33.6841 336.684 32.1561 334.807 32.1561H214.368Z" fill="#ECECEC"/>
<path d="M363.928 236.235H52.072V236.391H363.928V236.235Z" fill="#ECECEC"/>
<path d="M248.367 104.943H157.492L162.912 43.0086H253.787L248.367 104.943Z" fill="#F5F5F5"/>
<path d="M217.393 93.916H168.064V94.4025H217.393V93.916Z" fill="#E7E4ED"/>
<path d="M218.453 84.9283H168.694L168.719 84.6664L171.712 50.4121H221.472L221.447 50.6741L218.453 84.9283ZM169.224 84.4418H218.004L220.942 50.8986H172.161L169.224 84.4418Z" fill="#E7E4ED"/>
<path d="M170.721 101.27H169.38C168.818 101.27 168.307 101.051 167.939 100.652C167.571 100.253 167.396 99.7165 167.446 99.1552L167.565 97.8142C167.665 96.6666 168.681 95.7372 169.823 95.7372H171.164C171.725 95.7372 172.236 95.9555 172.604 96.3547C172.972 96.7539 173.147 97.2903 173.097 97.8516L172.979 99.1926C172.879 100.34 171.862 101.27 170.721 101.27ZM169.823 96.2237C168.924 96.2237 168.126 96.9535 168.051 97.8579L167.933 99.1988C167.895 99.6292 168.026 100.028 168.301 100.328C168.575 100.627 168.956 100.789 169.38 100.789H170.721C171.619 100.789 172.417 100.06 172.492 99.1552L172.611 97.8142C172.648 97.3838 172.517 96.9847 172.243 96.6853C171.968 96.3859 171.588 96.2237 171.164 96.2237H169.823Z" fill="#E7E4ED"/>
<path d="M193.28 91.0594H168.157L168.388 88.3961H193.511L193.28 91.0594ZM168.687 90.5729H192.831L192.981 88.8826H168.837L168.687 90.5729Z" fill="#E7E4ED"/>
<path d="M217.112 99.835H207.102L207.333 97.1718H217.343L217.112 99.835ZM207.638 99.3485H216.67L216.819 97.6583H207.788L207.638 99.3485Z" fill="#E7E4ED"/>
<path d="M217.917 91.0594H215.254L215.485 88.3961H218.148L217.917 91.0594ZM215.778 90.5729H217.462L217.611 88.8826H215.927L215.778 90.5729Z" fill="#E7E4ED"/>
<path d="M214.225 91.0594H211.561L211.792 88.3961H214.455L214.225 91.0594ZM212.092 90.5729H213.776L213.925 88.8826H212.241L212.092 90.5729Z" fill="#E7E4ED"/>
<path d="M210.538 91.0594H207.875L208.106 88.3961H210.769L210.538 91.0594ZM208.405 90.5729H210.089L210.239 88.8826H208.555L208.405 90.5729Z" fill="#E7E4ED"/>
<path d="M221.697 47.8299H184.255L184.461 45.4661H221.903L221.697 47.8299ZM184.785 47.3434H221.248L221.372 45.9588H184.91L184.785 47.3434Z" fill="#E7E4ED"/>
<path d="M181.823 47.9796H171.812L172.043 45.3164H182.054L181.823 47.9796ZM172.349 47.4931H181.38L181.53 45.8029H172.498L172.349 47.4931Z" fill="#E7E4ED"/>
<path d="M245.204 61.614H227.622L228.501 51.5098H246.084L245.198 61.614H245.204ZM228.152 61.1275H244.755L245.554 52.0026H228.95L228.152 61.1275Z" fill="#E7E4ED"/>
<path d="M243.545 80.581H225.963L226.849 70.4769H244.431L243.545 80.581ZM226.493 80.0945H243.096L243.895 70.9634H227.291L226.493 80.0945Z" fill="#E7E4ED"/>
<path d="M241.886 99.5419H224.304L225.189 89.4377H242.772L241.886 99.5419ZM224.834 99.0554H241.437L242.236 89.9242H225.632L224.834 99.0554Z" fill="#E7E4ED"/>
<path d="M245.705 51.5274L227.774 61.154L228.005 61.5827L245.936 51.9561L245.705 51.5274Z" fill="#E7E4ED"/>
<path d="M244.855 61.5828L228.607 51.9651L228.851 51.5473L245.105 61.1587L244.855 61.5828Z" fill="#E7E4ED"/>
<path d="M244.059 70.5246L226.114 80.1262L226.344 80.5552L244.288 70.9536L244.059 70.5246Z" fill="#E7E4ED"/>
<path d="M227.193 70.5168L226.945 70.9355L243.199 80.5521L243.447 80.1334L227.193 70.5168Z" fill="#E7E4ED"/>
<path d="M224.285 99.729L225.196 89.2818L233.535 94.2154L242.379 89.4689L242.61 89.8993L234.021 94.5023L241.774 99.0928L241.525 99.5107L233.516 94.7705L224.273 99.729H224.285ZM225.62 90.0926L224.853 98.8745L233.042 94.4836L225.62 90.0926Z" fill="#E7E4ED"/>
<path d="M221.075 50.4503L168.823 84.4738L169.089 84.8815L221.34 50.858L221.075 50.4503Z" fill="#E7E4ED"/>
<path d="M172.078 50.4583L171.79 50.8503L218.083 84.8814L218.372 84.4894L172.078 50.4583Z" fill="#E7E4ED"/>
<path d="M284.392 236.578H234.383L241.437 155.982H291.44L284.392 236.578Z" fill="#F5F5F5"/>
<path d="M250.737 232.979H238.556L239.304 224.415H251.485L250.737 232.979ZM239.098 232.48H250.281L250.942 224.908H239.753L239.092 232.48H239.098Z" fill="#E7E4ED"/>
<path d="M265.562 232.979H253.381L254.13 224.415H266.311L265.562 232.979ZM253.918 232.48H265.107L265.768 224.908H254.585L253.924 232.48H253.918Z" fill="#E7E4ED"/>
<path d="M280.382 232.979H268.201L268.949 224.415H281.13L280.382 232.979ZM268.743 232.48H279.926L280.587 224.908H269.398L268.737 232.48H268.743Z" fill="#E7E4ED"/>
<path d="M281.928 212.24H240.595V212.733H281.928V212.24Z" fill="#E7E4ED"/>
<path d="M268.774 200.702H241.431L241.705 197.546H269.049L268.774 200.702ZM241.967 200.203H268.313L268.5 198.038H242.154L241.967 200.203Z" fill="#E7E4ED"/>
<path d="M281.448 220.835H270.109L270.384 217.723H281.723L281.448 220.835ZM270.646 220.342H280.987L281.174 218.222H270.833L270.646 220.342Z" fill="#E7E4ED"/>
<path d="M282.515 208.66H278.205L278.579 204.35H282.889L282.515 208.66ZM278.741 208.161H282.053L282.346 204.843H279.035L278.741 208.161Z" fill="#E7E4ED"/>
<path d="M263.772 208.66H259.462L259.837 204.35H264.146L263.772 208.66ZM259.999 208.161H263.311L263.604 204.843H260.292L259.999 208.161Z" fill="#E7E4ED"/>
<path d="M245.03 208.66H240.72L241.094 204.35H245.404L245.03 208.66ZM241.256 208.161H244.568L244.861 204.843H241.549L241.256 208.161Z" fill="#E7E4ED"/>
<path d="M257.566 163.479H244.687L244.98 160.154H257.859L257.566 163.479ZM245.229 162.98H257.111L257.317 160.647H245.435L245.229 162.98Z" fill="#E7E4ED"/>
<path d="M243.689 221.702H242.603C241.805 221.702 241.075 221.39 240.558 220.823C240.034 220.255 239.784 219.494 239.859 218.69L239.953 217.604C240.096 215.97 241.543 214.635 243.183 214.635H244.269C245.067 214.635 245.797 214.947 246.315 215.515C246.838 216.082 247.088 216.843 247.013 217.648L246.92 218.733C246.776 220.367 245.329 221.702 243.689 221.702ZM243.183 215.134C241.799 215.134 240.57 216.263 240.445 217.648L240.352 218.733C240.296 219.401 240.495 220.018 240.926 220.486C241.35 220.947 241.949 221.203 242.61 221.203H243.695C245.08 221.203 246.308 220.074 246.427 218.69L246.52 217.604C246.576 216.943 246.377 216.319 245.947 215.852C245.522 215.39 244.924 215.134 244.263 215.134H243.177H243.183Z" fill="#E7E4ED"/>
<path d="M283.656 194.907H241.911L241.936 194.639L244.45 165.924H286.195L286.17 166.192L283.656 194.907ZM242.454 194.415H283.201L285.652 166.423H244.905L242.454 194.415Z" fill="#E7E4ED"/>
<path d="M244.824 165.974L244.533 166.371L283.288 194.861L283.58 194.464L244.824 165.974Z" fill="#E7E4ED"/>
<path d="M242.323 194.87L242.048 194.452L285.515 166.217L285.789 166.628L242.323 194.87Z" fill="#E7E4ED"/>
<path d="M250.362 232.929L239.385 224.858L239.678 224.459L250.656 232.53L250.362 232.929Z" fill="#E7E4ED"/>
<path d="M251.084 224.437L238.692 232.507L238.964 232.925L251.357 224.855L251.084 224.437Z" fill="#E7E4ED"/>
<path d="M265.188 232.929L254.211 224.858L254.504 224.459L265.481 232.53L265.188 232.929Z" fill="#E7E4ED"/>
<path d="M265.905 224.443L253.514 232.515L253.787 232.933L266.178 224.861L265.905 224.443Z" fill="#E7E4ED"/>
<path d="M280.007 232.929L269.03 224.858L269.33 224.459L280.307 232.53L280.007 232.929Z" fill="#E7E4ED"/>
<path d="M280.729 224.447L268.338 232.518L268.61 232.936L281.002 224.865L280.729 224.447Z" fill="#E7E4ED"/>
<path d="M299.542 61.614C299.542 60.1919 299.33 58.8197 298.937 57.5224L302.523 54.3664L300.266 50.4558L295.737 51.9901C293.866 49.988 291.415 48.541 288.652 47.8985L287.71 43.2145H283.195L282.259 47.8985C279.496 48.541 277.045 49.9942 275.174 51.9901L270.646 50.4558L268.388 54.3664L271.974 57.5224C271.581 58.8135 271.369 60.1919 271.369 61.614C271.369 63.036 271.581 64.4082 271.974 65.7055L268.388 68.8553L270.646 72.7659L275.174 71.2316C277.045 73.2337 279.496 74.6807 282.259 75.3294L283.195 80.0135H287.71L288.652 75.3294C291.415 74.687 293.86 73.2337 295.737 71.2316L300.266 72.7659L302.523 68.8553L298.937 65.7055C299.33 64.4082 299.542 63.036 299.542 61.614ZM285.452 69.217C281.411 69.217 278.136 65.9363 278.136 61.8946C278.136 57.853 281.411 54.5723 285.452 54.5723C289.494 54.5723 292.775 57.853 292.775 61.8946C292.775 65.9363 289.494 69.217 285.452 69.217Z" fill="#ECECEC"/>
<path d="M144.837 180.15C146.047 177.861 146.876 175.46 147.338 173.046L155.808 171.007L155.496 162.78L146.895 161.395C145.573 156.58 142.866 152.158 138.955 148.771L141.425 140.42L134.14 136.578L128.645 143.333C123.649 142.017 118.46 142.272 113.745 143.907L107.751 137.588L100.784 141.973L103.884 150.112C102.15 151.865 100.64 153.898 99.4304 156.194C98.2204 158.489 97.3971 160.884 96.9231 163.304L88.4594 165.337L88.7712 173.564L97.3722 174.949C98.6945 179.764 101.408 184.192 105.312 187.579L102.836 195.924L110.121 199.766L115.622 193.018C120.618 194.327 125.801 194.065 130.522 192.438L136.516 198.756L143.483 194.371L140.383 186.238C142.124 184.485 143.627 182.452 144.837 180.157V180.15ZM115.659 180.431C109.142 176.994 106.653 168.924 110.09 162.406C113.526 155.888 121.597 153.387 128.115 156.824C134.633 160.26 137.128 168.337 133.691 174.855C130.254 181.373 122.177 183.868 115.659 180.431Z" fill="#ECECEC"/>
<path d="M299.049 158.233L303.939 160.946C304.183 161.084 304.351 161.208 304.432 161.314C304.513 161.42 304.551 161.558 304.551 161.726C304.551 161.938 304.476 162.119 304.32 162.275C304.17 162.431 303.989 162.506 303.79 162.506C303.659 162.506 303.459 162.431 303.191 162.287L296.879 158.776C296.455 158.539 296.455 157.928 296.879 157.691L303.191 154.179C303.459 154.036 303.652 153.967 303.777 153.967C303.983 153.967 304.164 154.042 304.314 154.198C304.463 154.347 304.544 154.535 304.544 154.74C304.544 154.909 304.507 155.046 304.426 155.152C304.345 155.258 304.183 155.383 303.933 155.52L299.043 158.233H299.049Z" fill="#ECECEC"/>
<path d="M311.636 153.181L306.796 163.616C306.671 163.878 306.565 164.046 306.465 164.127C306.341 164.233 306.185 164.283 306.004 164.283C305.798 164.283 305.617 164.208 305.467 164.065C305.318 163.915 305.243 163.753 305.243 163.566C305.243 163.435 305.299 163.242 305.418 162.986L310.27 152.564C310.395 152.302 310.501 152.133 310.594 152.052C310.725 151.946 310.881 151.896 311.056 151.896C311.262 151.896 311.436 151.971 311.586 152.115C311.736 152.258 311.804 152.426 311.804 152.614C311.804 152.745 311.748 152.938 311.63 153.194L311.636 153.181Z" fill="#ECECEC"/>
<path d="M317.723 158.233L312.833 155.52C312.59 155.383 312.422 155.258 312.341 155.152C312.26 155.046 312.222 154.909 312.222 154.74C312.222 154.528 312.297 154.347 312.453 154.198C312.603 154.048 312.783 153.967 312.989 153.967C313.114 153.967 313.314 154.036 313.582 154.179L319.894 157.691C320.318 157.928 320.318 158.539 319.894 158.776L313.582 162.287C313.314 162.437 313.12 162.506 312.989 162.506C312.783 162.506 312.596 162.425 312.447 162.269C312.303 162.119 312.222 161.926 312.222 161.72C312.222 161.551 312.266 161.414 312.341 161.308C312.422 161.202 312.584 161.077 312.833 160.94L317.723 158.227V158.233Z" fill="#ECECEC"/>
<path d="M204.994 262C271.782 262 325.925 258.839 325.925 254.94C325.925 251.04 271.782 247.879 204.994 247.879C138.205 247.879 84.0623 251.04 84.0623 254.94C84.0623 258.839 138.205 262 204.994 262Z" fill="#E7E4ED"/>
<path d="M122.895 113.95H99.811C98.7569 113.95 97.8026 113.538 97.1165 112.79C96.4304 112.041 96.0999 111.043 96.1934 109.983L101.021 54.803C101.208 52.645 103.117 50.8924 105.275 50.8924H111.275C111.836 50.8924 112.279 51.3165 112.304 51.8716V52.0587C112.341 52.8383 112.959 53.4246 113.745 53.4246H119.452C120.262 53.4246 121.011 52.8134 121.186 52.0026L121.223 51.8154C121.341 51.2791 121.816 50.8861 122.364 50.8861H128.364C129.419 50.8861 130.373 51.2978 131.059 52.0462C131.745 52.7947 132.076 53.7926 131.982 54.8529L127.154 110.033C126.967 112.191 125.059 113.943 122.901 113.943L122.895 113.95ZM105.268 51.5223C103.428 51.5223 101.801 53.0192 101.638 54.8592L96.8109 110.039C96.7361 110.918 97.0043 111.748 97.5718 112.365C98.1394 112.983 98.9315 113.32 99.8047 113.32H122.888C124.728 113.32 126.356 111.823 126.518 109.983L131.346 54.803C131.421 53.9236 131.152 53.0941 130.585 52.4766C130.017 51.8591 129.225 51.5223 128.352 51.5223H122.352C122.109 51.5223 121.878 51.7157 121.822 51.9589L121.784 52.146C121.547 53.2375 120.543 54.0546 119.439 54.0546H113.732C112.603 54.0546 111.718 53.2126 111.674 52.0899V51.9028C111.655 51.6782 111.487 51.5223 111.262 51.5223H105.262H105.268Z" fill="#4603A6"/>
<path d="M131.221 59.562H100.89V60.1857H131.221V59.562Z" fill="#4603A6"/>
<path d="M128.352 50.8986H122.352V51.5223H128.352V50.8986Z" fill="#4603A6"/>
<path d="M122.714 85.3337H105.013L106.56 67.6328H124.26L122.714 85.3337ZM105.693 84.71H122.14L123.581 68.2565H107.133L105.693 84.71Z" fill="#4603A6"/>
<path d="M122.926 105.33H101.233L101.807 98.7685H123.506L122.932 105.33H122.926ZM101.913 104.706H122.358L122.826 99.3922H102.381L101.913 104.706Z" fill="#4603A6"/>
<path d="M108.655 94.4399C108.156 94.4399 107.695 94.2403 107.37 93.8848C107.04 93.5231 106.884 93.049 106.927 92.5501C107.015 91.5397 107.913 90.7164 108.923 90.7164C109.422 90.7164 109.884 90.9097 110.208 91.2715C110.539 91.6332 110.695 92.1072 110.651 92.6062C110.564 93.6166 109.666 94.4399 108.655 94.4399ZM108.93 91.3401C108.231 91.3401 107.614 91.9076 107.551 92.6062C107.52 92.9368 107.62 93.2424 107.832 93.4669C108.038 93.6915 108.331 93.8162 108.655 93.8162C109.354 93.8162 109.971 93.2486 110.034 92.5501C110.065 92.2257 109.965 91.9139 109.753 91.6893C109.547 91.4648 109.254 91.3401 108.93 91.3401Z" fill="#4603A6"/>
<path d="M113.14 94.4399C112.641 94.4399 112.179 94.2403 111.855 93.8848C111.524 93.5231 111.368 93.049 111.412 92.5501C111.499 91.5397 112.397 90.7164 113.408 90.7164C113.907 90.7164 114.368 90.9097 114.693 91.2715C115.023 91.6332 115.179 92.1072 115.136 92.6062C115.048 93.6166 114.15 94.4399 113.14 94.4399ZM113.414 91.3401C112.716 91.3401 112.098 91.9076 112.036 92.6062C112.005 92.9368 112.104 93.2424 112.316 93.4669C112.522 93.6915 112.815 93.8162 113.14 93.8162C113.838 93.8162 114.456 93.2486 114.518 92.5501C114.549 92.2257 114.449 91.9139 114.237 91.6893C114.032 91.4648 113.738 91.3401 113.414 91.3401Z" fill="#4603A6"/>
<path d="M117.63 94.4399C117.131 94.4399 116.67 94.2403 116.346 93.8848C116.015 93.5293 115.859 93.049 115.903 92.5501C115.99 91.5397 116.888 90.7164 117.899 90.7164C118.398 90.7164 118.859 90.9159 119.183 91.2715C119.514 91.627 119.67 92.1072 119.626 92.6062C119.539 93.6166 118.641 94.4399 117.63 94.4399ZM117.899 91.3401C117.2 91.3401 116.583 91.9076 116.52 92.6062C116.489 92.9305 116.589 93.2424 116.801 93.4669C117.007 93.6915 117.3 93.8162 117.624 93.8162C118.323 93.8162 118.94 93.2486 119.003 92.5501C119.034 92.2257 118.934 91.9139 118.722 91.6893C118.516 91.4648 118.223 91.3401 117.899 91.3401Z" fill="#4603A6"/>
<path d="M303.353 176.446H273.022V177.069H303.353V176.446Z" fill="#4603A6"/>
<path d="M295.008 230.833H271.924C270.87 230.833 269.916 230.422 269.23 229.673C268.544 228.925 268.213 227.927 268.307 226.866L273.134 171.687C273.321 169.529 275.23 167.776 277.388 167.776H283.388C283.949 167.776 284.392 168.2 284.417 168.755V168.942C284.455 169.722 285.072 170.308 285.858 170.308H291.565C292.376 170.308 293.124 169.697 293.299 168.886L293.342 168.699C293.455 168.169 293.948 167.77 294.484 167.77H300.484C301.538 167.77 302.492 168.181 303.178 168.93C303.865 169.678 304.195 170.676 304.102 171.737L299.274 226.916C299.087 229.074 297.178 230.827 295.02 230.827L295.008 230.833ZM277.388 168.406C275.548 168.406 273.92 169.903 273.758 171.743L268.93 226.923C268.856 227.808 269.124 228.632 269.691 229.255C270.253 229.873 271.051 230.21 271.924 230.21H295.008C296.848 230.21 298.476 228.713 298.638 226.873L303.465 171.693C303.54 170.813 303.272 169.984 302.704 169.366C302.137 168.749 301.345 168.412 300.472 168.412H294.471C294.228 168.412 293.997 168.606 293.941 168.849L293.904 169.036C293.667 170.127 292.663 170.944 291.565 170.944H285.858C284.729 170.944 283.843 170.102 283.8 168.98V168.793C283.781 168.568 283.613 168.412 283.388 168.412H277.388V168.406Z" fill="#4603A6"/>
<path d="M298.881 185.109H276.091C275.604 185.109 275.167 184.922 274.849 184.573C274.531 184.229 274.382 183.768 274.425 183.281C274.513 182.308 275.373 181.51 276.353 181.51H299.143C299.629 181.51 300.066 181.697 300.384 182.046C300.702 182.39 300.852 182.851 300.808 183.338C300.721 184.317 299.86 185.109 298.881 185.109ZM276.346 182.14C275.685 182.14 275.099 182.676 275.043 183.338C275.018 183.649 275.111 183.936 275.305 184.148C275.498 184.36 275.779 184.479 276.084 184.479H298.875C299.536 184.479 300.122 183.943 300.178 183.281C300.203 182.97 300.11 182.683 299.916 182.471C299.723 182.259 299.442 182.14 299.137 182.14H276.346Z" fill="#4603A6"/>
<path d="M298.363 191.053H275.573C275.087 191.053 274.65 190.866 274.332 190.516C274.014 190.173 273.864 189.712 273.908 189.225C273.995 188.252 274.856 187.454 275.835 187.454H298.625C299.112 187.454 299.548 187.641 299.867 187.99C300.185 188.334 300.334 188.795 300.291 189.282C300.203 190.255 299.343 191.053 298.363 191.053ZM275.829 188.084C275.168 188.084 274.581 188.62 274.525 189.282C274.5 189.593 274.594 189.88 274.787 190.092C274.98 190.304 275.261 190.423 275.567 190.423H298.357C299.018 190.423 299.605 189.887 299.661 189.225C299.686 188.914 299.592 188.627 299.399 188.408C299.205 188.196 298.925 188.078 298.619 188.078H275.829V188.084Z" fill="#4603A6"/>
<path d="M297.84 196.991H275.049C274.563 196.991 274.126 196.804 273.808 196.454C273.49 196.111 273.34 195.65 273.384 195.163C273.471 194.19 274.332 193.392 275.311 193.392H298.101C298.588 193.392 299.025 193.579 299.343 193.928C299.661 194.271 299.81 194.733 299.767 195.219C299.679 196.199 298.819 196.991 297.84 196.991ZM275.311 194.022C274.65 194.022 274.064 194.558 274.007 195.219C273.983 195.531 274.076 195.818 274.269 196.03C274.463 196.242 274.743 196.361 275.049 196.361H297.84C298.501 196.361 299.087 195.824 299.143 195.163C299.168 194.851 299.074 194.564 298.881 194.352C298.688 194.14 298.407 194.022 298.101 194.022H275.311Z" fill="#4603A6"/>
<path d="M296.417 213.263H273.627C273.14 213.263 272.704 213.076 272.386 212.727C272.068 212.384 271.918 211.922 271.962 211.436C272.049 210.463 272.91 209.664 273.889 209.664H296.679C297.166 209.664 297.602 209.852 297.921 210.201C298.239 210.544 298.388 211.005 298.345 211.492C298.257 212.465 297.397 213.263 296.417 213.263ZM273.883 210.294C273.222 210.294 272.635 210.831 272.579 211.492C272.554 211.804 272.648 212.091 272.841 212.303C273.034 212.515 273.315 212.633 273.621 212.633H296.411C297.072 212.633 297.659 212.097 297.715 211.436C297.74 211.124 297.646 210.837 297.453 210.625C297.259 210.413 296.979 210.294 296.673 210.294H273.883Z" fill="#4603A6"/>
<path d="M295.9 219.207H273.109C272.623 219.207 272.186 219.02 271.868 218.671C271.55 218.328 271.4 217.866 271.444 217.38C271.531 216.407 272.392 215.608 273.371 215.608H296.162C296.648 215.608 297.085 215.796 297.403 216.145C297.721 216.488 297.871 216.949 297.827 217.436C297.74 218.409 296.879 219.207 295.9 219.207ZM273.365 216.238C272.704 216.238 272.118 216.775 272.061 217.436C272.036 217.748 272.13 218.035 272.323 218.247C272.517 218.459 272.797 218.577 273.103 218.577H295.893C296.555 218.577 297.141 218.041 297.197 217.38C297.222 217.068 297.128 216.781 296.935 216.569C296.742 216.357 296.461 216.238 296.155 216.238H273.365Z" fill="#4603A6"/>
<path d="M295.376 225.145H272.585C272.099 225.145 271.662 224.958 271.344 224.609C271.026 224.266 270.876 223.804 270.92 223.317C271.007 222.345 271.868 221.546 272.847 221.546H295.638C296.124 221.546 296.561 221.733 296.879 222.083C297.197 222.426 297.347 222.887 297.303 223.374C297.216 224.347 296.355 225.145 295.376 225.145ZM272.847 222.176C272.186 222.176 271.6 222.712 271.544 223.374C271.519 223.685 271.612 223.972 271.806 224.184C271.999 224.397 272.28 224.515 272.585 224.515H295.376C296.037 224.515 296.623 223.979 296.679 223.317C296.704 223.006 296.611 222.719 296.417 222.507C296.224 222.295 295.943 222.176 295.638 222.176H272.847Z" fill="#4603A6"/>
<path d="M310.014 118.665H286.931C285.877 118.665 284.922 118.253 284.236 117.505C283.55 116.756 283.22 115.758 283.313 114.698L288.141 59.5183C288.328 57.3602 290.236 55.6076 292.394 55.6076H298.395C298.956 55.6076 299.399 56.0317 299.424 56.5868V56.774C299.461 57.5536 300.079 58.1399 300.864 58.1399H306.571C307.382 58.1399 308.131 57.5286 308.305 56.7178L308.349 56.5307C308.461 55.9943 308.941 55.6014 309.49 55.6014H315.49C316.545 55.6014 317.499 56.013 318.185 56.7615C318.871 57.5099 319.202 58.5079 319.108 59.5682L314.28 114.748C314.093 116.906 312.185 118.659 310.027 118.659L310.014 118.665ZM292.388 56.2376C290.548 56.2376 288.92 57.7345 288.758 59.5744L283.931 114.754C283.856 115.634 284.124 116.463 284.692 117.081C285.259 117.698 286.051 118.035 286.924 118.035H310.008C311.848 118.035 313.476 116.538 313.638 114.698L318.466 59.5183C318.54 58.6389 318.272 57.8093 317.705 57.1918C317.137 56.5744 316.345 56.2376 315.472 56.2376H309.472C309.228 56.2376 308.998 56.4309 308.941 56.6742L308.904 56.8613C308.667 57.9528 307.663 58.7698 306.559 58.7698H300.852C299.723 58.7698 298.837 57.9278 298.794 56.8051V56.618C298.775 56.3935 298.607 56.2376 298.382 56.2376H292.382H292.388Z" fill="#4603A6"/>
<path d="M318.335 64.2834H288.004V64.9072H318.335V64.2834Z" fill="#4603A6"/>
<path d="M311.486 112.222H286.937L288.484 94.521H313.033L311.486 112.222ZM287.617 111.598H310.912L312.353 95.1447H289.058L287.617 111.598Z" fill="#4603A6"/>
<path d="M288.957 94.5869L288.579 95.0832L311.006 112.155L311.384 111.659L288.957 94.5869Z" fill="#4603A6"/>
<path d="M312.521 94.5774L287.104 111.65L287.452 112.168L312.868 95.0951L312.521 94.5774Z" fill="#4603A6"/>
<path d="M314.698 75.529H290.149L290.723 68.9675H315.272L314.698 75.529ZM290.829 74.9053H314.125L314.592 69.5912H291.297L290.829 74.9053Z" fill="#4603A6"/>
<path d="M314.859 68.988L290.417 74.9327L290.565 75.5388L315.007 69.5941L314.859 68.988Z" fill="#4603A6"/>
<path d="M291.075 68.9699L290.921 69.5744L314.323 75.5134L314.477 74.9089L291.075 68.9699Z" fill="#4603A6"/>
<path d="M313.95 84.0676H289.401L289.974 77.5061H314.524L313.95 84.0676ZM290.08 83.4439H313.376L313.844 78.1299H290.548L290.08 83.4439Z" fill="#4603A6"/>
<path d="M314.109 77.4978L289.667 83.4425L289.814 84.0485L314.256 78.1038L314.109 77.4978Z" fill="#4603A6"/>
<path d="M290.329 77.5089L290.175 78.1135L313.577 84.0525L313.731 83.4479L290.329 77.5089Z" fill="#4603A6"/>
<path d="M313.201 92.6H288.652L289.226 86.0385H313.775L313.201 92.6ZM289.332 91.9763H312.628L313.095 86.6622H289.8L289.332 91.9763Z" fill="#4603A6"/>
<path d="M313.366 86.0587L288.924 92.0034L289.072 92.6095L313.513 86.6648L313.366 86.0587Z" fill="#4603A6"/>
<path d="M289.577 86.0464L289.423 86.6509L312.825 92.5899L312.979 91.9854L289.577 86.0464Z" fill="#4603A6"/>
<path d="M306.472 147.031C300.971 147.031 296.499 142.559 296.499 137.058C296.499 131.557 300.971 127.085 306.472 127.085C311.973 127.085 316.445 131.557 316.445 137.058C316.445 142.559 311.973 147.031 306.472 147.031ZM306.472 127.709C301.314 127.709 297.122 131.9 297.122 137.058C297.122 142.216 301.314 146.408 306.472 146.408C311.63 146.408 315.821 142.216 315.821 137.058C315.821 131.9 311.63 127.709 306.472 127.709Z" fill="#4603A6"/>
<path d="M304.75 142.834L300.097 136.684L300.596 136.31L304.501 141.474C306.309 135.705 310.002 130.634 314.942 127.147L316.333 126.168L316.694 126.68L315.303 127.659C310.307 131.189 306.621 136.366 304.925 142.241L304.75 142.84V142.834Z" fill="#4603A6"/>
<path d="M237.42 64.9571H221.223L204.888 251.64H221.085C228.595 251.64 235.212 245.553 235.867 238.05L249.82 78.554C250.475 71.0445 244.924 64.9633 237.414 64.9633L237.42 64.9571Z" fill="#2D002A"/>
<path d="M217.774 251.64H151.043C143.533 251.64 137.982 245.553 138.637 238.05L152.589 78.554C153.244 71.0445 159.862 64.9633 167.371 64.9633H234.102C241.612 64.9633 247.163 71.0507 246.508 78.554L232.555 238.05C231.901 245.559 225.283 251.64 217.774 251.64Z" fill="#4603A6"/>
<path d="M233.828 68.0756H216.482C215.347 68.0756 214.312 68.9176 214.069 70.0466L213.95 70.5892C213.358 73.3398 210.838 75.4042 208.062 75.4042H191.571C188.796 75.4042 186.638 73.3398 186.526 70.5892L186.507 70.0466C186.463 68.9176 185.577 68.0756 184.442 68.0756H167.097C161.315 68.0756 156.213 72.7659 155.708 78.5477L141.755 238.043C141.25 243.825 145.529 248.515 151.311 248.515H218.042C223.823 248.515 228.925 243.825 229.431 238.043L243.383 78.5477C243.888 72.7659 239.61 68.0756 233.828 68.0756Z" fill="white"/>
<g opacity="0.2">
<path d="M196.274 69.8407C196.212 70.5705 195.563 71.163 194.833 71.163C194.104 71.163 193.561 70.5705 193.623 69.8407C193.686 69.111 194.334 68.5185 195.064 68.5185C195.794 68.5185 196.337 69.111 196.274 69.8407Z" fill="black"/>
<path d="M205.786 68.5185H201.239C200.509 68.5185 199.861 69.111 199.798 69.8407C199.736 70.5705 200.278 71.163 201.008 71.163H205.555C206.285 71.163 206.933 70.5705 206.996 69.8407C207.058 69.111 206.516 68.5185 205.786 68.5185Z" fill="black"/>
</g>
<path d="M163.249 75.3793H164.652L164.777 73.9759H163.373L163.249 75.3793Z" fill="#2D002A"/>
<path d="M166.18 73.9759L166.055 75.3793H167.459L167.584 73.9759L167.702 72.5726H166.299L166.18 73.9759Z" fill="#2D002A"/>
<path d="M169.23 71.1692L169.105 72.5726L168.987 73.9759L168.862 75.3793H170.265L170.39 73.9759L170.509 72.5726L170.633 71.1692H169.23Z" fill="#2D002A"/>
<path d="M229.568 71.2628L229.481 72.2919H228.795L228.614 74.3502H229.3L229.212 75.3793H235.387L235.749 71.2628H229.574H229.568ZM232.044 74.3502H229.986L230.167 72.2919H232.225L232.044 74.3502Z" fill="#2D002A"/>
<path opacity="0.8" d="M226.774 182.502H136.51L144.107 95.7061H234.364L226.774 182.502Z" fill="#2D002A"/>
<path d="M224.385 179.882H134.128L141.718 93.0865H231.982L224.385 179.882Z" fill="#4603A6"/>
<g opacity="0.8">
<path d="M224.385 179.882H134.128L141.718 93.0865H231.982L224.385 179.882Z" fill="white"/>
<path d="M224.672 180.194H133.785L133.816 179.857L141.431 92.7746H232.319L224.672 180.194ZM134.464 179.57H224.098L231.639 93.3983H142.005L134.464 179.57Z" fill="#4603A6"/>
</g>
<path opacity="0.8" d="M219.364 155.982H143.334L148.192 100.434H224.223L219.364 155.982Z" fill="white"/>
<path d="M219.651 156.293H142.997L147.912 100.122H224.566L219.651 156.293ZM143.67 155.67H219.077L223.88 100.746H148.473L143.67 155.67Z" fill="#4603A6"/>
<path d="M148.376 100.179L147.992 100.671L219.165 156.217L219.548 155.725L148.376 100.179Z" fill="#4603A6"/>
<path d="M224.037 100.152L143.166 155.732L143.52 156.246L224.39 100.666L224.037 100.152Z" fill="#4603A6"/>
<path d="M172.81 164.115C172.673 165.699 171.276 166.984 169.692 166.984C168.107 166.984 166.935 165.699 167.078 164.115C167.222 162.531 168.613 161.246 170.197 161.246C171.781 161.246 172.954 162.531 172.81 164.115Z" fill="#4603A6"/>
<path d="M183.501 164.115C183.363 165.699 181.966 166.984 180.382 166.984C178.798 166.984 177.625 165.699 177.769 164.115C177.912 162.531 179.303 161.246 180.887 161.246C182.472 161.246 183.644 162.531 183.501 164.115Z" fill="#4603A6"/>
<path d="M194.197 164.115C194.06 165.699 192.663 166.984 191.079 166.984C189.494 166.984 188.322 165.699 188.465 164.115C188.609 162.531 190 161.246 191.584 161.246C193.168 161.246 194.341 162.531 194.197 164.115Z" fill="#4603A6"/>
<path d="M172.112 228.775H129.849L133.404 188.134H175.667L172.112 228.775Z" fill="#4603A6"/>
<g opacity="0.8">
<path d="M172.112 228.775H129.849L133.404 188.134H175.667L172.112 228.775Z" fill="white"/>
<path d="M172.399 229.087H129.512L133.123 187.822H176.01L172.399 229.087ZM130.192 228.463H171.831L175.33 188.446H133.691L130.192 228.463Z" fill="#4603A6"/>
</g>
<path d="M169.76 217.586H134.159L136.435 191.577H172.037L169.76 217.586Z" fill="white"/>
<path d="M170.047 217.897H133.822L136.155 191.265H172.38L170.047 217.897ZM134.502 217.274H169.473L171.694 191.889H136.722L134.502 217.274Z" fill="#4603A6"/>
<path d="M136.625 191.326L136.242 191.818L169.569 217.828L169.952 217.336L136.625 191.326Z" fill="#4603A6"/>
<path d="M171.86 191.3L133.992 217.326L134.345 217.84L172.213 191.814L171.86 191.3Z" fill="#4603A6"/>
<path d="M147.961 221.39C147.899 222.132 147.244 222.731 146.502 222.731C145.76 222.731 145.211 222.132 145.279 221.39C145.348 220.648 145.997 220.049 146.739 220.049C147.481 220.049 148.03 220.648 147.961 221.39Z" fill="#4603A6"/>
<path d="M152.97 221.39C152.907 222.132 152.253 222.731 151.51 222.731C150.768 222.731 150.219 222.132 150.288 221.39C150.357 220.648 151.005 220.049 151.747 220.049C152.49 220.049 153.038 220.648 152.97 221.39Z" fill="#4603A6"/>
<path d="M157.978 221.39C157.916 222.132 157.261 222.731 156.519 222.731C155.777 222.731 155.228 222.132 155.296 221.39C155.359 220.648 156.014 220.049 156.756 220.049C157.498 220.049 158.047 220.648 157.978 221.39Z" fill="#4603A6"/>
<path d="M220.106 228.775H177.844L181.399 188.134H223.661L220.106 228.775Z" fill="#4603A6"/>
<g opacity="0.8">
<path d="M220.106 228.775H177.844L181.399 188.134H223.661L220.106 228.775Z" fill="white"/>
<path d="M220.393 229.087H177.507L181.118 187.822H224.004L220.393 229.087ZM178.187 228.463H219.826L223.325 188.446H181.686L178.187 228.463Z" fill="#4603A6"/>
</g>
<path d="M217.755 217.586H182.153L184.43 191.577H220.031L217.755 217.586Z" fill="white"/>
<path d="M218.042 217.897H181.817L184.149 191.265H220.374L218.042 217.897ZM182.496 217.274H217.468L219.688 191.889H184.717L182.496 217.274Z" fill="#4603A6"/>
<path d="M184.626 191.32L184.242 191.812L217.569 217.821L217.953 217.33L184.626 191.32Z" fill="#4603A6"/>
<path d="M219.852 191.303L181.984 217.329L182.338 217.843L220.205 191.817L219.852 191.303Z" fill="#4603A6"/>
<path d="M195.956 221.39C195.894 222.132 195.239 222.731 194.497 222.731C193.754 222.731 193.205 222.132 193.274 221.39C193.343 220.648 193.991 220.049 194.734 220.049C195.476 220.049 196.025 220.648 195.956 221.39Z" fill="#4603A6"/>
<path d="M200.964 221.39C200.902 222.132 200.247 222.731 199.505 222.731C198.763 222.731 198.214 222.132 198.283 221.39C198.351 220.648 199 220.049 199.742 220.049C200.484 220.049 201.033 220.648 200.964 221.39Z" fill="#4603A6"/>
<path d="M205.973 221.39C205.911 222.132 205.256 222.731 204.513 222.731C203.771 222.731 203.222 222.132 203.291 221.39C203.36 220.648 204.008 220.049 204.75 220.049C205.493 220.049 206.042 220.648 205.973 221.39Z" fill="#4603A6"/>
<path d="M219.352 89.4876H174.681L175.205 83.5063H219.875L219.352 89.4876Z" fill="#4603A6"/>
<path d="M169.748 88.1467H162.843V88.7704H169.748V88.1467Z" fill="#2D002A"/>
<path d="M169.947 85.8202H163.043V86.4439H169.947V85.8202Z" fill="#2D002A"/>
<path d="M170.153 83.4875H163.249V84.1113H170.153V83.4875Z" fill="#2D002A"/>
<g opacity="0.2">
<path d="M191.628 75.4042L145.56 246.694C147.144 247.848 149.115 248.522 151.311 248.522H154.91L201.47 75.4042H191.628Z" fill="white"/>
<path d="M233.828 68.0756H216.482C215.347 68.0756 214.312 68.9176 214.069 70.0466L213.95 70.5892C213.376 73.2711 210.963 75.292 208.274 75.3918L161.714 248.522H197.229L243.383 76.8949C243.028 71.899 239.042 68.0756 233.822 68.0756H233.828Z" fill="white"/>
</g>
<path d="M243.196 79.9573H155.546V80.8929H243.196V79.9573Z" fill="#4603A6"/>
<path d="M250.837 102.455C250.93 102.261 251.03 102.062 251.205 101.943C251.342 101.85 251.51 101.818 251.672 101.787C252.932 101.55 254.255 101.313 255.49 101.663C255.583 101.687 255.677 101.719 255.733 101.8C255.783 101.862 255.795 101.949 255.808 102.03C255.901 102.735 256.001 103.434 256.094 104.139C256.113 104.295 256.138 104.457 256.082 104.606C256.026 104.756 255.907 104.862 255.789 104.968C255.184 105.498 252.639 107.108 252.234 107.195C251.623 107.326 249.689 106.702 249.109 106.453C248.454 106.172 250.269 103.633 250.83 102.467L250.837 102.455Z" fill="#D58068"/>
<path d="M236.809 123.848C237.371 119.401 247.306 107.407 248.616 105.673C249.346 104.706 252.365 105.423 252.963 107.257C250.25 111.024 248.753 114.199 246.901 118.453C246.471 119.438 244.481 123.312 243.851 124.191C238.83 131.208 236.566 125.788 236.809 123.854V123.848Z" fill="#4603A6"/>
<g opacity="0.1">
<path d="M236.809 123.848C237.371 119.401 247.306 107.407 248.616 105.673C249.346 104.706 252.365 105.423 252.963 107.257C250.25 111.024 248.753 114.199 246.901 118.453C246.471 119.438 244.481 123.312 243.851 124.191C238.83 131.208 236.566 125.788 236.809 123.854V123.848Z" fill="black"/>
</g>
<path d="M272.648 134.451C272.648 134.451 269.486 134.495 268.506 135.362L267.14 136.572C266.872 136.809 266.853 137.22 267.097 137.489C267.833 138.312 269.442 139.933 271.244 140.57C271.656 140.713 272.105 140.638 272.436 140.358C272.436 140.358 274.612 137.626 274.269 137.071L272.648 134.445V134.451Z" fill="#D58068"/>
<path d="M280.981 134.75C280.7 134.906 280.407 135.056 280.114 135.212L275.654 136.865C272.617 138.349 272.386 134.607 272.386 134.607L273.602 133.553L281.885 126.673C281.885 126.673 274.176 120.96 269.186 116.139C265.425 111.81 265.918 108.979 270.34 109.453C273.515 109.789 288.085 123.399 289.351 124.858C290.661 126.368 287.735 131.052 280.981 134.757V134.75Z" fill="#4603A6"/>
<path opacity="0.1" d="M280.981 134.75C280.7 134.906 280.407 135.056 280.114 135.212L275.654 136.865C272.617 138.349 272.386 134.607 272.386 134.607L273.602 133.553L281.885 126.673C281.885 126.673 274.176 120.96 269.186 116.139C265.425 111.81 265.918 108.979 270.34 109.453C273.515 109.789 288.085 123.399 289.351 124.858C290.661 126.368 287.735 131.052 280.981 134.757V134.75Z" fill="black"/>
<path d="M283.363 119.744C283.363 119.744 283.313 119.7 283.288 119.669C283.288 119.669 283.313 119.694 283.363 119.744Z" fill="#2D002A"/>
<path d="M254.535 91.8765C254.279 91.8328 254.011 92.1072 253.936 92.4939C253.862 92.8806 254.005 93.2424 254.261 93.2861C254.517 93.3297 254.785 93.0553 254.86 92.6686C254.953 92.2694 254.791 91.9201 254.535 91.8765Z" fill="#2D002A"/>
<path d="M253.849 97.0158C253.176 97.0595 252.521 96.7976 252.059 96.3111C253.02 95.4379 253.862 94.4399 254.554 93.3422L253.849 97.0158Z" fill="#C25541"/>
<path d="M256.537 90.7413C256.151 90.286 255.571 90.049 254.978 90.0989C254.978 90.0989 254.928 90.1114 254.903 90.1114C254.772 90.1114 254.666 90.0116 254.666 89.8806C254.666 89.7496 254.766 89.6436 254.897 89.6436C255.639 89.5563 256.375 89.8369 256.874 90.392C256.911 90.4357 256.936 90.4856 256.936 90.5417C256.936 90.6727 256.837 90.7787 256.706 90.785C256.65 90.7912 256.587 90.7787 256.543 90.7413H256.537Z" fill="#2D002A"/>
<path d="M259.587 114.293C266.255 114.224 267.196 110.575 267.196 110.575C265.176 108.679 265.001 105.124 265.363 101.943C264.87 102.673 264.246 103.309 263.417 103.877C261.845 104.956 260.124 105.205 258.558 104.85C258.533 104.85 258.502 104.843 258.477 104.825C258.496 104.887 258.508 104.956 258.514 105.018C258.963 107.55 258.67 110.276 256.02 111.13C256.02 111.13 252.246 114.361 259.587 114.293Z" fill="#D58068"/>
<path d="M258.271 103.902C258.346 104.207 258.427 104.513 258.477 104.837C258.502 104.856 258.533 104.862 258.558 104.862C260.124 105.218 261.845 104.968 263.417 103.889C264.246 103.315 264.87 102.679 265.363 101.956C265.45 101.151 265.581 100.359 265.712 99.6354L258.539 103.752L258.271 103.902Z" fill="#D58068"/>
<path d="M267.889 110.288C267.889 110.288 266.885 107.388 265.438 106.496C263.991 105.604 257.747 106.69 256.774 107.095C255.801 107.5 254.859 109.783 254.859 109.783L267.889 110.288Z" fill="#4603A6"/>
<path opacity="0.8" d="M267.889 110.288C267.889 110.288 266.885 107.388 265.438 106.496C263.991 105.604 257.747 106.69 256.774 107.095C255.801 107.5 254.859 109.783 254.859 109.783L267.889 110.288Z" fill="white"/>
<path d="M259.706 253.674C259.082 253.674 258.521 253.592 258.327 253.318C258.227 253.175 258.227 252.981 258.327 252.838C258.402 252.707 258.533 252.613 258.689 252.582C259.469 252.37 261.103 253.299 261.19 253.337C261.228 253.362 261.246 253.405 261.24 253.449C261.24 253.499 261.196 253.536 261.153 253.543C260.672 253.63 260.192 253.674 259.706 253.674ZM258.97 252.769C258.901 252.757 258.826 252.757 258.758 252.769C258.664 252.788 258.583 252.844 258.539 252.925C258.465 253.062 258.489 253.125 258.539 253.168C258.758 253.468 259.943 253.474 260.81 253.349C260.242 253.031 259.618 252.832 258.97 252.75V252.763V252.769Z" fill="#4603A6"/>
<path d="M261.121 253.53H261.078C260.51 253.274 259.394 252.283 259.487 251.74C259.487 251.615 259.593 251.459 259.905 251.428C260.13 251.403 260.354 251.466 260.529 251.615C261.153 252.108 261.24 253.362 261.246 253.418C261.246 253.455 261.228 253.493 261.196 253.518C261.171 253.53 261.146 253.536 261.121 253.53ZM259.993 251.659H259.93C259.731 251.659 259.718 251.759 259.712 251.784C259.662 252.102 260.41 252.894 260.99 253.243C260.941 252.713 260.722 252.208 260.373 251.802C260.267 251.703 260.13 251.64 259.98 251.64L259.993 251.659Z" fill="#4603A6"/>
<path d="M265.862 242.646L261.203 242.653L261.596 253.418L266.28 253.412L265.862 242.646Z" fill="#D58068"/>
<path d="M260.492 253.243C257.304 255.202 256.325 255.289 252.639 256.094C251.834 256.268 252.346 258.22 254.273 258.22C257.467 258.22 257.797 258.064 260.517 258.058C262.849 258.058 265.519 258.158 267.377 258.189C267.434 258.189 267.49 258.189 267.546 258.171C267.908 258.083 268.138 257.715 268.051 257.353L267.147 253.193C267.103 253.006 266.941 252.875 266.747 252.875H261.627C261.221 252.9 260.835 253.025 260.498 253.249L260.492 253.243Z" fill="#2D002A"/>
<path opacity="0.2" d="M265.868 242.653L266.08 248.659L261.396 248.665L261.203 242.659L265.868 242.653Z" fill="black"/>
<path d="M300.659 251.74C300.602 251.091 300.627 250.511 300.889 250.281C301.033 250.162 301.232 250.143 301.395 250.243C301.538 250.312 301.644 250.436 301.694 250.586C301.993 251.372 301.195 253.15 301.158 253.237C301.139 253.281 301.095 253.312 301.045 253.306C300.995 253.306 300.958 253.268 300.945 253.224C300.808 252.738 300.715 252.245 300.659 251.746V251.74ZM301.532 250.886C301.532 250.811 301.532 250.736 301.513 250.667C301.488 250.574 301.42 250.493 301.332 250.455C301.183 250.387 301.114 250.418 301.076 250.474C300.783 250.723 300.896 251.946 301.114 252.838C301.376 252.22 301.519 251.559 301.532 250.886Z" fill="#4603A6"/>
<path d="M300.933 253.187C300.933 253.187 300.933 253.156 300.933 253.143C301.139 252.538 302.074 251.291 302.636 251.335C302.767 251.322 302.941 251.422 302.997 251.728C303.047 251.958 302.997 252.202 302.86 252.389C302.417 253.075 301.114 253.287 301.064 253.299C301.027 253.312 300.983 253.299 300.958 253.262C300.939 253.243 300.933 253.212 300.939 253.187H300.933ZM302.773 251.84C302.773 251.84 302.773 251.796 302.767 251.771C302.748 251.565 302.642 251.559 302.617 251.559C302.28 251.534 301.532 252.389 301.232 253.019C301.781 252.919 302.28 252.651 302.667 252.251C302.754 252.133 302.798 251.983 302.792 251.84H302.773Z" fill="#4603A6"/>
<path d="M297.615 242.578L293.068 242.908L295.75 253.761L300.328 253.43L297.615 242.578Z" fill="#D58068"/>
<path d="M301.432 252.551C302.854 253.96 303.603 254.69 307.438 255.57C308.287 255.757 307.732 257.784 305.717 257.765C302.386 257.728 304.208 257.597 301.376 257.566C298.95 257.541 296.829 257.572 294.902 257.584C294.839 257.584 294.771 257.584 294.708 257.566C294.322 257.478 294.085 257.092 294.172 256.711L295.145 252.389C295.189 252.195 295.363 252.058 295.563 252.064L300.228 252.17C300.665 252.133 301.101 252.276 301.438 252.557L301.432 252.551Z" fill="#2D002A"/>
<path opacity="0.2" d="M297.621 242.584L299.006 248.16L294.453 248.491L293.068 242.908L297.621 242.584Z" fill="black"/>
<path d="M272.96 148.048C272.96 148.048 275.511 151.946 277.276 156.724C279.77 163.479 278.885 167.009 279.721 171.581C281.193 179.633 283.388 185.801 284.929 191.907C289.744 211.012 299.91 244.935 299.91 244.935L291.696 246.744C291.696 246.744 276.465 206.29 272.142 192.631C268.244 180.331 258.252 148.023 258.252 148.023L272.972 148.054L272.96 148.048Z" fill="#4603A6"/>
<path opacity="0.4" d="M272.96 148.048C272.96 148.048 275.511 151.946 277.276 156.724C279.77 163.479 278.885 167.009 279.721 171.581C281.193 179.633 283.388 185.801 284.929 191.907C289.744 211.012 299.91 244.935 299.91 244.935L291.696 246.744C291.696 246.744 276.465 206.29 272.142 192.631C268.244 180.331 258.252 148.023 258.252 148.023L272.972 148.054L272.96 148.048Z" fill="black"/>
<path d="M300.871 243.413L300.958 246.339L291.066 247.411C291.066 247.411 290.187 244.218 290.224 244.218L300.871 243.42V243.413Z" fill="#4603A6"/>
<path opacity="0.8" d="M300.871 243.413L300.958 246.339L291.066 247.411C291.066 247.411 290.187 244.218 290.224 244.218L300.871 243.42V243.413Z" fill="white"/>
<path opacity="0.3" d="M262.862 162.905C266.011 173.046 270.003 185.882 272.13 192.618C272.23 192.943 272.348 193.28 272.454 193.641C271.619 182.39 269.411 163.535 263.754 162.842C263.454 162.799 263.149 162.817 262.862 162.905Z" fill="black"/>
<path d="M265.388 148.004C265.388 148.004 267.789 179.003 268.063 193.654C268.313 207.313 267.309 247.106 267.309 247.106L259.394 247.118C259.394 247.118 255.614 206.49 254.211 192.625C252.876 179.496 249.414 148.285 249.414 148.285L265.388 148.011V148.004Z" fill="#4603A6"/>
<path opacity="0.4" d="M265.388 148.004C265.388 148.004 267.789 179.003 268.063 193.654C268.313 207.313 267.309 247.106 267.309 247.106L259.394 247.118C259.394 247.118 255.614 206.49 254.211 192.625C252.876 179.496 249.414 148.285 249.414 148.285L265.388 148.011V148.004Z" fill="black"/>
<path d="M268.481 244.33L268.213 247.237L258.583 247.249C258.583 247.249 258.128 243.994 258.165 243.994L268.481 244.33Z" fill="#4603A6"/>
<path opacity="0.8" d="M268.481 244.33L268.213 247.237L258.583 247.249C258.583 247.249 258.128 243.994 258.165 243.994L268.481 244.33Z" fill="white"/>
<path d="M280.737 157.903L278.523 157.266C274.974 156.237 271.226 156.125 267.621 156.942L265.032 151.029L265.824 157.254L264.689 157.229C261.421 157.154 258.171 157.815 255.19 159.156C253.606 159.874 252.209 160.479 252.202 160.397C252.202 160.21 249.408 148.291 249.408 148.291C246.57 128.956 247.038 119.17 247.886 114.405C248.348 111.848 250.338 109.846 252.889 109.365C253.855 109.191 254.934 109.016 256.038 108.904C259.369 108.679 262.712 108.642 266.043 108.804C266.074 108.804 268.219 108.972 268.251 108.972C271.737 109.153 275.311 112.11 274.687 115.546C272.592 126.973 272.242 135.33 272.386 140.838L280.725 157.915L280.737 157.903Z" fill="#4603A6"/>
<path opacity="0.2" d="M247.363 130.035C247.363 130.035 247.294 120.511 247.387 118.746L254.479 113.869C253.176 116.201 249.926 121.278 247.363 130.035Z" fill="black"/>
<path d="M253.381 98.5564C253.481 101.02 254.872 103.072 256.781 104.164H256.793C256.793 104.164 256.812 104.17 256.818 104.17C257.329 104.482 257.891 104.694 258.471 104.831C258.496 104.85 258.527 104.856 258.552 104.856C260.117 105.211 261.839 104.962 263.411 103.883C264.24 103.309 264.864 102.673 265.357 101.949C266.623 100.128 267.122 97.7269 267.982 94.3464C268.251 93.3547 268.288 92.3068 268.082 91.2964C267.352 87.6914 263.835 85.3649 260.242 86.0947C255.196 87.0988 253.182 94.0532 253.375 98.5564H253.381Z" fill="#D58068"/>
<path opacity="0.2" d="M256.818 104.176C257.329 104.488 257.891 104.7 258.471 104.837C258.496 104.856 258.228 101.875 258.228 101.875C258.246 101.825 257.167 104.17 256.818 104.176Z" fill="black"/>
<path d="M273.858 95.1073C273.321 95.8058 272.617 96.5356 271.737 96.6167C271.219 96.6666 270.702 96.573 270.228 96.3797C268.668 99.0803 265.363 101.949 265.363 101.949C264.527 102.261 263.654 102.423 262.774 102.423C261.895 102.423 260.934 102.249 260.067 101.906C259.787 101.793 259.587 101.719 259.556 101.712C259.313 101.656 258.059 96.3859 256.306 95.5813L255.914 95.3942C256.032 94.8391 255.857 93.2985 256.4 92.7746C256.693 92.4877 255.889 91.758 255.951 91.2029C255.951 91.153 255.963 91.1155 255.976 91.0656C255.421 90.7164 255.383 89.9679 255.589 89.1696C256.119 87.1612 257.18 87.7101 257.18 87.7101C257.18 87.7101 256.618 87.0489 256.824 85.8951C257.042 84.7474 259.188 84.1736 259.188 84.1736C259.188 84.1736 259.475 84.2235 259.949 84.3233C260.435 83.9366 261.059 83.7308 261.683 83.7744C262.512 83.8243 263.566 84.3919 263.984 85.103C264.658 84.5666 265.618 84.3919 266.436 84.6726C267.259 84.947 267.92 85.6518 268.132 86.4938C268.924 86.1944 269.76 86.5125 270.377 87.0926C271.001 87.6664 271.251 88.6082 271.014 89.419C271.631 89.6311 272.03 90.0677 272.099 90.7164C272.167 91.3588 272.024 92.0137 271.937 92.6561C271.856 93.2985 271.856 93.9908 272.186 94.5522C272.517 95.1073 273.284 95.4503 273.845 95.126L273.858 95.1073Z" fill="#2D002A"/>
<path d="M258.178 92.363C256.787 92.8058 256.094 94.8828 256.063 96.1988C256.026 97.652 257.011 98.5439 258.253 97.546C259.188 96.7788 259.843 95.7248 260.124 94.5459C260.436 93.1176 259.569 91.9201 258.171 92.363H258.178Z" fill="#D58068"/>
<path d="M246.252 114.237L237.452 124.228C236.236 127.06 240.452 130.179 243.433 127.409L253.986 115.253C254.747 113.594 254.853 112.222 253.731 111.118C252.259 109.665 249.67 108.742 246.246 114.237H246.252Z" fill="#4603A6"/>
<path d="M126.051 133.278C130.092 137.613 132.518 139.759 134.028 140.95C135.668 142.241 149.702 133.703 151.442 132.73C151.442 132.73 149.876 131.183 149.221 131.351C146.77 131.975 135.843 135.748 135.843 135.748C135.331 135.592 130.286 129.798 130.286 129.798L126.044 133.285L126.051 133.278Z" fill="#C17E68"/>
<path d="M153.263 130.578L153.219 130.547L153.269 130.59C153.269 130.59 152.022 132.636 150.325 133.141L149.041 131.881L149.621 128.145L149.652 127.921L149.789 127.79L151.548 126.081C151.903 125.732 152.477 125.732 152.833 126.081L154.149 127.353C154.442 127.634 154.517 128.07 154.33 128.432L153.257 130.572L153.263 130.578Z" fill="#C17E68"/>
<path d="M133.56 131.613C129.98 126.511 123.693 123.181 121.903 123.156C119.321 123.112 118.522 123.711 119.501 125.675C121.161 129.006 123.899 132.399 127.678 136.453L133.566 131.613H133.56Z" fill="#2D002A"/>
<path d="M123.381 123.405C121.915 122.881 121.304 122.682 118.984 122.083C116.258 121.428 113.495 120.973 110.707 120.717C108.942 120.517 107.208 120.455 105.824 120.449C105.655 120.449 105.493 120.467 105.331 120.505C104.077 120.786 103.273 122.077 103.522 123.38C106.26 137.856 106.391 144.274 105.998 151.734L122.664 152.327C123.088 152.339 123.462 152.021 123.549 151.578C124.285 147.817 126.593 139.472 126.593 139.472C128.945 137.813 128.845 135.898 128.227 133.447C128.034 132.68 127.591 131.944 125.695 127.802C125.695 127.802 124.236 123.711 123.381 123.399V123.405Z" fill="#2D002A"/>
<path d="M112.853 151.977L118.928 152.196C119.832 144.986 119.377 139.603 119.346 131.414C119.371 139.06 114.986 148.26 112.853 151.971V151.977Z" fill="white"/>
<path d="M119.152 154.884C119.152 154.884 126.643 191.939 126.263 207.294C125.857 223.473 122.689 251.328 122.689 251.328L118.734 251.285C118.734 251.285 115.186 230.665 117.219 208.043C106.871 185.365 104.183 156.337 104.183 156.337L119.159 154.878L119.152 154.884Z" fill="#C17E68"/>
<path d="M119.152 154.884C119.152 154.884 126.643 191.939 126.263 207.294C125.857 223.473 122.689 251.328 122.689 251.328L118.734 251.285C118.734 251.285 115.186 230.665 117.219 208.043C106.871 185.365 104.183 156.337 104.183 156.337L119.159 154.878L119.152 154.884Z" fill="#B06D58"/>
<path d="M115.79 164.021C115.79 164.021 117.743 193.018 115.709 208.249C113.564 224.29 107.414 251.64 107.414 251.64L103.491 251.172C103.491 251.172 102.181 230.291 106.641 208.018C98.7943 184.36 100.753 163.853 100.753 163.853L115.797 164.015L115.79 164.021Z" fill="#C17E68"/>
<path d="M115.79 164.021C115.79 164.021 117.743 193.018 115.709 208.249C113.564 224.29 107.414 251.64 107.414 251.64L103.491 251.172C103.491 251.172 102.181 230.291 106.641 208.018C98.7943 184.36 100.753 163.853 100.753 163.853L115.797 164.015L115.79 164.021Z" fill="#C17E68"/>
<path d="M100.884 197.365C103.254 197.864 106.94 198.905 113.171 199.51C113.296 199.517 113.414 199.529 113.545 199.542C113.807 199.573 114.081 199.585 114.362 199.598C116.034 199.685 127.242 201.138 128.015 196.529C128.015 196.529 125.601 185.103 123.281 172.416C121.872 164.726 123.019 153.917 123.019 153.917C118.161 153.343 113.258 153.2 108.375 153.487L105.53 153.649C105.53 153.649 95.9252 163.154 98.3078 172.566C101.875 186.649 100.884 197.359 100.884 197.359V197.365Z" fill="#4603A6"/>
<g opacity="0.4">
<path d="M100.884 197.365C103.254 197.864 106.94 198.905 113.171 199.51C113.296 199.517 113.414 199.529 113.545 199.542C113.807 199.573 114.081 199.585 114.362 199.598C116.034 199.685 127.242 201.138 128.015 196.529C128.015 196.529 125.601 185.103 123.281 172.416C121.872 164.726 123.019 153.917 123.019 153.917C118.161 153.343 113.258 153.2 108.375 153.487L105.53 153.649C105.53 153.649 95.9252 163.154 98.3078 172.566C101.875 186.649 100.884 197.359 100.884 197.359V197.365Z" fill="black"/>
</g>
<path opacity="0.1" d="M108.318 120.492C108.718 121.958 109.366 123.343 110.252 124.565C112.666 127.89 116.227 131.495 117.799 131.894C118.248 130.846 118.946 128.806 118.946 128.806C119.976 129.312 120.262 130.771 120.605 131.875C122.258 129.193 123.518 124.578 123.1 122.9C123.1 122.9 121.098 122.307 120.107 122.064C117.381 121.428 114.618 120.985 111.83 120.736C110.614 120.573 109.404 120.492 108.312 120.486L108.318 120.492Z" fill="black"/>
<path d="M108.269 120.187L108.817 121.185C110.944 125.045 115.872 130.01 117.799 130.503C118.248 129.455 118.709 127.653 118.709 127.653C119.739 128.158 120.5 129.617 120.843 130.721C122.495 128.039 123.475 124.278 123.057 122.601C122.09 122.307 121.055 122.008 120.063 121.765C117.337 121.129 114.574 120.686 111.786 120.436C110.57 120.274 109.36 120.193 108.269 120.187Z" fill="white"/>
<path d="M106.011 153.649L114.449 153.873L115.154 153.892L116.976 153.936L117.674 153.955L122.626 154.085C122.782 154.073 122.913 154.011 122.919 153.911L123.113 152.32C123.132 152.214 122.994 152.115 122.82 152.108L117.924 151.915L117.337 151.89L114.917 151.796L114.343 151.772L106.216 151.453C106.104 151.441 105.998 151.485 105.923 151.578L105.724 153.381C105.661 153.499 105.805 153.63 105.998 153.636L106.011 153.649Z" fill="#4603A6"/>
<path opacity="0.2" d="M106.011 153.649L114.449 153.873L115.154 153.892L116.976 153.936L117.674 153.955L122.626 154.085C122.782 154.073 122.913 154.011 122.919 153.911L123.113 152.32C123.132 152.214 122.994 152.115 122.82 152.108L117.924 151.915L117.337 151.89L114.917 151.796L114.343 151.772L106.216 151.453C106.104 151.441 105.998 151.485 105.923 151.578L105.724 153.381C105.661 153.499 105.805 153.63 105.998 153.636L106.011 153.649Z" fill="white"/>
<path d="M120.3 154.241H119.757C119.645 154.241 119.57 154.167 119.57 154.098L119.876 151.846C119.87 151.784 119.982 151.722 120.094 151.722L120.637 151.734C120.749 151.722 120.824 151.796 120.818 151.865L120.518 154.123C120.487 154.192 120.412 154.248 120.3 154.241Z" fill="#2D002A"/>
<path d="M110.894 154.104L110.383 154.092C110.277 154.104 110.202 154.029 110.208 153.967L110.514 151.703C110.514 151.641 110.62 151.584 110.72 151.591L111.231 151.603C111.337 151.591 111.412 151.659 111.406 151.728L111.1 153.979C111.094 154.054 111 154.104 110.894 154.104Z" fill="#2D002A"/>
<path d="M128.801 147.512H116.077L117.562 130.497H130.292L128.801 147.512Z" fill="#4603A6"/>
<path d="M106.079 144.343C106.56 143.782 106.878 143.189 106.765 142.478C106.765 142.478 106.784 141.443 106.803 139.871C106.859 135.262 106.896 126.075 106.41 124.858C105.362 122.226 103.566 120.798 102.624 122.339C101.526 124.135 101.445 137.782 101.445 137.782C101.701 146.807 105.006 145.609 106.085 144.349L106.079 144.343Z" fill="#C17E68"/>
<path d="M123.662 142.971L123.637 142.921L123.662 142.983C123.662 142.983 121.597 144.193 119.857 143.844L119.321 142.129L121.597 139.11L121.734 138.929L121.915 138.873L124.273 138.2C124.753 138.062 125.258 138.331 125.408 138.805L125.969 140.551C126.094 140.938 125.951 141.356 125.62 141.593L123.662 142.971Z" fill="#C17E68"/>
<path d="M103.354 144.842C104.844 146.676 120.075 143.963 120.2 143.907C120.693 143.682 120.774 142.378 120.2 141.904C119.888 141.642 104.314 140.227 103.235 140.146C101.395 142.977 102.593 143.907 103.354 144.842Z" fill="#C17E68"/>
<path d="M124.94 102.492C127.011 104.999 128.09 106.877 126.836 115.259C126.599 116.844 127.285 120.555 127.585 120.592C119.452 119.65 117.131 118.316 113.271 115.952C110.689 114.374 108.58 108.661 109.254 105.71C109.977 102.529 113.445 98.8121 116.795 98.5003C120.556 98.1448 122.589 99.6417 124.94 102.492Z" fill="#2D002A"/>
<path d="M119.377 118.284C118.51 120 117.986 121.946 120.082 123.686C120.524 124.054 120.861 124.553 120.973 125.12C121.148 126.031 120.768 127.01 117.531 125.738C112.847 123.904 112.74 120.979 112.74 120.979C114.867 119.925 115.429 114.973 115.497 112.185L119.377 118.284Z" fill="#C17E68"/>
<path opacity="0.2" d="M116.408 116.201C116.271 117.405 117.786 119.045 118.828 119.625C118.971 119.164 119.152 118.715 119.377 118.284L117.082 114.673C116.757 115.128 116.526 115.652 116.408 116.201Z" fill="black"/>
<path d="M113.37 105.324C114.562 102.218 118.042 100.671 121.148 101.868C125.527 103.527 126.325 110.076 125.495 114.093C124.591 118.578 119.221 120.012 115.759 116.644C113.445 114.405 113.383 112.515 112.996 108.087C112.903 107.151 113.034 106.203 113.37 105.324Z" fill="#C17E68"/>
<path d="M113.907 112.777C113.907 112.777 115.778 110.968 115.435 107.669C115.435 107.669 117.456 105.598 117.356 103.384C117.356 103.384 117.955 105.149 117.356 106.409C117.356 106.409 122.601 106.028 122.477 103.384C122.477 103.384 122.926 105.679 122.14 106.365C122.14 106.365 125.757 106.085 125.471 103.602C125.028 99.7851 121.778 99.5855 121.778 99.5855C121.778 99.5855 118.298 96.6291 113.483 101.856C113.483 101.856 107.813 105.392 111.83 111.293L113.894 112.777H113.907Z" fill="#2D002A"/>
<path d="M122.87 112.534C123.319 112.634 123.78 112.534 124.148 112.259C123.593 111.567 123.144 110.8 122.795 109.977L122.87 112.534Z" fill="#C25541"/>
<path d="M119.502 112.933C119.47 112.883 119.483 112.821 119.527 112.783C119.576 112.752 119.639 112.765 119.676 112.808C120.244 113.526 121.123 113.918 122.034 113.875C122.09 113.875 122.134 113.925 122.14 113.981C122.14 114.037 122.096 114.081 122.04 114.081C121.865 114.087 121.697 114.081 121.522 114.062C120.724 113.968 119.994 113.563 119.495 112.927L119.502 112.933Z" fill="#2D002A"/>
<path d="M111.331 110.762C111.3 109.852 112.011 109.097 112.915 109.066C114.163 109.047 114.992 110.613 115.173 111.692C115.354 112.889 114.63 113.918 113.445 113.426C112.56 113.039 111.855 112.322 111.493 111.417C111.393 111.212 111.343 110.987 111.337 110.762H111.331Z" fill="#C17E68"/>
<path d="M119.851 108.748C119.838 109.191 120.063 109.559 120.356 109.571C120.649 109.584 120.892 109.228 120.899 108.779C120.905 108.33 120.687 107.968 120.4 107.956C120.113 107.943 119.863 108.299 119.851 108.748Z" fill="#2D002A"/>
<path d="M123.98 109.222C123.967 109.665 124.192 110.033 124.485 110.045C124.772 110.058 125.021 109.702 125.034 109.253C125.046 108.804 124.822 108.442 124.529 108.43C124.242 108.417 123.986 108.773 123.98 109.222Z" fill="#2D002A"/>
<path d="M124.398 108.448L125.47 108.174C125.47 108.174 124.897 108.991 124.398 108.448Z" fill="#2D002A"/>
<path d="M118.603 107.282C118.566 107.27 118.535 107.251 118.504 107.226C118.416 107.145 118.416 107.008 118.497 106.92C119.053 106.309 119.87 106.01 120.693 106.122C120.811 106.147 120.886 106.259 120.861 106.378C120.836 106.496 120.73 106.571 120.612 106.552C119.932 106.478 119.265 106.727 118.803 107.232C118.747 107.288 118.672 107.307 118.597 107.288L118.603 107.282Z" fill="#2D002A"/>
<path d="M125.564 107.819C125.533 107.8 125.502 107.775 125.477 107.744C125.096 107.176 124.473 106.827 123.793 106.796C123.674 106.796 123.568 106.708 123.562 106.59C123.562 106.471 123.656 106.372 123.774 106.365C124.597 106.39 125.365 106.808 125.832 107.5C125.907 107.594 125.888 107.731 125.795 107.806C125.726 107.856 125.639 107.862 125.564 107.825V107.819Z" fill="#2D002A"/>
<path d="M120.269 107.981L121.342 107.706C121.342 107.706 120.768 108.523 120.269 107.981Z" fill="#2D002A"/>
<path d="M104.433 120.679C105.499 120.424 106.641 120.717 107.395 121.509C108.225 122.382 108.749 123.605 108.905 124.827C109.148 126.717 107.108 133.515 107.158 135.437C105.15 134.333 102.187 132.829 99.3744 132.555C99.7611 128.083 100.279 125.102 101.146 123.623C101.645 122.775 102.162 121.902 102.923 121.284C103.266 121.01 103.865 120.81 104.42 120.679H104.433Z" fill="#2D002A"/>
<path d="M123.712 251.821C125.134 253.231 125.882 253.96 129.718 254.84C130.566 255.027 130.011 257.054 127.996 257.035C124.666 256.998 126.487 256.867 123.655 256.836C121.229 256.811 119.109 256.842 117.181 256.855C117.119 256.855 117.05 256.855 116.988 256.836C116.601 256.748 116.364 256.362 116.452 255.981L117.425 251.659C117.468 251.466 117.643 251.328 117.842 251.335L122.508 251.441C122.944 251.403 123.381 251.547 123.718 251.827L123.712 251.821Z" fill="#2D002A"/>
<path d="M108.83 252.127C109.74 253.911 110.227 254.834 113.595 256.867C114.337 257.31 113.183 259.062 111.275 258.414C108.125 257.341 109.896 257.778 107.214 256.867C104.919 256.081 102.892 255.457 101.058 254.865C100.996 254.846 100.934 254.821 100.877 254.79C100.541 254.584 100.428 254.148 100.634 253.811L102.911 250.006C103.011 249.832 103.223 249.757 103.41 249.825L107.813 251.385C108.237 251.484 108.605 251.759 108.842 252.133L108.83 252.127Z" fill="#2D002A"/>
</g>
<defs>
<clipPath id="clip0_85_3643">
<rect width="311.856" height="230" fill="white" transform="translate(52.072 32.0001)"/>
</clipPath>
</defs>
</svg>
