<svg width="312" height="230" viewBox="0 0 312 230" fill="none" xmlns="http://www.w3.org/2000/svg">
<g clip-path="url(#clip0_38_5367)">
<path d="M280.68 214.27H260.023V214.426H280.68V214.27Z" fill="#ECECEC"/>
<path d="M206.658 215.967H201.238V216.123H206.658V215.967Z" fill="#ECECEC"/>
<path d="M259.399 208.482H247.43V208.638H259.399V208.482Z" fill="#ECECEC"/>
<path d="M59.7301 209.53H32.792V209.686H59.7301V209.53Z" fill="#ECECEC"/>
<path d="M69.2354 209.53H65.2873V209.686H69.2354V209.53Z" fill="#ECECEC"/>
<path d="M140.501 212.162H82.0714V212.318H140.501V212.162Z" fill="#ECECEC"/>
<path d="M147.898 176.417H27.4655C25.5008 176.417 23.9041 174.82 23.9041 172.856V3.56152C23.9041 1.59682 25.5008 0.00012207 27.4655 0.00012207H147.904C149.869 0.00012207 151.466 1.59682 151.466 3.56152V172.856C151.466 174.82 149.869 176.417 147.904 176.417H147.898ZM27.4655 0.15605C25.5881 0.15605 24.06 1.68414 24.06 3.56152V172.856C24.06 174.733 25.5881 176.261 27.4655 176.261H147.904C149.782 176.261 151.31 174.733 151.31 172.856V3.56152C151.31 1.68414 149.782 0.15605 147.904 0.15605H27.4655Z" fill="#ECECEC"/>
<path d="M282.807 176.417H162.368C160.403 176.417 158.807 174.82 158.807 172.856V3.56152C158.807 1.59682 160.403 0.00012207 162.368 0.00012207H282.807C284.772 0.00012207 286.368 1.59682 286.368 3.56152V172.856C286.368 174.82 284.772 176.417 282.807 176.417ZM162.368 0.15605C160.491 0.15605 158.963 1.68414 158.963 3.56152V172.856C158.963 174.733 160.491 176.261 162.368 176.261H282.807C284.684 176.261 286.212 174.733 286.212 172.856V3.56152C286.212 1.68414 284.684 0.15605 282.807 0.15605H162.368Z" fill="#ECECEC"/>
<path d="M311.928 204.235H0.0720367V204.391H311.928V204.235Z" fill="#ECECEC"/>
<path d="M196.367 72.9432H105.492L110.912 11.0086H201.787L196.367 72.9432Z" fill="#F5F5F5"/>
<path d="M165.393 61.916H116.064V62.4025H165.393V61.916Z" fill="#E7E4ED"/>
<path d="M166.453 52.9283H116.694L116.719 52.6664L119.712 18.4121H169.472L169.447 18.6741L166.453 52.9283ZM117.224 52.4418H166.004L168.942 18.8986H120.162L117.224 52.4418Z" fill="#E7E4ED"/>
<path d="M118.721 69.2696H117.38C116.818 69.2696 116.307 69.0513 115.939 68.6521C115.571 68.2529 115.396 67.7165 115.446 67.1552L115.565 65.8142C115.665 64.6666 116.681 63.7372 117.823 63.7372H119.164C119.725 63.7372 120.236 63.9555 120.604 64.3547C120.972 64.7539 121.147 65.2903 121.097 65.8516L120.979 67.1926C120.879 68.3402 119.862 69.2696 118.721 69.2696ZM117.823 64.2237C116.924 64.2237 116.126 64.9535 116.051 65.8579L115.933 67.1988C115.895 67.6292 116.026 68.0284 116.301 68.3278C116.575 68.6271 116.956 68.7893 117.38 68.7893H118.721C119.619 68.7893 120.417 68.0596 120.492 67.1552L120.611 65.8142C120.648 65.3838 120.517 64.9847 120.243 64.6853C119.968 64.3859 119.588 64.2237 119.164 64.2237H117.823Z" fill="#E7E4ED"/>
<path d="M141.28 59.0594H116.157L116.388 56.3962H141.511L141.28 59.0594ZM116.687 58.5729H140.831L140.981 56.8826H116.837L116.687 58.5729Z" fill="#E7E4ED"/>
<path d="M165.112 67.835H155.102L155.333 65.1718H165.343L165.112 67.835ZM155.638 67.3485H164.67L164.819 65.6583H155.788L155.638 67.3485Z" fill="#E7E4ED"/>
<path d="M165.917 59.0594H163.254L163.485 56.3962H166.148L165.917 59.0594ZM163.778 58.5729H165.462L165.611 56.8826H163.927L163.778 58.5729Z" fill="#E7E4ED"/>
<path d="M162.225 59.0594H159.561L159.792 56.3962H162.455L162.225 59.0594ZM160.092 58.5729H161.776L161.925 56.8826H160.241L160.092 58.5729Z" fill="#E7E4ED"/>
<path d="M158.539 59.0594H155.875L156.106 56.3962H158.769L158.539 59.0594ZM156.405 58.5729H158.089L158.239 56.8826H156.555L156.405 58.5729Z" fill="#E7E4ED"/>
<path d="M169.697 15.8299H132.255L132.461 13.4661H169.903L169.697 15.8299ZM132.785 15.3434H169.248L169.372 13.9588H132.91L132.785 15.3434Z" fill="#E7E4ED"/>
<path d="M129.823 15.9796H119.812L120.043 13.3164H130.054L129.823 15.9796ZM120.349 15.4931H129.38L129.53 13.8029H120.498L120.349 15.4931Z" fill="#E7E4ED"/>
<path d="M193.204 29.614H175.622L176.501 19.5098H194.084L193.198 29.614H193.204ZM176.152 29.1275H192.755L193.554 20.0026H176.95L176.152 29.1275Z" fill="#E7E4ED"/>
<path d="M191.545 48.581H173.963L174.849 38.4769H192.431L191.545 48.581ZM174.493 48.0945H191.096L191.895 38.9634H175.291L174.493 48.0945Z" fill="#E7E4ED"/>
<path d="M189.886 67.5419H172.304L173.189 57.4377H190.772L189.886 67.5419ZM172.834 67.0554H189.437L190.236 57.9242H173.632L172.834 67.0554Z" fill="#E7E4ED"/>
<path d="M193.705 19.5274L175.774 29.154L176.004 29.5827L193.935 19.9561L193.705 19.5274Z" fill="#E7E4ED"/>
<path d="M192.855 29.5828L176.607 19.9651L176.851 19.5473L193.105 29.1587L192.855 29.5828Z" fill="#E7E4ED"/>
<path d="M192.059 38.5246L174.114 48.1262L174.344 48.5552L192.288 38.9536L192.059 38.5246Z" fill="#E7E4ED"/>
<path d="M175.193 38.5168L174.945 38.9355L191.199 48.5521L191.447 48.1334L175.193 38.5168Z" fill="#E7E4ED"/>
<path d="M172.285 67.729L173.196 57.2818L181.535 62.2154L190.379 57.4689L190.61 57.8993L182.021 62.5023L189.774 67.0928L189.525 67.5107L181.516 62.7705L172.273 67.729H172.285ZM173.62 58.0926L172.853 66.8745L181.042 62.4836L173.62 58.0926Z" fill="#E7E4ED"/>
<path d="M169.075 18.4503L116.823 52.4738L117.089 52.8815L169.34 18.858L169.075 18.4503Z" fill="#E7E4ED"/>
<path d="M120.078 18.4583L119.79 18.8503L166.084 52.8814L166.372 52.4894L120.078 18.4583Z" fill="#E7E4ED"/>
<path d="M232.392 204.578H182.383L189.437 123.982H239.44L232.392 204.578Z" fill="#F5F5F5"/>
<path d="M198.737 200.979H186.556L187.304 192.415H199.485L198.737 200.979ZM187.098 200.48H198.281L198.943 192.908H187.753L187.092 200.48H187.098Z" fill="#E7E4ED"/>
<path d="M213.562 200.979H201.381L202.13 192.415H214.311L213.562 200.979ZM201.918 200.48H213.107L213.768 192.908H202.585L201.924 200.48H201.918Z" fill="#E7E4ED"/>
<path d="M228.382 200.979H216.201L216.949 192.415H229.13L228.382 200.979ZM216.743 200.48H227.926L228.588 192.908H217.398L216.737 200.48H216.743Z" fill="#E7E4ED"/>
<path d="M229.929 180.24H188.595V180.733H229.929V180.24Z" fill="#E7E4ED"/>
<path d="M216.774 168.702H189.431L189.705 165.546H217.049L216.774 168.702ZM189.967 168.203H216.313L216.5 166.038H190.154L189.967 168.203Z" fill="#E7E4ED"/>
<path d="M229.448 188.835H218.109L218.384 185.723H229.723L229.448 188.835ZM218.646 188.342H228.987L229.174 186.222H218.833L218.646 188.342Z" fill="#E7E4ED"/>
<path d="M230.515 176.66H226.205L226.579 172.35H230.889L230.515 176.66ZM226.741 176.161H230.053L230.346 172.843H227.035L226.741 176.161Z" fill="#E7E4ED"/>
<path d="M211.772 176.66H207.462L207.837 172.35H212.147L211.772 176.66ZM207.999 176.161H211.311L211.604 172.843H208.292L207.999 176.161Z" fill="#E7E4ED"/>
<path d="M193.03 176.66H188.72L189.094 172.35H193.404L193.03 176.66ZM189.256 176.161H192.568L192.861 172.843H189.549L189.256 176.161Z" fill="#E7E4ED"/>
<path d="M205.566 131.479H192.687L192.98 128.154H205.86L205.566 131.479ZM193.229 130.98H205.111L205.317 128.647H193.435L193.229 130.98Z" fill="#E7E4ED"/>
<path d="M191.689 189.702H190.604C189.805 189.702 189.075 189.39 188.558 188.823C188.034 188.255 187.784 187.494 187.859 186.69L187.953 185.604C188.096 183.97 189.543 182.635 191.184 182.635H192.269C193.067 182.635 193.797 182.947 194.315 183.515C194.839 184.082 195.088 184.843 195.013 185.648L194.92 186.733C194.776 188.367 193.329 189.702 191.689 189.702ZM191.184 183.134C189.799 183.134 188.57 184.263 188.445 185.648L188.352 186.733C188.296 187.401 188.495 188.018 188.926 188.486C189.35 188.947 189.949 189.203 190.61 189.203H191.695C193.08 189.203 194.308 188.074 194.427 186.69L194.52 185.604C194.577 184.943 194.377 184.319 193.947 183.852C193.522 183.39 192.924 183.134 192.263 183.134H191.177H191.184Z" fill="#E7E4ED"/>
<path d="M231.656 162.907H189.911L189.936 162.639L192.45 133.924H234.195L234.17 134.192L231.656 162.907ZM190.454 162.415H231.201L233.652 134.423H192.905L190.454 162.415Z" fill="#E7E4ED"/>
<path d="M192.825 133.974L192.533 134.371L231.288 162.861L231.58 162.464L192.825 133.974Z" fill="#E7E4ED"/>
<path d="M190.323 162.87L190.048 162.452L233.515 134.217L233.789 134.628L190.323 162.87Z" fill="#E7E4ED"/>
<path d="M198.363 200.929L187.385 192.858L187.678 192.459L198.656 200.53L198.363 200.929Z" fill="#E7E4ED"/>
<path d="M199.084 192.437L186.692 200.507L186.964 200.925L199.357 192.855L199.084 192.437Z" fill="#E7E4ED"/>
<path d="M213.188 200.929L202.211 192.858L202.504 192.459L213.481 200.53L213.188 200.929Z" fill="#E7E4ED"/>
<path d="M213.905 192.443L201.514 200.515L201.787 200.933L214.178 192.861L213.905 192.443Z" fill="#E7E4ED"/>
<path d="M228.008 200.929L217.03 192.858L217.33 192.459L228.307 200.53L228.008 200.929Z" fill="#E7E4ED"/>
<path d="M228.729 192.447L216.338 200.518L216.61 200.936L229.002 192.865L228.729 192.447Z" fill="#E7E4ED"/>
<path d="M247.542 29.614C247.542 28.1919 247.33 26.8197 246.937 25.5224L250.524 22.3664L248.266 18.4558L243.738 19.9901C241.866 17.988 239.415 16.541 236.652 15.8985L235.71 11.2145H231.195L230.259 15.8985C227.496 16.541 225.045 17.9942 223.174 19.9901L218.646 18.4558L216.388 22.3664L219.974 25.5224C219.581 26.8135 219.369 28.1919 219.369 29.614C219.369 31.036 219.581 32.4082 219.974 33.7055L216.388 36.8553L218.646 40.7659L223.174 39.2316C225.045 41.2337 227.496 42.6807 230.259 43.3294L231.195 48.0135H235.71L236.652 43.3294C239.415 42.687 241.86 41.2337 243.738 39.2316L248.266 40.7659L250.524 36.8553L246.937 33.7055C247.33 32.4082 247.542 31.036 247.542 29.614ZM233.453 37.217C229.411 37.217 226.136 33.9363 226.136 29.8946C226.136 25.853 229.411 22.5723 233.453 22.5723C237.494 22.5723 240.775 25.853 240.775 29.8946C240.775 33.9363 237.494 37.217 233.453 37.217Z" fill="#ECECEC"/>
<path d="M92.8367 148.15C94.0467 145.861 94.8762 143.46 95.3378 141.046L103.808 139.007L103.496 130.78L94.8949 129.395C93.5727 124.58 90.8658 120.158 86.9551 116.771L89.425 108.42L82.14 104.578L76.6451 111.333C71.6492 110.017 66.4599 110.272 61.7447 111.907L55.7508 105.588L48.7839 109.973L51.8838 118.112C50.1499 119.865 48.6405 121.898 47.4305 124.194C46.2205 126.489 45.3972 128.884 44.9232 131.304L36.4594 133.337L36.7712 141.564L45.3722 142.949C46.6945 147.764 49.4076 152.192 53.3121 155.579L50.8359 163.924L58.1209 167.766L63.622 161.018C68.618 162.327 73.801 162.065 78.5225 160.438L84.5164 166.756L91.4832 162.371L88.3834 154.238C90.1235 152.485 91.6267 150.452 92.8367 148.157V148.15ZM63.6595 148.431C57.1417 144.994 54.6531 136.924 58.0897 130.406C61.5264 123.888 69.5972 121.387 76.115 124.824C82.6328 128.26 85.1276 136.337 81.691 142.855C78.2543 149.373 70.1772 151.868 63.6595 148.431Z" fill="#ECECEC"/>
<path d="M247.049 126.233L251.939 128.946C252.183 129.084 252.351 129.208 252.432 129.314C252.513 129.42 252.551 129.558 252.551 129.726C252.551 129.938 252.476 130.119 252.32 130.275C252.17 130.431 251.989 130.506 251.79 130.506C251.659 130.506 251.459 130.431 251.191 130.287L244.879 126.776C244.455 126.539 244.455 125.928 244.879 125.691L251.191 122.179C251.459 122.036 251.652 121.967 251.777 121.967C251.983 121.967 252.164 122.042 252.314 122.198C252.463 122.347 252.544 122.535 252.544 122.74C252.544 122.909 252.507 123.046 252.426 123.152C252.345 123.258 252.183 123.383 251.933 123.52L247.043 126.233H247.049Z" fill="#ECECEC"/>
<path d="M259.636 121.181L254.796 131.616C254.671 131.878 254.565 132.046 254.465 132.127C254.341 132.233 254.185 132.283 254.004 132.283C253.798 132.283 253.617 132.208 253.467 132.065C253.318 131.915 253.243 131.753 253.243 131.566C253.243 131.435 253.299 131.242 253.418 130.986L258.27 120.564C258.395 120.302 258.501 120.133 258.594 120.052C258.725 119.946 258.881 119.896 259.056 119.896C259.262 119.896 259.436 119.971 259.586 120.115C259.736 120.258 259.804 120.426 259.804 120.614C259.804 120.745 259.748 120.938 259.63 121.194L259.636 121.181Z" fill="#ECECEC"/>
<path d="M265.723 126.233L260.833 123.52C260.59 123.383 260.422 123.258 260.341 123.152C260.26 123.046 260.222 122.909 260.222 122.74C260.222 122.528 260.297 122.347 260.453 122.198C260.603 122.048 260.784 121.967 260.989 121.967C261.114 121.967 261.314 122.036 261.582 122.179L267.894 125.691C268.318 125.928 268.318 126.539 267.894 126.776L261.582 130.287C261.314 130.437 261.12 130.506 260.989 130.506C260.784 130.506 260.596 130.425 260.447 130.269C260.303 130.119 260.222 129.926 260.222 129.72C260.222 129.551 260.266 129.414 260.341 129.308C260.422 129.202 260.584 129.077 260.833 128.94L265.723 126.227V126.233Z" fill="#ECECEC"/>
<path d="M152.994 230C219.782 230 273.925 226.839 273.925 222.94C273.925 219.04 219.782 215.879 152.994 215.879C86.2051 215.879 32.0622 219.04 32.0622 222.94C32.0622 226.839 86.2051 230 152.994 230Z" fill="#E7E4ED"/>
<path d="M70.8945 81.9496H47.8109C46.7569 81.9496 45.8026 81.538 45.1165 80.7895C44.4304 80.0411 44.0999 79.0431 44.1934 77.9828L49.0209 22.803C49.2081 20.645 51.1166 18.8924 53.2747 18.8924H59.2748C59.8361 18.8924 60.2789 19.3165 60.3039 19.8716V20.0587C60.3413 20.8383 60.9588 21.4246 61.7447 21.4246H67.4516C68.2625 21.4246 69.0109 20.8134 69.1855 20.0026L69.223 19.8154C69.3415 19.2791 69.8155 18.8861 70.3644 18.8861H76.3645C77.4185 18.8861 78.3728 19.2978 79.0589 20.0462C79.745 20.7947 80.0756 21.7926 79.982 22.8529L75.1545 78.0327C74.9674 80.1908 73.0588 81.9434 70.9008 81.9434L70.8945 81.9496ZM53.2684 19.5223C51.4285 19.5223 49.8006 21.0192 49.6384 22.8592L44.8109 78.039C44.736 78.9184 45.0042 79.7479 45.5718 80.3654C46.1394 80.9829 46.9315 81.3197 47.8047 81.3197H70.8883C72.7282 81.3197 74.3561 79.8228 74.5183 77.9828L79.3458 22.803C79.4207 21.9236 79.1525 21.0941 78.5849 20.4766C78.0173 19.8591 77.2252 19.5223 76.352 19.5223H70.3519C70.1086 19.5223 69.8779 19.7157 69.8217 19.9589L69.7843 20.146C69.5473 21.2375 68.5431 22.0546 67.4392 22.0546H61.7322C60.6033 22.0546 59.7176 21.2126 59.6739 20.0899V19.9028C59.6552 19.6782 59.4868 19.5223 59.2623 19.5223H53.2622H53.2684Z" fill="#4603A6"/>
<path d="M79.2211 27.562H48.89V28.1857H79.2211V27.562Z" fill="#4603A6"/>
<path d="M76.352 18.8986H70.3519V19.5223H76.352V18.8986Z" fill="#4603A6"/>
<path d="M70.7136 53.3337H53.0127L54.5595 35.6328H72.2604L70.7136 53.3337ZM53.6925 52.71H70.1398L71.5806 36.2565H55.1333L53.6925 52.71Z" fill="#4603A6"/>
<path d="M70.9257 73.3299H49.233L49.8068 66.7685H71.5058L70.9319 73.3299H70.9257ZM49.9129 72.7062H70.3581L70.8259 67.3922H50.3806L49.9129 72.7062Z" fill="#4603A6"/>
<path d="M56.6552 62.4399C56.1562 62.4399 55.6947 62.2403 55.3703 61.8848C55.0398 61.5231 54.8838 61.049 54.9275 60.5501C55.0148 59.5397 55.913 58.7164 56.9234 58.7164C57.4223 58.7164 57.8839 58.9097 58.2082 59.2715C58.5388 59.6332 58.6947 60.1072 58.6511 60.6062C58.5637 61.6166 57.6656 62.4399 56.6552 62.4399ZM56.9296 59.3401C56.2311 59.3401 55.6136 59.9076 55.5512 60.6062C55.52 60.9368 55.6198 61.2424 55.8319 61.4669C56.0377 61.6915 56.3308 61.8162 56.6552 61.8162C57.3537 61.8162 57.9712 61.2486 58.0336 60.5501C58.0648 60.2257 57.965 59.9139 57.7529 59.6893C57.5471 59.4648 57.2539 59.3401 56.9296 59.3401Z" fill="#4603A6"/>
<path d="M61.1397 62.4399C60.6407 62.4399 60.1791 62.2403 59.8548 61.8848C59.5242 61.5231 59.3683 61.049 59.412 60.5501C59.4993 59.5397 60.3974 58.7164 61.4079 58.7164C61.9068 58.7164 62.3684 58.9097 62.6927 59.2715C63.0233 59.6332 63.1792 60.1072 63.1355 60.6062C63.0482 61.6166 62.1501 62.4399 61.1397 62.4399ZM61.4141 59.3401C60.7155 59.3401 60.0981 59.9076 60.0357 60.6062C60.0045 60.9368 60.1043 61.2424 60.3164 61.4669C60.5222 61.6915 60.8153 61.8162 61.1397 61.8162C61.8382 61.8162 62.4557 61.2486 62.5181 60.5501C62.5493 60.2257 62.4495 59.9139 62.2374 59.6893C62.0316 59.4648 61.7384 59.3401 61.4141 59.3401Z" fill="#4603A6"/>
<path d="M65.6304 62.4399C65.1314 62.4399 64.6699 62.2403 64.3455 61.8848C64.015 61.5293 63.859 61.049 63.9027 60.5501C63.99 59.5397 64.8882 58.7164 65.8986 58.7164C66.3976 58.7164 66.8591 58.9159 67.1834 59.2715C67.514 59.627 67.6699 60.1072 67.6263 60.6062C67.5389 61.6166 66.6408 62.4399 65.6304 62.4399ZM65.8986 59.3401C65.2 59.3401 64.5826 59.9076 64.5202 60.6062C64.489 60.9305 64.5888 61.2424 64.8009 61.4669C65.0067 61.6915 65.2998 61.8162 65.6241 61.8162C66.3227 61.8162 66.9402 61.2486 67.0026 60.5501C67.0337 60.2257 66.9339 59.9139 66.7219 59.6893C66.5161 59.4648 66.2229 59.3401 65.8986 59.3401Z" fill="#4603A6"/>
<path d="M251.353 144.446H221.022V145.069H251.353V144.446Z" fill="#4603A6"/>
<path d="M243.008 198.833H219.924C218.87 198.833 217.916 198.422 217.23 197.673C216.544 196.925 216.213 195.927 216.307 194.866L221.134 139.687C221.321 137.529 223.23 135.776 225.388 135.776H231.388C231.949 135.776 232.392 136.2 232.417 136.755V136.942C232.455 137.722 233.072 138.308 233.858 138.308H239.565C240.376 138.308 241.124 137.697 241.299 136.886L241.342 136.699C241.455 136.169 241.948 135.77 242.484 135.77H248.484C249.538 135.77 250.492 136.181 251.178 136.93C251.865 137.678 252.195 138.676 252.102 139.737L247.274 194.916C247.087 197.074 245.178 198.827 243.02 198.827L243.008 198.833ZM225.388 136.406C223.548 136.406 221.92 137.903 221.758 139.743L216.93 194.923C216.856 195.808 217.124 196.632 217.691 197.255C218.253 197.873 219.051 198.21 219.924 198.21H243.008C244.848 198.21 246.476 196.713 246.638 194.873L251.465 139.693C251.54 138.813 251.272 137.984 250.704 137.366C250.137 136.749 249.345 136.412 248.472 136.412H242.471C242.228 136.412 241.997 136.606 241.941 136.849L241.904 137.036C241.667 138.127 240.663 138.944 239.565 138.944H233.858C232.729 138.944 231.843 138.102 231.8 136.98V136.793C231.781 136.568 231.613 136.412 231.388 136.412H225.388V136.406Z" fill="#4603A6"/>
<path d="M246.881 153.109H224.091C223.604 153.109 223.168 152.922 222.849 152.573C222.531 152.229 222.382 151.768 222.425 151.281C222.513 150.308 223.373 149.51 224.353 149.51H247.143C247.63 149.51 248.066 149.697 248.384 150.046C248.702 150.39 248.852 150.851 248.808 151.338C248.721 152.317 247.86 153.109 246.881 153.109ZM224.346 150.14C223.685 150.14 223.099 150.676 223.043 151.338C223.018 151.649 223.111 151.936 223.305 152.148C223.498 152.36 223.779 152.479 224.084 152.479H246.875C247.536 152.479 248.122 151.943 248.178 151.281C248.203 150.97 248.11 150.683 247.916 150.471C247.723 150.259 247.442 150.14 247.137 150.14H224.346Z" fill="#4603A6"/>
<path d="M246.363 159.053H223.573C223.086 159.053 222.65 158.866 222.332 158.517C222.014 158.173 221.864 157.712 221.908 157.225C221.995 156.252 222.856 155.454 223.835 155.454H246.625C247.112 155.454 247.548 155.641 247.867 155.99C248.185 156.334 248.334 156.795 248.291 157.282C248.203 158.255 247.343 159.053 246.363 159.053ZM223.829 156.084C223.168 156.084 222.581 156.62 222.525 157.282C222.5 157.593 222.594 157.88 222.787 158.092C222.98 158.304 223.261 158.423 223.567 158.423H246.357C247.018 158.423 247.605 157.887 247.661 157.225C247.686 156.914 247.592 156.627 247.399 156.408C247.205 156.196 246.925 156.078 246.619 156.078H223.829V156.084Z" fill="#4603A6"/>
<path d="M245.839 164.991H223.049C222.563 164.991 222.126 164.804 221.808 164.454C221.49 164.111 221.34 163.65 221.384 163.163C221.471 162.19 222.332 161.392 223.311 161.392H246.101C246.588 161.392 247.025 161.579 247.343 161.928C247.661 162.271 247.81 162.733 247.767 163.219C247.679 164.199 246.819 164.991 245.839 164.991ZM223.311 162.022C222.65 162.022 222.064 162.558 222.007 163.219C221.982 163.531 222.076 163.818 222.269 164.03C222.463 164.242 222.743 164.361 223.049 164.361H245.839C246.501 164.361 247.087 163.824 247.143 163.163C247.168 162.851 247.074 162.564 246.881 162.352C246.688 162.14 246.407 162.022 246.101 162.022H223.311Z" fill="#4603A6"/>
<path d="M244.417 181.263H221.627C221.14 181.263 220.704 181.076 220.386 180.727C220.068 180.384 219.918 179.922 219.962 179.436C220.049 178.463 220.91 177.664 221.889 177.664H244.679C245.166 177.664 245.602 177.852 245.921 178.201C246.239 178.544 246.388 179.005 246.345 179.492C246.257 180.465 245.397 181.263 244.417 181.263ZM221.883 178.294C221.222 178.294 220.635 178.831 220.579 179.492C220.554 179.804 220.648 180.091 220.841 180.303C221.034 180.515 221.315 180.633 221.621 180.633H244.411C245.072 180.633 245.659 180.097 245.715 179.436C245.74 179.124 245.646 178.837 245.453 178.625C245.259 178.413 244.979 178.294 244.673 178.294H221.883Z" fill="#4603A6"/>
<path d="M243.9 187.207H221.109C220.623 187.207 220.186 187.02 219.868 186.671C219.55 186.328 219.4 185.866 219.444 185.38C219.531 184.407 220.392 183.608 221.371 183.608H244.162C244.648 183.608 245.085 183.796 245.403 184.145C245.721 184.488 245.871 184.949 245.827 185.436C245.74 186.409 244.879 187.207 243.9 187.207ZM221.365 184.238C220.704 184.238 220.118 184.775 220.061 185.436C220.037 185.748 220.13 186.035 220.323 186.247C220.517 186.459 220.797 186.577 221.103 186.577H243.893C244.555 186.577 245.141 186.041 245.197 185.38C245.222 185.068 245.128 184.781 244.935 184.569C244.742 184.357 244.461 184.238 244.155 184.238H221.365Z" fill="#4603A6"/>
<path d="M243.376 193.145H220.585C220.099 193.145 219.662 192.958 219.344 192.609C219.026 192.266 218.876 191.804 218.92 191.318C219.007 190.345 219.868 189.546 220.847 189.546H243.638C244.124 189.546 244.561 189.733 244.879 190.083C245.197 190.426 245.347 190.887 245.303 191.374C245.216 192.347 244.355 193.145 243.376 193.145ZM220.847 190.176C220.186 190.176 219.6 190.713 219.544 191.374C219.519 191.686 219.612 191.972 219.806 192.184C219.999 192.397 220.28 192.515 220.585 192.515H243.376C244.037 192.515 244.623 191.979 244.679 191.318C244.704 191.006 244.611 190.719 244.417 190.507C244.224 190.295 243.943 190.176 243.638 190.176H220.847Z" fill="#4603A6"/>
<path d="M258.014 86.6649H234.931C233.877 86.6649 232.922 86.2532 232.236 85.5048C231.55 84.7563 231.22 83.7584 231.313 82.6981L236.141 27.5183C236.328 25.3602 238.236 23.6076 240.394 23.6076H246.395C246.956 23.6076 247.399 24.0317 247.424 24.5868V24.774C247.461 25.5536 248.079 26.1399 248.864 26.1399H254.571C255.382 26.1399 256.131 25.5286 256.305 24.7178L256.349 24.5307C256.461 23.9943 256.942 23.6014 257.49 23.6014H263.491C264.545 23.6014 265.499 24.013 266.185 24.7615C266.871 25.5099 267.202 26.5079 267.108 27.5682L262.28 82.748C262.093 84.906 260.185 86.6587 258.027 86.6587L258.014 86.6649ZM240.388 24.2376C238.548 24.2376 236.92 25.7345 236.758 27.5744L231.931 82.7542C231.856 83.6336 232.124 84.4632 232.692 85.0807C233.259 85.6981 234.051 86.0349 234.925 86.0349H258.008C259.848 86.0349 261.476 84.538 261.638 82.6981L266.466 27.5183C266.54 26.6389 266.272 25.8093 265.705 25.1918C265.137 24.5744 264.345 24.2376 263.472 24.2376H257.472C257.228 24.2376 256.998 24.4309 256.942 24.6742L256.904 24.8613C256.667 25.9528 255.663 26.7698 254.559 26.7698H248.852C247.723 26.7698 246.837 25.9278 246.794 24.8051V24.618C246.775 24.3935 246.607 24.2376 246.382 24.2376H240.382H240.388Z" fill="#4603A6"/>
<path d="M266.335 32.2834H236.004V32.9072H266.335V32.2834Z" fill="#4603A6"/>
<path d="M259.486 80.2219H234.937L236.484 62.521H261.033L259.486 80.2219ZM235.617 79.5982H258.912L260.353 63.1447H237.058L235.617 79.5982Z" fill="#4603A6"/>
<path d="M236.957 62.5869L236.579 63.0832L259.006 80.1555L259.384 79.6592L236.957 62.5869Z" fill="#4603A6"/>
<path d="M260.521 62.5774L235.104 79.65L235.452 80.1677L260.869 63.0951L260.521 62.5774Z" fill="#4603A6"/>
<path d="M262.698 43.529H238.149L238.723 36.9675H263.272L262.698 43.529ZM238.829 42.9053H262.125L262.592 37.5912H239.297L238.829 42.9053Z" fill="#4603A6"/>
<path d="M262.859 36.988L238.417 42.9327L238.565 43.5388L263.007 37.5941L262.859 36.988Z" fill="#4603A6"/>
<path d="M239.075 36.9699L238.921 37.5744L262.323 43.5134L262.477 42.9089L239.075 36.9699Z" fill="#4603A6"/>
<path d="M261.95 52.0676H237.401L237.974 45.5061H262.524L261.95 52.0676ZM238.08 51.4439H261.376L261.844 46.1299H238.548L238.08 51.4439Z" fill="#4603A6"/>
<path d="M262.109 45.4978L237.667 51.4425L237.814 52.0485L262.256 46.1038L262.109 45.4978Z" fill="#4603A6"/>
<path d="M238.329 45.5089L238.175 46.1135L261.577 52.0525L261.731 51.4479L238.329 45.5089Z" fill="#4603A6"/>
<path d="M261.201 60.6H236.652L237.226 54.0385H261.775L261.201 60.6ZM237.332 59.9763H260.628L261.095 54.6622H237.8L237.332 59.9763Z" fill="#4603A6"/>
<path d="M261.366 54.0587L236.924 60.0034L237.072 60.6095L261.514 54.6648L261.366 54.0587Z" fill="#4603A6"/>
<path d="M237.577 54.0464L237.423 54.6509L260.825 60.5899L260.979 59.9854L237.577 54.0464Z" fill="#4603A6"/>
<path d="M254.472 115.031C248.97 115.031 244.498 110.559 244.498 105.058C244.498 99.557 248.97 95.085 254.472 95.085C259.973 95.085 264.445 99.557 264.445 105.058C264.445 110.559 259.973 115.031 254.472 115.031ZM254.472 95.7087C249.314 95.7087 245.122 99.9001 245.122 105.058C245.122 110.216 249.314 114.408 254.472 114.408C259.63 114.408 263.821 110.216 263.821 105.058C263.821 99.9001 259.63 95.7087 254.472 95.7087Z" fill="#4603A6"/>
<path d="M252.75 110.834L248.097 104.684L248.596 104.31L252.501 109.474C254.309 103.705 258.002 98.6339 262.942 95.1474L264.333 94.1681L264.694 94.6796L263.303 95.6588C258.307 99.189 254.621 104.366 252.925 110.241L252.75 110.84V110.834Z" fill="#4603A6"/>
<path d="M185.42 32.9571H169.223L152.888 219.64H169.085C176.595 219.64 183.213 213.553 183.867 206.05L197.82 46.554C198.475 39.0445 192.924 32.9633 185.414 32.9633L185.42 32.9571Z" fill="#2D002A"/>
<path d="M165.774 219.64H99.0426C91.5331 219.64 85.9821 213.553 86.637 206.05L100.589 46.554C101.244 39.0445 107.862 32.9633 115.371 32.9633H182.102C189.612 32.9633 195.163 39.0507 194.508 46.554L180.556 206.05C179.901 213.559 173.283 219.64 165.774 219.64Z" fill="#4603A6"/>
<path d="M181.828 36.0756H164.482C163.347 36.0756 162.312 36.9176 162.069 38.0465L161.95 38.5892C161.358 41.3397 158.838 43.4042 156.062 43.4042H139.571C136.796 43.4042 134.638 41.3397 134.526 38.5892L134.507 38.0465C134.463 36.9176 133.578 36.0756 132.442 36.0756H115.097C109.315 36.0756 104.213 40.7659 103.708 46.5477L89.7556 206.043C89.2503 211.825 93.529 216.515 99.3108 216.515H166.042C171.824 216.515 176.926 211.825 177.431 206.043L191.383 46.5477C191.888 40.7659 187.61 36.0756 181.828 36.0756Z" fill="white"/>
<g opacity="0.2">
<path d="M144.274 37.8407C144.212 38.5705 143.563 39.163 142.833 39.163C142.104 39.163 141.561 38.5705 141.623 37.8407C141.686 37.111 142.334 36.5185 143.064 36.5185C143.794 36.5185 144.337 37.111 144.274 37.8407Z" fill="black"/>
<path d="M153.786 36.5185H149.239C148.509 36.5185 147.861 37.111 147.798 37.8407C147.736 38.5705 148.278 39.163 149.008 39.163H153.555C154.285 39.163 154.933 38.5705 154.996 37.8407C155.058 37.111 154.516 36.5185 153.786 36.5185Z" fill="black"/>
</g>
<path d="M111.249 43.3793H112.652L112.777 41.9759H111.373L111.249 43.3793Z" fill="#2D002A"/>
<path d="M114.18 41.9759L114.055 43.3793H115.459L115.583 41.9759L115.702 40.5726H114.299L114.18 41.9759Z" fill="#2D002A"/>
<path d="M117.23 39.1692L117.105 40.5726L116.987 41.9759L116.862 43.3793H118.265L118.39 41.9759L118.509 40.5726L118.633 39.1692H117.23Z" fill="#2D002A"/>
<path d="M177.568 39.2628L177.481 40.2919H176.795L176.614 42.3502H177.3L177.212 43.3793H183.387L183.749 39.2628H177.574H177.568ZM180.044 42.3502H177.986L178.167 40.2919H180.225L180.044 42.3502Z" fill="#2D002A"/>
<path opacity="0.8" d="M174.774 150.502H84.5101L92.107 63.7061H182.364L174.774 150.502Z" fill="#2D002A"/>
<path d="M172.385 147.882H82.1276L89.7181 61.0865H179.982L172.385 147.882Z" fill="#4603A6"/>
<g opacity="0.8">
<path d="M172.385 147.882H82.1276L89.7181 61.0865H179.982L172.385 147.882Z" fill="white"/>
<path d="M172.672 148.194H81.7845L81.8157 147.857L89.4312 60.7746H180.319L172.672 148.194ZM82.4644 147.57H172.098L179.639 61.3983H90.0051L82.4644 147.57Z" fill="#4603A6"/>
</g>
<path opacity="0.8" d="M167.364 123.982H91.3336L96.1923 68.4338H172.223L167.364 123.982Z" fill="white"/>
<path d="M167.651 124.293H90.9967L95.9116 68.1219H172.566L167.651 124.293ZM91.6704 123.67H167.077L171.88 68.7456H96.4729L91.6704 123.67Z" fill="#4603A6"/>
<path d="M96.3759 68.1792L95.9921 68.6709L167.165 124.217L167.548 123.725L96.3759 68.1792Z" fill="#4603A6"/>
<path d="M172.037 68.1518L91.1662 123.732L91.5195 124.246L172.39 68.6658L172.037 68.1518Z" fill="#4603A6"/>
<path d="M120.81 132.115C120.673 133.699 119.276 134.984 117.692 134.984C116.107 134.984 114.935 133.699 115.078 132.115C115.222 130.531 116.613 129.246 118.197 129.246C119.781 129.246 120.954 130.531 120.81 132.115Z" fill="#4603A6"/>
<path d="M131.501 132.115C131.363 133.699 129.966 134.984 128.382 134.984C126.798 134.984 125.625 133.699 125.769 132.115C125.912 130.531 127.303 129.246 128.887 129.246C130.471 129.246 131.644 130.531 131.501 132.115Z" fill="#4603A6"/>
<path d="M142.197 132.115C142.06 133.699 140.663 134.984 139.079 134.984C137.494 134.984 136.322 133.699 136.465 132.115C136.609 130.531 138 129.246 139.584 129.246C141.168 129.246 142.341 130.531 142.197 132.115Z" fill="#4603A6"/>
<path d="M120.112 196.775H77.8489L81.4041 156.134H123.667L120.112 196.775Z" fill="#4603A6"/>
<g opacity="0.8">
<path d="M120.112 196.775H77.8489L81.4041 156.134H123.667L120.112 196.775Z" fill="white"/>
<path d="M120.399 197.087H77.5121L81.1234 155.822H124.01L120.399 197.087ZM78.1919 196.463H119.831L123.33 156.446H81.691L78.1919 196.463Z" fill="#4603A6"/>
</g>
<path d="M117.76 185.586H82.1588L84.4353 159.577H120.037L117.76 185.586Z" fill="white"/>
<path d="M118.047 185.897H81.822L84.1546 159.265H120.38L118.047 185.897ZM82.5018 185.274H117.473L119.694 159.889H84.7222L82.5018 185.274Z" fill="#4603A6"/>
<path d="M84.6253 159.326L84.2415 159.818L117.568 185.828L117.952 185.336L84.6253 159.326Z" fill="#4603A6"/>
<path d="M119.86 159.3L81.992 185.326L82.3452 185.84L120.213 159.814L119.86 159.3Z" fill="#4603A6"/>
<path d="M95.9615 189.39C95.8991 190.132 95.2442 190.731 94.502 190.731C93.7598 190.731 93.2109 190.132 93.2795 189.39C93.3481 188.648 93.9968 188.049 94.739 188.049C95.4812 188.049 96.0301 188.648 95.9615 189.39Z" fill="#4603A6"/>
<path d="M100.97 189.39C100.908 190.132 100.253 190.731 99.5104 190.731C98.7682 190.731 98.2193 190.132 98.2879 189.39C98.3565 188.648 99.0052 188.049 99.7474 188.049C100.49 188.049 101.039 188.648 100.97 189.39Z" fill="#4603A6"/>
<path d="M105.978 189.39C105.916 190.132 105.261 190.731 104.519 190.731C103.777 190.731 103.228 190.132 103.296 189.39C103.359 188.648 104.014 188.049 104.756 188.049C105.498 188.049 106.047 188.648 105.978 189.39Z" fill="#4603A6"/>
<path d="M168.106 196.775H125.844L129.399 156.134H171.661L168.106 196.775Z" fill="#4603A6"/>
<g opacity="0.8">
<path d="M168.106 196.775H125.844L129.399 156.134H171.661L168.106 196.775Z" fill="white"/>
<path d="M168.393 197.087H125.507L129.118 155.822H172.004L168.393 197.087ZM126.187 196.463H167.826L171.325 156.446H129.686L126.187 196.463Z" fill="#4603A6"/>
</g>
<path d="M165.755 185.586H130.153L132.43 159.577H168.031L165.755 185.586Z" fill="white"/>
<path d="M166.042 185.897H129.817L132.149 159.265H168.374L166.042 185.897ZM130.496 185.274H165.468L167.688 159.889H132.717L130.496 185.274Z" fill="#4603A6"/>
<path d="M132.626 159.32L132.242 159.812L165.569 185.821L165.953 185.33L132.626 159.32Z" fill="#4603A6"/>
<path d="M167.852 159.303L129.984 185.329L130.338 185.843L168.205 159.817L167.852 159.303Z" fill="#4603A6"/>
<path d="M143.956 189.39C143.894 190.132 143.239 190.731 142.497 190.731C141.754 190.731 141.206 190.132 141.274 189.39C141.343 188.648 141.991 188.049 142.734 188.049C143.476 188.049 144.025 188.648 143.956 189.39Z" fill="#4603A6"/>
<path d="M148.965 189.39C148.902 190.132 148.247 190.731 147.505 190.731C146.763 190.731 146.214 190.132 146.283 189.39C146.351 188.648 147 188.049 147.742 188.049C148.484 188.049 149.033 188.648 148.965 189.39Z" fill="#4603A6"/>
<path d="M153.973 189.39C153.911 190.132 153.256 190.731 152.513 190.731C151.771 190.731 151.222 190.132 151.291 189.39C151.36 188.648 152.008 188.049 152.75 188.049C153.493 188.049 154.042 188.648 153.973 189.39Z" fill="#4603A6"/>
<path d="M167.352 57.4876H122.681L123.205 51.5063H167.875L167.352 57.4876Z" fill="#4603A6"/>
<path d="M117.748 56.1467H110.843V56.7704H117.748V56.1467Z" fill="#2D002A"/>
<path d="M117.947 53.8202H111.043V54.4439H117.947V53.8202Z" fill="#2D002A"/>
<path d="M118.153 51.4875H111.249V52.1113H118.153V51.4875Z" fill="#2D002A"/>
<g opacity="0.2">
<path d="M139.628 43.4042L93.5602 214.694C95.1444 215.848 97.1154 216.522 99.3108 216.522H102.91L149.47 43.4042H139.628Z" fill="white"/>
<path d="M181.828 36.0756H164.482C163.347 36.0756 162.312 36.9176 162.069 38.0465L161.95 38.5892C161.376 41.2711 158.963 43.292 156.274 43.3918L109.714 216.522H145.228L191.383 44.8949C191.028 39.899 187.042 36.0756 181.822 36.0756H181.828Z" fill="white"/>
</g>
<path d="M191.196 47.9573H103.546V48.8929H191.196V47.9573Z" fill="#4603A6"/>
<path d="M198.837 70.4546C198.93 70.2613 199.03 70.0617 199.205 69.9432C199.342 69.8496 199.51 69.8184 199.672 69.7872C200.932 69.5502 202.254 69.3132 203.489 69.6625C203.583 69.6874 203.677 69.7186 203.733 69.7997C203.783 69.8621 203.795 69.9494 203.808 70.0305C203.901 70.7353 204.001 71.4338 204.094 72.1386C204.113 72.2946 204.138 72.4567 204.082 72.6064C204.026 72.7561 203.907 72.8621 203.789 72.9682C203.184 73.4983 200.639 75.1075 200.234 75.1948C199.622 75.3258 197.689 74.7021 197.109 74.4526C196.454 74.1719 198.269 71.6334 198.83 70.4671L198.837 70.4546Z" fill="#D58068"/>
<path d="M184.809 91.8479C185.371 87.4009 195.306 75.4069 196.616 73.673C197.346 72.7062 200.365 73.4235 200.963 75.2572C198.25 79.0244 196.753 82.1991 194.901 86.4528C194.471 87.4383 192.481 91.3115 191.851 92.191C186.83 99.2077 184.566 93.7877 184.809 91.8542V91.8479Z" fill="#4603A6"/>
<g opacity="0.1">
<path d="M184.809 91.8479C185.371 87.4009 195.306 75.4069 196.616 73.673C197.346 72.7062 200.365 73.4235 200.963 75.2572C198.25 79.0244 196.753 82.1991 194.901 86.4528C194.471 87.4383 192.481 91.3115 191.851 92.191C186.83 99.2077 184.566 93.7877 184.809 91.8542V91.8479Z" fill="black"/>
</g>
<path d="M220.648 102.451C220.648 102.451 217.486 102.495 216.506 103.362L215.14 104.572C214.872 104.809 214.853 105.22 215.097 105.489C215.833 106.312 217.442 107.933 219.244 108.57C219.656 108.713 220.105 108.638 220.436 108.358C220.436 108.358 222.612 105.626 222.269 105.071L220.648 102.445V102.451Z" fill="#D58068"/>
<path d="M228.981 102.75C228.7 102.906 228.407 103.056 228.114 103.212L223.654 104.865C220.617 106.349 220.386 102.607 220.386 102.607L221.602 101.553L229.885 94.6733C229.885 94.6733 222.176 88.9601 217.186 84.1388C213.425 79.8103 213.918 76.9786 218.34 77.4527C221.515 77.7895 236.085 91.3989 237.351 92.8583C238.661 94.3677 235.735 99.0518 228.981 102.757V102.75Z" fill="#4603A6"/>
<path opacity="0.1" d="M228.981 102.75C228.7 102.906 228.407 103.056 228.114 103.212L223.654 104.865C220.617 106.349 220.386 102.607 220.386 102.607L221.602 101.553L229.885 94.6733C229.885 94.6733 222.176 88.9601 217.186 84.1388C213.425 79.8103 213.918 76.9786 218.34 77.4527C221.515 77.7895 236.085 91.3989 237.351 92.8583C238.661 94.3677 235.735 99.0518 228.981 102.757V102.75Z" fill="black"/>
<path d="M231.363 87.7439C231.363 87.7439 231.313 87.7002 231.288 87.6691C231.288 87.6691 231.313 87.694 231.363 87.7439Z" fill="#2D002A"/>
<path d="M202.535 59.8765C202.279 59.8328 202.011 60.1072 201.936 60.4939C201.862 60.8806 202.005 61.2424 202.261 61.2861C202.516 61.3297 202.785 61.0553 202.859 60.6686C202.953 60.2694 202.791 59.9201 202.535 59.8765Z" fill="#2D002A"/>
<path d="M201.849 65.0158C201.175 65.0595 200.521 64.7976 200.059 64.3111C201.02 63.4379 201.862 62.4399 202.554 61.3422L201.849 65.0158Z" fill="#C25541"/>
<path d="M204.537 58.7413C204.151 58.286 203.571 58.049 202.978 58.0989C202.978 58.0989 202.928 58.1114 202.903 58.1114C202.772 58.1114 202.666 58.0116 202.666 57.8806C202.666 57.7496 202.766 57.6436 202.897 57.6436C203.639 57.5563 204.375 57.8369 204.874 58.392C204.911 58.4357 204.936 58.4856 204.936 58.5417C204.936 58.6727 204.837 58.7787 204.706 58.785C204.65 58.7912 204.587 58.7787 204.543 58.7413H204.537Z" fill="#2D002A"/>
<path d="M207.587 82.2927C214.255 82.2241 215.197 78.5753 215.197 78.5753C213.176 76.6793 213.001 73.1241 213.363 69.9432C212.87 70.6729 212.246 71.3091 211.417 71.8767C209.845 72.9557 208.124 73.2052 206.558 72.8497C206.533 72.8497 206.502 72.8434 206.477 72.8247C206.496 72.8871 206.508 72.9557 206.514 73.0181C206.963 75.5503 206.67 78.276 204.02 79.1304C204.02 79.1304 200.246 82.3613 207.587 82.2927Z" fill="#D58068"/>
<path d="M206.271 71.9016C206.346 72.2072 206.427 72.5129 206.477 72.8372C206.502 72.8559 206.533 72.8621 206.558 72.8621C208.124 73.2177 209.845 72.9682 211.417 71.8892C212.246 71.3153 212.87 70.6792 213.363 69.9556C213.45 69.1511 213.581 68.3589 213.712 67.6354L206.539 71.7519L206.271 71.9016Z" fill="#D58068"/>
<path d="M215.889 78.2884C215.889 78.2884 214.885 75.3882 213.438 74.4963C211.991 73.6044 205.747 74.6896 204.774 75.095C203.801 75.5004 202.859 77.7832 202.859 77.7832L215.889 78.2884Z" fill="#4603A6"/>
<path opacity="0.8" d="M215.889 78.2884C215.889 78.2884 214.885 75.3882 213.438 74.4963C211.991 73.6044 205.747 74.6896 204.774 75.095C203.801 75.5004 202.859 77.7832 202.859 77.7832L215.889 78.2884Z" fill="white"/>
<path d="M207.706 221.674C207.082 221.674 206.521 221.592 206.327 221.318C206.228 221.175 206.228 220.981 206.327 220.838C206.402 220.707 206.533 220.613 206.689 220.582C207.469 220.37 209.103 221.299 209.19 221.337C209.228 221.362 209.246 221.405 209.24 221.449C209.24 221.499 209.196 221.536 209.153 221.543C208.672 221.63 208.192 221.674 207.706 221.674ZM206.97 220.769C206.901 220.757 206.826 220.757 206.758 220.769C206.664 220.788 206.583 220.844 206.539 220.925C206.465 221.062 206.489 221.125 206.539 221.168C206.758 221.468 207.943 221.474 208.81 221.349C208.242 221.031 207.618 220.832 206.97 220.75V220.763V220.769Z" fill="#4603A6"/>
<path d="M209.122 221.53H209.078C208.51 221.274 207.394 220.283 207.487 219.74C207.487 219.615 207.593 219.459 207.905 219.428C208.13 219.403 208.354 219.466 208.529 219.615C209.153 220.108 209.24 221.362 209.246 221.418C209.246 221.455 209.228 221.493 209.196 221.518C209.171 221.53 209.146 221.536 209.122 221.53ZM207.993 219.659H207.93C207.731 219.659 207.718 219.759 207.712 219.784C207.662 220.102 208.41 220.894 208.991 221.243C208.941 220.713 208.722 220.208 208.373 219.802C208.267 219.703 208.13 219.64 207.98 219.64L207.993 219.659Z" fill="#4603A6"/>
<path d="M213.862 210.646L209.203 210.653L209.596 221.418L214.28 221.412L213.862 210.646Z" fill="#D58068"/>
<path d="M208.492 221.243C205.304 223.202 204.325 223.289 200.639 224.094C199.834 224.268 200.346 226.22 202.273 226.22C205.467 226.22 205.797 226.064 208.517 226.058C210.849 226.058 213.519 226.158 215.377 226.189C215.434 226.189 215.49 226.189 215.546 226.171C215.908 226.083 216.138 225.715 216.051 225.353L215.147 221.193C215.103 221.006 214.941 220.875 214.747 220.875H209.627C209.221 220.9 208.835 221.025 208.498 221.249L208.492 221.243Z" fill="#2D002A"/>
<path opacity="0.2" d="M213.868 210.653L214.08 216.659L209.396 216.665L209.203 210.659L213.868 210.653Z" fill="black"/>
<path d="M248.659 219.74C248.603 219.091 248.627 218.511 248.889 218.281C249.033 218.162 249.232 218.143 249.395 218.243C249.538 218.312 249.644 218.436 249.694 218.586C249.993 219.372 249.195 221.15 249.158 221.237C249.139 221.281 249.095 221.312 249.045 221.306C248.995 221.306 248.958 221.268 248.946 221.224C248.808 220.738 248.715 220.245 248.659 219.746V219.74ZM249.532 218.886C249.532 218.811 249.532 218.736 249.513 218.667C249.488 218.574 249.42 218.493 249.332 218.455C249.183 218.387 249.114 218.418 249.077 218.474C248.783 218.723 248.896 219.946 249.114 220.838C249.376 220.22 249.519 219.559 249.532 218.886Z" fill="#4603A6"/>
<path d="M248.933 221.187C248.933 221.187 248.933 221.156 248.933 221.143C249.139 220.538 250.074 219.291 250.636 219.335C250.767 219.322 250.941 219.422 250.998 219.728C251.047 219.958 250.998 220.202 250.86 220.389C250.417 221.075 249.114 221.287 249.064 221.299C249.027 221.312 248.983 221.299 248.958 221.262C248.939 221.243 248.933 221.212 248.939 221.187H248.933ZM250.773 219.84C250.773 219.84 250.773 219.796 250.767 219.771C250.748 219.565 250.642 219.559 250.617 219.559C250.28 219.534 249.532 220.389 249.232 221.019C249.781 220.919 250.28 220.651 250.667 220.252C250.754 220.133 250.798 219.983 250.792 219.84H250.773Z" fill="#4603A6"/>
<path d="M245.615 210.578L241.068 210.908L243.75 221.761L248.328 221.43L245.615 210.578Z" fill="#D58068"/>
<path d="M249.432 220.551C250.854 221.96 251.603 222.69 255.438 223.57C256.287 223.757 255.732 225.784 253.717 225.765C250.386 225.728 252.208 225.597 249.376 225.566C246.95 225.541 244.829 225.572 242.902 225.584C242.839 225.584 242.771 225.584 242.708 225.566C242.322 225.478 242.085 225.092 242.172 224.711L243.145 220.389C243.189 220.195 243.363 220.058 243.563 220.064L248.228 220.17C248.665 220.133 249.101 220.276 249.438 220.557L249.432 220.551Z" fill="#2D002A"/>
<path opacity="0.2" d="M245.621 210.584L247.006 216.16L242.453 216.491L241.068 210.908L245.621 210.584Z" fill="black"/>
<path d="M220.96 116.048C220.96 116.048 223.511 119.946 225.276 124.724C227.771 131.479 226.885 135.009 227.721 139.581C229.193 147.633 231.388 153.801 232.929 159.907C237.744 179.012 247.91 212.935 247.91 212.935L239.696 214.744C239.696 214.744 224.465 174.29 220.143 160.631C216.244 148.331 206.252 116.023 206.252 116.023L220.972 116.054L220.96 116.048Z" fill="#4603A6"/>
<path opacity="0.4" d="M220.96 116.048C220.96 116.048 223.511 119.946 225.276 124.724C227.771 131.479 226.885 135.009 227.721 139.581C229.193 147.633 231.388 153.801 232.929 159.907C237.744 179.012 247.91 212.935 247.91 212.935L239.696 214.744C239.696 214.744 224.465 174.29 220.143 160.631C216.244 148.331 206.252 116.023 206.252 116.023L220.972 116.054L220.96 116.048Z" fill="black"/>
<path d="M248.871 211.413L248.958 214.339L239.066 215.411C239.066 215.411 238.187 212.218 238.224 212.218L248.871 211.42V211.413Z" fill="#4603A6"/>
<path opacity="0.8" d="M248.871 211.413L248.958 214.339L239.066 215.411C239.066 215.411 238.187 212.218 238.224 212.218L248.871 211.42V211.413Z" fill="white"/>
<path opacity="0.3" d="M210.862 130.905C214.011 141.046 218.003 153.882 220.13 160.618C220.23 160.943 220.348 161.28 220.454 161.641C219.619 150.39 217.411 131.535 211.754 130.842C211.454 130.799 211.149 130.817 210.862 130.905Z" fill="black"/>
<path d="M213.388 116.004C213.388 116.004 215.789 147.003 216.063 161.654C216.313 175.313 215.309 215.106 215.309 215.106L207.394 215.118C207.394 215.118 203.614 174.49 202.211 160.625C200.876 147.496 197.414 116.285 197.414 116.285L213.388 116.011V116.004Z" fill="#4603A6"/>
<path opacity="0.4" d="M213.388 116.004C213.388 116.004 215.789 147.003 216.063 161.654C216.313 175.313 215.309 215.106 215.309 215.106L207.394 215.118C207.394 215.118 203.614 174.49 202.211 160.625C200.876 147.496 197.414 116.285 197.414 116.285L213.388 116.011V116.004Z" fill="black"/>
<path d="M216.481 212.33L216.213 215.237L206.583 215.249C206.583 215.249 206.128 211.994 206.165 211.994L216.481 212.33Z" fill="#4603A6"/>
<path opacity="0.8" d="M216.481 212.33L216.213 215.237L206.583 215.249C206.583 215.249 206.128 211.994 206.165 211.994L216.481 212.33Z" fill="white"/>
<path d="M228.737 125.903L226.523 125.266C222.974 124.237 219.226 124.125 215.621 124.942L213.032 119.029L213.824 125.254L212.689 125.229C209.421 125.154 206.171 125.815 203.19 127.156C201.606 127.874 200.209 128.479 200.202 128.397C200.202 128.21 197.408 116.291 197.408 116.291C194.57 96.9561 195.038 87.1701 195.886 82.4049C196.348 79.8477 198.338 77.8456 200.889 77.3653C201.855 77.1907 202.934 77.0161 204.038 76.9038C207.369 76.6793 210.712 76.6418 214.043 76.804C214.074 76.804 216.219 76.9724 216.251 76.9724C219.737 77.1533 223.311 80.1097 222.687 83.5463C220.592 94.9727 220.242 103.33 220.386 108.838L228.725 125.915L228.737 125.903Z" fill="#4603A6"/>
<path opacity="0.2" d="M195.362 98.0351C195.362 98.0351 195.294 88.5111 195.387 86.746L202.479 81.8685C201.175 84.2012 197.926 89.2782 195.362 98.0351Z" fill="black"/>
<path d="M201.381 66.5564C201.481 69.0201 202.872 71.0721 204.78 72.1636H204.793C204.793 72.1636 204.812 72.1698 204.818 72.1698C205.329 72.4817 205.891 72.6937 206.471 72.831C206.496 72.8497 206.527 72.8559 206.552 72.8559C208.117 73.2114 209.839 72.9619 211.411 71.8829C212.24 71.3091 212.864 70.6729 213.357 69.9494C214.623 68.1282 215.122 65.7269 215.982 62.3464C216.251 61.3547 216.288 60.3068 216.082 59.2964C215.352 55.6914 211.835 53.3649 208.242 54.0947C203.196 55.0988 201.182 62.0532 201.375 66.5564H201.381Z" fill="#D58068"/>
<path opacity="0.2" d="M204.818 72.1761C205.329 72.4879 205.891 72.7 206.471 72.8372C206.496 72.8559 206.228 69.8746 206.228 69.8746C206.246 69.8247 205.167 72.1698 204.818 72.1761Z" fill="black"/>
<path d="M221.858 63.1073C221.321 63.8058 220.617 64.5356 219.737 64.6167C219.219 64.6666 218.702 64.573 218.228 64.3797C216.668 67.0803 213.363 69.9494 213.363 69.9494C212.527 70.2613 211.654 70.4234 210.774 70.4234C209.895 70.4234 208.934 70.2488 208.067 69.9058C207.787 69.7935 207.587 69.7186 207.556 69.7124C207.313 69.6563 206.059 64.3859 204.306 63.5813L203.914 63.3942C204.032 62.8391 203.857 61.2985 204.4 60.7746C204.693 60.4877 203.889 59.758 203.951 59.2029C203.951 59.153 203.963 59.1155 203.976 59.0656C203.421 58.7164 203.383 57.9679 203.589 57.1696C204.119 55.1612 205.18 55.7101 205.18 55.7101C205.18 55.7101 204.618 55.0489 204.824 53.8951C205.042 52.7474 207.188 52.1736 207.188 52.1736C207.188 52.1736 207.475 52.2235 207.949 52.3233C208.435 51.9366 209.059 51.7308 209.683 51.7744C210.512 51.8243 211.566 52.3919 211.984 53.103C212.658 52.5666 213.618 52.3919 214.436 52.6726C215.259 52.947 215.92 53.6518 216.132 54.4938C216.924 54.1944 217.76 54.5125 218.377 55.0926C219.001 55.6664 219.251 56.6082 219.014 57.419C219.631 57.6311 220.03 58.0677 220.099 58.7164C220.167 59.3588 220.024 60.0137 219.937 60.6561C219.856 61.2985 219.856 61.9908 220.186 62.5522C220.517 63.1073 221.284 63.4503 221.845 63.126L221.858 63.1073Z" fill="#2D002A"/>
<path d="M206.178 60.363C204.787 60.8058 204.094 62.8828 204.063 64.1988C204.026 65.652 205.011 66.5439 206.252 65.546C207.188 64.7788 207.843 63.7248 208.124 62.5459C208.435 61.1176 207.569 59.9201 206.171 60.363H206.178Z" fill="#D58068"/>
<path d="M194.252 82.2365L185.452 92.2284C184.235 95.06 188.452 98.1786 191.433 95.4093L201.986 83.2532C202.747 81.5941 202.853 80.2219 201.731 79.118C200.259 77.6647 197.67 76.7416 194.246 82.2365H194.252Z" fill="#4603A6"/>
<path d="M74.0505 101.278C78.0921 105.613 80.5184 107.759 82.0278 108.95C83.6681 110.241 97.7017 101.703 99.4418 100.73C99.4418 100.73 97.8763 99.1828 97.2214 99.3512C94.7702 99.9749 83.8428 103.748 83.8428 103.748C83.3313 103.592 78.2855 97.7981 78.2855 97.7981L74.0443 101.285L74.0505 101.278Z" fill="#C17E68"/>
<path d="M101.263 98.5778L101.219 98.5466L101.269 98.5903C101.269 98.5903 100.022 100.636 98.3254 101.141L97.0405 99.8813L97.6206 96.1453L97.6518 95.9208L97.789 95.7898L99.5478 94.0808C99.9034 93.7315 100.477 93.7315 100.833 94.0808L102.149 95.3532C102.442 95.6339 102.517 96.0705 102.33 96.4322L101.257 98.5715L101.263 98.5778Z" fill="#C17E68"/>
<path d="M81.56 99.6132C77.9799 94.5112 71.6929 91.1806 69.9028 91.1556C67.3206 91.1119 66.5223 91.7107 67.5015 93.6754C69.1606 97.006 71.8987 100.399 75.6784 104.453L81.5662 99.6132H81.56Z" fill="#2D002A"/>
<path d="M71.381 91.4051C69.9153 90.8812 69.304 90.6816 66.9838 90.0828C64.2582 89.4279 61.4952 88.9726 58.7072 88.7169C56.9421 88.5173 55.2082 88.4549 53.8235 88.4487C53.6551 88.4487 53.493 88.4674 53.3308 88.5048C52.0771 88.7855 51.2725 90.0766 51.522 91.3801C54.2601 105.856 54.3911 112.274 53.9982 119.734L70.6637 120.327C71.0879 120.339 71.4621 120.021 71.5494 119.578C72.2854 115.817 74.5931 107.472 74.5931 107.472C76.9445 105.813 76.8447 103.898 76.2272 101.447C76.0339 100.68 75.5911 99.9437 73.695 95.8023C73.695 95.8023 72.2355 91.7107 71.381 91.3989V91.4051Z" fill="#2D002A"/>
<path d="M60.8528 119.977L66.9277 120.196C67.8321 112.986 67.3768 107.603 67.3456 99.4136C67.3705 107.06 62.9858 116.26 60.8528 119.971V119.977Z" fill="white"/>
<path d="M67.1522 122.884C67.1522 122.884 74.643 159.939 74.2626 175.294C73.8571 191.473 70.6887 219.328 70.6887 219.328L66.7344 219.285C66.7344 219.285 63.1854 198.665 65.2187 176.043C54.8714 153.365 52.1832 124.337 52.1832 124.337L67.1585 122.878L67.1522 122.884Z" fill="#C17E68"/>
<path d="M67.1522 122.884C67.1522 122.884 74.643 159.939 74.2626 175.294C73.8571 191.473 70.6887 219.328 70.6887 219.328L66.7344 219.285C66.7344 219.285 63.1854 198.665 65.2187 176.043C54.8714 153.365 52.1832 124.337 52.1832 124.337L67.1585 122.878L67.1522 122.884Z" fill="#B06D58"/>
<path d="M63.7904 132.021C63.7904 132.021 65.7427 161.018 63.7094 176.249C61.5638 192.29 55.414 219.64 55.414 219.64L51.4908 219.172C51.4908 219.172 50.181 198.291 54.6406 176.018C46.7943 152.36 48.7527 131.853 48.7527 131.853L63.7967 132.015L63.7904 132.021Z" fill="#C17E68"/>
<path d="M63.7904 132.021C63.7904 132.021 65.7427 161.018 63.7094 176.249C61.5638 192.29 55.414 219.64 55.414 219.64L51.4908 219.172C51.4908 219.172 50.181 198.291 54.6406 176.018C46.7943 152.36 48.7527 131.853 48.7527 131.853L63.7967 132.015L63.7904 132.021Z" fill="#C17E68"/>
<path d="M48.8837 165.365C51.2538 165.864 54.94 166.905 61.1708 167.51C61.2956 167.517 61.4141 167.529 61.5451 167.542C61.807 167.573 62.0815 167.585 62.3621 167.598C64.0337 167.685 75.2418 169.138 76.0152 164.529C76.0152 164.529 73.6014 153.103 71.2812 140.416C69.8716 132.726 71.0193 121.917 71.0193 121.917C66.1605 121.343 61.2582 121.2 56.3745 121.487L53.5304 121.649C53.5304 121.649 43.9252 131.154 46.3078 140.566C49.8754 154.649 48.8837 165.359 48.8837 165.359V165.365Z" fill="#4603A6"/>
<g opacity="0.4">
<path d="M48.8837 165.365C51.2538 165.864 54.94 166.905 61.1708 167.51C61.2956 167.517 61.4141 167.529 61.5451 167.542C61.807 167.573 62.0815 167.585 62.3621 167.598C64.0337 167.685 75.2418 169.138 76.0152 164.529C76.0152 164.529 73.6014 153.103 71.2812 140.416C69.8716 132.726 71.0193 121.917 71.0193 121.917C66.1605 121.343 61.2582 121.2 56.3745 121.487L53.5304 121.649C53.5304 121.649 43.9252 131.154 46.3078 140.566C49.8754 154.649 48.8837 165.359 48.8837 165.359V165.365Z" fill="black"/>
</g>
<path opacity="0.1" d="M56.3184 88.4924C56.7175 89.9581 57.3662 91.3427 58.2519 92.5652C60.6656 95.8896 64.227 99.4946 65.7988 99.8938C66.2479 98.846 66.9464 96.8064 66.9464 96.8064C67.9755 97.3117 68.2625 98.7711 68.6055 99.8751C70.2583 97.1931 71.5182 92.5777 71.1003 90.8999C71.1003 90.8999 69.0982 90.3074 68.1065 90.0641C65.3809 89.4279 62.6179 88.9851 59.8299 88.7356C58.6136 88.5734 57.4036 88.4924 56.3121 88.4861L56.3184 88.4924Z" fill="black"/>
<path d="M56.2685 88.1867L56.8173 89.1847C58.9442 93.0455 63.8715 98.0102 65.7988 98.5029C66.2479 97.4551 66.7094 95.6526 66.7094 95.6526C67.7385 96.1578 68.4995 97.6173 68.8425 98.7212C70.4953 96.0393 71.4746 92.2783 71.0567 90.6005C70.0899 90.3074 69.0546 90.008 68.0629 89.7647C65.3372 89.1285 62.5742 88.6857 59.7862 88.4362C58.57 88.2741 57.36 88.193 56.2685 88.1867Z" fill="white"/>
<path d="M54.0106 121.649L62.4495 121.873L63.1543 121.892L64.9755 121.936L65.674 121.955L70.6263 122.085C70.7822 122.073 70.9132 122.011 70.9195 121.911L71.1128 120.32C71.1315 120.214 70.9943 120.115 70.8197 120.108L65.9235 119.915L65.3372 119.89L62.9172 119.796L62.3434 119.772L54.2165 119.453C54.1042 119.441 53.9982 119.485 53.9233 119.578L53.7237 121.381C53.6614 121.499 53.8048 121.63 53.9982 121.636L54.0106 121.649Z" fill="#4603A6"/>
<path opacity="0.2" d="M54.0106 121.649L62.4495 121.873L63.1543 121.892L64.9755 121.936L65.674 121.955L70.6263 122.085C70.7822 122.073 70.9132 122.011 70.9195 121.911L71.1128 120.32C71.1315 120.214 70.9943 120.115 70.8197 120.108L65.9235 119.915L65.3372 119.89L62.9172 119.796L62.3434 119.772L54.2165 119.453C54.1042 119.441 53.9982 119.485 53.9233 119.578L53.7237 121.381C53.6614 121.499 53.8048 121.63 53.9982 121.636L54.0106 121.649Z" fill="white"/>
<path d="M68.2999 122.241H67.7572C67.645 122.241 67.5701 122.167 67.5701 122.098L67.8757 119.846C67.8695 119.784 67.9818 119.722 68.094 119.722L68.6367 119.734C68.7489 119.722 68.8238 119.796 68.8176 119.865L68.5182 122.123C68.487 122.192 68.4121 122.248 68.2999 122.241Z" fill="#2D002A"/>
<path d="M58.8943 122.104L58.3829 122.092C58.2768 122.104 58.202 122.029 58.2082 121.967L58.5138 119.703C58.5138 119.641 58.6199 119.584 58.7197 119.591L59.2311 119.603C59.3371 119.591 59.412 119.659 59.4057 119.728L59.1001 121.979C59.0939 122.054 59.0003 122.104 58.8943 122.104Z" fill="#2D002A"/>
<path d="M76.8011 115.512H64.0773L65.5618 98.4967H78.2917L76.8011 115.512Z" fill="#4603A6"/>
<path d="M54.0792 112.343C54.5595 111.782 54.8776 111.189 54.7653 110.478C54.7653 110.478 54.784 109.443 54.8028 107.871C54.8589 103.262 54.8963 94.0746 54.4098 92.8583C53.362 90.2263 51.5657 88.798 50.6239 90.3385C49.5262 92.1348 49.4451 105.782 49.4451 105.782C49.7008 114.807 53.0065 113.609 54.0855 112.349L54.0792 112.343Z" fill="#C17E68"/>
<path d="M71.6617 110.971L71.6367 110.921L71.6617 110.983C71.6617 110.983 69.5972 112.193 67.857 111.844L67.3206 110.129L69.5972 107.11L69.7344 106.929L69.9153 106.873L72.2729 106.2C72.7532 106.062 73.2584 106.331 73.4081 106.805L73.9694 108.551C74.0942 108.938 73.9507 109.356 73.6201 109.593L71.6617 110.971Z" fill="#C17E68"/>
<path d="M51.3536 112.842C52.8443 114.676 68.0753 111.963 68.2001 111.907C68.6928 111.682 68.7739 110.378 68.2001 109.904C67.8882 109.642 52.3141 108.227 51.2351 108.146C49.3952 110.977 50.5927 111.907 51.3536 112.842Z" fill="#C17E68"/>
<path d="M72.9403 70.492C75.011 72.9994 76.09 74.8767 74.8364 83.2594C74.5994 84.8437 75.2854 88.5547 75.5848 88.5922C67.4516 87.6504 65.1314 86.3156 61.2706 83.9517C58.6885 82.3738 56.5803 76.6606 57.2539 73.7104C57.9774 70.5295 61.4453 66.8121 64.7946 66.5003C68.5556 66.1448 70.5889 67.6417 72.9403 70.492Z" fill="#2D002A"/>
<path d="M67.3768 86.2844C66.5098 87.9996 65.9859 89.9456 68.0816 91.6858C68.5244 92.0538 68.8612 92.5527 68.9735 93.1203C69.1481 94.0309 68.7677 95.0102 65.5306 93.7378C60.8465 91.9041 60.7405 88.9789 60.7405 88.9789C62.8673 87.9248 63.4287 82.9725 63.4973 80.1845L67.3768 86.2844Z" fill="#C17E68"/>
<path opacity="0.2" d="M64.4079 84.2012C64.2707 85.405 65.7863 87.0454 66.8279 87.6254C66.9714 87.1639 67.1522 86.7148 67.3768 86.2844L65.0815 82.6731C64.7572 83.1284 64.5264 83.6524 64.4079 84.2012Z" fill="black"/>
<path d="M61.3704 73.3237C62.5617 70.2176 66.042 68.6708 69.1481 69.8683C73.5266 71.5274 74.3249 78.0764 73.4954 82.0931C72.591 86.5776 67.2208 88.0121 63.7592 84.6441C61.4453 82.4049 61.3829 80.5151 60.9962 76.0867C60.9026 75.1512 61.0336 74.2031 61.3704 73.3237Z" fill="#C17E68"/>
<path d="M61.9068 80.777C61.9068 80.777 63.778 78.9683 63.4349 75.6688C63.4349 75.6688 65.4557 73.5981 65.356 71.3839C65.356 71.3839 65.9547 73.1491 65.356 74.409C65.356 74.409 70.6014 74.0285 70.4766 71.3839C70.4766 71.3839 70.9257 73.6792 70.1398 74.3653C70.1398 74.3653 73.7574 74.0846 73.4704 71.6022C73.0276 67.7851 69.7781 67.5855 69.7781 67.5855C69.7781 67.5855 66.2978 64.6291 61.4827 69.8559C61.4827 69.8559 55.8132 73.3923 59.8299 79.2926L61.8944 80.777H61.9068Z" fill="#2D002A"/>
<path d="M70.8696 80.5338C71.3186 80.6336 71.7802 80.5338 72.1482 80.2594C71.5931 79.567 71.144 78.7999 70.7947 77.9766L70.8696 80.5338Z" fill="#C25541"/>
<path d="M67.5015 80.933C67.4703 80.8831 67.4828 80.8207 67.5265 80.7833C67.5764 80.7521 67.6387 80.7646 67.6762 80.8082C68.2437 81.5255 69.1232 81.9184 70.0338 81.8748C70.0899 81.8748 70.1336 81.9247 70.1398 81.9808C70.1398 82.037 70.0962 82.0806 70.04 82.0806C69.8654 82.0869 69.697 82.0806 69.5223 82.0619C68.724 81.9683 67.9943 81.5629 67.4953 80.9267L67.5015 80.933Z" fill="#2D002A"/>
<path d="M59.3309 78.7625C59.2997 77.8518 60.0107 77.0971 60.9151 77.066C62.1626 77.0473 62.9921 78.6128 63.173 79.6918C63.3538 80.8893 62.6303 81.9184 61.4453 81.4257C60.5596 81.039 59.8548 80.3217 59.4931 79.4174C59.3933 79.2115 59.3434 78.987 59.3371 78.7625H59.3309Z" fill="#C17E68"/>
<path d="M67.8508 76.7479C67.8383 77.1907 68.0629 77.5587 68.356 77.5712C68.6492 77.5836 68.8924 77.2281 68.8986 76.7791C68.9049 76.33 68.6866 75.9682 68.3997 75.9558C68.1128 75.9433 67.8633 76.2988 67.8508 76.7479Z" fill="#2D002A"/>
<path d="M71.9798 77.2219C71.9673 77.6647 72.1918 78.0327 72.485 78.0452C72.7719 78.0577 73.0214 77.7021 73.0338 77.2531C73.0463 76.804 72.8218 76.4423 72.5286 76.4298C72.2417 76.4173 71.986 76.7728 71.9798 77.2219Z" fill="#2D002A"/>
<path d="M72.3977 76.4485L73.4704 76.174C73.4704 76.174 72.8966 76.9911 72.3977 76.4485Z" fill="#2D002A"/>
<path d="M66.6034 75.2821C66.566 75.2697 66.5348 75.251 66.5036 75.226C66.4163 75.1449 66.4163 75.0077 66.4973 74.9204C67.0525 74.3092 67.8695 74.0098 68.6928 74.122C68.8113 74.147 68.8862 74.2593 68.8612 74.3778C68.8363 74.4963 68.7302 74.5711 68.6117 74.5524C67.9319 74.4776 67.2645 74.727 66.803 75.2323C66.7468 75.2884 66.672 75.3071 66.5971 75.2884L66.6034 75.2821Z" fill="#2D002A"/>
<path d="M73.564 75.8185C73.5328 75.7998 73.5016 75.7749 73.4767 75.7437C73.0962 75.1761 72.4725 74.8268 71.7927 74.7956C71.6742 74.7956 71.5681 74.7083 71.5619 74.5898C71.5619 74.4713 71.6554 74.3715 71.7739 74.3653C72.5972 74.3902 73.3644 74.8081 73.8322 75.5004C73.907 75.594 73.8883 75.7312 73.7948 75.8061C73.7262 75.856 73.6388 75.8622 73.564 75.8248V75.8185Z" fill="#2D002A"/>
<path d="M68.2687 75.9807L69.3415 75.7063C69.3415 75.7063 68.7677 76.5233 68.2687 75.9807Z" fill="#2D002A"/>
<path d="M52.4326 88.6795C53.4992 88.4238 54.6406 88.7169 55.3953 89.509C56.2248 90.3822 56.7487 91.6047 56.9047 92.8272C57.1479 94.717 55.1084 101.515 55.1583 103.437C53.1499 102.333 50.1873 100.829 47.3743 100.555C47.761 96.0829 48.2787 93.1016 49.1457 91.6234C49.6446 90.7751 50.1623 89.902 50.9233 89.2845C51.2663 89.01 51.8651 88.8105 52.4202 88.6795H52.4326Z" fill="#2D002A"/>
<path d="M71.7116 219.821C73.1336 221.231 73.8821 221.96 77.7179 222.84C78.5662 223.027 78.0111 225.054 75.9965 225.035C72.6659 224.998 74.4871 224.867 71.6554 224.836C69.2292 224.811 67.1086 224.842 65.1813 224.855C65.1189 224.855 65.0503 224.855 64.988 224.836C64.6013 224.748 64.3643 224.362 64.4516 223.981L65.4246 219.659C65.4682 219.466 65.6429 219.328 65.8425 219.335L70.5078 219.441C70.9444 219.403 71.381 219.547 71.7178 219.827L71.7116 219.821Z" fill="#2D002A"/>
<path d="M56.8298 220.127C57.7404 221.911 58.2269 222.834 61.595 224.867C62.3372 225.31 61.1833 227.062 59.2748 226.414C56.125 225.341 57.8964 225.778 55.2144 224.867C52.9191 224.081 50.8921 223.457 49.0584 222.865C48.996 222.846 48.9336 222.821 48.8775 222.79C48.5407 222.584 48.4284 222.148 48.6342 221.811L50.9108 218.006C51.0106 217.832 51.2226 217.757 51.4098 217.825L55.8132 219.385C56.2373 219.484 56.6053 219.759 56.8423 220.133L56.8298 220.127Z" fill="#2D002A"/>
</g>
<defs>
<clipPath id="clip0_38_5367">
<rect width="311.856" height="230" fill="white" transform="translate(0.0720367 0.00012207)"/>
</clipPath>
</defs>
</svg>
