<svg width="442" height="455" viewBox="0 0 442 455" fill="none" xmlns="http://www.w3.org/2000/svg">
<path d="M374.56 454.33H66.57C29.86 454.33 0 424.47 0 387.76V66.57C0 29.86 29.86 0 66.57 0H374.56C411.27 0 441.13 29.86 441.13 66.57V387.76C441.13 424.47 411.27 454.33 374.56 454.33ZM66.57 15C38.13 15 15 38.13 15 66.57V387.76C15 416.2 38.13 439.33 66.57 439.33H374.56C403 439.33 426.13 416.2 426.13 387.76V66.57C426.13 38.13 403 15 374.56 15H66.57Z" fill="#2D002A"/>
<path d="M315.16 303.19C307.58 303.19 301.42 297.03 301.42 289.45C301.42 281.87 307.58 275.71 315.16 275.71C322.74 275.71 328.9 281.87 328.9 289.45C328.9 297.03 322.74 303.19 315.16 303.19ZM315.16 282.71C311.44 282.71 308.42 285.73 308.42 289.45C308.42 293.17 311.44 296.19 315.16 296.19C318.88 296.19 321.9 293.17 321.9 289.45C321.9 285.73 318.88 282.71 315.16 282.71Z" fill="#2D002A"/>
<path d="M344.43 282.22C333.36 282.22 324.35 273.21 324.35 262.14C324.35 251.07 333.36 242.06 344.43 242.06C355.5 242.06 364.51 251.07 364.51 262.14C364.51 273.21 355.5 282.22 344.43 282.22ZM344.43 252.07C338.87 252.07 334.35 256.59 334.35 262.15C334.35 267.71 338.87 272.23 344.43 272.23C349.99 272.23 354.51 267.71 354.51 262.15C354.51 256.59 349.99 252.07 344.43 252.07Z" fill="#2D002A"/>
<path d="M106.22 292.46C95.15 292.46 86.14 283.45 86.14 272.38C86.14 261.31 95.15 252.3 106.22 252.3C117.29 252.3 126.3 261.31 126.3 272.38C126.3 283.45 117.29 292.46 106.22 292.46ZM106.22 262.31C100.66 262.31 96.14 266.83 96.14 272.39C96.14 277.95 100.66 282.47 106.22 282.47C111.78 282.47 116.3 277.95 116.3 272.39C116.3 266.83 111.78 262.31 106.22 262.31Z" fill="#2D002A"/>
<path d="M296.83 66C296.83 56.39 293.09 47.35 286.29 40.55C279.49 33.75 270.46 30.01 260.84 30.01C251.22 30.01 242.19 33.75 235.39 40.55L220.55 55.39L205.71 40.55C198.69 33.53 189.48 30.03 180.26 30.03C171.04 30.03 161.83 33.54 154.81 40.55C140.78 54.58 140.78 77.41 154.81 91.44L215.24 151.87C216.7 153.33 218.62 154.07 220.54 154.07C222.46 154.07 224.38 153.34 225.84 151.87L286.27 91.44C293.07 84.64 296.81 75.61 296.81 65.99L296.83 66ZM275.69 80.84L220.57 135.96L165.45 80.84C157.27 72.66 157.27 59.34 165.45 51.16C169.54 47.07 174.91 45.02 180.29 45.02C185.67 45.02 191.04 47.07 195.13 51.16L215.27 71.3C216.68 72.71 218.58 73.5 220.57 73.5C222.56 73.5 224.47 72.71 225.87 71.3L246.01 51.16C249.97 47.2 255.24 45.01 260.85 45.01C266.46 45.01 271.73 47.19 275.69 51.16C279.65 55.12 281.84 60.39 281.84 66C281.84 71.61 279.66 76.88 275.69 80.84Z" fill="#2D002A"/>
<path d="M72.7603 412V357.26H99.7053C104.069 357.26 107.667 358.138 110.5 359.895C113.334 361.595 115.43 363.918 116.79 366.865C118.207 369.812 118.915 373.127 118.915 376.81C118.915 380.55 118.122 383.865 116.535 386.755C114.949 389.645 112.682 391.912 109.735 393.555C106.845 395.142 103.389 395.935 99.3653 395.935H86.4453V412H72.7603ZM86.4453 385.395H96.3053C99.1953 385.395 101.349 384.602 102.765 383.015C104.239 381.428 104.975 379.332 104.975 376.725C104.975 373.892 104.295 371.71 102.935 370.18C101.632 368.593 99.5636 367.8 96.7303 367.8H86.4453V385.395ZM131.693 365.335V355.05H146.568V365.335H131.693ZM132.798 412V381.825H126.848L128.038 371.71H146.483V412H132.798ZM180.704 412.85C173.507 412.85 167.869 411.093 163.789 407.58C159.765 404.067 157.754 398.825 157.754 391.855C157.754 384.772 159.85 379.502 164.044 376.045C168.294 372.588 173.932 370.86 180.959 370.86C183.905 370.86 186.455 371.087 188.609 371.54C190.819 371.937 192.944 372.617 194.984 373.58V383.27C191.81 381.74 188.099 380.975 183.849 380.975C179.882 380.975 176.85 381.768 174.754 383.355C172.714 384.942 171.694 387.775 171.694 391.855C171.694 395.652 172.657 398.428 174.584 400.185C176.51 401.885 179.57 402.735 183.764 402.735C187.9 402.735 191.669 401.885 195.069 400.185V410.3C193.029 411.207 190.819 411.858 188.439 412.255C186.115 412.652 183.537 412.85 180.704 412.85ZM215.548 412V367.8H199.483V357.26H245.298V367.8H229.233V412H215.548ZM262.711 412.85C260.161 412.85 257.781 412.397 255.571 411.49C253.418 410.583 251.69 409.195 250.386 407.325C249.083 405.398 248.431 403.018 248.431 400.185C248.431 396.048 249.82 392.818 252.596 390.495C255.43 388.115 259.651 386.925 265.261 386.925H276.481V385.99C276.481 383.95 275.801 382.505 274.441 381.655C273.081 380.748 270.531 380.295 266.791 380.295C262.201 380.295 257.696 381.003 253.276 382.42V373.58C255.26 372.787 257.668 372.135 260.501 371.625C263.391 371.115 266.423 370.86 269.596 370.86C275.83 370.86 280.703 372.135 284.216 374.685C287.786 377.235 289.571 381.287 289.571 386.84V412H277.586L276.906 408.6C275.433 409.96 273.535 411.008 271.211 411.745C268.945 412.482 266.111 412.85 262.711 412.85ZM267.046 404.435C269.2 404.435 271.07 404.067 272.656 403.33C274.243 402.593 275.518 401.658 276.481 400.525V394.83H266.791C262.768 394.83 260.756 396.445 260.756 399.675C260.756 401.148 261.266 402.31 262.286 403.16C263.306 404.01 264.893 404.435 267.046 404.435ZM314.438 412.85C310.018 412.85 306.845 411.887 304.918 409.96C302.991 408.033 302.028 404.945 302.028 400.695V354.71H315.713V399.335C315.713 400.638 315.968 401.545 316.478 402.055C317.045 402.508 317.866 402.735 318.943 402.735C320.473 402.735 321.833 402.537 323.023 402.14V411.405C321.72 411.915 320.416 412.283 319.113 412.51C317.866 412.737 316.308 412.85 314.438 412.85ZM354.015 412.85C346.989 412.85 341.35 411.122 337.1 407.665C332.85 404.152 330.725 398.882 330.725 391.855C330.725 385.452 332.482 380.352 335.995 376.555C339.509 372.758 344.779 370.86 351.805 370.86C358.209 370.86 363.167 372.503 366.68 375.79C370.194 379.077 371.95 383.497 371.95 389.05V396.275H343.39C344.014 398.938 345.459 400.808 347.725 401.885C350.049 402.905 353.194 403.415 357.16 403.415C359.37 403.415 361.609 403.217 363.875 402.82C366.199 402.423 368.125 401.913 369.655 401.29V410.215C367.729 411.122 365.434 411.773 362.77 412.17C360.107 412.623 357.189 412.85 354.015 412.85ZM343.39 388.37H360.05V386.585C360.05 384.602 359.455 383.043 358.265 381.91C357.075 380.72 355.064 380.125 352.23 380.125C348.944 380.125 346.649 380.805 345.345 382.165C344.042 383.468 343.39 385.537 343.39 388.37Z" fill="#2D002A"/>
<path d="M367.68 51.94H304.64C306.08 56.43 306.83 61.16 306.83 66.01C306.83 66.32 306.81 66.63 306.81 66.94H367.68C370.84 66.94 373.41 69.51 373.41 72.67V309.03C373.41 312.19 370.84 314.76 367.68 314.76H258.83L256.96 314.52C250.9 313.76 246.16 308.79 245.71 302.72C243.69 275.75 247.25 265.31 249.4 263.55C251.01 262.24 257.83 259.42 263.85 256.92C296.84 243.25 365.5 214.82 364.15 144.82C364.08 141.31 361.72 138.06 358.28 137.36C354.89 136.67 351.6 138.13 350.13 141.24C349.16 142.52 339.14 154.44 301.57 153.8C267.55 153.23 240.65 160.94 225.81 175.54C223.51 177.8 221.5 180.2 219.79 182.74C218.09 180.24 216.11 177.88 213.87 175.67C198.96 161.01 172.56 153.24 139.57 153.8C102.02 154.44 91.97 142.52 91.01 141.24C89.54 138.13 86.25 136.66 82.86 137.36C79.42 138.06 77.06 141.31 76.99 144.82C75.64 214.81 144.3 243.25 177.29 256.92C183.31 259.41 190.13 262.24 191.74 263.55C193.91 265.32 197.48 275.85 195.41 303.06C194.96 308.94 190.68 313.68 184.92 314.75H74.4C71.24 314.75 68.67 312.18 68.67 309.02V72.67C68.67 69.51 71.24 66.94 74.4 66.94H134.34C134.24 61.88 134.97 56.81 136.52 51.94H74.4C62.97 51.94 53.67 61.24 53.67 72.67V309.03C53.67 320.46 62.97 329.76 74.4 329.76H185.53C185.9 329.76 186.26 329.73 186.63 329.68C199.61 327.76 209.37 317.29 210.36 304.21C211.74 286.08 212.29 260.93 201.19 251.91C197.88 249.22 191.97 246.77 183.02 243.07C153.8 230.97 101.76 209.41 93.17 160.94C102.54 165.37 117.21 169.19 139.81 168.81C168.34 168.32 191.49 174.73 203.34 186.38C209.33 192.27 212.37 199.48 212.37 207.81C212.37 211.95 215.73 215.31 219.87 215.31C224.01 215.31 227.37 211.95 227.37 207.81C227.37 199.21 230.29 192.16 236.31 186.25C248.09 174.67 271.75 168.31 301.3 168.81C323.9 169.19 338.57 165.38 347.94 160.94C339.35 209.42 287.31 230.97 258.09 243.07C249.14 246.78 243.23 249.22 239.92 251.91C228.87 260.89 229.38 285.85 230.73 303.84C231.71 317 241.95 327.75 255.07 329.4L257.41 329.69C257.72 329.73 258.03 329.75 258.35 329.75H367.67C379.1 329.75 388.4 320.45 388.4 309.02V72.67C388.4 61.24 379.1 51.94 367.67 51.94H367.68Z" fill="#2D002A"/>
</svg>
