<?xml version="1.0" encoding="utf-8"?>
<!-- Generator: Adobe Illustrator 28.1.0, SVG Export Plug-In . SVG Version: 6.00 Build 0)  -->
<svg version="1.1" id="Layer_1" xmlns="http://www.w3.org/2000/svg" xmlns:xlink="http://www.w3.org/1999/xlink" x="0px" y="0px"
	 viewBox="0 0 442 455" style="enable-background:new 0 0 442 455;" xml:space="preserve">
<style type="text/css">
	.st0{fill:#27005E;}
</style>
<path class="st0" d="M374.6,454.3h-308C29.9,454.3,0,424.5,0,387.8V66.6C0,29.9,29.9,0,66.6,0h308c36.7,0,66.6,29.9,66.6,66.6v321.2
	C441.1,424.5,411.3,454.3,374.6,454.3z M66.6,15C38.1,15,15,38.1,15,66.6v321.2c0,28.4,23.1,51.6,51.6,51.6h308
	c28.4,0,51.6-23.1,51.6-51.6V66.6c0-28.4-23.1-51.6-51.6-51.6H66.6z"/>
<path class="st0" d="M315.2,303.2c-7.6,0-13.7-6.2-13.7-13.7c0-7.6,6.2-13.7,13.7-13.7c7.6,0,13.7,6.2,13.7,13.7
	C328.9,297,322.7,303.2,315.2,303.2z M315.2,282.7c-3.7,0-6.7,3-6.7,6.7s3,6.7,6.7,6.7s6.7-3,6.7-6.7S318.9,282.7,315.2,282.7z"/>
<path class="st0" d="M344.4,282.2c-11.1,0-20.1-9-20.1-20.1c0-11.1,9-20.1,20.1-20.1s20.1,9,20.1,20.1
	C364.5,273.2,355.5,282.2,344.4,282.2z M344.4,252.1c-5.6,0-10.1,4.5-10.1,10.1s4.5,10.1,10.1,10.1s10.1-4.5,10.1-10.1
	S350,252.1,344.4,252.1z"/>
<path class="st0" d="M106.2,292.5c-11.1,0-20.1-9-20.1-20.1s9-20.1,20.1-20.1s20.1,9,20.1,20.1S117.3,292.5,106.2,292.5z
	 M106.2,262.3c-5.6,0-10.1,4.5-10.1,10.1c0,5.6,4.5,10.1,10.1,10.1s10.1-4.5,10.1-10.1C116.3,266.8,111.8,262.3,106.2,262.3z"/>
<path class="st0" d="M296.8,66c0-9.6-3.7-18.7-10.5-25.5c-6.8-6.8-15.8-10.5-25.5-10.5s-18.6,3.7-25.4,10.5l-14.8,14.8l-14.8-14.8
	c-7-7-16.2-10.5-25.5-10.5s-18.4,3.5-25.4,10.5c-14,14-14,36.9,0,50.9l60.4,60.4c1.5,1.5,3.4,2.2,5.3,2.2c1.9,0,3.8-0.7,5.3-2.2
	l60.4-60.4C293.1,84.6,296.8,75.6,296.8,66L296.8,66z M275.7,80.8L220.6,136l-55.1-55.1c-8.2-8.2-8.2-21.5,0-29.7
	c4.1-4.1,9.5-6.1,14.8-6.1c5.4,0,10.8,2,14.8,6.1l20.1,20.1c1.4,1.4,3.3,2.2,5.3,2.2c2,0,3.9-0.8,5.3-2.2L246,51.2
	c4-4,9.2-6.2,14.8-6.2c5.6,0,10.9,2.2,14.8,6.2c4,4,6.1,9.2,6.1,14.8S279.7,76.9,275.7,80.8z"/>
<path class="st0" d="M72.8,412v-54.7h26.9c4.4,0,8,0.9,10.8,2.6c2.8,1.7,4.9,4,6.3,7c1.4,2.9,2.1,6.3,2.1,9.9c0,3.7-0.8,7.1-2.4,9.9
	c-1.6,2.9-3.9,5.2-6.8,6.8c-2.9,1.6-6.3,2.4-10.4,2.4H86.4V412H72.8z M86.4,385.4h9.9c2.9,0,5-0.8,6.5-2.4c1.5-1.6,2.2-3.7,2.2-6.3
	c0-2.8-0.7-5-2-6.5c-1.3-1.6-3.4-2.4-6.2-2.4H86.4V385.4z M131.7,365.3V355h14.9v10.3H131.7z M132.8,412v-30.2h-6l1.2-10.1h18.4V412
	H132.8z M180.7,412.9c-7.2,0-12.8-1.8-16.9-5.3c-4-3.5-6-8.8-6-15.7c0-7.1,2.1-12.4,6.3-15.8c4.2-3.5,9.9-5.2,16.9-5.2
	c2.9,0,5.5,0.2,7.6,0.7c2.2,0.4,4.3,1.1,6.4,2v9.7c-3.2-1.5-6.9-2.3-11.1-2.3c-4,0-7,0.8-9.1,2.4c-2,1.6-3.1,4.4-3.1,8.5
	c0,3.8,1,6.6,2.9,8.3c1.9,1.7,5,2.5,9.2,2.5c4.1,0,7.9-0.8,11.3-2.5v10.1c-2,0.9-4.2,1.6-6.6,2C186.1,412.7,183.5,412.9,180.7,412.9
	z M215.5,412v-44.2h-16.1v-10.5h45.8v10.5h-16.1V412H215.5z M262.7,412.9c-2.5,0-4.9-0.5-7.1-1.4c-2.2-0.9-3.9-2.3-5.2-4.2
	c-1.3-1.9-2-4.3-2-7.1c0-4.1,1.4-7.4,4.2-9.7c2.8-2.4,7.1-3.6,12.7-3.6h11.2V386c0-2-0.7-3.5-2-4.3c-1.4-0.9-3.9-1.4-7.7-1.4
	c-4.6,0-9.1,0.7-13.5,2.1v-8.8c2-0.8,4.4-1.4,7.2-2c2.9-0.5,5.9-0.8,9.1-0.8c6.2,0,11.1,1.3,14.6,3.8c3.6,2.5,5.4,6.6,5.4,12.2V412
	h-12l-0.7-3.4c-1.5,1.4-3.4,2.4-5.7,3.1C268.9,412.5,266.1,412.9,262.7,412.9z M267,404.4c2.2,0,4-0.4,5.6-1.1
	c1.6-0.7,2.9-1.7,3.8-2.8v-5.7h-9.7c-4,0-6,1.6-6,4.8c0,1.5,0.5,2.6,1.5,3.5C263.3,404,264.9,404.4,267,404.4z M314.4,412.9
	c-4.4,0-7.6-1-9.5-2.9s-2.9-5-2.9-9.3v-46h13.7v44.6c0,1.3,0.3,2.2,0.8,2.7c0.6,0.5,1.4,0.7,2.5,0.7c1.5,0,2.9-0.2,4.1-0.6v9.3
	c-1.3,0.5-2.6,0.9-3.9,1.1C317.9,412.7,316.3,412.9,314.4,412.9z M354,412.9c-7,0-12.7-1.7-16.9-5.2c-4.2-3.5-6.4-8.8-6.4-15.8
	c0-6.4,1.8-11.5,5.3-15.3c3.5-3.8,8.8-5.7,15.8-5.7c6.4,0,11.4,1.6,14.9,4.9c3.5,3.3,5.3,7.7,5.3,13.3v7.2h-28.6
	c0.6,2.7,2.1,4.5,4.3,5.6c2.3,1,5.5,1.5,9.4,1.5c2.2,0,4.4-0.2,6.7-0.6c2.3-0.4,4.2-0.9,5.8-1.5v8.9c-1.9,0.9-4.2,1.6-6.9,2
	C360.1,412.6,357.2,412.9,354,412.9z M343.4,388.4H360v-1.8c0-2-0.6-3.5-1.8-4.7c-1.2-1.2-3.2-1.8-6-1.8c-3.3,0-5.6,0.7-6.9,2
	C344,383.5,343.4,385.5,343.4,388.4z"/>
<path class="st0" d="M367.7,51.9h-63c1.4,4.5,2.2,9.2,2.2,14.1c0,0.3,0,0.6,0,0.9h60.9c3.2,0,5.7,2.6,5.7,5.7V309
	c0,3.2-2.6,5.7-5.7,5.7H258.8l-1.9-0.2c-6.1-0.8-10.8-5.7-11.2-11.8c-2-27,1.5-37.4,3.7-39.2c1.6-1.3,8.4-4.1,14.5-6.6
	c33-13.7,101.6-42.1,100.3-112.1c-0.1-3.5-2.4-6.8-5.9-7.5c-3.4-0.7-6.7,0.8-8.1,3.9c-1,1.3-11,13.2-48.6,12.6
	c-34-0.6-60.9,7.1-75.8,21.7c-2.3,2.3-4.3,4.7-6,7.2c-1.7-2.5-3.7-4.9-5.9-7.1c-14.9-14.7-41.3-22.4-74.3-21.9
	C102,154.4,92,142.5,91,141.2c-1.5-3.1-4.8-4.6-8.2-3.9c-3.4,0.7-5.8,3.9-5.9,7.5c-1.3,70,67.3,98.4,100.3,112.1
	c6,2.5,12.8,5.3,14.5,6.6c2.2,1.8,5.7,12.3,3.7,39.5c-0.4,5.9-4.7,10.6-10.5,11.7H74.4c-3.2,0-5.7-2.6-5.7-5.7V72.7
	c0-3.2,2.6-5.7,5.7-5.7h59.9c-0.1-5.1,0.6-10.1,2.2-15H74.4c-11.4,0-20.7,9.3-20.7,20.7V309c0,11.4,9.3,20.7,20.7,20.7h111.1
	c0.4,0,0.7,0,1.1-0.1c13-1.9,22.7-12.4,23.7-25.5c1.4-18.1,1.9-43.3-9.2-52.3c-3.3-2.7-9.2-5.1-18.2-8.8
	c-29.2-12.1-81.3-33.7-89.9-82.1c9.4,4.4,24,8.2,46.6,7.9c28.5-0.5,51.7,5.9,63.5,17.6c6,5.9,9,13.1,9,21.4c0,4.1,3.4,7.5,7.5,7.5
	s7.5-3.4,7.5-7.5c0-8.6,2.9-15.6,8.9-21.6c11.8-11.6,35.4-17.9,65-17.4c22.6,0.4,37.3-3.4,46.6-7.9c-8.6,48.5-60.6,70-89.9,82.1
	c-8.9,3.7-14.9,6.1-18.2,8.8c-11.1,9-10.5,33.9-9.2,51.9c1,13.2,11.2,23.9,24.3,25.6l2.3,0.3c0.3,0,0.6,0.1,0.9,0.1h109.3
	c11.4,0,20.7-9.3,20.7-20.7V72.7C388.4,61.2,379.1,51.9,367.7,51.9L367.7,51.9z"/>
</svg>
