<svg width="316" height="98" viewBox="0 0 316 98" fill="none" xmlns="http://www.w3.org/2000/svg">
<path d="M81.0652 98H14.4076C6.46254 98 0 91.5591 0 83.6407V14.3593C0 6.44087 6.46254 0 14.4076 0H81.0652C89.0103 0 95.4728 6.44087 95.4728 14.3593V83.6407C95.4728 91.5591 89.0103 98 81.0652 98ZM14.4076 3.23553C8.2524 3.23553 3.24642 8.22473 3.24642 14.3593V83.6407C3.24642 89.7753 8.2524 94.7645 14.4076 94.7645H81.0652C87.2204 94.7645 92.2264 89.7753 92.2264 83.6407V14.3593C92.2264 8.22473 87.2204 3.23553 81.0652 3.23553H14.4076Z" fill="#2D002A"/>
<path d="M68.2116 65.3988C66.571 65.3988 65.2379 64.07 65.2379 62.435C65.2379 60.8 66.571 59.4713 68.2116 59.4713C69.8521 59.4713 71.1853 60.8 71.1853 62.435C71.1853 64.07 69.8521 65.3988 68.2116 65.3988ZM68.2116 60.9812C67.4065 60.9812 66.7528 61.6326 66.7528 62.435C66.7528 63.2374 67.4065 63.8888 68.2116 63.8888C69.0167 63.8888 69.6703 63.2374 69.6703 62.435C69.6703 61.6326 69.0167 60.9812 68.2116 60.9812Z" fill="#2D002A"/>
<path d="M74.5443 60.8755C72.1484 60.8755 70.1984 58.932 70.1984 56.5442C70.1984 54.1564 72.1484 52.2129 74.5443 52.2129C76.9401 52.2129 78.8901 54.1564 78.8901 56.5442C78.8901 58.932 76.9401 60.8755 74.5443 60.8755ZM74.5443 54.3721C73.3409 54.3721 72.3627 55.347 72.3627 56.5463C72.3627 57.7457 73.3409 58.7206 74.5443 58.7206C75.7476 58.7206 76.7259 57.7457 76.7259 56.5463C76.7259 55.347 75.7476 54.3721 74.5443 54.3721Z" fill="#2D002A"/>
<path d="M22.989 63.0843C20.5931 63.0843 18.6431 61.1408 18.6431 58.753C18.6431 56.3652 20.5931 54.4217 22.989 54.4217C25.3848 54.4217 27.3348 56.3652 27.3348 58.753C27.3348 61.1408 25.3848 63.0843 22.989 63.0843ZM22.989 56.5809C21.7856 56.5809 20.8074 57.5558 20.8074 58.7552C20.8074 59.9545 21.7856 60.9294 22.989 60.9294C24.1923 60.9294 25.1706 59.9545 25.1706 58.7552C25.1706 57.5558 24.1923 56.5809 22.989 56.5809Z" fill="#2D002A"/>
<path d="M64.2445 14.2364C64.2445 12.1635 63.435 10.2135 61.9633 8.74674C60.4916 7.27996 58.5373 6.47324 56.4552 6.47324C54.3732 6.47324 52.4188 7.27996 50.9471 8.74674L47.7353 11.9478L44.5235 8.74674C43.0042 7.23251 41.0109 6.47755 39.0155 6.47755C37.02 6.47755 35.0267 7.23466 33.5074 8.74674C30.4709 11.773 30.4709 16.6975 33.5074 19.7238L46.5861 32.7587C46.9021 33.0736 47.3176 33.2333 47.7332 33.2333C48.1487 33.2333 48.5643 33.0758 48.8802 32.7587L61.959 19.7238C63.4307 18.257 64.2401 16.3093 64.2401 14.2342L64.2445 14.2364ZM59.667 17.4374L47.7375 29.3269L35.808 17.4374C34.0376 15.6729 34.0376 12.7998 35.808 11.0353C36.6932 10.1531 37.8554 9.71093 39.0198 9.71093C40.1842 9.71093 41.3464 10.1531 42.2316 11.0353L46.5904 15.3796C46.8956 15.6837 47.3068 15.8541 47.7375 15.8541C48.1682 15.8541 48.5816 15.6837 48.8846 15.3796L53.2434 11.0353C54.1005 10.1812 55.2411 9.70877 56.4552 9.70877C57.6694 9.70877 58.81 10.179 59.667 11.0353C60.5241 11.8895 60.998 13.0263 60.998 14.2364C60.998 15.4464 60.5262 16.5832 59.667 17.4374Z" fill="#2D002A"/>
<path d="M79.5762 11.2036H65.9326C66.2443 12.1721 66.4066 13.1924 66.4066 14.2385C66.4066 14.3054 66.4023 14.3722 66.4023 14.4391H79.5762C80.2601 14.4391 80.8164 14.9935 80.8164 15.6751V66.6585C80.8164 67.3401 80.2601 67.8945 79.5762 67.8945H56.0181L55.6133 67.8427C54.3018 67.6787 53.2759 66.6067 53.1785 65.2974C52.7413 59.4799 53.5118 57.228 53.9771 56.8483C54.3256 56.5658 55.8016 55.9575 57.1045 55.4182C64.2445 52.4696 79.1044 46.3372 78.8122 31.238C78.7971 30.4809 78.2863 29.7799 77.5418 29.6289C76.8081 29.48 76.0961 29.795 75.7779 30.4658C75.568 30.7419 73.3994 33.3131 65.2682 33.175C57.9053 33.0521 52.0834 34.7151 48.8716 37.8644C48.3738 38.3519 47.9388 38.8696 47.5687 39.4174C47.2008 38.8782 46.7722 38.3691 46.2874 37.8924C43.0605 34.7302 37.3468 33.0542 30.2069 33.175C22.08 33.3131 19.9049 30.7419 19.6971 30.4658C19.379 29.795 18.6669 29.4779 17.9332 29.6289C17.1887 29.7799 16.6779 30.4809 16.6628 31.238C16.3706 46.335 31.2306 52.4696 38.3705 55.4182C39.6734 55.9553 41.1494 56.5658 41.4979 56.8483C41.9675 57.2301 42.7402 59.5015 42.2922 65.3707C42.1948 66.6391 41.2685 67.6615 40.0219 67.8923H16.1022C15.4183 67.8923 14.8621 67.3379 14.8621 66.6563V15.6751C14.8621 14.9935 15.4183 14.4391 16.1022 14.4391H29.0749C29.0533 13.3477 29.2113 12.2541 29.5468 11.2036H16.1022C13.6285 11.2036 11.6157 13.2096 11.6157 15.6751V66.6585C11.6157 69.124 13.6285 71.13 16.1022 71.13H40.1539C40.234 71.13 40.3119 71.1235 40.392 71.1127C43.2012 70.6986 45.3135 68.4402 45.5278 65.6188C45.8265 61.7081 45.9455 56.2832 43.5431 54.3376C42.8268 53.7573 41.5477 53.2289 39.6107 52.4308C33.2866 49.8208 22.0237 45.1702 20.1646 34.7151C22.1925 35.6707 25.3675 36.4947 30.2588 36.4127C36.4335 36.307 41.4438 37.6897 44.0085 40.2026C45.3049 41.4731 45.9628 43.0283 45.9628 44.8251C45.9628 45.7181 46.69 46.4429 47.586 46.4429C48.482 46.4429 49.2092 45.7181 49.2092 44.8251C49.2092 42.9701 49.8412 41.4494 51.1441 40.1746C53.6936 37.6767 58.8143 36.3049 65.2097 36.4127C70.101 36.4947 73.276 35.6728 75.3039 34.7151C73.4448 45.1724 62.1819 49.8208 55.8579 52.4308C53.9209 53.231 52.6418 53.7573 51.9254 54.3376C49.5339 56.2746 49.6442 61.6585 49.9364 65.539C50.1485 68.3776 52.3647 70.6964 55.2043 71.0523L55.7107 71.1149C55.7778 71.1235 55.8449 71.1278 55.9142 71.1278H79.5741C82.0478 71.1278 84.0606 69.1218 84.0606 66.6563V15.6751C84.0606 13.2096 82.0478 11.2036 79.5741 11.2036H79.5762Z" fill="#2D002A"/>
<path d="M108.009 66V28.004H126.712C129.741 28.004 132.238 28.6137 134.205 29.833C136.172 31.013 137.627 32.6257 138.571 34.671C139.554 36.7163 140.046 39.0173 140.046 41.574C140.046 44.17 139.495 46.471 138.394 48.477C137.293 50.483 135.719 52.0563 133.674 53.197C131.668 54.2983 129.269 54.849 126.476 54.849H117.508V66H108.009ZM117.508 47.533H124.352C126.358 47.533 127.853 46.9823 128.836 45.881C129.859 44.7797 130.37 43.3243 130.37 41.515C130.37 39.5483 129.898 38.034 128.954 36.972C128.049 35.8707 126.614 35.32 124.647 35.32H117.508V47.533ZM148.915 33.609V26.47H159.24V33.609H148.915ZM149.682 66V45.055H145.552L146.378 38.034H159.181V66H149.682ZM182.934 66.59C177.939 66.59 174.025 65.3707 171.193 62.932C168.401 60.4933 167.004 56.855 167.004 52.017C167.004 47.1003 168.46 43.4423 171.37 41.043C174.32 38.6437 178.234 37.444 183.111 37.444C185.157 37.444 186.927 37.6013 188.421 37.916C189.955 38.1913 191.43 38.6633 192.846 39.332V46.058C190.644 44.996 188.067 44.465 185.117 44.465C182.364 44.465 180.26 45.0157 178.804 46.117C177.388 47.2183 176.68 49.185 176.68 52.017C176.68 54.6523 177.349 56.5797 178.686 57.799C180.024 58.979 182.148 59.569 185.058 59.569C187.93 59.569 190.545 58.979 192.905 57.799V64.82C191.489 65.4493 189.955 65.9017 188.303 66.177C186.691 66.4523 184.901 66.59 182.934 66.59ZM207.121 66V35.32H195.97V28.004H227.771V35.32H216.62V66H207.121ZM239.857 66.59C238.087 66.59 236.435 66.2753 234.901 65.646C233.407 65.0167 232.207 64.053 231.302 62.755C230.398 61.4177 229.945 59.7657 229.945 57.799C229.945 54.9277 230.909 52.6857 232.836 51.073C234.803 49.421 237.733 48.595 241.627 48.595H249.415V47.946C249.415 46.53 248.943 45.527 247.999 44.937C247.055 44.3077 245.285 43.993 242.689 43.993C239.503 43.993 236.376 44.4847 233.308 45.468V39.332C234.685 38.7813 236.357 38.329 238.323 37.975C240.329 37.621 242.434 37.444 244.636 37.444C248.963 37.444 252.346 38.329 254.784 40.099C257.262 41.869 258.501 44.6813 258.501 48.536V66H250.182L249.71 63.64C248.688 64.584 247.37 65.3117 245.757 65.823C244.184 66.3343 242.217 66.59 239.857 66.59ZM242.866 60.749C244.361 60.749 245.659 60.4933 246.76 59.982C247.862 59.4707 248.747 58.8217 249.415 58.035V54.082H242.689C239.897 54.082 238.5 55.203 238.5 57.445C238.5 58.4677 238.854 59.274 239.562 59.864C240.27 60.454 241.372 60.749 242.866 60.749ZM275.762 66.59C272.694 66.59 270.491 65.9213 269.154 64.584C267.816 63.2467 267.148 61.103 267.148 58.153V26.234H276.647V57.209C276.647 58.1137 276.824 58.743 277.178 59.097C277.571 59.4117 278.141 59.569 278.889 59.569C279.951 59.569 280.895 59.4313 281.721 59.156V65.587C280.816 65.941 279.911 66.1967 279.007 66.354C278.141 66.5113 277.06 66.59 275.762 66.59ZM303.233 66.59C298.356 66.59 294.442 65.3903 291.492 62.991C288.542 60.5523 287.067 56.8943 287.067 52.017C287.067 47.5723 288.286 44.0323 290.725 41.397C293.164 38.7617 296.822 37.444 301.699 37.444C306.144 37.444 309.585 38.5847 312.024 40.866C314.463 43.1473 315.682 46.2153 315.682 50.07V55.085H295.858C296.291 56.9337 297.294 58.2317 298.867 58.979C300.48 59.687 302.663 60.041 305.416 60.041C306.95 60.041 308.504 59.9033 310.077 59.628C311.69 59.3527 313.027 58.9987 314.089 58.566V64.761C312.752 65.3903 311.159 65.8427 309.31 66.118C307.461 66.4327 305.436 66.59 303.233 66.59ZM295.858 49.598H307.422V48.359C307.422 46.9823 307.009 45.9007 306.183 45.114C305.357 44.288 303.961 43.875 301.994 43.875C299.713 43.875 298.12 44.347 297.215 45.291C296.31 46.1957 295.858 47.6313 295.858 49.598Z" fill="#2D002A"/>
</svg>
