<?xml version="1.0" encoding="utf-8"?>
<!-- Generator: Adobe Illustrator 28.1.0, SVG Export Plug-In . SVG Version: 6.00 Build 0)  -->
<svg version="1.1" id="Layer_1" xmlns="http://www.w3.org/2000/svg" xmlns:xlink="http://www.w3.org/1999/xlink" x="0px" y="0px"
	 viewBox="0 0 316 98" style="enable-background:new 0 0 316 98;" xml:space="preserve">
<style type="text/css">
	.st0{fill:#FFFFFF;}
</style>
<path class="st0" d="M81.1,98H14.4C6.5,98,0,91.6,0,83.6V14.4C0,6.4,6.5,0,14.4,0h66.7C89,0,95.5,6.4,95.5,14.4v69.3
	C95.5,91.6,89,98,81.1,98z M14.4,3.2c-6.2,0-11.2,5-11.2,11.1v69.3c0,6.1,5,11.1,11.2,11.1h66.7c6.2,0,11.2-5,11.2-11.1V14.4
	c0-6.1-5-11.1-11.2-11.1H14.4z"/>
<path class="st0" d="M68.2,65.4c-1.6,0-3-1.3-3-3c0-1.6,1.3-3,3-3c1.6,0,3,1.3,3,3C71.2,64.1,69.9,65.4,68.2,65.4z M68.2,61
	c-0.8,0-1.5,0.7-1.5,1.5c0,0.8,0.7,1.5,1.5,1.5s1.5-0.7,1.5-1.5C69.7,61.6,69,61,68.2,61z"/>
<path class="st0" d="M74.5,60.9c-2.4,0-4.3-1.9-4.3-4.3c0-2.4,1.9-4.3,4.3-4.3c2.4,0,4.3,1.9,4.3,4.3C78.9,58.9,76.9,60.9,74.5,60.9
	z M74.5,54.4c-1.2,0-2.2,1-2.2,2.2c0,1.2,1,2.2,2.2,2.2c1.2,0,2.2-1,2.2-2.2C76.7,55.3,75.7,54.4,74.5,54.4z"/>
<path class="st0" d="M23,63.1c-2.4,0-4.3-1.9-4.3-4.3c0-2.4,1.9-4.3,4.3-4.3c2.4,0,4.3,1.9,4.3,4.3C27.3,61.1,25.4,63.1,23,63.1z
	 M23,56.6c-1.2,0-2.2,1-2.2,2.2c0,1.2,1,2.2,2.2,2.2c1.2,0,2.2-1,2.2-2.2C25.2,57.6,24.2,56.6,23,56.6z"/>
<path class="st0" d="M64.2,14.2c0-2.1-0.8-4-2.3-5.5c-1.5-1.5-3.4-2.3-5.5-2.3c-2.1,0-4,0.8-5.5,2.3l-3.2,3.2l-3.2-3.2
	C43,7.2,41,6.5,39,6.5c-2,0-4,0.8-5.5,2.3c-3,3-3,8,0,11l13.1,13c0.3,0.3,0.7,0.5,1.1,0.5c0.4,0,0.8-0.2,1.1-0.5l13.1-13
	C63.4,18.3,64.2,16.3,64.2,14.2L64.2,14.2z M59.7,17.4L47.7,29.3L35.8,17.4c-1.8-1.8-1.8-4.6,0-6.4c0.9-0.9,2-1.3,3.2-1.3
	c1.2,0,2.3,0.4,3.2,1.3l4.4,4.3c0.3,0.3,0.7,0.5,1.1,0.5c0.4,0,0.8-0.2,1.1-0.5l4.4-4.3c0.9-0.9,2-1.3,3.2-1.3
	c1.2,0,2.4,0.5,3.2,1.3c0.9,0.9,1.3,2,1.3,3.2C61,15.4,60.5,16.6,59.7,17.4z"/>
<path class="st0" d="M79.6,11.2H65.9c0.3,1,0.5,2,0.5,3c0,0.1,0,0.1,0,0.2h13.2c0.7,0,1.2,0.6,1.2,1.2v51c0,0.7-0.6,1.2-1.2,1.2H56
	l-0.4-0.1c-1.3-0.2-2.3-1.2-2.4-2.5c-0.4-5.8,0.3-8.1,0.8-8.4c0.3-0.3,1.8-0.9,3.1-1.4c7.1-2.9,22-9.1,21.7-24.2
	c0-0.8-0.5-1.5-1.3-1.6c-0.7-0.1-1.4,0.2-1.8,0.8c-0.2,0.3-2.4,2.8-10.5,2.7c-7.4-0.1-13.2,1.5-16.4,4.7c-0.5,0.5-0.9,1-1.3,1.6
	c-0.4-0.5-0.8-1-1.3-1.5c-3.2-3.2-8.9-4.8-16.1-4.7c-8.1,0.1-10.3-2.4-10.5-2.7c-0.3-0.7-1-1-1.8-0.8c-0.7,0.2-1.3,0.9-1.3,1.6
	c-0.3,15.1,14.6,21.2,21.7,24.2c1.3,0.5,2.8,1.1,3.1,1.4c0.5,0.4,1.2,2.7,0.8,8.5c-0.1,1.3-1,2.3-2.3,2.5H16.1
	c-0.7,0-1.2-0.6-1.2-1.2v-51c0-0.7,0.6-1.2,1.2-1.2h13c0-1.1,0.1-2.2,0.5-3.2H16.1c-2.5,0-4.5,2-4.5,4.5v51c0,2.5,2,4.5,4.5,4.5
	h24.1c0.1,0,0.2,0,0.2,0c2.8-0.4,4.9-2.7,5.1-5.5c0.3-3.9,0.4-9.3-2-11.3c-0.7-0.6-2-1.1-3.9-1.9c-6.3-2.6-17.6-7.3-19.4-17.7
	c2,1,5.2,1.8,10.1,1.7c6.2-0.1,11.2,1.3,13.7,3.8c1.3,1.3,2,2.8,2,4.6c0,0.9,0.7,1.6,1.6,1.6s1.6-0.7,1.6-1.6c0-1.9,0.6-3.4,1.9-4.7
	c2.5-2.5,7.7-3.9,14.1-3.8c4.9,0.1,8.1-0.7,10.1-1.7c-1.9,10.5-13.1,15.1-19.4,17.7c-1.9,0.8-3.2,1.3-3.9,1.9
	c-2.4,1.9-2.3,7.3-2,11.2c0.2,2.8,2.4,5.2,5.3,5.5l0.5,0.1c0.1,0,0.1,0,0.2,0h23.7c2.5,0,4.5-2,4.5-4.5v-51
	C84.1,13.2,82,11.2,79.6,11.2L79.6,11.2z"/>
<path class="st0" d="M108,66V28h18.7c3,0,5.5,0.6,7.5,1.8c2,1.2,3.4,2.8,4.4,4.8c1,2,1.5,4.3,1.5,6.9c0,2.6-0.6,4.9-1.7,6.9
	s-2.7,3.6-4.7,4.7c-2,1.1-4.4,1.7-7.2,1.7h-9V66H108z M117.5,47.5h6.8c2,0,3.5-0.6,4.5-1.7c1-1.1,1.5-2.6,1.5-4.4
	c0-2-0.5-3.5-1.4-4.5c-0.9-1.1-2.3-1.7-4.3-1.7h-7.1V47.5z M148.9,33.6v-7.1h10.3v7.1H148.9z M149.7,66V45.1h-4.1l0.8-7h12.8v28
	H149.7z M182.9,66.6c-5,0-8.9-1.2-11.7-3.7c-2.8-2.4-4.2-6.1-4.2-10.9c0-4.9,1.5-8.6,4.4-11c3-2.4,6.9-3.6,11.7-3.6
	c2,0,3.8,0.2,5.3,0.5c1.5,0.3,3,0.7,4.4,1.4v6.7c-2.2-1.1-4.8-1.6-7.7-1.6c-2.8,0-4.9,0.6-6.3,1.7c-1.4,1.1-2.1,3.1-2.1,5.9
	c0,2.6,0.7,4.6,2,5.8c1.3,1.2,3.5,1.8,6.4,1.8c2.9,0,5.5-0.6,7.8-1.8v7c-1.4,0.6-2.9,1.1-4.6,1.4C186.7,66.5,184.9,66.6,182.9,66.6z
	 M207.1,66V35.3H196V28h31.8v7.3h-11.2V66H207.1z M239.9,66.6c-1.8,0-3.4-0.3-5-0.9c-1.5-0.6-2.7-1.6-3.6-2.9c-0.9-1.3-1.4-3-1.4-5
	c0-2.9,1-5.1,2.9-6.7c2-1.7,4.9-2.5,8.8-2.5h7.8v-0.6c0-1.4-0.5-2.4-1.4-3c-0.9-0.6-2.7-0.9-5.3-0.9c-3.2,0-6.3,0.5-9.4,1.5v-6.1
	c1.4-0.6,3-1,5-1.4c2-0.4,4.1-0.5,6.3-0.5c4.3,0,7.7,0.9,10.1,2.7c2.5,1.8,3.7,4.6,3.7,8.4V66h-8.3l-0.5-2.4c-1,0.9-2.3,1.7-4,2.2
	C244.2,66.3,242.2,66.6,239.9,66.6z M242.9,60.7c1.5,0,2.8-0.3,3.9-0.8c1.1-0.5,2-1.2,2.7-1.9v-4h-6.7c-2.8,0-4.2,1.1-4.2,3.4
	c0,1,0.4,1.8,1.1,2.4C240.3,60.5,241.4,60.7,242.9,60.7z M275.8,66.6c-3.1,0-5.3-0.7-6.6-2c-1.3-1.3-2-3.5-2-6.4V26.2h9.5v31
	c0,0.9,0.2,1.5,0.5,1.9c0.4,0.3,1,0.5,1.7,0.5c1.1,0,2-0.1,2.8-0.4v6.4c-0.9,0.4-1.8,0.6-2.7,0.8C278.1,66.5,277.1,66.6,275.8,66.6z
	 M303.2,66.6c-4.9,0-8.8-1.2-11.7-3.6c-3-2.4-4.4-6.1-4.4-11c0-4.4,1.2-8,3.7-10.6s6.1-4,11-4c4.4,0,7.9,1.1,10.3,3.4
	c2.4,2.3,3.7,5.3,3.7,9.2v5h-19.8c0.4,1.8,1.4,3.1,3,3.9c1.6,0.7,3.8,1.1,6.5,1.1c1.5,0,3.1-0.1,4.7-0.4c1.6-0.3,3-0.6,4-1.1v6.2
	c-1.3,0.6-2.9,1.1-4.8,1.4C307.5,66.4,305.4,66.6,303.2,66.6z M295.9,49.6h11.6v-1.2c0-1.4-0.4-2.5-1.2-3.2
	c-0.8-0.8-2.2-1.2-4.2-1.2c-2.3,0-3.9,0.5-4.8,1.4C296.3,46.2,295.9,47.6,295.9,49.6z"/>
</svg>
