<svg width="407" height="96" viewBox="0 0 407 96" fill="none" xmlns="http://www.w3.org/2000/svg">
<rect x="1" y="1" width="404.582" height="94" rx="9" stroke="white" stroke-width="2"/>
<path d="M67.4897 50.0351C67.5213 47.582 68.1729 45.1768 69.3838 43.0432C70.5948 40.9096 72.3257 39.117 74.4156 37.8321C73.088 35.936 71.3365 34.3755 69.3002 33.2747C67.264 32.1739 64.9991 31.563 62.6855 31.4906C57.7502 30.9726 52.9656 34.4438 50.4507 34.4438C47.8871 34.4438 44.0149 31.5421 39.8452 31.6279C37.1482 31.715 34.5197 32.4993 32.2158 33.9043C29.912 35.3093 28.0114 37.2872 26.6992 39.6451C21.0152 49.4862 25.255 63.9493 30.6998 71.904C33.424 75.7993 36.6078 80.1503 40.7737 79.996C44.8503 79.827 46.3728 77.3965 51.2936 77.3965C56.1688 77.3965 57.5972 79.996 61.8477 79.8979C66.222 79.8269 68.9781 75.9854 71.6067 72.0533C73.564 69.2778 75.0702 66.2103 76.0694 62.9643C73.528 61.8894 71.3592 60.0902 69.8335 57.7911C68.3078 55.4919 67.4926 52.7944 67.4897 50.0351V50.0351Z" fill="white"/>
<path d="M59.4614 26.259C61.8465 23.3958 63.0215 19.7156 62.737 16C59.0931 16.3827 55.7271 18.1243 53.3098 20.8776C52.1279 22.2227 51.2227 23.7876 50.6459 25.4827C50.0692 27.1778 49.8322 28.97 49.9484 30.7568C51.771 30.7756 53.5741 30.3805 55.2219 29.6014C56.8697 28.8223 58.3193 27.6795 59.4614 26.259Z" fill="white"/>
<path d="M127.66 72.349V49.0022H127.505L117.943 72.1071H114.293L104.707 49.0022H104.555V72.349H100.069V40.6277H105.764L116.03 65.666H116.204L126.45 40.6277H132.165V72.349L127.66 72.349Z" fill="white"/>
<path d="M135.954 65.7758C135.954 61.7321 139.052 59.2899 144.55 58.9605L150.882 58.6087V56.85C150.882 54.2781 149.188 52.8263 146.307 52.8263C145.239 52.6843 144.157 52.9367 143.263 53.5361C142.369 54.1355 141.724 55.0407 141.45 56.0817H137.009C137.141 51.9033 141.033 48.9372 146.439 48.9372C151.957 48.9372 155.606 51.9482 155.606 56.4984V72.349H151.056V68.5448H150.946C150.218 69.8347 149.156 70.9052 147.872 71.6442C146.588 72.3832 145.129 72.7636 143.647 72.7457C142.674 72.8409 141.692 72.7315 140.764 72.4247C139.836 72.1178 138.982 71.6202 138.258 70.9639C137.533 70.3075 136.954 69.5069 136.557 68.6134C136.16 67.7199 135.955 66.7534 135.954 65.7758V65.7758ZM150.882 63.6878V61.9067L145.186 62.2584C142.35 62.4356 140.746 63.6654 140.746 65.6436C140.746 67.6667 142.417 68.9863 144.967 68.9863C145.705 69.0364 146.446 68.9382 147.146 68.6974C147.846 68.4566 148.49 68.0782 149.042 67.5844C149.593 67.0906 150.04 66.4914 150.356 65.8222C150.672 65.153 150.851 64.4272 150.882 63.6878H150.882Z" fill="white"/>
<path d="M175.541 57.1796C175.333 55.9145 174.657 54.7738 173.648 53.984C172.638 53.1942 171.368 52.8131 170.09 52.9164C166.44 52.9164 164.023 55.9722 164.023 60.7868C164.023 65.7111 166.463 68.6772 170.132 68.6772C171.393 68.8034 172.655 68.444 173.66 67.6722C174.665 66.9004 175.337 65.7743 175.541 64.5236H180.113C179.829 66.9152 178.622 69.1012 176.75 70.6164C174.878 72.1316 172.488 72.8563 170.09 72.6361C163.494 72.6361 159.186 68.1284 159.186 60.7868C159.186 53.5974 163.494 48.9375 170.045 48.9375C172.461 48.7326 174.861 49.4797 176.734 51.0195C178.607 52.5592 179.805 54.7697 180.071 57.1796H175.541Z" fill="white"/>
<path d="M210.961 63.7751H198.87L195.966 72.349H190.845L202.298 40.6277H207.619L219.071 72.349H213.863L210.961 63.7751ZM200.122 59.8187H209.707L204.982 45.9039H204.85L200.122 59.8187Z" fill="white"/>
<path d="M243.805 60.7866C243.805 67.9735 239.958 72.591 234.154 72.591C232.683 72.6679 231.221 72.3292 229.934 71.6136C228.647 70.898 227.587 69.8344 226.877 68.5447H226.767V79.9999H222.02V49.2217H226.615V53.0683H226.702C227.445 51.7848 228.523 50.7267 229.819 50.0068C231.116 49.2868 232.584 48.9319 234.066 48.9797C239.936 48.9797 243.805 53.6196 243.805 60.7866ZM238.926 60.7866C238.926 56.1043 236.506 53.0259 232.814 53.0259C229.187 53.0259 226.747 56.1691 226.747 60.7866C226.747 65.4465 229.187 68.5672 232.814 68.5672C236.506 68.5672 238.926 65.5113 238.926 60.7866Z" fill="white"/>
<path d="M269.26 60.7866C269.26 67.9735 265.413 72.591 259.608 72.591C258.138 72.6679 256.675 72.3292 255.389 71.6136C254.102 70.898 253.042 69.8344 252.332 68.5447H252.222V79.9999H247.475V49.2217H252.07V53.0683H252.157C252.9 51.7848 253.977 50.7267 255.274 50.0068C256.571 49.2868 258.039 48.9319 259.521 48.9797C265.391 48.9797 269.26 53.6196 269.26 60.7866ZM264.381 60.7866C264.381 56.1043 261.961 53.0259 258.269 53.0259C254.642 53.0259 252.202 56.1691 252.202 60.7866C252.202 65.4465 254.642 68.5672 258.269 68.5672C261.961 68.5672 264.381 65.5113 264.381 60.7866H264.381Z" fill="white"/>
<path d="M286.083 63.5108C286.435 66.6565 289.491 68.7219 293.667 68.7219C297.668 68.7219 300.547 66.6564 300.547 63.82C300.547 61.3579 298.811 59.8836 294.7 58.8733L290.589 57.8829C284.764 56.4759 282.06 53.7518 282.06 49.3314C282.06 43.8583 286.829 40.0989 293.602 40.0989C300.305 40.0989 304.9 43.8583 305.055 49.3314H300.263C299.976 46.1658 297.359 44.2549 293.535 44.2549C289.711 44.2549 287.094 46.1883 287.094 49.0022C287.094 51.2448 288.765 52.5644 292.854 53.5746L296.349 54.4328C302.857 55.9719 305.561 58.5863 305.561 63.2262C305.561 69.1608 300.834 72.8778 293.315 72.8778C286.28 72.8778 281.531 69.2481 281.224 63.5106L286.083 63.5108Z" fill="white"/>
<path d="M315.807 43.7486V49.2217H320.204V52.9811H315.807V65.7309C315.807 67.7116 316.687 68.6346 318.62 68.6346C319.143 68.6255 319.664 68.5889 320.182 68.5248V72.2617C319.313 72.4241 318.429 72.4977 317.545 72.4812C312.863 72.4812 311.037 70.7225 311.037 66.2372V52.9811H307.674V49.2217H311.037V43.7486H315.807Z" fill="white"/>
<path d="M322.749 60.7867C322.749 53.51 327.035 48.9374 333.718 48.9374C340.423 48.9374 344.689 53.5099 344.689 60.7867C344.689 68.0834 340.446 72.636 333.718 72.636C326.992 72.636 322.749 68.0833 322.749 60.7867ZM339.852 60.7867C339.852 55.795 337.564 52.8489 333.718 52.8489C329.871 52.8489 327.583 55.8175 327.583 60.7867C327.583 65.7983 329.871 68.722 333.718 68.722C337.564 68.722 339.852 65.7983 339.852 60.7867H339.852Z" fill="white"/>
<path d="M348.605 49.2218H353.133V53.1582H353.243C353.549 51.9288 354.27 50.8423 355.283 50.0814C356.296 49.3204 357.54 48.9314 358.806 48.9798C359.353 48.9779 359.899 49.0373 360.432 49.1569V53.5973C359.742 53.3862 359.021 53.2893 358.299 53.3104C357.61 53.2824 356.922 53.404 356.284 53.6669C355.646 53.9297 355.072 54.3275 354.602 54.833C354.132 55.3385 353.777 55.9397 353.561 56.5954C353.346 57.251 353.275 57.9456 353.353 58.6314V72.3491H348.605V49.2218Z" fill="white"/>
<path d="M382.317 65.5563C381.679 69.7547 377.59 72.636 372.359 72.636C365.631 72.636 361.455 68.1282 361.455 60.8964C361.455 53.6422 365.653 48.9374 372.159 48.9374C378.558 48.9374 382.582 53.3328 382.582 60.3451V61.9716H366.247V62.2585C366.172 63.1096 366.278 63.9671 366.56 64.7739C366.841 65.5807 367.291 66.3184 367.88 66.9379C368.468 67.5575 369.182 68.0448 369.973 68.3675C370.764 68.6901 371.615 68.8407 372.469 68.8093C373.591 68.9144 374.716 68.6546 375.679 68.0685C376.641 67.4824 377.388 66.6013 377.81 65.5563L382.317 65.5563ZM366.27 58.6538H377.832C377.875 57.8885 377.759 57.1226 377.491 56.4043C377.224 55.686 376.811 55.0307 376.278 54.4795C375.746 53.9283 375.105 53.4932 374.396 53.2014C373.687 52.9097 372.926 52.7676 372.159 52.784C371.386 52.7794 370.62 52.928 369.905 53.2211C369.189 53.5142 368.539 53.946 367.991 54.4918C367.444 55.0375 367.01 55.6862 366.714 56.4006C366.419 57.115 366.268 57.8808 366.27 58.6538L366.27 58.6538Z" fill="white"/>
<path d="M106.399 16.7511C107.395 16.6796 108.393 16.83 109.323 17.1913C110.254 17.5526 111.092 18.1158 111.778 18.8403C112.464 19.5648 112.981 20.4325 113.291 21.3809C113.601 22.3293 113.697 23.3347 113.571 24.3246C113.571 29.1941 110.94 31.9931 106.399 31.9931H100.894V16.7511H106.399ZM103.261 29.8376H106.135C106.846 29.8801 107.558 29.7635 108.218 29.4962C108.879 29.229 109.471 28.8179 109.953 28.2928C110.434 27.7676 110.793 27.1418 111.002 26.4607C111.211 25.7797 111.265 25.0605 111.162 24.3557C111.258 23.6536 111.198 22.939 110.985 22.2629C110.773 21.5868 110.414 20.9661 109.933 20.4452C109.453 19.9242 108.863 19.516 108.207 19.2497C107.55 18.9835 106.842 18.8657 106.135 18.905H103.261V29.8376Z" fill="white"/>
<path d="M116.245 26.2366C116.173 25.4807 116.26 24.718 116.499 23.9975C116.739 23.277 117.127 22.6145 117.637 22.0525C118.148 21.4906 118.771 21.0416 119.465 20.7344C120.16 20.4271 120.911 20.2684 121.67 20.2684C122.429 20.2684 123.18 20.4271 123.875 20.7344C124.569 21.0416 125.192 21.4906 125.702 22.0525C126.213 22.6145 126.601 23.277 126.841 23.9975C127.08 24.718 127.167 25.4807 127.094 26.2366C127.168 26.9933 127.083 27.757 126.844 28.4787C126.605 29.2004 126.217 29.8641 125.706 30.4272C125.195 30.9902 124.572 31.4401 123.877 31.748C123.182 32.0559 122.43 32.215 121.67 32.215C120.91 32.215 120.158 32.0559 119.463 31.748C118.768 31.4401 118.145 30.9902 117.634 30.4272C117.123 29.8641 116.735 29.2004 116.496 28.4787C116.257 27.757 116.172 26.9933 116.245 26.2366V26.2366ZM124.759 26.2366C124.759 23.7433 123.639 22.2852 121.674 22.2852C119.7 22.2852 118.59 23.7433 118.59 26.2366C118.59 28.75 119.701 30.1968 121.674 30.1968C123.639 30.1968 124.759 28.7399 124.759 26.2366H124.759Z" fill="white"/>
<path d="M141.516 31.9928H139.161L136.783 23.5212H136.604L134.236 31.9928H131.904L128.733 20.4902H131.036L133.096 29.2674H133.266L135.631 20.4902H137.809L140.174 29.2674H140.353L142.404 20.4902H144.674L141.516 31.9928Z" fill="white"/>
<path d="M147.341 20.4903H149.526V22.3175H149.695C149.983 21.6612 150.469 21.1111 151.084 20.7437C151.699 20.3764 152.414 20.2102 153.128 20.2682C153.688 20.2261 154.25 20.3105 154.772 20.5151C155.295 20.7197 155.765 21.0393 156.147 21.4502C156.53 21.861 156.815 22.3527 156.981 22.8887C157.148 23.4246 157.192 23.9912 157.109 24.5464V31.9927H154.839V25.1165C154.839 23.268 154.036 22.3487 152.357 22.3487C151.977 22.331 151.598 22.3957 151.245 22.5383C150.893 22.6809 150.575 22.8981 150.314 23.175C150.053 23.4519 149.855 23.7818 149.734 24.1424C149.612 24.5029 149.57 24.8854 149.611 25.2636V31.9928H147.341L147.341 20.4903Z" fill="white"/>
<path d="M160.727 16H162.997V31.9928H160.727V16Z" fill="white"/>
<path d="M166.152 26.2366C166.08 25.4807 166.166 24.718 166.406 23.9975C166.646 23.277 167.034 22.6145 167.544 22.0525C168.055 21.4906 168.678 21.0416 169.372 20.7344C170.066 20.4271 170.817 20.2684 171.577 20.2684C172.336 20.2684 173.087 20.4271 173.782 20.7344C174.476 21.0416 175.099 21.4906 175.609 22.0525C176.12 22.6145 176.508 23.277 176.747 23.9975C176.987 24.718 177.074 25.4807 177.001 26.2366C177.075 26.9933 176.99 27.757 176.75 28.4787C176.511 29.2004 176.124 29.8641 175.613 30.4272C175.102 30.9902 174.479 31.4401 173.784 31.748C173.089 32.0559 172.337 32.215 171.577 32.215C170.817 32.215 170.065 32.0559 169.37 31.748C168.674 31.4401 168.051 30.9902 167.541 30.4272C167.03 29.8641 166.642 29.2004 166.403 28.4787C166.164 27.757 166.079 26.9933 166.152 26.2366V26.2366ZM174.666 26.2366C174.666 23.7433 173.546 22.2852 171.581 22.2852C169.607 22.2852 168.497 23.7433 168.497 26.2366C168.497 28.75 169.607 30.1968 171.581 30.1968C173.546 30.1968 174.666 28.7399 174.666 26.2366H174.666Z" fill="white"/>
<path d="M179.391 28.7399C179.391 26.6693 180.933 25.4757 183.669 25.3061L186.785 25.1265V24.1336C186.785 22.9187 185.982 22.2327 184.43 22.2327C183.163 22.2327 182.285 22.698 182.033 23.5112H179.835C180.067 21.5355 181.926 20.2682 184.535 20.2682C187.419 20.2682 189.045 21.7039 189.045 24.1336V31.9928H186.86V30.3763H186.68C186.316 30.9562 185.804 31.4289 185.197 31.7462C184.59 32.0635 183.909 32.214 183.225 32.1823C182.742 32.2326 182.254 32.181 181.793 32.0311C181.331 31.8812 180.906 31.6361 180.544 31.3118C180.183 30.9874 179.894 30.591 179.695 30.148C179.497 29.705 179.393 29.2253 179.391 28.7399V28.7399ZM186.785 27.757V26.7953L183.976 26.9749C182.392 27.0809 181.674 27.6198 181.674 28.6338C181.674 29.6691 182.572 30.2715 183.807 30.2715C184.168 30.3081 184.534 30.2716 184.881 30.1641C185.229 30.0566 185.551 29.8803 185.829 29.6457C186.107 29.4111 186.335 29.123 186.499 28.7985C186.663 28.474 186.76 28.1198 186.785 27.757V27.757Z" fill="white"/>
<path d="M192.029 26.2366C192.029 22.602 193.897 20.2995 196.803 20.2995C197.522 20.2663 198.236 20.4385 198.86 20.7959C199.485 21.1532 199.995 21.681 200.331 22.3175H200.5V16H202.77V31.9928H200.595V30.1755H200.416C200.054 30.8077 199.526 31.3289 198.889 31.6826C198.253 32.0364 197.531 32.2092 196.803 32.1824C193.877 32.1825 192.029 29.8799 192.029 26.2366ZM194.374 26.2366C194.374 28.6763 195.524 30.1444 197.447 30.1444C199.36 30.1444 200.543 28.6551 200.543 26.2466C200.543 23.8493 199.348 22.3388 197.447 22.3388C195.536 22.3388 194.374 23.8168 194.374 26.2366H194.374Z" fill="white"/>
<path d="M212.162 26.2367C212.09 25.4807 212.177 24.718 212.417 23.9974C212.656 23.2768 213.044 22.6143 213.555 22.0524C214.066 21.4904 214.688 21.0414 215.383 20.7342C216.077 20.427 216.828 20.2682 217.588 20.2682C218.347 20.2682 219.098 20.427 219.793 20.7342C220.487 21.0414 221.11 21.4904 221.62 22.0524C222.131 22.6143 222.519 23.2768 222.759 23.9974C222.998 24.718 223.085 25.4807 223.013 26.2367C223.086 26.9934 223.001 27.7571 222.762 28.4788C222.522 29.2005 222.135 29.8642 221.624 30.4272C221.113 30.9902 220.49 31.4401 219.795 31.748C219.1 32.0559 218.348 32.215 217.588 32.215C216.827 32.215 216.075 32.0559 215.38 31.748C214.685 31.4401 214.062 30.9902 213.551 30.4272C213.04 29.8642 212.653 29.2005 212.414 28.4788C212.174 27.7571 212.089 26.9934 212.162 26.2367V26.2367ZM220.677 26.2367C220.677 23.7433 219.556 22.2852 217.591 22.2852C215.618 22.2852 214.507 23.7433 214.507 26.2367C214.507 28.75 215.618 30.1968 217.591 30.1968C219.556 30.1968 220.677 28.74 220.677 26.2367H220.677Z" fill="white"/>
<path d="M226.059 20.4903H228.244V22.3175H228.414C228.701 21.6612 229.187 21.1111 229.802 20.7437C230.417 20.3764 231.132 20.2102 231.846 20.2682C232.406 20.2261 232.968 20.3105 233.49 20.5151C234.013 20.7197 234.483 21.0393 234.865 21.4502C235.248 21.861 235.533 22.3527 235.699 22.8887C235.866 23.4246 235.91 23.9912 235.827 24.5464V31.9927H233.557V25.1165C233.557 23.268 232.754 22.3487 231.075 22.3487C230.695 22.331 230.316 22.3957 229.963 22.5383C229.611 22.6809 229.293 22.8981 229.032 23.175C228.771 23.4519 228.573 23.7818 228.452 24.1424C228.33 24.5029 228.288 24.8854 228.329 25.2636V31.9928H226.059V20.4903Z" fill="white"/>
<path d="M248.655 17.6265V20.5427H251.147V22.4548H248.655V28.3695C248.655 29.5744 249.151 30.102 250.281 30.102C250.57 30.101 250.859 30.0836 251.147 30.0496V31.9405C250.739 32.0134 250.326 32.0522 249.912 32.0565C247.387 32.0565 246.382 31.1684 246.382 28.9507V22.4547H244.556V20.5426H246.382V17.6265H248.655Z" fill="white"/>
<path d="M254.248 16H256.498V22.3388H256.677C256.979 21.6763 257.478 21.1231 258.105 20.7543C258.733 20.3856 259.459 20.2194 260.185 20.2782C260.741 20.2479 261.298 20.3409 261.815 20.5505C262.331 20.76 262.795 21.0811 263.174 21.4906C263.552 21.9002 263.835 22.3883 264.004 22.9199C264.172 23.4516 264.22 24.0138 264.146 24.5664V31.9928H261.874V25.1265C261.874 23.2892 261.018 22.3587 259.414 22.3587C259.024 22.3267 258.631 22.3803 258.264 22.5159C257.897 22.6514 257.564 22.8655 257.288 23.1433C257.012 23.421 256.8 23.7557 256.667 24.1239C256.534 24.4921 256.483 24.8849 256.518 25.2749V31.9928H254.248L254.248 16Z" fill="white"/>
<path d="M277.382 28.8871C277.074 29.9383 276.406 30.8477 275.495 31.456C274.583 32.0644 273.487 32.333 272.398 32.2148C271.64 32.2348 270.887 32.0897 270.191 31.7895C269.495 31.4892 268.873 31.0411 268.367 30.4763C267.862 29.9114 267.485 29.2432 267.264 28.5182C267.042 27.7932 266.981 27.0287 267.085 26.2777C266.984 25.5245 267.046 24.7583 267.267 24.0311C267.488 23.3039 267.862 22.6327 268.365 22.0629C268.868 21.493 269.488 21.0379 270.182 20.7283C270.876 20.4187 271.628 20.2618 272.388 20.2683C275.589 20.2683 277.52 22.4549 277.52 26.0669V26.859H269.397V26.9862C269.362 27.4083 269.415 27.8332 269.553 28.2336C269.691 28.634 269.912 29.0011 270.2 29.3114C270.488 29.6216 270.839 29.8682 271.228 30.0353C271.617 30.2023 272.037 30.2862 272.461 30.2815C273.004 30.3467 273.554 30.2489 274.041 30.0006C274.528 29.7523 274.931 29.3646 275.197 28.887L277.382 28.8871ZM269.397 25.1801H275.207C275.236 24.7941 275.183 24.4063 275.053 24.0417C274.923 23.6772 274.718 23.3438 274.451 23.0632C274.185 22.7826 273.862 22.5609 273.505 22.4122C273.147 22.2636 272.763 22.1915 272.376 22.2003C271.983 22.1954 271.593 22.2691 271.23 22.4171C270.866 22.5651 270.536 22.7845 270.258 23.0622C269.981 23.3399 269.761 23.6703 269.613 24.0341C269.466 24.3978 269.392 24.7875 269.397 25.1801H269.397Z" fill="white"/>
</svg>
