<svg width="308" height="230" viewBox="0 0 308 230" fill="none" xmlns="http://www.w3.org/2000/svg">
<path d="M308 202.121H0V202.276H308V202.121Z" fill="#E1CFFA"/>
<path d="M277.135 209.371H256.734V209.526H277.135V209.371Z" fill="#E1CFFA"/>
<path d="M222.422 211.051H217.081V211.206H222.422V211.051Z" fill="#E1CFFA"/>
<path d="M237.016 204.766H146.749V204.921H237.016V204.766Z" fill="#E1CFFA"/>
<path d="M41.7022 204.704H32.3246V204.859H41.7022V204.704Z" fill="#E1CFFA"/>
<path d="M68.3133 204.704H47.1673V204.859H68.3133V204.704Z" fill="#E1CFFA"/>
<path d="M108.215 207.286H80.9823V207.441H108.215V207.286Z" fill="#E1CFFA"/>
<path d="M146.874 174.585H27.9464C26.0212 174.585 24.4375 172.998 24.4375 171.069V3.51609C24.4065 1.58697 25.9901 0.00012207 27.9464 0.00012207H146.874C148.799 0.00012207 150.382 1.58697 150.382 3.51609V171.069C150.382 172.998 148.83 174.585 146.874 174.585ZM27.9464 0.155696C26.0833 0.155696 24.5928 1.68032 24.5928 3.51609V171.069C24.5928 172.936 26.1143 174.429 27.9464 174.429H146.874C148.737 174.429 150.227 172.905 150.227 171.069V3.51609C150.227 1.6492 148.706 0.155696 146.874 0.155696H27.9464Z" fill="#E1CFFA"/>
<path d="M279.246 174.585H160.288C158.363 174.585 156.779 172.998 156.779 171.069V3.51609C156.779 1.58697 158.363 0.00012207 160.288 0.00012207H279.246C281.172 0.00012207 282.755 1.58697 282.755 3.51609V171.069C282.755 172.998 281.172 174.585 279.246 174.585ZM160.288 0.155696C158.425 0.155696 156.934 1.68032 156.934 3.51609V171.069C156.934 172.936 158.456 174.429 160.288 174.429H279.246C281.109 174.429 282.6 172.905 282.6 171.069V3.51609C282.6 1.6492 281.078 0.155696 279.246 0.155696H160.288Z" fill="#E1CFFA"/>
<path d="M263.41 17.5177H104.985V127.259H263.41V17.5177Z" fill="#E7E4ED"/>
<path d="M266.577 17.5177H106.476V127.259H266.577V17.5177Z" fill="#F5F5F5"/>
<path d="M254.001 127.259H104.985V133.202H254.001V127.259Z" fill="#E7E4ED"/>
<path d="M271.297 127.259H120.666V133.202H271.297V127.259Z" fill="#F0F0F0"/>
<path d="M262.132 122.791V22.0103L110.942 22.0103L110.942 122.791L262.132 122.791Z" fill="#FAFAFA"/>
<path d="M138.676 122.779L176.838 21.9982H194.879L156.717 122.779H138.676Z" fill="white"/>
<path d="M113.028 97.8248C112.841 97.8248 112.717 97.6692 112.717 97.5137V24.923C112.717 24.7363 112.872 24.6119 113.028 24.6119C113.214 24.6119 113.338 24.7675 113.338 24.923V97.5137C113.338 97.6692 113.183 97.8248 113.028 97.8248Z" fill="#F0F0F0"/>
<path d="M160.567 122.779L198.73 21.9982H205.778L167.585 122.779H160.567Z" fill="white"/>
<path d="M204.226 122.779L242.388 21.9982H249.406L211.243 122.779H204.226Z" fill="white"/>
<path d="M262.136 122.787V22.0062H261.577V122.787H262.136Z" fill="#E7E4ED"/>
<g opacity="0.7">
<path d="M267.664 26.0743H109.239L108.836 23.7407H267.229L267.664 26.0743Z" fill="#E7E4ED"/>
<path d="M267.664 28.5635H109.239L108.836 26.2299H267.229L267.664 28.5635Z" fill="#E7E4ED"/>
<path d="M267.664 31.0526H109.239L108.836 28.7501H267.229L267.664 31.0526Z" fill="#E7E4ED"/>
<path d="M267.664 33.5418H109.239L108.836 31.2393H267.229L267.664 33.5418Z" fill="#E7E4ED"/>
<path d="M267.664 36.0621H109.239L108.836 33.7285H267.229L267.664 36.0621Z" fill="#E7E4ED"/>
<path d="M267.664 38.5513H109.239L108.836 36.2177H267.229L267.664 38.5513Z" fill="#E7E4ED"/>
<path d="M267.664 41.0404H109.239L108.836 38.7068H267.229L267.664 41.0404Z" fill="#E7E4ED"/>
<path d="M267.664 43.5296H109.239L108.836 41.196H267.229L267.664 43.5296Z" fill="#E7E4ED"/>
<path d="M267.664 46.0188H109.239L108.836 43.7163H267.229L267.664 46.0188Z" fill="#E7E4ED"/>
<path d="M267.664 48.508H109.239L108.836 46.2055H267.229L267.664 48.508Z" fill="#E7E4ED"/>
<path d="M267.664 51.0282H109.239L108.836 48.6946H267.229L267.664 51.0282Z" fill="#E7E4ED"/>
<path d="M267.664 53.5174H109.239L108.836 51.1838H267.229L267.664 53.5174Z" fill="#E7E4ED"/>
<path d="M267.664 56.0066H109.239L108.836 53.673H267.229L267.664 56.0066Z" fill="#E7E4ED"/>
<path d="M267.664 58.4958H109.239L108.836 56.1933H267.229L267.664 58.4958Z" fill="#E7E4ED"/>
<path d="M267.664 60.985H109.239L108.836 58.6825H267.229L267.664 60.985Z" fill="#E7E4ED"/>
<path d="M267.664 63.5053H109.239L108.836 61.1717H267.229L267.664 63.5053Z" fill="#E7E4ED"/>
<path d="M267.664 65.9944H109.239L108.836 63.6608H267.229L267.664 65.9944Z" fill="#E7E4ED"/>
<path d="M267.664 68.4836H109.239L108.836 66.15H267.229L267.664 68.4836Z" fill="#E7E4ED"/>
<path d="M267.664 70.9728H109.239L108.836 68.6392H267.229L267.664 70.9728Z" fill="#E7E4ED"/>
<path d="M267.664 73.462H109.239L108.836 71.1595H267.229L267.664 73.462Z" fill="#E7E4ED"/>
<path d="M267.664 75.9512H109.239L108.836 73.6487H267.229L267.664 75.9512Z" fill="#E7E4ED"/>
<path d="M267.664 78.4714H109.239L108.836 76.1378H267.229L267.664 78.4714Z" fill="#E7E4ED"/>
<path d="M267.664 80.9606H109.239L108.836 78.627H267.229L267.664 80.9606Z" fill="#E7E4ED"/>
<path d="M267.664 83.4498H109.239L108.836 81.1162H267.229L267.664 83.4498Z" fill="#E7E4ED"/>
</g>
<path d="M41.6711 129.157C41.6711 136.034 48.6577 141.603 57.259 141.603C65.8603 141.603 72.8469 136.034 72.8469 129.157H41.6711Z" fill="#E7E4ED"/>
<path d="M43.4721 141.603H32.3246V198.512H43.4721V141.603Z" fill="#E7E4ED"/>
<path d="M89.4594 198.512H34.4672V202.121H89.4594V198.512Z" fill="#F0F0F0"/>
<path d="M43.457 198.512H91.5868V141.603H43.457L43.457 198.512Z" fill="#F5F5F5"/>
<path d="M47.8352 167.278H87.2086V148.609H47.8352V167.278Z" fill="#E7E4ED"/>
<path d="M47.8352 191.505H87.2086V172.836H47.8352V191.505Z" fill="#E7E4ED"/>
<path d="M72.0085 159.214H63.0346C62.4757 159.214 62.0099 158.747 62.0099 158.187V157.658C62.0099 157.098 62.4757 156.632 63.0346 156.632H72.0085C72.5674 156.632 73.0332 157.098 73.0332 157.658V158.187C73.0332 158.747 72.5674 159.214 72.0085 159.214Z" fill="#F5F5F5"/>
<path d="M72.0085 183.452H63.0346C62.4757 183.452 62.0099 182.986 62.0099 182.426V181.897C62.0099 181.337 62.4757 180.87 63.0346 180.87H72.0085C72.5674 180.87 73.0332 181.337 73.0332 181.897V182.426C73.0332 182.986 72.5674 183.452 72.0085 183.452Z" fill="#F5F5F5"/>
<path d="M156.22 155.356H147.06V199.321H156.22V155.356Z" fill="#E7E4ED"/>
<path d="M249.778 199.321H148.799V202.121H249.778V199.321Z" fill="#F0F0F0"/>
<path d="M156.203 199.343H251.531V155.378H156.203V199.343Z" fill="#F5F5F5"/>
<path d="M159.805 175.208H247.929V160.802H159.805V175.208Z" fill="#E7E4ED"/>
<path d="M159.805 193.918H247.929V179.512H159.805V193.918Z" fill="#E7E4ED"/>
<path d="M235.464 168.984H172.274C171.839 168.984 171.466 168.611 171.466 168.175V167.833C171.466 167.397 171.839 167.024 172.274 167.024H235.464C235.898 167.024 236.271 167.397 236.271 167.833V168.175C236.302 168.611 235.929 168.984 235.464 168.984Z" fill="#F5F5F5"/>
<path d="M235.464 187.684H172.274C171.839 187.684 171.466 187.311 171.466 186.875V186.533C171.466 186.097 171.839 185.724 172.274 185.724H235.464C235.898 185.724 236.271 186.097 236.271 186.533V186.875C236.302 187.342 235.929 187.684 235.464 187.684Z" fill="#F5F5F5"/>
<path d="M81.8208 24.4563H38.7833V112.231H81.8208V24.4563Z" fill="#E7E4ED"/>
<path d="M85.2675 24.4563H39.7149V112.231H85.2675V24.4563Z" fill="#F5F5F5"/>
<path d="M78.6449 105.569L78.6449 31.0802L46.3513 31.0802L46.3513 105.569H78.6449Z" fill="white"/>
<path d="M133.987 202.121C144.586 202.121 153.177 193.512 153.177 182.892C153.177 172.273 144.586 163.664 133.987 163.664C123.389 163.664 114.797 172.273 114.797 182.892C114.797 193.512 123.389 202.121 133.987 202.121Z" fill="#F5F5F5"/>
<path d="M153.984 230C219.941 230 273.409 226.866 273.409 222.999C273.409 219.133 219.941 215.999 153.984 215.999C88.0283 215.999 34.5603 219.133 34.5603 222.999C34.5603 226.866 88.0283 230 153.984 230Z" fill="#E7E4ED"/>
<path opacity="0.2" d="M154.233 113.538L54.4333 125.206L34.964 26.1054L134.764 14.4062L154.233 113.538Z" fill="#4603A6"/>
<path opacity="0.7" d="M148.426 109.275L58.3148 119.823L40.7706 30.3681L130.851 19.7891L148.426 109.275Z" fill="#4603A6"/>
<path opacity="0.8" d="M82.5377 58.5809C86.5723 53.2573 85.193 45.403 79.4567 41.0379C73.7205 36.6729 65.7996 37.45 61.765 42.7736C57.7303 48.0973 59.1097 55.9515 64.8459 60.3166C70.5822 64.6817 78.503 63.9046 82.5377 58.5809Z" fill="white"/>
<path opacity="0.2" d="M148.426 109.275L107.407 79.1871L94.2724 97.2958L81.4481 87.9303L58.3148 119.823L79.8024 117.24L79.6161 117.52L148.426 109.275Z" fill="black"/>
<path d="M91.3619 142.094L90.7427 142.143L91.415 150.766L92.0342 150.718L91.3619 142.094Z" fill="#27005E"/>
<path d="M92.2636 153.912L91.6445 153.961L91.9419 157.776L92.5611 157.728L92.2636 153.912Z" fill="#27005E"/>
<path d="M107.966 219.888H178.857C183.794 219.888 187.551 215.843 187.147 210.864L173.888 40.7914C173.516 35.8442 169.138 31.7681 164.169 31.7681H93.2788C88.3416 31.7681 84.5843 35.813 84.988 40.7914L98.247 210.896C98.6507 215.843 102.998 219.888 107.966 219.888Z" fill="#27005E"/>
<path d="M89.0247 86.3434H90.391C91.2604 86.3434 91.9435 85.6278 91.8814 84.7255L90.3599 65.0921C90.2978 64.2209 89.5215 63.4741 88.621 63.4741H87.2548C86.3853 63.4741 85.7022 64.1898 85.7643 65.0921L87.2858 84.7255C87.3479 85.6278 88.1242 86.3434 89.0247 86.3434Z" fill="#27005E"/>
<path d="M90.1425 105.852H92.3162C92.9682 105.852 93.4961 105.292 93.434 104.639L92.6267 94.1532C92.5646 93.4998 91.9746 92.9398 91.3225 92.9398H89.1489C88.4968 92.9398 87.9689 93.4998 88.0311 94.1532L88.8384 104.639C88.9005 105.292 89.4905 105.852 90.1425 105.852Z" fill="#27005E"/>
<path d="M111.04 219.888H181.931C186.868 219.888 190.625 215.843 190.222 210.865L176.963 40.7604C176.59 35.8131 172.212 31.7371 167.243 31.7371H96.3839C91.4467 31.7371 87.6895 35.782 88.0932 40.7604L101.352 210.865C101.725 215.843 106.072 219.888 111.04 219.888Z" fill="#4603A6"/>
<path opacity="0.2" d="M141.812 211.269C141.999 213.478 143.924 215.283 146.128 215.283C148.333 215.283 150.01 213.478 149.824 211.269C149.637 209.06 147.712 207.255 145.507 207.255C143.303 207.255 141.626 209.06 141.812 211.269Z" fill="black"/>
<path opacity="0.8" d="M100.793 203.802H189.694L177.087 42.1295H88.1863L100.793 203.802Z" fill="white"/>
<path opacity="0.2" d="M142.402 36.5288C142.34 35.7509 141.657 35.0975 140.881 35.0975C140.104 35.0975 139.514 35.7198 139.577 36.5288C139.639 37.3067 140.322 37.9601 141.098 37.9601C141.874 37.9601 142.464 37.3378 142.402 36.5288Z" fill="black"/>
<path opacity="0.2" d="M135.975 35.1286H124.206C123.43 35.1286 122.84 35.782 122.902 36.5599C122.964 37.3377 123.647 37.9912 124.423 37.9912H136.192C136.968 37.9912 137.558 37.3377 137.496 36.5599C137.434 35.7509 136.751 35.1286 135.975 35.1286Z" fill="black"/>
<path d="M143.734 151.438C143.734 150.647 144.383 150 145.175 150C145.968 150 146.617 150.647 146.617 151.438V152.947C153.903 153.666 159.586 159.793 159.586 167.25V169.864C159.586 173.791 161.154 177.555 163.937 180.34L164.189 180.592C164.937 181.337 165.36 182.353 165.36 183.404C165.36 185.605 163.577 187.384 161.37 187.384H128.99C126.783 187.375 125 185.596 125 183.395C125 182.344 125.423 181.329 126.171 180.583L126.423 180.331C129.197 177.555 130.764 173.791 130.764 169.864V167.25C130.764 159.793 136.448 153.666 143.734 152.947V151.438ZM145.175 155.75C138.808 155.75 133.647 160.898 133.647 167.25V169.864C133.647 174.554 131.782 179.055 128.45 182.371L128.206 182.613C127.999 182.82 127.882 183.098 127.882 183.395C127.882 184.006 128.378 184.5 128.99 184.5H161.361C161.973 184.5 162.469 184.006 162.469 183.395C162.469 183.098 162.352 182.82 162.144 182.613L161.892 182.362C158.569 179.046 156.695 174.545 156.695 169.855V167.25C156.695 160.898 151.534 155.75 145.166 155.75H145.175ZM142.455 191.211C142.852 192.325 143.923 193.125 145.175 193.125C146.427 193.125 147.499 192.325 147.896 191.211C148.157 190.466 148.985 190.07 149.733 190.331C150.481 190.591 150.877 191.418 150.616 192.164C149.823 194.401 147.688 196 145.175 196C142.663 196 140.528 194.401 139.735 192.164C139.474 191.418 139.861 190.591 140.618 190.331C141.375 190.07 142.194 190.457 142.455 191.211Z" fill="white"/>
<path opacity="0.1" d="M185.067 144.652H101.632L94.8003 56.8156H178.205L185.067 144.652Z" fill="black"/>
<path d="M194.134 139.425H106.476L99.6133 51.5572H187.303L194.134 139.425Z" fill="white"/>
<path d="M189.538 135.131H110.419L104.209 55.8199H183.359L189.538 135.131Z" fill="#4603A6"/>
<path opacity="0.8" d="M137.577 84.559C141.607 80.36 141.197 73.4121 136.66 69.0403C132.124 64.6686 125.179 64.5286 121.149 68.7275C117.119 72.9265 117.53 79.8744 122.066 84.2462C126.603 88.6179 133.547 88.7579 137.577 84.559Z" fill="white"/>
<path opacity="0.2" d="M189.538 135.131L157.028 104.919L143.831 119.263L133.677 109.835L110.419 135.131L129.267 135.1L129.081 135.287L189.538 135.131Z" fill="black"/>
<path d="M233.166 75.5156C233.445 76.1379 233.632 76.6668 233.849 77.258C234.066 77.8181 234.253 78.3781 234.439 78.9382C234.812 80.0583 235.153 81.1784 235.433 82.2986C236.054 84.5699 236.519 86.8413 236.954 89.1438L237.109 90.015L237.14 90.2328L237.171 90.5129C237.203 90.7618 237.234 91.0107 237.234 91.2285C237.265 92.1619 237.047 93.002 236.799 93.7177C236.271 95.149 235.495 96.238 234.687 97.2336C233.042 99.1939 231.241 100.687 229.191 101.994L227.546 99.9717C228.974 98.3538 230.371 96.6113 231.396 94.8689C231.893 93.9977 232.327 93.1265 232.483 92.3797C232.576 92.0064 232.576 91.6952 232.514 91.5085L232.172 90.2017C231.613 88.0548 231.023 85.9079 230.371 83.7921C230.061 82.7342 229.719 81.6763 229.378 80.6495C229.222 80.1205 229.036 79.6227 228.85 79.0938L228.322 77.6314L233.166 75.5156Z" fill="#FFB97C"/>
<path d="M229.75 101.154L231.334 104.577L229.16 105.852C229.16 105.852 224.875 99.5984 228.104 99.3806L229.75 101.154Z" fill="#FFB97C"/>
<path d="M220.963 218.021C221.428 218.021 221.956 217.928 222.329 217.834C222.391 217.834 222.422 217.772 222.422 217.741C222.422 217.679 222.422 217.648 222.36 217.616C222.174 217.492 220.621 216.496 220.031 216.745C219.938 216.776 219.814 216.87 219.783 217.087C219.752 217.368 219.814 217.585 220 217.741C220.186 217.959 220.559 218.021 220.963 218.021ZM221.987 217.679C221.087 217.865 220.404 217.834 220.155 217.585C220.031 217.492 220 217.336 220.031 217.15C220.031 217.056 220.093 217.025 220.124 216.994C220.435 216.839 221.335 217.274 221.987 217.679Z" fill="#4603A6"/>
<path d="M222.298 217.834C222.329 217.834 222.329 217.834 222.36 217.803C222.391 217.772 222.422 217.741 222.422 217.71C222.422 217.648 222.422 216.154 221.863 215.656C221.708 215.532 221.553 215.47 221.335 215.501C221.025 215.532 220.932 215.718 220.932 215.843C220.807 216.434 221.739 217.554 222.236 217.834C222.267 217.834 222.267 217.834 222.298 217.834ZM221.428 215.75C221.522 215.75 221.615 215.781 221.708 215.843C222.049 216.154 222.143 216.963 222.174 217.461C221.677 217.056 221.087 216.216 221.18 215.874C221.18 215.812 221.211 215.75 221.366 215.718C221.366 215.75 221.397 215.75 221.428 215.75Z" fill="#4603A6"/>
<path d="M221.832 57.469C221.242 60.5494 219.969 66.7412 222.112 68.7948C222.112 68.7948 221.273 71.9062 215.591 71.9062C209.349 71.9062 212.61 68.7948 212.61 68.7948C216.025 67.9858 215.932 65.4344 215.342 63.0696L221.832 57.469Z" fill="#FFB97C"/>
<path d="M212.237 69.8215C211.399 69.946 212.175 68.0169 212.517 67.7991C213.324 67.3324 223.602 66.3678 223.478 67.4257C223.416 67.8924 223.136 68.8259 222.67 69.137C222.236 69.4793 219.658 68.6081 212.237 69.8215Z" fill="#4603A6"/>
<path d="M209.411 50.9038C209.349 50.9038 209.256 50.8727 209.225 50.8104C208.573 49.9392 207.673 49.9704 207.673 49.9704C207.548 49.9704 207.424 49.877 207.424 49.7525C207.424 49.6281 207.517 49.5036 207.641 49.5036C207.704 49.5036 208.821 49.4725 209.598 50.5615C209.691 50.686 209.66 50.8104 209.536 50.9038C209.505 50.8727 209.474 50.9038 209.411 50.9038Z" fill="#27005E"/>
<path d="M208.045 53.8286C208.045 53.8286 207.424 55.6644 206.679 56.5356C207.238 57.0334 208.169 56.7534 208.169 56.7534L208.045 53.8286Z" fill="#FF665B"/>
<path d="M208.387 53.113C208.418 53.5175 208.2 53.8908 207.921 53.8908C207.641 53.8908 207.424 53.5797 207.393 53.1441C207.362 52.7396 207.579 52.3662 207.859 52.3662C208.138 52.3662 208.387 52.7085 208.387 53.113Z" fill="#27005E"/>
<path d="M207.983 52.3973L206.958 52.1484C206.989 52.1484 207.517 52.8951 207.983 52.3973Z" fill="#27005E"/>
<path d="M228.291 217.71H223.136L223.54 205.762H228.694L228.291 217.71Z" fill="#FFB97C"/>
<path opacity="0.2" d="M228.694 205.762H223.54L223.323 211.922H228.508L228.694 205.762Z" fill="black"/>
<path d="M222.733 217.119H228.539C228.757 217.119 228.912 217.274 228.943 217.461L229.595 222.066C229.657 222.533 229.253 222.999 228.757 222.999C226.738 222.968 225.776 222.844 223.198 222.844C221.615 222.844 219.348 222.999 217.174 222.999C215.063 222.999 214.908 220.852 215.808 220.666C219.845 219.794 220.497 218.581 221.863 217.461C222.112 217.243 222.422 217.119 222.733 217.119Z" fill="#27005E"/>
<path d="M205.934 77.1646C204.909 79.7472 203.822 82.2052 202.58 84.6633C201.369 87.1213 200.034 89.5172 198.45 91.8819C198.047 92.4731 197.643 93.0643 197.177 93.6243C196.929 93.9355 196.742 94.1844 196.463 94.4955C196.121 94.8689 195.78 95.1801 195.376 95.4912C194.6 96.0824 193.699 96.4869 192.83 96.7047C191.96 96.9536 191.122 97.0469 190.315 97.0469C188.7 97.0469 187.21 96.7358 185.812 96.2691C185.129 96.0513 184.446 95.7712 183.794 95.4912C183.142 95.1801 182.521 94.9 181.869 94.4955L182.956 92.1308C185.315 92.7531 187.955 93.1887 190.035 92.8776C191.091 92.722 191.929 92.3797 192.426 91.8508C192.55 91.7263 192.675 91.6019 192.768 91.4463L193.265 90.7307C193.606 90.2328 193.948 89.7039 194.258 89.1749C194.91 88.117 195.531 86.9658 196.121 85.8456C196.711 84.6944 197.301 83.5432 197.86 82.3608C198.947 79.9961 200.034 77.5691 201.059 75.2044L205.934 77.1646Z" fill="#FFB97C"/>
<path d="M203.884 70.1327C201.307 70.755 198.171 77.818 198.171 77.818L204.288 85.6589C204.288 85.6589 210.591 76.729 209.753 73.9909C208.853 71.1284 206.989 69.3548 203.884 70.1327Z" fill="#27005E"/>
<path d="M184.104 92.5042L180.254 91.2907L179.416 95.3045C179.416 95.3045 183.173 96.0513 184.663 94.4022L184.104 92.5042Z" fill="#FFB97C"/>
<path d="M176.714 91.7574V94.62L179.416 95.3045L180.254 91.2907L176.714 91.7574Z" fill="#FFB97C"/>
<path d="M222.329 51.1216C222.205 56.2556 222.267 58.4336 219.814 61.1406C216.088 65.2477 209.815 63.972 208.418 58.9314C207.145 54.3887 207.548 46.7656 212.454 44.5253C217.267 42.3473 222.422 45.9877 222.329 51.1216Z" fill="#FFB97C"/>
<path d="M229.346 62.6341C227.763 60.5494 228.042 58.2469 228.353 55.8199C228.694 53.0818 229.098 50.0015 226.738 46.7967C226.707 46.7656 226.707 46.7344 226.676 46.7033C220.807 38.3957 209.598 42.3473 208.759 46.7033C208.138 49.8459 208.946 48.8502 210.436 52.0862C211.958 55.3221 210.405 62.2918 209.815 64.7499C212.33 66.4612 226.179 66.7412 228.353 63.3497C227.049 61.2961 227.297 59.2426 227.732 57.0645C227.514 59.1181 227.577 61.0472 228.974 62.9141C229.005 62.9763 229.098 63.0074 229.16 63.0074C229.222 63.0074 229.253 62.9763 229.284 62.9452C229.409 62.883 229.44 62.7585 229.346 62.6341Z" fill="#27005E"/>
<path d="M212.486 53.5174C212.423 54.5131 211.927 55.4777 211.306 56.1C210.405 57.0334 209.442 56.5044 209.287 55.3843C209.132 54.3886 209.442 52.6773 210.56 52.1484C211.678 51.5883 212.579 52.3662 212.486 53.5174Z" fill="#FFB97C"/>
<path d="M211.896 101.341C211.896 101.341 214.876 136.812 217.982 156.818C220.497 172.967 222.484 210.74 222.484 210.74H229.533C229.533 210.74 232.886 174.274 231.613 158.312C228.384 117.894 234.035 110.737 227.328 101.372H211.896V101.341Z" fill="#4603A6"/>
<path opacity="0.2" d="M219.752 120.476C219.441 131.086 217.454 137.683 215.87 141.199C215.032 134.26 214.287 127.042 213.665 120.663C215.839 113.476 220 112.48 219.752 120.476Z" fill="black"/>
<path d="M232.607 197.112C232.607 197.081 232.576 197.019 232.545 197.019C232.514 196.987 232.452 196.987 232.39 197.019C232.172 197.174 230.34 198.574 230.371 199.29C230.371 199.414 230.433 199.539 230.558 199.632C230.775 199.757 230.992 199.788 231.179 199.694C231.924 199.383 232.39 197.952 232.607 197.112ZM230.62 199.228C230.651 198.823 231.52 197.983 232.265 197.423C231.924 198.543 231.52 199.29 231.116 199.445C230.992 199.508 230.837 199.477 230.713 199.414C230.651 199.352 230.62 199.321 230.62 199.228Z" fill="#4603A6"/>
<path d="M232.607 197.112C232.607 197.081 232.607 197.081 232.607 197.112C232.607 197.05 232.576 197.019 232.545 196.987C232.483 196.956 231.179 196.458 230.433 196.801C230.185 196.894 230.03 197.081 229.936 197.33C229.812 197.641 229.936 197.827 230.061 197.89C230.558 198.232 232.079 197.61 232.607 197.205C232.576 197.174 232.607 197.143 232.607 197.112ZM230.092 197.547C230.092 197.516 230.092 197.454 230.123 197.392C230.185 197.205 230.309 197.081 230.464 197.019C230.961 196.801 231.8 196.987 232.172 197.112C231.551 197.516 230.402 197.859 230.123 197.672C230.154 197.672 230.092 197.641 230.092 197.547Z" fill="#4603A6"/>
<path d="M235.96 192.507L233.042 196.738L228.943 194.125L223.602 190.64L222.981 190.235L225.931 185.973L226.614 186.439L231.8 189.8L235.96 192.507Z" fill="#FFB97C"/>
<path opacity="0.2" d="M231.8 189.8L228.943 194.125L223.602 190.64L226.614 186.44L231.8 189.8Z" fill="black"/>
<path d="M206.337 101.341C206.337 101.341 198.605 136.625 198.605 154.765C198.605 171.162 226.335 193.751 226.335 193.751L230.247 187.84C230.247 187.84 211.275 161.859 212.392 156.6C215.591 141.354 220.932 108.466 220.869 101.341H206.337Z" fill="#4603A6"/>
<path d="M232.079 196.521L234.625 191.293C234.718 191.107 234.936 191.013 235.122 191.076L239.531 192.476C239.997 192.631 240.215 193.191 239.997 193.627C239.097 195.432 238.538 196.272 237.451 198.543C236.768 199.943 235.495 202.961 234.563 204.891C233.632 206.789 231.644 206.011 231.862 205.108C232.855 201.095 232.452 199.134 232.017 197.392C231.924 197.143 231.955 196.801 232.079 196.521Z" fill="#27005E"/>
<path d="M226.676 195.121L231.862 187.809L229.315 185.444L223.726 193.254L226.676 195.121Z" fill="#27005E"/>
<path d="M221.522 210.865H230.464L230.93 207.722L221.459 207.411L221.522 210.865Z" fill="#27005E"/>
<path d="M235.464 78.1914L230.278 82.3297L227.173 84.8189C227.173 84.8189 226.831 83.9477 226.459 82.7031C225.713 80.3072 224.72 76.4801 225.403 74.7377C226.459 71.9685 228.508 69.4482 231.023 70.0083C233.166 70.4439 235.464 78.1914 235.464 78.1914Z" fill="#27005E"/>
<path opacity="0.2" d="M230.278 82.2986L227.173 84.7877C227.173 84.7877 226.831 83.9165 226.459 82.6719L228.322 73.4931L230.278 82.2986Z" fill="black"/>
<path d="M203.884 70.1327C203.884 70.1327 201.431 71.0039 206.337 101.341C214.659 101.341 223.26 101.341 227.297 101.341C226.956 92.7842 226.924 87.5259 231.023 69.9772C231.023 69.9772 226.645 69.0126 222.111 68.7948C218.572 68.6392 215.684 68.5148 212.61 68.7948C208.511 69.1682 203.884 70.1327 203.884 70.1327Z" fill="#27005E"/>
<path d="M227.608 100.096L228.539 101.963C228.601 102.119 228.446 102.243 228.198 102.243H206.213C206.027 102.243 205.872 102.15 205.841 102.025L205.654 100.158C205.654 100.034 205.809 99.9095 206.027 99.9095H227.235C227.421 99.9406 227.577 100.003 227.608 100.096Z" fill="#4603A6"/>
<path opacity="0.2" d="M227.608 100.096L228.539 101.963C228.601 102.119 228.446 102.243 228.198 102.243H206.213C206.027 102.243 205.872 102.15 205.841 102.025L205.654 100.158C205.654 100.034 205.809 99.9095 206.027 99.9095H227.235C227.421 99.9406 227.577 100.003 227.608 100.096Z" fill="black"/>
<path d="M224.751 102.492H225.31C225.434 102.492 225.496 102.43 225.496 102.368L225.217 99.9406C225.217 99.8784 225.123 99.8162 224.999 99.8162H224.44C224.316 99.8162 224.254 99.8784 224.254 99.9406L224.534 102.368C224.565 102.43 224.658 102.492 224.751 102.492Z" fill="#4603A6"/>
<path d="M210.995 102.492H211.554C211.678 102.492 211.74 102.43 211.74 102.368L211.461 99.9406C211.461 99.8784 211.368 99.8162 211.243 99.8162H210.685C210.56 99.8162 210.498 99.8784 210.498 99.9406L210.778 102.368C210.778 102.43 210.871 102.492 210.995 102.492Z" fill="#4603A6"/>
</svg>
