<svg width="416" height="294" viewBox="0 0 416 294" fill="none" xmlns="http://www.w3.org/2000/svg">
<path d="M362 234.121H54V234.276H362V234.121Z" fill="#E1CFFA"/>
<path d="M331.135 241.371H310.734V241.526H331.135V241.371Z" fill="#E1CFFA"/>
<path d="M276.422 243.051H271.081V243.206H276.422V243.051Z" fill="#E1CFFA"/>
<path d="M291.016 236.766H200.75V236.921H291.016V236.766Z" fill="#E1CFFA"/>
<path d="M95.7021 236.704H86.3246V236.859H95.7021V236.704Z" fill="#E1CFFA"/>
<path d="M122.313 236.704H101.167V236.859H122.313V236.704Z" fill="#E1CFFA"/>
<path d="M162.214 239.286H134.982V239.441H162.214V239.286Z" fill="#E1CFFA"/>
<path d="M200.874 206.585H81.9464C80.0212 206.585 78.4376 204.998 78.4376 203.069V35.5161C78.4065 33.587 79.9902 32.0001 81.9464 32.0001H200.874C202.799 32.0001 204.383 33.587 204.383 35.5161V203.069C204.383 204.998 202.83 206.585 200.874 206.585ZM81.9464 32.1557C80.0833 32.1557 78.5928 33.6803 78.5928 35.5161V203.069C78.5928 204.936 80.1144 206.429 81.9464 206.429H200.874C202.737 206.429 204.227 204.905 204.227 203.069V35.5161C204.227 33.6492 202.706 32.1557 200.874 32.1557H81.9464Z" fill="#E1CFFA"/>
<path d="M333.246 206.585H214.288C212.363 206.585 210.779 204.998 210.779 203.069V35.5161C210.779 33.587 212.363 32.0001 214.288 32.0001H333.246C335.171 32.0001 336.755 33.587 336.755 35.5161V203.069C336.755 204.998 335.171 206.585 333.246 206.585ZM214.288 32.1557C212.425 32.1557 210.934 33.6803 210.934 35.5161V203.069C210.934 204.936 212.456 206.429 214.288 206.429H333.246C335.109 206.429 336.6 204.905 336.6 203.069V35.5161C336.6 33.6492 335.078 32.1557 333.246 32.1557H214.288Z" fill="#E1CFFA"/>
<path d="M317.41 49.5177H158.985V159.259H317.41V49.5177Z" fill="#E7E4ED"/>
<path d="M320.577 49.5177H160.476V159.259H320.577V49.5177Z" fill="#F5F5F5"/>
<path d="M308.001 159.259H158.985V165.202H308.001V159.259Z" fill="#E7E4ED"/>
<path d="M325.297 159.259H174.666V165.202H325.297V159.259Z" fill="#F0F0F0"/>
<path d="M316.132 154.791V54.0103L164.942 54.0103L164.942 154.791L316.132 154.791Z" fill="#FAFAFA"/>
<path d="M192.676 154.779L230.838 53.9982H248.879L210.717 154.779H192.676Z" fill="white"/>
<path d="M167.027 129.825C166.841 129.825 166.717 129.669 166.717 129.514V56.923C166.717 56.7363 166.872 56.6119 167.027 56.6119C167.214 56.6119 167.338 56.7675 167.338 56.923V129.514C167.338 129.669 167.183 129.825 167.027 129.825Z" fill="#F0F0F0"/>
<path d="M214.567 154.779L252.73 53.9982H259.778L221.585 154.779H214.567Z" fill="white"/>
<path d="M258.226 154.779L296.388 53.9982H303.406L265.243 154.779H258.226Z" fill="white"/>
<path d="M316.136 154.787V54.0062H315.577V154.787H316.136Z" fill="#E7E4ED"/>
<g opacity="0.7">
<path d="M321.664 58.0743H163.239L162.835 55.7407H321.229L321.664 58.0743Z" fill="#E7E4ED"/>
<path d="M321.664 60.5635H163.239L162.835 58.2299H321.229L321.664 60.5635Z" fill="#E7E4ED"/>
<path d="M321.664 63.0526H163.239L162.835 60.7501H321.229L321.664 63.0526Z" fill="#E7E4ED"/>
<path d="M321.664 65.5418H163.239L162.835 63.2393H321.229L321.664 65.5418Z" fill="#E7E4ED"/>
<path d="M321.664 68.0621H163.239L162.835 65.7285H321.229L321.664 68.0621Z" fill="#E7E4ED"/>
<path d="M321.664 70.5513H163.239L162.835 68.2177H321.229L321.664 70.5513Z" fill="#E7E4ED"/>
<path d="M321.664 73.0404H163.239L162.835 70.7068H321.229L321.664 73.0404Z" fill="#E7E4ED"/>
<path d="M321.664 75.5296H163.239L162.835 73.196H321.229L321.664 75.5296Z" fill="#E7E4ED"/>
<path d="M321.664 78.0188H163.239L162.835 75.7163H321.229L321.664 78.0188Z" fill="#E7E4ED"/>
<path d="M321.664 80.508H163.239L162.835 78.2055H321.229L321.664 80.508Z" fill="#E7E4ED"/>
<path d="M321.664 83.0282H163.239L162.835 80.6946H321.229L321.664 83.0282Z" fill="#E7E4ED"/>
<path d="M321.664 85.5174H163.239L162.835 83.1838H321.229L321.664 85.5174Z" fill="#E7E4ED"/>
<path d="M321.664 88.0066H163.239L162.835 85.673H321.229L321.664 88.0066Z" fill="#E7E4ED"/>
<path d="M321.664 90.4958H163.239L162.835 88.1933H321.229L321.664 90.4958Z" fill="#E7E4ED"/>
<path d="M321.664 92.985H163.239L162.835 90.6825H321.229L321.664 92.985Z" fill="#E7E4ED"/>
<path d="M321.664 95.5053H163.239L162.835 93.1717H321.229L321.664 95.5053Z" fill="#E7E4ED"/>
<path d="M321.664 97.9944H163.239L162.835 95.6608H321.229L321.664 97.9944Z" fill="#E7E4ED"/>
<path d="M321.664 100.484H163.239L162.835 98.15H321.229L321.664 100.484Z" fill="#E7E4ED"/>
<path d="M321.664 102.973H163.239L162.835 100.639H321.229L321.664 102.973Z" fill="#E7E4ED"/>
<path d="M321.664 105.462H163.239L162.835 103.159H321.229L321.664 105.462Z" fill="#E7E4ED"/>
<path d="M321.664 107.951H163.239L162.835 105.649H321.229L321.664 107.951Z" fill="#E7E4ED"/>
<path d="M321.664 110.471H163.239L162.835 108.138H321.229L321.664 110.471Z" fill="#E7E4ED"/>
<path d="M321.664 112.961H163.239L162.835 110.627H321.229L321.664 112.961Z" fill="#E7E4ED"/>
<path d="M321.664 115.45H163.239L162.835 113.116H321.229L321.664 115.45Z" fill="#E7E4ED"/>
</g>
<path d="M95.6711 161.157C95.6711 168.034 102.658 173.603 111.259 173.603C119.86 173.603 126.847 168.034 126.847 161.157H95.6711Z" fill="#E7E4ED"/>
<path d="M97.4721 173.603H86.3246V230.512H97.4721V173.603Z" fill="#E7E4ED"/>
<path d="M143.459 230.512H88.4672V234.121H143.459V230.512Z" fill="#F0F0F0"/>
<path d="M97.4569 230.512H145.587V173.603H97.4569V230.512Z" fill="#F5F5F5"/>
<path d="M101.835 199.278H141.208V180.609H101.835V199.278Z" fill="#E7E4ED"/>
<path d="M101.835 223.505H141.208V204.836H101.835V223.505Z" fill="#E7E4ED"/>
<path d="M126.008 191.214H117.035C116.476 191.214 116.01 190.747 116.01 190.187V189.658C116.01 189.098 116.476 188.632 117.035 188.632H126.008C126.567 188.632 127.033 189.098 127.033 189.658V190.187C127.033 190.747 126.567 191.214 126.008 191.214Z" fill="#F5F5F5"/>
<path d="M126.008 215.452H117.035C116.476 215.452 116.01 214.986 116.01 214.426V213.897C116.01 213.337 116.476 212.87 117.035 212.87H126.008C126.567 212.87 127.033 213.337 127.033 213.897V214.426C127.033 214.986 126.567 215.452 126.008 215.452Z" fill="#F5F5F5"/>
<path d="M210.22 187.356H201.06V231.321H210.22V187.356Z" fill="#E7E4ED"/>
<path d="M303.778 231.321H202.799V234.121H303.778V231.321Z" fill="#F0F0F0"/>
<path d="M210.203 231.343H305.531V187.378H210.203V231.343Z" fill="#F5F5F5"/>
<path d="M213.805 207.208H301.929V192.802H213.805V207.208Z" fill="#E7E4ED"/>
<path d="M213.805 225.918H301.929V211.512H213.805V225.918Z" fill="#E7E4ED"/>
<path d="M289.464 200.984H226.274C225.839 200.984 225.466 200.611 225.466 200.175V199.833C225.466 199.397 225.839 199.024 226.274 199.024H289.464C289.898 199.024 290.271 199.397 290.271 199.833V200.175C290.302 200.611 289.929 200.984 289.464 200.984Z" fill="#F5F5F5"/>
<path d="M289.464 219.684H226.274C225.839 219.684 225.466 219.311 225.466 218.875V218.533C225.466 218.097 225.839 217.724 226.274 217.724H289.464C289.898 217.724 290.271 218.097 290.271 218.533V218.875C290.302 219.342 289.929 219.684 289.464 219.684Z" fill="#F5F5F5"/>
<path d="M135.821 56.4563H92.7833V144.231H135.821V56.4563Z" fill="#E7E4ED"/>
<path d="M139.267 56.4563H93.7148V144.231H139.267V56.4563Z" fill="#F5F5F5"/>
<path d="M132.645 137.569V63.0802L100.351 63.0802L100.351 137.569H132.645Z" fill="white"/>
<path d="M187.987 234.121C198.585 234.121 207.177 225.512 207.177 214.892C207.177 204.273 198.585 195.664 187.987 195.664C177.389 195.664 168.797 204.273 168.797 214.892C168.797 225.512 177.389 234.121 187.987 234.121Z" fill="#F5F5F5"/>
<path d="M207.984 262C273.941 262 327.409 258.866 327.409 254.999C327.409 251.133 273.941 247.999 207.984 247.999C142.028 247.999 88.5603 251.133 88.5603 254.999C88.5603 258.866 142.028 262 207.984 262Z" fill="#E7E4ED"/>
<path opacity="0.2" d="M208.233 145.538L108.433 157.206L88.964 58.1054L188.764 46.4062L208.233 145.538Z" fill="#4603A6"/>
<path opacity="0.7" d="M202.426 141.275L112.315 151.823L94.7706 62.3681L184.851 51.7891L202.426 141.275Z" fill="#4603A6"/>
<path opacity="0.8" d="M136.538 90.5809C140.572 85.2573 139.193 77.403 133.457 73.0379C127.721 68.6729 119.8 69.45 115.765 74.7736C111.73 80.0973 113.11 87.9515 118.846 92.3166C124.582 96.6817 132.503 95.9046 136.538 90.5809Z" fill="white"/>
<path opacity="0.2" d="M202.426 141.275L161.407 111.187L148.272 129.296L135.448 119.93L112.315 151.823L133.802 149.24L133.616 149.52L202.426 141.275Z" fill="black"/>
<path d="M145.362 174.094L144.743 174.143L145.415 182.766L146.034 182.718L145.362 174.094Z" fill="#27005E"/>
<path d="M146.264 185.912L145.644 185.961L145.942 189.776L146.561 189.728L146.264 185.912Z" fill="#27005E"/>
<path d="M161.966 251.888H232.857C237.794 251.888 241.551 247.843 241.147 242.864L227.888 72.7914C227.516 67.8442 223.138 63.7681 218.169 63.7681H147.279C142.342 63.7681 138.584 67.813 138.988 72.7914L152.247 242.896C152.651 247.843 156.998 251.888 161.966 251.888Z" fill="#27005E"/>
<path d="M143.025 118.343H144.391C145.26 118.343 145.944 117.628 145.881 116.725L144.36 97.0921C144.298 96.2209 143.522 95.4741 142.621 95.4741H141.255C140.385 95.4741 139.702 96.1898 139.764 97.0921L141.286 116.725C141.348 117.628 142.124 118.343 143.025 118.343Z" fill="#27005E"/>
<path d="M144.142 137.852H146.316C146.968 137.852 147.496 137.292 147.434 136.639L146.627 126.153C146.564 125.5 145.975 124.94 145.322 124.94H143.149C142.497 124.94 141.969 125.5 142.031 126.153L142.838 136.639C142.9 137.292 143.49 137.852 144.142 137.852Z" fill="#27005E"/>
<path d="M165.04 251.888H235.931C240.868 251.888 244.625 247.843 244.221 242.865L230.963 72.7604C230.59 67.8131 226.212 63.7371 221.243 63.7371H150.384C145.447 63.7371 141.689 67.782 142.093 72.7604L155.352 242.865C155.725 247.843 160.072 251.888 165.04 251.888Z" fill="#4603A6"/>
<path opacity="0.2" d="M195.812 243.269C195.999 245.478 197.924 247.283 200.128 247.283C202.333 247.283 204.01 245.478 203.824 243.269C203.637 241.06 201.712 239.255 199.507 239.255C197.303 239.255 195.626 241.06 195.812 243.269Z" fill="black"/>
<path opacity="0.8" d="M154.793 235.802H243.694L231.087 74.1295H142.186L154.793 235.802Z" fill="white"/>
<path opacity="0.2" d="M196.402 68.5288C196.34 67.7509 195.657 67.0975 194.881 67.0975C194.104 67.0975 193.514 67.7198 193.577 68.5288C193.639 69.3067 194.322 69.9601 195.098 69.9601C195.874 69.9601 196.464 69.3378 196.402 68.5288Z" fill="black"/>
<path opacity="0.2" d="M189.975 67.1286H178.206C177.43 67.1286 176.84 67.782 176.902 68.5599C176.964 69.3377 177.647 69.9912 178.423 69.9912H190.192C190.968 69.9912 191.558 69.3377 191.496 68.5599C191.434 67.7509 190.751 67.1286 189.975 67.1286Z" fill="black"/>
<path d="M197.734 183.438C197.734 182.647 198.383 182 199.175 182C199.968 182 200.617 182.647 200.617 183.438V184.947C207.903 185.666 213.586 191.793 213.586 199.25V201.864C213.586 205.791 215.154 209.555 217.937 212.34L218.189 212.592C218.937 213.338 219.36 214.353 219.36 215.404C219.36 217.605 217.577 219.384 215.37 219.384H182.99C180.783 219.375 179 217.596 179 215.395C179 214.344 179.423 213.329 180.171 212.583L180.423 212.331C183.197 209.555 184.764 205.791 184.764 201.864V199.25C184.764 191.793 190.448 185.666 197.734 184.947V183.438ZM199.175 187.75C192.808 187.75 187.647 192.898 187.647 199.25V201.864C187.647 206.554 185.782 211.055 182.45 214.371L182.206 214.613C181.999 214.82 181.882 215.098 181.882 215.395C181.882 216.006 182.378 216.5 182.99 216.5H215.361C215.973 216.5 216.469 216.006 216.469 215.395C216.469 215.098 216.352 214.82 216.144 214.613L215.892 214.362C212.569 211.046 210.695 206.545 210.695 201.855V199.25C210.695 192.898 205.534 187.75 199.166 187.75H199.175ZM196.455 223.211C196.852 224.325 197.923 225.125 199.175 225.125C200.427 225.125 201.499 224.325 201.896 223.211C202.157 222.466 202.985 222.07 203.733 222.331C204.481 222.591 204.877 223.418 204.616 224.164C203.823 226.401 201.688 228 199.175 228C196.663 228 194.528 226.401 193.735 224.164C193.474 223.418 193.861 222.591 194.618 222.331C195.375 222.07 196.194 222.457 196.455 223.211Z" fill="white"/>
<path opacity="0.1" d="M239.067 176.652H155.632L148.8 88.8156H232.205L239.067 176.652Z" fill="black"/>
<path d="M248.134 171.425H160.476L153.613 83.5572H241.303L248.134 171.425Z" fill="white"/>
<path d="M243.538 167.131H164.419L158.209 87.8199H237.359L243.538 167.131Z" fill="#4603A6"/>
<path opacity="0.8" d="M191.577 116.559C195.607 112.36 195.197 105.412 190.66 101.04C186.124 96.6686 179.179 96.5286 175.149 100.728C171.119 104.927 171.53 111.874 176.066 116.246C180.603 120.618 187.547 120.758 191.577 116.559Z" fill="white"/>
<path opacity="0.2" d="M243.538 167.131L211.028 136.919L197.831 151.263L187.677 141.835L164.419 167.131L183.267 167.1L183.081 167.287L243.538 167.131Z" fill="black"/>
<path d="M287.166 107.516C287.445 108.138 287.632 108.667 287.849 109.258C288.066 109.818 288.253 110.378 288.439 110.938C288.811 112.058 289.153 113.178 289.433 114.299C290.054 116.57 290.519 118.841 290.954 121.144L291.109 122.015L291.14 122.233L291.171 122.513C291.202 122.762 291.233 123.011 291.233 123.229C291.265 124.162 291.047 125.002 290.799 125.718C290.271 127.149 289.495 128.238 288.687 129.234C287.042 131.194 285.241 132.687 283.191 133.994L281.545 131.972C282.974 130.354 284.371 128.611 285.396 126.869C285.893 125.998 286.327 125.126 286.483 124.38C286.576 124.006 286.576 123.695 286.514 123.509L286.172 122.202C285.613 120.055 285.023 117.908 284.371 115.792C284.061 114.734 283.719 113.676 283.377 112.649C283.222 112.121 283.036 111.623 282.85 111.094L282.322 109.631L287.166 107.516Z" fill="#FFB97C"/>
<path d="M283.75 133.154L285.334 136.577L283.16 137.852C283.16 137.852 278.875 131.598 282.104 131.381L283.75 133.154Z" fill="#FFB97C"/>
<path d="M274.962 250.021C275.428 250.021 275.956 249.928 276.329 249.834C276.391 249.834 276.422 249.772 276.422 249.741C276.422 249.679 276.422 249.648 276.36 249.616C276.173 249.492 274.621 248.496 274.031 248.745C273.938 248.776 273.814 248.87 273.783 249.087C273.751 249.368 273.814 249.585 274 249.741C274.186 249.959 274.559 250.021 274.962 250.021ZM275.987 249.679C275.087 249.865 274.404 249.834 274.155 249.585C274.031 249.492 274 249.336 274.031 249.15C274.031 249.056 274.093 249.025 274.124 248.994C274.435 248.839 275.335 249.274 275.987 249.679Z" fill="#4603A6"/>
<path d="M276.298 249.834C276.329 249.834 276.329 249.834 276.36 249.803C276.391 249.772 276.422 249.741 276.422 249.71C276.422 249.648 276.422 248.154 275.863 247.656C275.708 247.532 275.552 247.47 275.335 247.501C275.025 247.532 274.931 247.718 274.931 247.843C274.807 248.434 275.739 249.554 276.236 249.834C276.267 249.834 276.267 249.834 276.298 249.834ZM275.428 247.75C275.521 247.75 275.615 247.781 275.708 247.843C276.049 248.154 276.142 248.963 276.174 249.461C275.677 249.056 275.087 248.216 275.18 247.874C275.18 247.812 275.211 247.75 275.366 247.718C275.366 247.75 275.397 247.75 275.428 247.75Z" fill="#4603A6"/>
<path d="M275.832 89.469C275.242 92.5494 273.969 98.7412 276.111 100.795C276.111 100.795 275.273 103.906 269.591 103.906C263.349 103.906 266.61 100.795 266.61 100.795C270.025 99.9858 269.932 97.4344 269.342 95.0696L275.832 89.469Z" fill="#FFB97C"/>
<path d="M266.237 101.822C265.399 101.946 266.175 100.017 266.517 99.7991C267.324 99.3324 277.602 98.3678 277.478 99.4257C277.416 99.8924 277.136 100.826 276.67 101.137C276.236 101.479 273.658 100.608 266.237 101.822Z" fill="#4603A6"/>
<path d="M263.411 82.9038C263.349 82.9038 263.256 82.8727 263.225 82.8104C262.573 81.9392 261.672 81.9704 261.672 81.9704C261.548 81.9704 261.424 81.877 261.424 81.7525C261.424 81.6281 261.517 81.5036 261.641 81.5036C261.704 81.5036 262.821 81.4725 263.598 82.5615C263.691 82.686 263.66 82.8104 263.536 82.9038C263.505 82.8727 263.473 82.9038 263.411 82.9038Z" fill="#27005E"/>
<path d="M262.045 85.8286C262.045 85.8286 261.424 87.6644 260.679 88.5356C261.238 89.0334 262.169 88.7534 262.169 88.7534L262.045 85.8286Z" fill="#FF665B"/>
<path d="M262.387 85.113C262.418 85.5175 262.2 85.8908 261.921 85.8908C261.641 85.8908 261.424 85.5797 261.393 85.1441C261.362 84.7396 261.579 84.3662 261.859 84.3662C262.138 84.3662 262.387 84.7085 262.387 85.113Z" fill="#27005E"/>
<path d="M261.983 84.3973L260.958 84.1484C260.989 84.1484 261.517 84.8951 261.983 84.3973Z" fill="#27005E"/>
<path d="M282.291 249.71H277.136L277.54 237.762H282.694L282.291 249.71Z" fill="#FFB97C"/>
<path opacity="0.2" d="M282.694 237.762H277.54L277.322 243.922H282.508L282.694 237.762Z" fill="black"/>
<path d="M276.732 249.119H282.539C282.756 249.119 282.912 249.274 282.943 249.461L283.595 254.066C283.657 254.533 283.253 254.999 282.756 254.999C280.738 254.968 279.775 254.844 277.198 254.844C275.615 254.844 273.348 254.999 271.174 254.999C269.063 254.999 268.907 252.852 269.808 252.666C273.845 251.794 274.497 250.581 275.863 249.461C276.111 249.243 276.422 249.119 276.732 249.119Z" fill="#27005E"/>
<path d="M259.934 109.165C258.909 111.747 257.822 114.205 256.58 116.663C255.369 119.121 254.034 121.517 252.45 123.882C252.046 124.473 251.643 125.064 251.177 125.624C250.929 125.935 250.742 126.184 250.463 126.496C250.121 126.869 249.78 127.18 249.376 127.491C248.6 128.082 247.699 128.487 246.83 128.705C245.96 128.954 245.122 129.047 244.315 129.047C242.7 129.047 241.21 128.736 239.812 128.269C239.129 128.051 238.446 127.771 237.794 127.491C237.142 127.18 236.521 126.9 235.869 126.496L236.955 124.131C239.315 124.753 241.955 125.189 244.035 124.878C245.091 124.722 245.929 124.38 246.426 123.851C246.55 123.726 246.675 123.602 246.768 123.446L247.265 122.731C247.606 122.233 247.948 121.704 248.258 121.175C248.91 120.117 249.531 118.966 250.121 117.846C250.711 116.694 251.301 115.543 251.86 114.361C252.947 111.996 254.034 109.569 255.058 107.204L259.934 109.165Z" fill="#FFB97C"/>
<path d="M257.884 102.133C255.307 102.755 252.171 109.818 252.171 109.818L258.288 117.659C258.288 117.659 264.591 108.729 263.753 105.991C262.852 103.128 260.989 101.355 257.884 102.133Z" fill="#27005E"/>
<path d="M238.104 124.504L234.254 123.291L233.416 127.305C233.416 127.305 237.173 128.051 238.663 126.402L238.104 124.504Z" fill="#FFB97C"/>
<path d="M230.714 123.757V126.62L233.416 127.305L234.254 123.291L230.714 123.757Z" fill="#FFB97C"/>
<path d="M276.329 83.1216C276.205 88.2556 276.267 90.4336 273.814 93.1406C270.087 97.2477 263.815 95.972 262.418 90.9314C261.145 86.3887 261.548 78.7656 266.454 76.5253C271.267 74.3473 276.422 77.9877 276.329 83.1216Z" fill="#FFB97C"/>
<path d="M283.346 94.6341C281.763 92.5494 282.042 90.2469 282.353 87.8199C282.694 85.0818 283.098 82.0015 280.738 78.7967C280.707 78.7656 280.707 78.7344 280.676 78.7033C274.807 70.3957 263.598 74.3473 262.759 78.7033C262.138 81.8459 262.946 80.8502 264.436 84.0862C265.958 87.3221 264.405 94.2918 263.815 96.7499C266.33 98.4612 280.179 98.7412 282.353 95.3497C281.049 93.2961 281.297 91.2426 281.732 89.0645C281.514 91.1181 281.576 93.0472 282.974 94.9141C283.005 94.9763 283.098 95.0074 283.16 95.0074C283.222 95.0074 283.253 94.9763 283.284 94.9452C283.409 94.883 283.44 94.7585 283.346 94.6341Z" fill="#27005E"/>
<path d="M266.485 85.5174C266.423 86.5131 265.926 87.4777 265.305 88.1C264.405 89.0334 263.442 88.5044 263.287 87.3843C263.132 86.3886 263.442 84.6773 264.56 84.1484C265.678 83.5883 266.579 84.3662 266.485 85.5174Z" fill="#FFB97C"/>
<path d="M265.896 133.341C265.896 133.341 268.876 168.812 271.982 188.818C274.497 204.967 276.484 242.74 276.484 242.74H283.533C283.533 242.74 286.886 206.274 285.613 190.312C282.384 149.894 288.035 142.737 281.328 133.372H265.896V133.341Z" fill="#4603A6"/>
<path opacity="0.2" d="M273.752 152.476C273.441 163.086 271.454 169.683 269.87 173.199C269.032 166.26 268.286 159.042 267.665 152.663C269.839 145.476 274 144.48 273.752 152.476Z" fill="black"/>
<path d="M286.607 229.112C286.607 229.081 286.576 229.019 286.545 229.019C286.514 228.987 286.452 228.987 286.389 229.019C286.172 229.174 284.34 230.574 284.371 231.29C284.371 231.414 284.433 231.539 284.557 231.632C284.775 231.757 284.992 231.788 285.178 231.694C285.924 231.383 286.389 229.952 286.607 229.112ZM284.62 231.228C284.651 230.823 285.52 229.983 286.265 229.423C285.924 230.543 285.52 231.29 285.116 231.445C284.992 231.508 284.837 231.477 284.713 231.414C284.651 231.352 284.62 231.321 284.62 231.228Z" fill="#4603A6"/>
<path d="M286.607 229.112C286.607 229.081 286.607 229.081 286.607 229.112C286.607 229.05 286.576 229.019 286.545 228.987C286.483 228.956 285.179 228.458 284.433 228.801C284.185 228.894 284.03 229.081 283.936 229.33C283.812 229.641 283.936 229.827 284.061 229.89C284.557 230.232 286.079 229.61 286.607 229.205C286.576 229.174 286.607 229.143 286.607 229.112ZM284.092 229.547C284.092 229.516 284.092 229.454 284.123 229.392C284.185 229.205 284.309 229.081 284.464 229.019C284.961 228.801 285.8 228.987 286.172 229.112C285.551 229.516 284.402 229.859 284.123 229.672C284.154 229.672 284.092 229.641 284.092 229.547Z" fill="#4603A6"/>
<path d="M289.96 224.507L287.042 228.738L282.943 226.125L277.602 222.64L276.981 222.235L279.931 217.973L280.614 218.439L285.799 221.8L289.96 224.507Z" fill="#FFB97C"/>
<path opacity="0.2" d="M285.799 221.8L282.943 226.125L277.602 222.64L280.614 218.44L285.799 221.8Z" fill="black"/>
<path d="M260.337 133.341C260.337 133.341 252.605 168.625 252.605 186.765C252.605 203.162 280.334 225.751 280.334 225.751L284.247 219.84C284.247 219.84 265.274 193.859 266.392 188.6C269.591 173.354 274.932 140.466 274.869 133.341H260.337Z" fill="#4603A6"/>
<path d="M286.079 228.521L288.625 223.293C288.718 223.107 288.936 223.013 289.122 223.076L293.531 224.476C293.997 224.631 294.214 225.191 293.997 225.627C293.097 227.432 292.538 228.272 291.451 230.543C290.768 231.943 289.495 234.961 288.563 236.891C287.632 238.789 285.644 238.011 285.862 237.108C286.855 233.095 286.452 231.134 286.017 229.392C285.924 229.143 285.955 228.801 286.079 228.521Z" fill="#27005E"/>
<path d="M280.676 227.121L285.862 219.809L283.315 217.444L277.726 225.254L280.676 227.121Z" fill="#27005E"/>
<path d="M275.521 242.865H284.464L284.93 239.722L275.459 239.411L275.521 242.865Z" fill="#27005E"/>
<path d="M289.464 110.191L284.278 114.33L281.173 116.819C281.173 116.819 280.831 115.948 280.459 114.703C279.713 112.307 278.72 108.48 279.403 106.738C280.459 103.968 282.508 101.448 285.023 102.008C287.166 102.444 289.464 110.191 289.464 110.191Z" fill="#27005E"/>
<path opacity="0.2" d="M284.278 114.299L281.173 116.788C281.173 116.788 280.831 115.917 280.459 114.672L282.322 105.493L284.278 114.299Z" fill="black"/>
<path d="M257.884 102.133C257.884 102.133 255.431 103.004 260.337 133.341C268.659 133.341 277.26 133.341 281.297 133.341C280.955 124.784 280.924 119.526 285.023 101.977C285.023 101.977 280.645 101.013 276.111 100.795C272.572 100.639 269.684 100.515 266.61 100.795C262.511 101.168 257.884 102.133 257.884 102.133Z" fill="#27005E"/>
<path d="M281.608 132.096L282.539 133.963C282.601 134.119 282.446 134.243 282.198 134.243H260.213C260.027 134.243 259.872 134.15 259.84 134.025L259.654 132.158C259.654 132.034 259.809 131.909 260.027 131.909H281.235C281.421 131.941 281.577 132.003 281.608 132.096Z" fill="#4603A6"/>
<path opacity="0.2" d="M281.608 132.096L282.539 133.963C282.601 134.119 282.446 134.243 282.198 134.243H260.213C260.027 134.243 259.872 134.15 259.84 134.025L259.654 132.158C259.654 132.034 259.809 131.909 260.027 131.909H281.235C281.421 131.941 281.577 132.003 281.608 132.096Z" fill="black"/>
<path d="M278.751 134.492H279.31C279.434 134.492 279.496 134.43 279.496 134.368L279.217 131.941C279.217 131.878 279.123 131.816 278.999 131.816H278.44C278.316 131.816 278.254 131.878 278.254 131.941L278.533 134.368C278.565 134.43 278.658 134.492 278.751 134.492Z" fill="#4603A6"/>
<path d="M264.995 134.492H265.554C265.678 134.492 265.74 134.43 265.74 134.368L265.461 131.941C265.461 131.878 265.368 131.816 265.243 131.816H264.684C264.56 131.816 264.498 131.878 264.498 131.941L264.778 134.368C264.778 134.43 264.871 134.492 264.995 134.492Z" fill="#4603A6"/>
</svg>
