<svg width="416" height="294" viewBox="0 0 416 294" fill="none" xmlns="http://www.w3.org/2000/svg">
<g clip-path="url(#clip0_85_3526)">
<path d="M362.317 234.124H53.6832V234.279H362.317V234.124Z" fill="#ECECEC"/>
<path d="M304.985 238.328H259.437V238.482H304.985V238.328Z" fill="#ECECEC"/>
<path d="M123.008 239.365H117.644V239.519H123.008V239.365Z" fill="#ECECEC"/>
<path d="M317.448 244.056H305.602V244.21H317.448V244.056Z" fill="#ECECEC"/>
<path d="M207.179 241.97H177.137V242.124H207.179V241.97Z" fill="#ECECEC"/>
<path d="M171.643 241.97H156.594V242.124H171.643V241.97Z" fill="#ECECEC"/>
<path d="M106.527 239.365H86.065V239.519H106.527V239.365Z" fill="#ECECEC"/>
<path d="M199.982 206.594H80.7874C78.843 206.594 77.2628 205.014 77.2628 203.07V35.5247C77.2628 33.5803 78.843 32.0001 80.7874 32.0001H199.982C201.926 32.0001 203.506 33.5803 203.506 35.5247V203.07C203.506 205.014 201.926 206.594 199.982 206.594ZM80.7874 32.1544C78.9294 32.1544 77.4171 33.6667 77.4171 35.5247V203.07C77.4171 204.928 78.9294 206.44 80.7874 206.44H199.982C201.84 206.44 203.352 204.928 203.352 203.07V35.5247C203.352 33.6667 201.84 32.1544 199.982 32.1544H80.7874Z" fill="#ECECEC"/>
<path d="M333.497 206.594H214.302C212.358 206.594 210.778 205.014 210.778 203.07V35.5247C210.778 33.5803 212.358 32.0001 214.302 32.0001H333.497C335.441 32.0001 337.021 33.5803 337.021 35.5247V203.07C337.021 205.014 335.441 206.594 333.497 206.594ZM214.302 32.1544C212.444 32.1544 210.932 33.6667 210.932 35.5247V203.07C210.932 204.928 212.444 206.44 214.302 206.44H333.497C335.355 206.44 336.867 204.928 336.867 203.07V35.5247C336.867 33.6667 335.355 32.1544 333.497 32.1544H214.302Z" fill="#ECECEC"/>
<path d="M100.595 167.904H195.648V56.5242L100.595 56.5242L100.595 167.904Z" fill="#E7E7E7"/>
<path d="M98.4844 167.904H193.531V56.5242L98.4844 56.5242L98.4844 167.904Z" fill="#F5F5F5"/>
<path d="M100.595 171.515H195.648V167.91H100.595V171.515Z" fill="#E7E7E7"/>
<path d="M94.6821 171.515H189.735V167.91H94.6821V171.515Z" fill="#F5F5F5"/>
<path d="M189.729 164.361V60.0796L102.274 60.0796V164.361H189.729Z" fill="#FAFAFA"/>
<path d="M181.143 164.361L166.143 60.0734H142.206L157.205 164.361H181.143Z" fill="white"/>
<path d="M151.619 164.361L136.625 60.0734H120.138L135.138 164.361H151.619Z" fill="white"/>
<path d="M103.879 164.355V60.0734H102.281V164.355H103.879Z" fill="#E7E7E7"/>
<path d="M100.058 154.546H191.963V149.787H100.058V154.546Z" fill="#F5F5F5"/>
<path d="M231.283 234.124H245.95L245.95 87.1715H231.283L231.283 234.124Z" fill="#E7E7E7"/>
<path d="M234.067 234.124H231.283V226.199H236.993L234.067 234.124Z" fill="#EEE4EE"/>
<path d="M305.004 234.124H319.67V87.1715H305.004V234.124Z" fill="#E7E7E7"/>
<path d="M231.283 230.223H307.436V87.1777H231.283V230.223Z" fill="#EEE4EE"/>
<path d="M265.844 219.674H236.024C234.425 219.674 233.123 218.372 233.123 216.773V92.0602C233.123 90.4615 234.425 89.1591 236.024 89.1591H265.844C267.443 89.1591 268.745 90.4615 268.745 92.0602V216.773C268.745 218.372 267.443 219.674 265.844 219.674ZM236.024 89.8072C234.783 89.8072 233.771 90.8195 233.771 92.0602V216.773C233.771 218.014 234.783 219.026 236.024 219.026H265.844C267.085 219.026 268.097 218.014 268.097 216.773V92.0602C268.097 90.8195 267.085 89.8072 265.844 89.8072H236.024Z" fill="#E7E4ED"/>
<path d="M302.695 219.674H272.875C271.276 219.674 269.974 218.372 269.974 216.773V92.0602C269.974 90.4615 271.276 89.1591 272.875 89.1591H302.695C304.294 89.1591 305.596 90.4615 305.596 92.0602V216.773C305.596 218.372 304.294 219.674 302.695 219.674ZM272.875 89.8072C271.634 89.8072 270.622 90.8195 270.622 92.0602V216.773C270.622 218.014 271.634 219.026 272.875 219.026H302.695C303.936 219.026 304.948 218.014 304.948 216.773V92.0602C304.948 90.8195 303.936 89.8072 302.695 89.8072H272.875Z" fill="#E7E4ED"/>
<path d="M278.122 154.873C278.122 156.244 277.011 157.349 275.646 157.349C274.282 157.349 273.171 156.238 273.171 154.873C273.171 153.509 274.282 152.398 275.646 152.398C277.011 152.398 278.122 153.509 278.122 154.873Z" fill="#FAFAFA"/>
<path d="M265.554 154.873C265.554 156.244 264.443 157.349 263.079 157.349C261.715 157.349 260.604 156.238 260.604 154.873C260.604 153.509 261.715 152.398 263.079 152.398C264.443 152.398 265.554 153.509 265.554 154.873Z" fill="#FAFAFA"/>
<path d="M304.652 234.124H307.436V226.199H301.732L304.652 234.124Z" fill="#EEE4EE"/>
<path d="M278.683 66.0486H255.32L265.06 62.74H288.424L278.683 66.0486Z" fill="#E7E7E7"/>
<path d="M284.257 87.1715H307.621V66.0486H284.257V87.1715Z" fill="#ECECEC"/>
<path d="M251.394 87.1715H257.635V77.0174H251.394V87.1715Z" fill="#ECECEC"/>
<path d="M251.394 77.0174H243.66V87.1715H251.394V77.0174Z" fill="#F5F5F5"/>
<path d="M284.263 66.0486H307.627L297.887 63.8511H274.523L284.263 66.0486Z" fill="#ECECEC"/>
<path d="M284.263 66.0486H255.32V87.1715H284.263V66.0486Z" fill="#F5F5F5"/>
<path d="M163.489 234.124H183.525L181.161 185.91H163.489V234.124Z" fill="#F5F5F5"/>
<path d="M100.126 234.124H177.063L182.383 184.286H105.441L100.126 234.124Z" fill="#E7E7E7"/>
<path d="M97.898 234.124H174.834L180.155 184.286H103.213L97.898 234.124Z" fill="#EEE4EE"/>
<path d="M171.223 228.606L176.087 189.805H106.83L101.966 228.606H171.223Z" fill="#FAFAFA"/>
<path d="M208 262C274.099 262 327.682 258.872 327.682 255.013C327.682 251.154 274.099 248.025 208 248.025C141.901 248.025 88.3181 251.154 88.3181 255.013C88.3181 258.872 141.901 262 208 262Z" fill="#E7E4ED"/>
<path d="M275.989 98.8363L275.253 113.515L275.912 113.548L276.648 98.8693L275.989 98.8363Z" fill="#4603A6"/>
<path d="M275.099 116.562L274.834 121.851L275.494 121.884L275.759 116.595L275.099 116.562Z" fill="#4603A6"/>
<path d="M259.986 217.421H196.883C192.291 217.421 188.723 213.662 188.951 209.069L195.988 69.567C196.223 64.9746 200.167 61.2154 204.759 61.2154H267.863C272.455 61.2154 276.023 64.9746 275.795 69.567L268.758 209.069C268.523 213.662 264.579 217.421 259.986 217.421Z" fill="#4603A6"/>
<path opacity="0.2" d="M243.005 204.162H223.975C221.16 204.162 218.555 203.057 216.648 201.051C214.734 199.039 213.765 196.378 213.907 193.558L217.284 126.584C217.58 120.757 222.555 116.016 228.388 116.016H247.419C250.233 116.016 252.838 117.121 254.746 119.127C256.659 121.14 257.628 123.8 257.486 126.621L254.11 193.595C253.814 199.422 248.838 204.162 243.005 204.162ZM228.382 116.708C222.919 116.708 218.253 121.152 217.975 126.615L214.599 193.588C214.469 196.218 215.37 198.693 217.148 200.564C218.926 202.428 221.345 203.458 223.969 203.458H242.999C248.462 203.458 253.128 199.014 253.406 193.551L256.783 126.578C256.912 123.948 256.011 121.473 254.233 119.603C252.456 117.739 250.036 116.708 247.413 116.708H228.382Z" fill="white"/>
<path opacity="0.1" d="M227.03 134.516H210.944C206.352 134.516 202.784 130.757 203.013 126.164L203.821 110.078C204.056 105.486 208 101.727 212.593 101.727H228.679C233.271 101.727 236.839 105.486 236.61 110.078L235.802 126.164C235.567 130.757 231.623 134.516 227.03 134.516Z" fill="black"/>
<path d="M222.351 129.584H206.266C201.673 129.584 198.105 125.825 198.334 121.232L199.142 105.146C199.377 100.554 203.321 96.7947 207.914 96.7947H224C228.592 96.7947 232.16 100.554 231.931 105.146L231.123 121.232C230.888 125.825 226.944 129.584 222.351 129.584Z" fill="white"/>
<path opacity="0.1" d="M249.622 196.743H238.16C234.888 196.743 232.345 194.064 232.512 190.792L233.092 179.33C233.259 176.058 236.067 173.379 239.345 173.379H250.808C254.079 173.379 256.622 176.058 256.456 179.33L255.875 190.792C255.709 194.064 252.9 196.743 249.622 196.743Z" fill="black"/>
<path d="M246.289 193.23H234.827C231.555 193.23 229.012 190.551 229.179 187.28L229.759 175.817C229.925 172.546 232.734 169.867 236.012 169.867H247.474C250.746 169.867 253.289 172.546 253.122 175.817L252.542 187.28C252.375 190.551 249.567 193.23 246.289 193.23Z" fill="white"/>
<path d="M208.093 158.521H199.821C197.457 158.521 195.624 156.589 195.741 154.225L196.161 145.954C196.278 143.59 198.309 141.658 200.673 141.658H208.945C211.309 141.658 213.142 143.59 213.025 145.954L212.605 154.225C212.488 156.589 210.457 158.521 208.093 158.521Z" fill="white"/>
<path d="M261.134 158.521H252.863C250.499 158.521 248.666 156.589 248.783 154.225L249.203 145.954C249.32 143.59 251.351 141.658 253.715 141.658H261.986C264.35 141.658 266.184 143.59 266.066 145.954L265.647 154.225C265.529 156.589 263.499 158.521 261.134 158.521Z" fill="white"/>
<path d="M234.617 158.521H226.345C223.981 158.521 222.148 156.589 222.265 154.225L222.685 145.954C222.802 143.59 224.833 141.658 227.197 141.658H235.468C237.833 141.658 239.666 143.59 239.549 145.954L239.129 154.225C239.012 156.589 236.981 158.521 234.617 158.521Z" fill="white"/>
<path d="M265.381 85.5357H204.796C202.235 85.5357 200.241 83.437 200.371 80.8754V80.7643C200.506 78.2026 202.71 76.1039 205.272 76.1039H265.857C268.418 76.1039 270.412 78.2026 270.282 80.7643V80.8754C270.147 83.437 267.943 85.5357 265.381 85.5357Z" fill="white"/>
<path d="M262.659 78.1717L263.431 79.9186L265.344 80.1964L263.881 81.5544L264.116 83.4679L262.437 82.5605L260.672 83.4679L261.097 81.5544L259.776 80.1964L261.715 79.9186L262.659 78.1717Z" fill="#4603A6"/>
<path opacity="0.1" d="M208.303 80.8198C208.253 81.7827 207.438 82.5605 206.475 82.5605C205.513 82.5605 204.772 81.7827 204.821 80.8198C204.871 79.8569 205.685 79.0791 206.648 79.0791C207.611 79.0791 208.352 79.8569 208.303 80.8198Z" fill="#4603A6"/>
<path opacity="0.1" d="M212.765 80.8198C212.716 81.7827 211.901 82.5605 210.938 82.5605C209.975 82.5605 209.235 81.7827 209.284 80.8198C209.333 79.8569 210.148 79.0791 211.111 79.0791C212.074 79.0791 212.815 79.8569 212.765 80.8198Z" fill="#4603A6"/>
<path opacity="0.1" d="M217.234 80.8198C217.185 81.7827 216.37 82.5605 215.407 82.5605C214.444 82.5605 213.704 81.7827 213.753 80.8198C213.802 79.8569 214.617 79.0791 215.58 79.0791C216.543 79.0791 217.284 79.8569 217.234 80.8198Z" fill="#4603A6"/>
<path opacity="0.2" d="M230.37 68.7275L233.864 71.4682L234.141 65.9869L230.37 68.7275Z" fill="white"/>
<path opacity="0.2" d="M241.505 68.7275L237.728 71.4682L238.005 65.9869L241.505 68.7275Z" fill="white"/>
<path opacity="0.2" d="M263.153 106.486H241.116C240.635 106.486 240.191 106.294 239.87 105.955C239.542 105.615 239.376 105.159 239.4 104.677C239.45 103.69 240.296 102.887 241.277 102.887H263.313C263.795 102.887 264.239 103.072 264.56 103.418C264.887 103.764 265.054 104.214 265.029 104.696C264.98 105.683 264.134 106.486 263.153 106.486ZM241.277 103.239C240.475 103.239 239.783 103.893 239.746 104.696C239.728 105.078 239.857 105.443 240.117 105.714C240.376 105.986 240.728 106.134 241.11 106.134H263.147C263.949 106.134 264.641 105.48 264.678 104.677C264.696 104.294 264.566 103.93 264.307 103.659C264.048 103.387 263.696 103.239 263.313 103.239H241.277Z" fill="white"/>
<path opacity="0.2" d="M262.906 111.418H240.87C240.388 111.418 239.944 111.226 239.623 110.887C239.295 110.541 239.129 110.091 239.154 109.609C239.203 108.622 240.049 107.819 241.036 107.819H263.073C263.554 107.819 263.999 108.01 264.32 108.35C264.647 108.696 264.813 109.146 264.789 109.628C264.739 110.615 263.894 111.418 262.906 111.418ZM241.03 108.171C240.228 108.171 239.536 108.825 239.499 109.628C239.481 110.01 239.61 110.375 239.87 110.646C240.129 110.918 240.481 111.066 240.863 111.066H262.9C263.702 111.066 264.394 110.412 264.431 109.609C264.449 109.226 264.32 108.862 264.06 108.591C263.801 108.319 263.449 108.171 263.066 108.171H241.03Z" fill="white"/>
<path opacity="0.2" d="M203.037 195.329C202.556 195.329 202.111 195.138 201.79 194.798C201.463 194.453 201.297 194.002 201.321 193.52L202.432 171.484C202.482 170.496 203.327 169.694 204.309 169.694C204.79 169.694 205.235 169.885 205.556 170.225C205.883 170.564 206.05 171.021 206.025 171.503L204.914 193.539C204.864 194.527 204.019 195.329 203.031 195.329H203.037ZM204.309 170.04C203.506 170.04 202.815 170.694 202.778 171.496L201.667 193.533C201.648 193.916 201.778 194.28 202.037 194.551C202.297 194.823 202.648 194.971 203.031 194.971C203.834 194.971 204.525 194.317 204.562 193.514L205.673 171.478C205.692 171.095 205.562 170.731 205.303 170.459C205.043 170.188 204.692 170.04 204.309 170.04Z" fill="white"/>
<path d="M145.273 126.436L148.218 129.004L142.78 131.46C142.78 131.46 142.514 130.183 142.366 128.189C142.304 127.356 142.915 126.627 143.749 126.559L145.273 126.43V126.436Z" fill="#FFC6BF"/>
<path d="M149.31 134.226H144.489L142.78 131.46L148.218 129.004L149.31 134.226Z" fill="#FFC6BF"/>
<path d="M176.865 88.1406C178.927 90.7455 181.056 93.4182 183.186 96.0108C185.315 98.6156 187.494 101.171 189.729 103.566L190.575 104.449L190.895 104.776C190.963 104.856 191.081 104.943 191.179 105.029C191.612 105.381 192.198 105.764 192.834 106.109C194.124 106.801 195.605 107.43 197.13 107.986C200.179 109.109 203.457 110.084 206.673 110.992L206.198 114.621C202.611 114.547 199.13 114.189 195.568 113.442C193.79 113.054 192.007 112.584 190.173 111.844C189.254 111.467 188.315 111.035 187.352 110.393C187.105 110.22 186.871 110.072 186.618 109.862L186.247 109.56L185.982 109.325L184.97 108.418C182.322 105.98 179.908 103.412 177.587 100.782C175.266 98.1403 173.087 95.4552 170.97 92.6096L176.865 88.1591V88.1406Z" fill="#FFC6BF"/>
<path d="M212.45 110.375L213.771 115.479L208.599 115.189L209.772 109.498L212.45 110.375Z" fill="#FFC6BF"/>
<path d="M205.253 110.986L209.772 109.498L208.599 115.189C208.599 115.189 204.605 116.356 203.173 113.436L205.253 110.986Z" fill="#FFC6BF"/>
<path d="M151.057 90.3134C150.125 93.5355 149.137 96.77 148.137 99.9736L146.656 104.77L145.946 107.146L145.607 108.319L145.323 109.387C145.212 109.807 145.15 110.529 145.125 111.245C145.1 111.979 145.113 112.757 145.15 113.547C145.224 115.134 145.354 116.769 145.52 118.418C145.86 121.701 146.261 125.059 146.668 128.38L143.125 129.281C141.909 126.022 140.885 122.751 140.057 119.362C139.656 117.664 139.28 115.948 139.008 114.171C138.878 113.276 138.761 112.362 138.699 111.405C138.638 110.436 138.607 109.455 138.78 108.202C138.829 107.85 138.866 107.696 138.909 107.455L139.033 106.788L139.292 105.492C139.471 104.634 139.669 103.788 139.866 102.955C140.261 101.276 140.675 99.6156 141.119 97.9613C141.996 94.6528 142.952 91.3998 144.008 88.1406L151.063 90.3257L151.057 90.3134Z" fill="#FFC6BF"/>
<path d="M169.057 68.7028C168.976 69.0855 169.112 69.4497 169.359 69.5115C169.606 69.5732 169.878 69.3139 169.958 68.9312C170.038 68.5485 169.902 68.1843 169.655 68.1226C169.408 68.0609 169.137 68.3201 169.057 68.7028Z" fill="#2D002A"/>
<path d="M169.075 69.4374C169.075 69.4374 169.47 71.8756 170.199 73.1904C169.39 73.6533 168.304 73.0731 168.304 73.0731L169.075 69.4374Z" fill="#F88B82"/>
<path d="M170.075 66.3634C170.149 66.3634 170.217 66.3264 170.267 66.2646C170.341 66.1597 170.316 66.0177 170.211 65.9437C170.174 65.919 169.285 65.3079 168.118 65.7893C168.001 65.8387 167.946 65.9745 167.995 66.0918C168.044 66.2091 168.18 66.2646 168.297 66.2153C169.229 65.8326 169.939 66.3202 169.946 66.3264C169.989 66.3572 170.032 66.3696 170.075 66.3696V66.3634Z" fill="#2D002A"/>
<path d="M155.829 69.925C155.396 74.4064 156.032 78.7458 155.032 82.6407C155.032 82.6407 156.143 86.2579 162.767 86.2579C170.05 86.2579 166.106 82.6407 166.106 82.6407C162.094 81.6902 162.081 78.7396 162.668 75.9743L155.822 69.925H155.829Z" fill="#FFC6BF"/>
<path d="M153.619 83.8815C153.051 82.7395 152.674 81.1161 153.847 80.7087C155.137 80.2581 162.032 80.1099 164.532 80.9556C167.032 81.8013 166.421 84.1222 166.421 84.1222L153.613 83.8815H153.619Z" fill="#4603A6"/>
<path d="M140.385 246.649C139.903 246.538 139.409 246.315 139.076 246.143C139.033 246.118 139.002 246.075 139.008 246.019C139.014 245.964 139.045 245.926 139.094 245.908C139.311 245.834 141.224 245.204 141.73 245.63C141.81 245.698 141.897 245.822 141.86 246.025C141.81 246.303 141.675 246.501 141.452 246.612C141.168 246.754 140.786 246.735 140.391 246.643L140.385 246.649ZM139.465 246.056C140.304 246.439 140.989 246.568 141.329 246.396C141.477 246.322 141.57 246.186 141.601 245.988C141.619 245.889 141.588 245.852 141.557 245.828C141.298 245.606 140.236 245.828 139.465 246.056Z" fill="#4603A6"/>
<path d="M139.101 246.155C139.101 246.155 139.057 246.136 139.039 246.118C139.008 246.087 138.996 246.038 139.008 245.994C139.027 245.933 139.508 244.47 140.224 244.118C140.409 244.025 140.601 244.013 140.786 244.081C141.07 244.186 141.107 244.383 141.101 244.494C141.076 245.099 139.767 245.988 139.162 246.155C139.144 246.155 139.119 246.155 139.101 246.155ZM140.644 244.297C140.545 244.272 140.44 244.285 140.335 244.34C139.872 244.562 139.502 245.396 139.341 245.815C139.971 245.538 140.835 244.834 140.847 244.476C140.847 244.445 140.847 244.365 140.699 244.309C140.699 244.309 140.662 244.297 140.644 244.291V244.297Z" fill="#4603A6"/>
<path d="M174.1 250.414C173.606 250.414 173.075 250.309 172.705 250.223C172.655 250.21 172.618 250.173 172.612 250.118C172.606 250.062 172.624 250.019 172.668 249.988C172.859 249.865 174.581 248.809 175.168 249.112C175.26 249.161 175.371 249.26 175.384 249.47C175.402 249.754 175.316 249.976 175.124 250.136C174.884 250.34 174.507 250.408 174.1 250.408V250.414ZM173.075 250.05C173.976 250.229 174.674 250.198 174.964 249.951C175.094 249.846 175.149 249.692 175.137 249.494C175.131 249.396 175.094 249.365 175.057 249.346C174.748 249.192 173.773 249.642 173.075 250.05Z" fill="#4603A6"/>
<path d="M172.735 250.229C172.735 250.229 172.686 250.223 172.668 250.21C172.631 250.186 172.606 250.142 172.612 250.093C172.612 250.025 172.742 248.494 173.365 247.988C173.526 247.859 173.705 247.803 173.902 247.828C174.205 247.865 174.285 248.05 174.303 248.161C174.414 248.754 173.353 249.92 172.797 250.223C172.779 250.235 172.76 250.235 172.735 250.235V250.229ZM173.81 248.068C173.705 248.068 173.612 248.105 173.519 248.18C173.124 248.5 172.952 249.402 172.89 249.846C173.439 249.433 174.118 248.55 174.05 248.198C174.05 248.167 174.032 248.093 173.865 248.068C173.865 248.068 173.828 248.068 173.81 248.068Z" fill="#4603A6"/>
<path d="M167.007 250.037H171.878L171.927 238.754H167.057L167.007 250.037Z" fill="#FFC6BF"/>
<path d="M133.058 245.859L137.749 246.723L141.113 235.618L136.422 234.76L133.058 245.859Z" fill="#FFC6BF"/>
<path d="M138.644 245.47L133.317 244.211C133.125 244.167 132.928 244.26 132.848 244.439L131.076 248.47C130.891 248.889 131.156 249.389 131.601 249.482C133.465 249.889 134.391 249.994 136.737 250.55C138.175 250.889 141.119 251.741 143.107 252.216C145.051 252.679 145.749 250.76 144.965 250.389C141.471 248.717 140.31 247.284 139.348 245.945C139.175 245.704 138.922 245.538 138.638 245.47H138.644Z" fill="#2D002A"/>
<path d="M171.822 249.47H166.501C166.304 249.47 166.137 249.605 166.1 249.803L165.304 254.136C165.223 254.587 165.581 255.013 166.038 255C167.958 254.969 170.723 254.852 173.137 254.852C175.958 254.852 176.964 255.006 180.272 255.006C182.272 255.006 182.748 252.982 181.908 252.803C178.063 251.97 176.384 251.877 173.013 249.846C172.649 249.624 172.248 249.47 171.822 249.47Z" fill="#2D002A"/>
<path d="M146.063 84.4061C141.31 88.943 139.897 99.1218 139.897 99.1218L148.483 103.332C148.483 103.332 151.094 98.0786 152.73 92.375C154.44 86.3999 149.502 81.1284 146.063 84.4123V84.4061Z" fill="#2D002A"/>
<path opacity="0.2" d="M150.335 91.1343L145.965 102.078L148.489 103.332C148.489 103.332 149.897 100.486 151.304 96.7144L150.335 91.1343Z" fill="black"/>
<path d="M176.131 105.504C176.093 110.942 175.766 117.708 174.958 126.103H148.897C148.576 122.275 150.174 104.233 146.298 86.1653C146.008 84.8197 146.909 83.5049 148.267 83.295C149.928 83.0358 152.199 82.7395 154.421 82.6346C157.742 82.4741 162.563 82.3691 165.495 82.6346C169.371 82.9864 173.044 83.9864 173.044 83.9864C173.044 83.9864 175.273 86.3999 175.952 97.7206C176.081 99.9551 176.155 102.529 176.137 105.498L176.131 105.504Z" fill="#2D002A"/>
<path d="M151.384 82.5173L150.242 82.6531C150.051 82.6778 149.915 82.8506 149.946 83.042C150.298 85.3629 153.261 99.2206 175.229 119.442C175.439 119.634 175.785 119.504 175.803 119.22L175.89 117.942C175.896 117.837 175.853 117.739 175.779 117.671C153.65 97.4366 151.89 85.0666 151.761 82.8444C151.748 82.6469 151.576 82.5049 151.384 82.5235V82.5173Z" fill="#4603A6"/>
<path d="M165.489 109.029L175.495 118.646L174.34 119.374C172.803 120.337 170.865 120.38 169.291 119.485L166.649 117.985C164.588 116.813 163.649 114.337 164.427 112.097L165.489 109.029Z" fill="#4603A6"/>
<path d="M168.797 117.652C168.884 117.843 169.285 117.813 169.699 117.578C170.112 117.344 170.378 116.998 170.291 116.8C170.205 116.603 169.803 116.64 169.39 116.874C168.976 117.109 168.711 117.455 168.797 117.652Z" fill="#2D002A"/>
<path opacity="0.2" d="M176.13 105.504C174.556 102.628 171.692 96.8502 172.094 93.5602L175.939 97.7268C176.069 99.9613 176.143 102.535 176.124 105.504H176.13Z" fill="black"/>
<path d="M167.927 88.3998C167.513 93.0232 178.044 104.208 178.044 104.208L186.482 97.3379C186.482 97.3379 183.013 91.3257 178.6 87.0542C173.668 82.2827 168.396 83.1963 167.933 88.3998H167.927Z" fill="#2D002A"/>
<g opacity="0.2">
<path d="M171.927 238.754L171.902 245.025H167.026L167.051 238.754H171.927Z" fill="black"/>
<path d="M136.422 234.76L141.113 235.618L139.378 241.346L134.687 240.482L136.422 234.76Z" fill="black"/>
</g>
<path d="M156.52 64.6783C155.804 69.4744 155.15 72.2398 156.995 75.2582C159.779 79.8013 166.013 79.0976 168.125 74.6657C170.032 70.6719 170.878 63.4993 166.692 60.4623C162.575 57.4686 157.23 59.8821 156.514 64.6783H156.52Z" fill="#FFC6BF"/>
<path d="M165.168 69.1164C165.131 70.4806 161.631 74.9372 158.643 75.4928C155.415 76.0915 154.588 75.178 154.076 70.7769C153.489 65.7153 151.792 65.7153 151.057 62.487C150.131 58.4192 154.113 54.7156 158.829 56.9624C162.915 58.9068 166.693 55.0798 169.507 53.944C172.322 52.802 172.754 56.0612 170.878 58.2525C169.02 60.4191 171.97 59.0982 172.828 60.0241C174.377 61.6845 171.841 65.4005 165.526 66.8757C166.612 68.0424 165.162 69.1226 165.162 69.1226L165.168 69.1164Z" fill="#2D002A"/>
<path d="M163.686 67.635C163.686 68.9127 164.186 70.1658 164.841 71.0176C165.816 72.2953 166.958 71.6719 167.236 70.2584C167.483 68.9868 167.273 66.7893 166.026 66.0116C164.797 65.2461 163.693 66.172 163.686 67.635Z" fill="#FFC6BF"/>
<path d="M165.705 126.103C165.705 126.103 161.612 163.336 159.119 177.286C156.384 192.564 142.224 240.507 142.224 240.507L133.496 238.649C133.496 238.649 143.243 193.792 144.557 178.669C145.983 162.256 148.89 126.103 148.89 126.103H165.705Z" fill="#4603A6"/>
<path opacity="0.15" d="M165.705 126.103C165.705 126.103 161.612 163.336 159.119 177.286C156.384 192.564 142.224 240.507 142.224 240.507L133.496 238.649C133.496 238.649 143.243 193.792 144.557 178.669C145.983 162.256 148.89 126.103 148.89 126.103H165.705Z" fill="white"/>
<path d="M144.181 237.562C144.218 237.569 142.693 240.748 142.693 240.748L132.872 238.655L133.576 235.68L144.181 237.562Z" fill="#2D002A"/>
<path opacity="0.2" d="M162.723 139.368C156.378 140.621 157.977 164.466 159.217 176.725C160.724 168.058 162.779 151.38 164.168 139.54C163.736 139.331 163.254 139.263 162.723 139.368Z" fill="black"/>
<path d="M174.952 126.103C174.952 126.103 177.032 162.527 177.075 177.385C177.118 192.842 173.674 243.439 173.674 243.439H165.421C165.421 243.439 163.199 193.743 162.248 178.564C161.211 162.015 157.822 126.096 157.822 126.096H174.952V126.103Z" fill="#4603A6"/>
<path opacity="0.15" d="M174.952 126.103C174.952 126.103 177.032 162.527 177.075 177.385C177.118 192.842 173.674 243.439 173.674 243.439H165.421C165.421 243.439 163.199 193.743 162.248 178.564C161.211 162.015 157.822 126.096 157.822 126.096H174.952V126.103Z" fill="white"/>
<path d="M175.137 240.155C175.174 240.155 174.803 243.581 174.803 243.581H164.76L164.372 240.525L175.137 240.155Z" fill="#2D002A"/>
</g>
<defs>
<clipPath id="clip0_85_3526">
<rect width="308.634" height="230" fill="white" transform="translate(53.6832 32.0001)"/>
</clipPath>
</defs>
</svg>
