<svg width="310" height="230" viewBox="0 0 310 230" fill="none" xmlns="http://www.w3.org/2000/svg">
<g clip-path="url(#clip0_38_5659)">
<path d="M309.317 202.124H0.683167V202.279H309.317V202.124Z" fill="#ECECEC"/>
<path d="M251.985 206.328H206.437V206.482H251.985V206.328Z" fill="#ECECEC"/>
<path d="M70.0085 207.365H64.6444V207.519H70.0085V207.365Z" fill="#ECECEC"/>
<path d="M264.448 212.056H252.602V212.21H264.448V212.056Z" fill="#ECECEC"/>
<path d="M154.179 209.97H124.137V210.124H154.179V209.97Z" fill="#ECECEC"/>
<path d="M118.643 209.97H103.594V210.124H118.643V209.97Z" fill="#ECECEC"/>
<path d="M53.5274 207.365H33.065V207.519H53.5274V207.365Z" fill="#ECECEC"/>
<path d="M146.982 174.594H27.7874C25.843 174.594 24.2628 173.014 24.2628 171.07V3.52472C24.2628 1.58033 25.843 0.00012207 27.7874 0.00012207H146.982C148.926 0.00012207 150.506 1.58033 150.506 3.52472V171.07C150.506 173.014 148.926 174.594 146.982 174.594ZM27.7874 0.154439C25.9294 0.154439 24.4171 1.66674 24.4171 3.52472V171.07C24.4171 172.928 25.9294 174.44 27.7874 174.44H146.982C148.84 174.44 150.352 172.928 150.352 171.07V3.52472C150.352 1.66674 148.84 0.154439 146.982 0.154439H27.7874Z" fill="#ECECEC"/>
<path d="M280.497 174.594H161.302C159.358 174.594 157.778 173.014 157.778 171.07V3.52472C157.778 1.58033 159.358 0.00012207 161.302 0.00012207H280.497C282.441 0.00012207 284.021 1.58033 284.021 3.52472V171.07C284.021 173.014 282.441 174.594 280.497 174.594ZM161.302 0.154439C159.444 0.154439 157.932 1.66674 157.932 3.52472V171.07C157.932 172.928 159.444 174.44 161.302 174.44H280.497C282.355 174.44 283.867 172.928 283.867 171.07V3.52472C283.867 1.66674 282.355 0.154439 280.497 0.154439H161.302Z" fill="#ECECEC"/>
<path d="M47.5955 135.904H142.648V24.5242L47.5955 24.5242L47.5955 135.904Z" fill="#E7E7E7"/>
<path d="M45.4845 135.904H140.531V24.5242L45.4845 24.5242L45.4845 135.904Z" fill="#F5F5F5"/>
<path d="M47.5955 139.515H142.648V135.91H47.5955V139.515Z" fill="#E7E7E7"/>
<path d="M41.6821 139.515H136.735V135.91H41.6821V139.515Z" fill="#F5F5F5"/>
<path d="M136.729 132.361V28.0796L49.2744 28.0796V132.361H136.729Z" fill="#FAFAFA"/>
<path d="M128.143 132.361L113.143 28.0734H89.2055L104.205 132.361H128.143Z" fill="white"/>
<path d="M98.6188 132.361L83.6254 28.0734H67.1382L82.1378 132.361H98.6188Z" fill="white"/>
<path d="M50.8793 132.355L50.8793 28.0734H49.2806L49.2806 132.355H50.8793Z" fill="#E7E7E7"/>
<path d="M47.0585 122.546L138.963 122.546V117.787L47.0585 117.787V122.546Z" fill="#F5F5F5"/>
<path d="M178.283 202.124H192.95L192.95 55.1715H178.283L178.283 202.124Z" fill="#E7E7E7"/>
<path d="M181.067 202.124H178.283V194.199H183.993L181.067 202.124Z" fill="#EEE4EE"/>
<path d="M252.004 202.124H266.67V55.1715H252.004L252.004 202.124Z" fill="#E7E7E7"/>
<path d="M178.283 198.223H254.436L254.436 55.1777H178.283V198.223Z" fill="#EEE4EE"/>
<path d="M212.844 187.674H183.024C181.425 187.674 180.123 186.372 180.123 184.773V60.0602C180.123 58.4615 181.425 57.1591 183.024 57.1591H212.844C214.443 57.1591 215.745 58.4615 215.745 60.0602V184.773C215.745 186.372 214.443 187.674 212.844 187.674ZM183.024 57.8072C181.783 57.8072 180.771 58.8195 180.771 60.0602V184.773C180.771 186.014 181.783 187.026 183.024 187.026H212.844C214.085 187.026 215.097 186.014 215.097 184.773V60.0602C215.097 58.8195 214.085 57.8072 212.844 57.8072H183.024Z" fill="#E7E4ED"/>
<path d="M249.695 187.674H219.875C218.276 187.674 216.974 186.372 216.974 184.773V60.0602C216.974 58.4615 218.276 57.1591 219.875 57.1591H249.695C251.294 57.1591 252.596 58.4615 252.596 60.0602V184.773C252.596 186.372 251.294 187.674 249.695 187.674ZM219.875 57.8072C218.634 57.8072 217.622 58.8195 217.622 60.0602V184.773C217.622 186.014 218.634 187.026 219.875 187.026H249.695C250.936 187.026 251.948 186.014 251.948 184.773V60.0602C251.948 58.8195 250.936 57.8072 249.695 57.8072H219.875Z" fill="#E7E4ED"/>
<path d="M225.122 122.873C225.122 124.244 224.01 125.349 222.646 125.349C221.282 125.349 220.171 124.238 220.171 122.873C220.171 121.509 221.282 120.398 222.646 120.398C224.01 120.398 225.122 121.509 225.122 122.873Z" fill="#FAFAFA"/>
<path d="M212.554 122.873C212.554 124.244 211.443 125.349 210.079 125.349C208.715 125.349 207.604 124.238 207.604 122.873C207.604 121.509 208.715 120.398 210.079 120.398C211.443 120.398 212.554 121.509 212.554 122.873Z" fill="#FAFAFA"/>
<path d="M251.652 202.124H254.436V194.199H248.732L251.652 202.124Z" fill="#EEE4EE"/>
<path d="M225.683 34.0486H202.32L212.06 30.74H235.424L225.683 34.0486Z" fill="#E7E7E7"/>
<path d="M231.257 55.1715H254.621V34.0486H231.257V55.1715Z" fill="#ECECEC"/>
<path d="M198.394 55.1715H204.634V45.0174H198.394V55.1715Z" fill="#ECECEC"/>
<path d="M198.394 45.0174H190.66V55.1715H198.394V45.0174Z" fill="#F5F5F5"/>
<path d="M231.263 34.0486H254.627L244.886 31.8511H221.523L231.263 34.0486Z" fill="#ECECEC"/>
<path d="M231.263 34.0486H202.32V55.1715H231.263V34.0486Z" fill="#F5F5F5"/>
<path d="M110.489 202.124H130.525L128.161 153.91H110.489V202.124Z" fill="#F5F5F5"/>
<path d="M47.1263 202.124H124.063L129.383 152.286H52.441L47.1263 202.124Z" fill="#E7E7E7"/>
<path d="M44.898 202.124H121.834L127.155 152.286H50.2127L44.898 202.124Z" fill="#EEE4EE"/>
<path d="M118.223 196.606L123.087 157.805H53.8299L48.9658 196.606H118.223Z" fill="#FAFAFA"/>
<path d="M155 230C221.099 230 274.682 226.872 274.682 223.013C274.682 219.154 221.099 216.025 155 216.025C88.9015 216.025 35.3181 219.154 35.3181 223.013C35.3181 226.872 88.9015 230 155 230Z" fill="#E7E4ED"/>
<path d="M222.989 66.8363L222.253 81.515L222.912 81.548L223.648 66.8693L222.989 66.8363Z" fill="#4603A6"/>
<path d="M222.099 84.5618L221.834 89.8513L222.494 89.8844L222.759 84.5948L222.099 84.5618Z" fill="#4603A6"/>
<path d="M206.986 185.421H143.883C139.291 185.421 135.723 181.662 135.951 177.069L142.988 37.567C143.223 32.9745 147.167 29.2154 151.759 29.2154H214.863C219.455 29.2154 223.023 32.9745 222.794 37.567L215.758 177.069C215.523 181.662 211.579 185.421 206.986 185.421Z" fill="#4603A6"/>
<path opacity="0.2" d="M190.005 172.162H170.975C168.16 172.162 165.555 171.057 163.648 169.051C161.734 167.039 160.765 164.378 160.907 161.558L164.284 94.584C164.58 88.757 169.555 84.0164 175.388 84.0164H194.419C197.233 84.0164 199.838 85.1213 201.746 87.1274C203.659 89.1397 204.628 91.8001 204.486 94.621L201.11 161.595C200.814 167.422 195.838 172.162 190.005 172.162ZM175.382 84.7077C169.919 84.7077 165.253 89.1521 164.975 94.6149L161.599 161.588C161.469 164.218 162.37 166.693 164.148 168.563C165.926 170.428 168.345 171.458 170.969 171.458H189.999C195.462 171.458 200.128 167.014 200.406 161.551L203.783 94.5778C203.912 91.9483 203.011 89.473 201.233 87.6027C199.456 85.7386 197.036 84.7077 194.413 84.7077H175.382Z" fill="white"/>
<path opacity="0.1" d="M174.03 102.516H157.944C153.352 102.516 149.784 98.7567 150.012 94.1643L150.821 78.0783C151.056 73.4858 155 69.7266 159.592 69.7266H175.678C180.271 69.7266 183.839 73.4858 183.61 78.0783L182.802 94.1643C182.567 98.7567 178.623 102.516 174.03 102.516Z" fill="black"/>
<path d="M169.351 97.5839H153.265C148.673 97.5839 145.105 93.8248 145.334 89.2323L146.142 73.1463C146.377 68.5538 150.321 64.7947 154.914 64.7947H171C175.592 64.7947 179.16 68.5538 178.931 73.1463L178.123 89.2323C177.888 93.8248 173.944 97.5839 169.351 97.5839Z" fill="white"/>
<path opacity="0.1" d="M196.622 164.743H185.16C181.888 164.743 179.345 162.064 179.512 158.792L180.092 147.33C180.259 144.058 183.067 141.379 186.345 141.379H197.808C201.079 141.379 203.622 144.058 203.456 147.33L202.875 158.792C202.709 162.064 199.9 164.743 196.622 164.743Z" fill="black"/>
<path d="M193.289 161.23H181.826C178.555 161.23 176.012 158.551 176.178 155.28L176.759 143.817C176.925 140.546 179.734 137.867 183.012 137.867H194.474C197.746 137.867 200.289 140.546 200.122 143.817L199.542 155.28C199.375 158.551 196.567 161.23 193.289 161.23Z" fill="white"/>
<path d="M155.093 126.521H146.821C144.457 126.521 142.624 124.589 142.741 122.225L143.161 113.954C143.278 111.59 145.309 109.658 147.673 109.658H155.944C158.309 109.658 160.142 111.59 160.025 113.954L159.605 122.225C159.488 124.589 157.457 126.521 155.093 126.521Z" fill="white"/>
<path d="M208.134 126.521H199.863C197.499 126.521 195.666 124.589 195.783 122.225L196.203 113.954C196.32 111.59 198.351 109.658 200.715 109.658H208.986C211.35 109.658 213.184 111.59 213.066 113.954L212.647 122.225C212.529 124.589 210.499 126.521 208.134 126.521Z" fill="white"/>
<path d="M181.617 126.521H173.345C170.981 126.521 169.148 124.589 169.265 122.225L169.685 113.954C169.802 111.59 171.833 109.658 174.197 109.658H182.468C184.833 109.658 186.666 111.59 186.549 113.954L186.129 122.225C186.012 124.589 183.981 126.521 181.617 126.521Z" fill="white"/>
<path d="M212.381 53.5357H151.796C149.235 53.5357 147.241 51.437 147.371 48.8754V48.7642C147.506 46.2026 149.71 44.1039 152.272 44.1039H212.857C215.418 44.1039 217.412 46.2026 217.282 48.7642V48.8754C217.147 51.437 214.943 53.5357 212.381 53.5357Z" fill="white"/>
<path d="M209.659 46.1717L210.431 47.9186L212.344 48.1964L210.881 49.5543L211.116 51.4679L209.437 50.5605L207.671 51.4679L208.097 49.5543L206.776 48.1964L208.715 47.9186L209.659 46.1717Z" fill="#4603A6"/>
<path opacity="0.1" d="M155.302 48.8198C155.253 49.7827 154.438 50.5605 153.475 50.5605C152.512 50.5605 151.772 49.7827 151.821 48.8198C151.87 47.8569 152.685 47.0791 153.648 47.0791C154.611 47.0791 155.352 47.8569 155.302 48.8198Z" fill="#4603A6"/>
<path opacity="0.1" d="M159.765 48.8198C159.716 49.7827 158.901 50.5605 157.938 50.5605C156.975 50.5605 156.235 49.7827 156.284 48.8198C156.333 47.8569 157.148 47.0791 158.111 47.0791C159.074 47.0791 159.815 47.8569 159.765 48.8198Z" fill="#4603A6"/>
<path opacity="0.1" d="M164.234 48.8198C164.185 49.7827 163.37 50.5605 162.407 50.5605C161.444 50.5605 160.704 49.7827 160.753 48.8198C160.802 47.8569 161.617 47.0791 162.58 47.0791C163.543 47.0791 164.284 47.8569 164.234 48.8198Z" fill="#4603A6"/>
<path opacity="0.2" d="M177.37 36.7275L180.864 39.4682L181.141 33.9869L177.37 36.7275Z" fill="white"/>
<path opacity="0.2" d="M188.505 36.7275L184.728 39.4682L185.005 33.9869L188.505 36.7275Z" fill="white"/>
<path opacity="0.2" d="M210.153 74.4858H188.116C187.635 74.4858 187.191 74.2944 186.87 73.9549C186.542 73.6154 186.376 73.1587 186.4 72.6772C186.45 71.6896 187.295 70.8871 188.277 70.8871H210.313C210.795 70.8871 211.239 71.0723 211.56 71.418C211.887 71.7636 212.054 72.2142 212.029 72.6957C211.98 73.6833 211.134 74.4858 210.153 74.4858ZM188.277 71.239C187.474 71.239 186.783 71.8933 186.746 72.6957C186.728 73.0784 186.857 73.4426 187.116 73.7142C187.376 73.9858 187.728 74.1339 188.11 74.1339H210.147C210.949 74.1339 211.64 73.4796 211.678 72.6772C211.696 72.2945 211.566 71.9303 211.307 71.6587C211.048 71.3871 210.696 71.239 210.313 71.239H188.277Z" fill="white"/>
<path opacity="0.2" d="M209.906 79.4177H187.87C187.388 79.4177 186.944 79.2264 186.623 78.8869C186.295 78.5412 186.129 78.0906 186.154 77.6092C186.203 76.6215 187.049 75.8191 188.036 75.8191H210.073C210.554 75.8191 210.999 76.0104 211.32 76.3499C211.647 76.6956 211.813 77.1462 211.789 77.6277C211.739 78.6153 210.894 79.4177 209.906 79.4177ZM188.03 76.1709C187.228 76.1709 186.536 76.8252 186.499 77.6277C186.481 78.0104 186.61 78.3746 186.87 78.6462C187.129 78.9178 187.481 79.0659 187.863 79.0659H209.9C210.702 79.0659 211.394 78.4116 211.431 77.6092C211.449 77.2264 211.32 76.8623 211.06 76.5907C210.801 76.3191 210.449 76.1709 210.066 76.1709H188.03Z" fill="white"/>
<path opacity="0.2" d="M150.037 163.329C149.556 163.329 149.111 163.138 148.79 162.798C148.463 162.453 148.296 162.002 148.321 161.52L149.432 139.484C149.482 138.496 150.327 137.694 151.309 137.694C151.79 137.694 152.235 137.885 152.556 138.225C152.883 138.564 153.049 139.021 153.025 139.503L151.914 161.539C151.864 162.527 151.019 163.329 150.031 163.329H150.037ZM151.309 138.04C150.506 138.04 149.815 138.694 149.778 139.496L148.667 161.533C148.648 161.916 148.778 162.28 149.037 162.551C149.296 162.823 149.648 162.971 150.031 162.971C150.833 162.971 151.525 162.317 151.562 161.514L152.673 139.478C152.691 139.095 152.562 138.731 152.303 138.459C152.043 138.188 151.691 138.04 151.309 138.04Z" fill="white"/>
<path d="M92.2733 94.4359L95.2177 97.0037L89.7796 99.4604C89.7796 99.4604 89.5141 98.1827 89.366 96.1889C89.3043 95.3556 89.9154 94.6272 90.7487 94.5593L92.2733 94.4297V94.4359Z" fill="#FFC6BF"/>
<path d="M96.3103 102.226H91.4894L89.7796 99.4604L95.2177 97.0037L96.3103 102.226Z" fill="#FFC6BF"/>
<path d="M123.865 56.1406C125.927 58.7455 128.056 61.4182 130.186 64.0108C132.315 66.6156 134.494 69.1711 136.729 71.5661L137.575 72.4488L137.896 72.776C137.963 72.8562 138.081 72.9426 138.179 73.029C138.612 73.3809 139.198 73.7636 139.834 74.1092C141.124 74.8006 142.605 75.4302 144.13 75.9857C147.179 77.1092 150.457 78.0844 153.673 78.9918L153.198 82.6214C149.611 82.5473 146.13 82.1893 142.568 81.4424C140.791 81.0535 139.007 80.5844 137.173 79.8437C136.254 79.4671 135.315 79.035 134.352 78.3931C134.106 78.2202 133.871 78.0721 133.618 77.8622L133.248 77.5598L132.982 77.3252L131.97 76.4178C129.322 73.9796 126.908 71.4118 124.587 68.7822C122.266 66.1403 120.087 63.4552 117.97 60.6096L123.865 56.1591V56.1406Z" fill="#FFC6BF"/>
<path d="M159.45 78.3746L160.771 83.4794L155.599 83.1893L156.772 77.498L159.45 78.3746Z" fill="#FFC6BF"/>
<path d="M152.253 78.9857L156.772 77.498L155.599 83.1893C155.599 83.1893 151.605 84.3559 150.173 81.4362L152.253 78.9857Z" fill="#FFC6BF"/>
<path d="M98.0571 58.3134C97.125 61.5355 96.1374 64.77 95.1374 67.9736L93.656 72.7698L92.9461 75.1463L92.6066 76.3191L92.3227 77.3869C92.2116 77.8067 92.1499 78.5289 92.1252 79.2449C92.1005 79.9795 92.1128 80.7572 92.1499 81.5473C92.2239 83.1337 92.3536 84.7695 92.5202 86.4176C92.8597 89.7014 93.2609 93.0594 93.6683 96.3803L90.1252 97.2815C88.9092 94.0223 87.8845 90.7508 87.0574 87.362C86.6562 85.6645 86.2796 83.9485 86.008 82.1708C85.8784 81.2757 85.7611 80.3622 85.6994 79.4054C85.6377 78.4363 85.6068 77.4548 85.7797 76.2018C85.829 75.8499 85.8661 75.6956 85.9093 75.4549L86.0327 74.7882L86.292 73.492C86.471 72.634 86.6685 71.7883 86.866 70.955C87.2611 69.276 87.6747 67.6156 88.1191 65.9613C88.9956 62.6528 89.9524 59.3998 91.0079 56.1406L98.0633 58.3257L98.0571 58.3134Z" fill="#FFC6BF"/>
<path d="M116.057 36.7028C115.976 37.0855 116.112 37.4497 116.359 37.5115C116.606 37.5732 116.878 37.3139 116.958 36.9312C117.038 36.5485 116.902 36.1843 116.655 36.1226C116.408 36.0609 116.137 36.3201 116.057 36.7028Z" fill="#2D002A"/>
<path d="M116.075 37.4374C116.075 37.4374 116.47 39.8756 117.199 41.1904C116.39 41.6533 115.304 41.0731 115.304 41.0731L116.075 37.4374Z" fill="#F88B82"/>
<path d="M117.075 34.3634C117.149 34.3634 117.217 34.3264 117.266 34.2646C117.341 34.1597 117.316 34.0177 117.211 33.9437C117.174 33.919 116.285 33.3079 115.118 33.7893C115.001 33.8387 114.946 33.9745 114.995 34.0918C115.044 34.2091 115.18 34.2646 115.297 34.2153C116.229 33.8325 116.939 34.3202 116.946 34.3264C116.989 34.3572 117.032 34.3696 117.075 34.3696V34.3634Z" fill="#2D002A"/>
<path d="M102.829 37.925C102.397 42.4064 103.032 46.7458 102.032 50.6407C102.032 50.6407 103.143 54.2579 109.767 54.2579C117.05 54.2579 113.106 50.6407 113.106 50.6407C109.094 49.6902 109.082 46.7396 109.668 43.9743L102.822 37.925H102.829Z" fill="#FFC6BF"/>
<path d="M100.619 51.8814C100.051 50.7395 99.6744 49.1161 100.847 48.7087C102.137 48.2581 109.032 48.1099 111.532 48.9556C114.032 49.8013 113.421 52.1222 113.421 52.1222L100.613 51.8814H100.619Z" fill="#4603A6"/>
<path d="M87.3846 214.649C86.9031 214.538 86.4093 214.315 86.0759 214.143C86.0327 214.118 86.0019 214.075 86.008 214.019C86.0142 213.964 86.0451 213.926 86.0945 213.908C86.3105 213.834 88.224 213.204 88.7302 213.63C88.8104 213.698 88.8969 213.822 88.8598 214.025C88.8104 214.303 88.6746 214.501 88.4524 214.612C88.1685 214.754 87.7858 214.735 87.3907 214.643L87.3846 214.649ZM86.4648 214.056C87.3043 214.439 87.9895 214.568 88.329 214.396C88.4771 214.322 88.5697 214.186 88.6006 213.988C88.6191 213.889 88.5882 213.852 88.5574 213.828C88.2981 213.606 87.2364 213.828 86.4648 214.056Z" fill="#4603A6"/>
<path d="M86.1007 214.155C86.1007 214.155 86.0574 214.136 86.0389 214.118C86.0081 214.087 85.9957 214.038 86.0081 213.994C86.0266 213.933 86.508 212.47 87.2241 212.118C87.4093 212.025 87.6006 212.013 87.7858 212.081C88.0697 212.186 88.1068 212.383 88.1006 212.494C88.0759 213.099 86.7673 213.988 86.1624 214.155C86.1439 214.155 86.1192 214.155 86.1007 214.155ZM87.6438 212.297C87.5451 212.272 87.4401 212.285 87.3352 212.34C86.8722 212.562 86.5019 213.396 86.3414 213.815C86.971 213.538 87.8352 212.834 87.8475 212.476C87.8475 212.445 87.8475 212.365 87.6994 212.309C87.6994 212.309 87.6623 212.297 87.6438 212.291V212.297Z" fill="#4603A6"/>
<path d="M121.1 218.414C120.606 218.414 120.075 218.309 119.705 218.223C119.655 218.21 119.618 218.173 119.612 218.118C119.606 218.062 119.624 218.019 119.668 217.988C119.859 217.865 121.581 216.809 122.168 217.112C122.26 217.161 122.371 217.26 122.384 217.47C122.402 217.754 122.316 217.976 122.124 218.136C121.884 218.34 121.507 218.408 121.1 218.408V218.414ZM120.075 218.05C120.976 218.229 121.674 218.198 121.964 217.951C122.094 217.846 122.149 217.692 122.137 217.494C122.131 217.396 122.094 217.365 122.056 217.346C121.748 217.192 120.773 217.642 120.075 218.05Z" fill="#4603A6"/>
<path d="M119.736 218.229C119.736 218.229 119.686 218.223 119.668 218.21C119.631 218.186 119.606 218.142 119.612 218.093C119.612 218.025 119.742 216.494 120.365 215.988C120.526 215.859 120.705 215.803 120.902 215.828C121.205 215.865 121.285 216.05 121.303 216.161C121.415 216.754 120.353 217.92 119.797 218.223C119.779 218.235 119.76 218.235 119.736 218.235V218.229ZM120.81 216.068C120.705 216.068 120.612 216.105 120.519 216.18C120.124 216.5 119.952 217.402 119.89 217.846C120.439 217.433 121.118 216.55 121.05 216.198C121.05 216.167 121.032 216.093 120.865 216.068C120.865 216.068 120.828 216.068 120.81 216.068Z" fill="#4603A6"/>
<path d="M114.007 218.037H118.878L118.927 206.754H114.057L114.007 218.037Z" fill="#FFC6BF"/>
<path d="M80.0576 213.859L84.7488 214.723L88.1129 203.618L83.4217 202.76L80.0576 213.859Z" fill="#FFC6BF"/>
<path d="M85.6439 213.47L80.3168 212.211C80.1255 212.167 79.928 212.26 79.8477 212.439L78.0762 216.47C77.891 216.889 78.1564 217.389 78.6008 217.482C80.465 217.889 81.3909 217.994 83.7365 218.55C85.1747 218.889 88.1191 219.741 90.1067 220.216C92.0511 220.679 92.7486 218.76 91.9647 218.389C88.471 216.717 87.3105 215.284 86.3475 213.945C86.1747 213.704 85.9216 213.538 85.6377 213.47H85.6439Z" fill="#2D002A"/>
<path d="M118.822 217.47H113.501C113.304 217.47 113.137 217.605 113.1 217.803L112.304 222.136C112.223 222.587 112.581 223.013 113.038 223C114.958 222.969 117.723 222.852 120.137 222.852C122.958 222.852 123.964 223.006 127.272 223.006C129.272 223.006 129.748 220.982 128.908 220.803C125.063 219.97 123.384 219.877 120.013 217.846C119.649 217.624 119.248 217.47 118.822 217.47Z" fill="#2D002A"/>
<path d="M93.0634 52.4061C88.3105 56.943 86.8969 67.1218 86.8969 67.1218L95.4831 71.3315C95.4831 71.3315 98.0941 66.0786 99.7299 60.375C101.44 54.3999 96.5016 49.1284 93.0634 52.4123V52.4061Z" fill="#2D002A"/>
<path opacity="0.2" d="M97.3349 59.1343L92.9647 70.0785L95.4893 71.3315C95.4893 71.3315 96.8967 68.4859 98.304 64.7144L97.3349 59.1343Z" fill="black"/>
<path d="M123.131 73.5043C123.093 78.9425 122.766 85.7077 121.958 94.1025H95.8967C95.5757 90.2755 97.1744 72.2328 93.298 54.1653C93.0079 52.8197 93.9091 51.5049 95.2671 51.295C96.9275 51.0358 99.1991 50.7395 101.421 50.6346C104.742 50.4741 109.563 50.3691 112.495 50.6346C116.371 50.9864 120.044 51.9864 120.044 51.9864C120.044 51.9864 122.273 54.3999 122.952 65.7206C123.081 67.9551 123.155 70.5291 123.137 73.4982L123.131 73.5043Z" fill="#2D002A"/>
<path d="M98.3843 50.5173L97.2423 50.6531C97.051 50.6778 96.9152 50.8506 96.946 51.042C97.2979 53.3629 100.261 67.2205 122.229 87.4422C122.439 87.6336 122.785 87.504 122.803 87.22L122.89 85.9423C122.896 85.8373 122.853 85.7386 122.779 85.6707C100.65 65.4366 98.8904 53.0666 98.7608 50.8444C98.7485 50.6469 98.5756 50.5049 98.3843 50.5235V50.5173Z" fill="#4603A6"/>
<path d="M112.489 77.0289L122.495 86.6459L121.34 87.3743C119.803 88.3373 117.865 88.3805 116.291 87.4854L113.649 85.9855C111.588 84.8127 110.649 82.3374 111.427 80.0967L112.489 77.0289Z" fill="#4603A6"/>
<path d="M115.797 85.6521C115.884 85.8435 116.285 85.8126 116.699 85.5781C117.112 85.3435 117.378 84.9978 117.291 84.8003C117.205 84.6028 116.804 84.6398 116.39 84.8744C115.976 85.109 115.711 85.4546 115.797 85.6521Z" fill="#2D002A"/>
<path opacity="0.2" d="M123.131 73.5043C121.556 70.6279 118.692 64.8502 119.094 61.5602L122.939 65.7268C123.069 67.9613 123.143 70.5353 123.124 73.5043H123.131Z" fill="black"/>
<path d="M114.927 56.3998C114.513 61.0232 125.044 72.2081 125.044 72.2081L133.482 65.3379C133.482 65.3379 130.013 59.3257 125.6 55.0542C120.668 50.2827 115.396 51.1963 114.933 56.3998H114.927Z" fill="#2D002A"/>
<g opacity="0.2">
<path d="M118.927 206.754L118.902 213.025H114.026L114.051 206.754H118.927Z" fill="black"/>
<path d="M83.4217 202.76L88.113 203.618L86.3784 209.346L81.6872 208.482L83.4217 202.76Z" fill="black"/>
</g>
<path d="M103.52 32.6783C102.804 37.4744 102.15 40.2398 103.995 43.2582C106.779 47.8013 113.013 47.0976 115.125 42.6656C117.032 38.6719 117.878 31.4993 113.692 28.4623C109.575 25.4686 104.23 27.8821 103.514 32.6783H103.52Z" fill="#FFC6BF"/>
<path d="M112.168 37.1164C112.131 38.4806 108.631 42.9372 105.643 43.4928C102.415 44.0915 101.588 43.178 101.076 38.7769C100.489 33.7153 98.7917 33.7153 98.0571 30.487C97.1312 26.4192 101.113 22.7156 105.829 24.9624C109.915 26.9068 113.693 23.0797 116.507 21.944C119.322 20.802 119.754 24.0612 117.878 26.2525C116.02 28.4191 118.97 27.0982 119.828 28.0241C121.377 29.6845 118.841 33.4005 112.526 34.8757C113.612 36.0424 112.162 37.1226 112.162 37.1226L112.168 37.1164Z" fill="#2D002A"/>
<path d="M110.686 35.635C110.686 36.9127 111.186 38.1658 111.841 39.0176C112.816 40.2953 113.958 39.6719 114.236 38.2584C114.483 36.9868 114.273 34.7893 113.026 34.0116C111.797 33.2461 110.693 34.172 110.686 35.635Z" fill="#FFC6BF"/>
<path d="M112.705 94.1025C112.705 94.1025 108.612 131.336 106.119 145.286C103.384 160.564 89.224 208.507 89.224 208.507L80.4958 206.649C80.4958 206.649 90.2425 161.792 91.5573 146.669C92.9832 130.256 95.8905 94.1025 95.8905 94.1025H112.705Z" fill="#4603A6"/>
<path opacity="0.15" d="M112.705 94.1025C112.705 94.1025 108.612 131.336 106.119 145.286C103.384 160.564 89.224 208.507 89.224 208.507L80.4958 206.649C80.4958 206.649 90.2425 161.792 91.5573 146.669C92.9832 130.256 95.8905 94.1025 95.8905 94.1025H112.705Z" fill="white"/>
<path d="M91.1807 205.562C91.2178 205.569 89.6931 208.748 89.6931 208.748L79.8724 206.655L80.5761 203.68L91.1807 205.562Z" fill="#2D002A"/>
<path opacity="0.2" d="M109.723 107.368C103.378 108.621 104.977 132.466 106.217 144.725C107.724 136.058 109.779 119.38 111.168 107.54C110.736 107.331 110.254 107.263 109.723 107.368Z" fill="black"/>
<path d="M121.952 94.1025C121.952 94.1025 124.032 130.527 124.075 145.385C124.118 160.841 120.674 211.439 120.674 211.439H112.421C112.421 211.439 110.199 161.743 109.248 146.564C108.211 130.015 104.822 94.0964 104.822 94.0964H121.952V94.1025Z" fill="#4603A6"/>
<path opacity="0.15" d="M121.952 94.1025C121.952 94.1025 124.032 130.527 124.075 145.385C124.118 160.841 120.674 211.439 120.674 211.439H112.421C112.421 211.439 110.199 161.743 109.248 146.564C108.211 130.015 104.822 94.0964 104.822 94.0964H121.952V94.1025Z" fill="white"/>
<path d="M122.137 208.155C122.174 208.155 121.803 211.581 121.803 211.581H111.76L111.372 208.525L122.137 208.155Z" fill="#2D002A"/>
</g>
<defs>
<clipPath id="clip0_38_5659">
<rect width="308.634" height="230" fill="white" transform="translate(0.683167 0.00012207)"/>
</clipPath>
</defs>
</svg>
