<svg width="331" height="96" viewBox="0 0 331 96" fill="none" xmlns="http://www.w3.org/2000/svg">
<rect x="1.83176" y="1.25" width="327.074" height="93.5" rx="8.75" stroke="white" stroke-width="2.5"/>
<path d="M30.407 30.0194L46.4571 46.1242C47.5453 47.2177 47.5453 48.988 46.4571 50.0788L30.3862 66.4674L30.407 30.0194ZM35.9549 22.1363L53.9367 32.4979L60.3177 36.1739L54.3273 42.1852C53.239 43.2761 51.4739 43.2761 50.3857 42.1852L31.0943 22.8366C32.245 21.6494 34.3225 21.1704 35.9549 22.1363ZM33.9398 74.4287C32.8594 74.4287 31.8987 73.947 31.2088 73.2519L50.3857 54.0178C51.4739 52.927 53.239 52.927 54.3273 54.0178L60.2318 59.9432L35.8742 73.9106C35.2936 74.249 34.6245 74.4287 33.9398 74.4287ZM74.8839 51.3649L65.2304 57.0742L58.2558 50.0788C57.1676 48.988 57.1676 47.2177 58.2558 46.1242L65.3085 39.0507L74.9151 44.708L74.9776 44.7418C76.1934 45.4031 76.9458 46.6605 76.9458 48.0273C76.9458 49.4046 76.183 50.6672 74.8839 51.3649ZM77.9143 39.889L38.7536 17.3225C37.2982 16.4582 35.6321 16 33.9398 16C29.5817 16 25.7651 18.9705 24.8825 22.9876C24.7862 23.3729 24.5623 24.3726 24.5831 25.3229L24.5857 70.7761C24.617 71.6977 24.8669 72.9447 24.9059 73.0957C25.9942 77.1623 29.7093 80 33.9398 80C35.6086 80 37.2462 79.5574 38.6546 78.7347L77.831 56.2698C80.8718 54.6374 82.7619 51.4899 82.7619 48.0534C82.7619 44.6533 80.9056 41.5266 77.9143 39.889Z" fill="white"/>
<path d="M121.759 23.9451C121.759 25.9161 121.176 27.4849 120.007 28.6562C118.678 30.0486 116.949 30.7448 114.823 30.7448C112.784 30.7448 111.053 30.0391 109.63 28.6256C108.202 27.2144 107.492 25.4621 107.492 23.3736C107.492 21.2826 108.202 19.5327 109.63 18.1192C111.053 16.708 112.784 16 114.823 16C115.832 16 116.801 16.1976 117.719 16.5927C118.638 16.9879 119.374 17.5124 119.927 18.1686L118.685 19.4104C117.752 18.2956 116.465 17.7358 114.823 17.7358C113.337 17.7358 112.053 18.258 110.968 19.3022C109.884 20.3489 109.343 21.7036 109.343 23.3736C109.343 25.0411 109.884 26.3982 110.968 27.4425C112.053 28.4892 113.337 29.009 114.823 29.009C116.399 29.009 117.712 28.4845 118.765 27.4331C119.447 26.7487 119.84 25.7985 119.946 24.5754H114.823V22.8796H121.661C121.726 23.2489 121.759 23.6041 121.759 23.9451Z" fill="white"/>
<path d="M121.759 23.9451C121.759 25.9161 121.176 27.4849 120.007 28.6562C118.678 30.0486 116.949 30.7448 114.823 30.7448C112.784 30.7448 111.053 30.0391 109.63 28.6256C108.202 27.2144 107.492 25.4621 107.492 23.3736C107.492 21.2826 108.202 19.5327 109.63 18.1192C111.053 16.708 112.784 16 114.823 16C115.832 16 116.801 16.1976 117.719 16.5927C118.638 16.9879 119.374 17.5124 119.927 18.1686L118.685 19.4104C117.752 18.2956 116.465 17.7358 114.823 17.7358C113.337 17.7358 112.053 18.258 110.968 19.3022C109.884 20.3489 109.343 21.7036 109.343 23.3736C109.343 25.0411 109.884 26.3982 110.968 27.4425C112.053 28.4892 113.337 29.009 114.823 29.009C116.399 29.009 117.712 28.4845 118.765 27.4331C119.447 26.7487 119.84 25.7985 119.946 24.5754H114.823V22.8796H121.661C121.726 23.2489 121.759 23.6041 121.759 23.9451Z" fill="white"/>
<path d="M132.601 18.0512H126.175V22.5247H131.97V24.2205H126.175V28.694H132.601V30.4298H124.361V16.3178H132.601V18.0512Z" fill="white"/>
<path d="M132.601 18.0512H126.175V22.5247H131.97V24.2205H126.175V28.694H132.601V30.4298H124.361V16.3178H132.601V18.0512Z" fill="white"/>
<path d="M140.247 30.4291H138.434V18.0505H134.492V16.3171H144.189V18.0505H140.247V30.4291Z" fill="white"/>
<path d="M140.247 30.4291H138.434V18.0505H134.492V16.3171H144.189V18.0505H140.247V30.4291Z" fill="white"/>
<path d="M151.205 16.3171H153.019V30.4291H151.205V16.3171Z" fill="white"/>
<path d="M161.061 30.4291H159.248V18.0505H155.306V16.3171H165.003V18.0505H161.061V30.4291Z" fill="white"/>
<path d="M161.061 30.4291H159.248V18.0505H155.306V16.3171H165.003V18.0505H161.061V30.4291Z" fill="white"/>
<path d="M174.352 27.4237C175.396 28.4821 176.674 29.009 178.186 29.009C179.698 29.009 180.975 28.4821 182.02 27.4237C183.064 26.3653 183.588 25.0153 183.588 23.3736C183.588 21.7319 183.064 20.3795 182.02 19.3234C180.975 18.265 179.698 17.7358 178.186 17.7358C176.674 17.7358 175.396 18.265 174.352 19.3234C173.31 20.3795 172.786 21.7319 172.786 23.3736C172.786 25.0153 173.31 26.3653 174.352 27.4237ZM183.36 28.6044C181.973 30.0321 180.249 30.7448 178.186 30.7448C176.123 30.7448 174.399 30.0321 173.014 28.6044C171.626 27.1791 170.935 25.4363 170.935 23.3736C170.935 21.3109 171.626 19.5657 173.014 18.1404C174.399 16.715 176.123 16 178.186 16C180.237 16 181.956 16.7174 183.351 18.1498C184.743 19.5821 185.439 21.3226 185.439 23.3736C185.439 25.4363 184.746 27.1791 183.36 28.6044Z" fill="white"/>
<path d="M174.352 27.4237C175.396 28.4821 176.674 29.009 178.186 29.009C179.698 29.009 180.975 28.4821 182.02 27.4237C183.064 26.3653 183.588 25.0153 183.588 23.3736C183.588 21.7319 183.064 20.3795 182.02 19.3234C180.975 18.265 179.698 17.7358 178.186 17.7358C176.674 17.7358 175.396 18.265 174.352 19.3234C173.31 20.3795 172.786 21.7319 172.786 23.3736C172.786 25.0153 173.31 26.3653 174.352 27.4237ZM183.36 28.6044C181.973 30.0321 180.249 30.7448 178.186 30.7448C176.123 30.7448 174.399 30.0321 173.014 28.6044C171.626 27.1791 170.935 25.4363 170.935 23.3736C170.935 21.3109 171.626 19.5657 173.014 18.1404C174.399 16.715 176.123 16 178.186 16C180.237 16 181.956 16.7174 183.351 18.1498C184.743 19.5821 185.439 21.3226 185.439 23.3736C185.439 25.4363 184.746 27.1791 183.36 28.6044Z" fill="white"/>
<path d="M187.984 30.4291V16.3171H190.19L197.049 27.2939H197.129L197.049 24.575V16.3171H198.865V30.4291H196.971L189.795 18.9184H189.718L189.795 21.6397V30.4291H187.984Z" fill="white"/>
<path d="M187.984 30.4291V16.3171H190.19L197.049 27.2939H197.129L197.049 24.575V16.3171H198.865V30.4291H196.971L189.795 18.9184H189.718L189.795 21.6397V30.4291H187.984Z" fill="white"/>
<path d="M261.745 70.4132H266.134V41.0108H261.745V70.4132ZM301.275 51.6019L296.244 64.3498H296.094L290.872 51.6019H286.145L293.974 69.4183L289.513 79.3297H294.087L306.155 51.6019H301.275ZM276.386 67.0734C274.947 67.0734 272.943 66.356 272.943 64.5755C272.943 62.3082 275.438 61.438 277.595 61.438C279.524 61.438 280.434 61.8543 281.605 62.4211C281.264 65.1447 278.919 67.0734 276.386 67.0734ZM276.915 50.9598C273.738 50.9598 270.445 52.3592 269.086 55.4615L272.98 57.0868C273.813 55.4615 275.363 54.93 276.991 54.93C279.26 54.93 281.568 56.2918 281.605 58.7143V59.0154C280.81 58.5615 279.11 57.8817 277.028 57.8817C272.83 57.8817 268.554 60.1891 268.554 64.5003C268.554 68.4352 271.997 70.9706 275.855 70.9706C278.806 70.9706 280.434 69.6465 281.455 68.0941H281.605V70.3638H285.841V59.0907C285.841 53.8716 281.946 50.9598 276.915 50.9598M249.792 55.1816H243.55V45.1033H249.792C253.073 45.1033 254.936 47.8199 254.936 50.1413C254.936 52.4204 253.073 55.1816 249.792 55.1816ZM249.679 41.0108H239.163V70.4132H243.55V59.2741H249.679C254.543 59.2741 259.325 55.7508 259.325 50.1413C259.325 44.5318 254.543 41.0108 249.679 41.0108M192.335 67.0781C189.303 67.0781 186.765 64.5403 186.765 61.0546C186.765 57.5313 189.303 54.9535 192.335 54.9535C195.329 54.9535 197.676 57.5313 197.676 61.0546C197.676 64.5403 195.329 67.0781 192.335 67.0781ZM197.375 53.2483H197.222C196.237 52.0746 194.344 51.0139 191.956 51.0139C186.954 51.0139 182.369 55.4074 182.369 61.0546C182.369 66.6618 186.954 71.02 191.956 71.02C194.344 71.02 196.237 69.9593 197.222 68.7457H197.375V70.1874C197.375 74.0141 195.329 76.0604 192.031 76.0604C189.341 76.0604 187.673 74.127 186.991 72.4971L183.164 74.0894C184.263 76.7425 187.182 80 192.031 80C197.185 80 201.543 76.9683 201.543 69.5806V51.6183H197.375V53.2483ZM204.575 70.4132H208.971V41.0084H204.575V70.4132ZM215.448 60.7135C215.335 56.8492 218.442 54.8782 220.677 54.8782C222.422 54.8782 223.899 55.7485 224.39 56.9997L215.448 60.7135ZM229.09 57.3784C228.257 55.144 225.717 51.0139 220.526 51.0139C215.373 51.0139 211.092 55.0664 211.092 61.017C211.092 66.6241 215.335 71.02 221.018 71.02C225.604 71.02 228.257 68.2164 229.355 66.5865L225.945 64.3121C224.809 65.9797 223.254 67.0781 221.018 67.0781C218.783 67.0781 217.191 66.055 216.168 64.0487L229.544 58.5144L229.09 57.3784ZM122.525 54.0832V58.3263H132.679C132.375 60.7136 131.58 62.4564 130.369 63.6677C128.89 65.1471 126.578 66.777 122.525 66.777C116.271 66.777 111.384 61.7367 111.384 55.485C111.384 49.2311 116.271 44.1931 122.525 44.1931C125.898 44.1931 128.36 45.5196 130.178 47.2248L133.173 44.2307C130.632 41.8058 127.262 39.9477 122.525 39.9477C113.961 39.9477 106.762 46.9214 106.762 55.485C106.762 64.0487 113.961 71.02 122.525 71.02C127.147 71.02 130.632 69.503 133.361 66.6618C136.167 63.8582 137.037 59.9186 137.037 56.734C137.037 55.7485 136.962 54.8406 136.809 54.0832H122.525ZM148.583 67.0781C145.551 67.0781 142.936 64.5779 142.936 61.017C142.936 57.416 145.551 54.9535 148.583 54.9535C151.612 54.9535 154.228 57.416 154.228 61.017C154.228 64.5779 151.612 67.0781 148.583 67.0781ZM148.583 51.0139C143.049 51.0139 138.54 55.2193 138.54 61.017C138.54 66.777 143.049 71.02 148.583 71.02C154.115 71.02 158.624 66.777 158.624 61.017C158.624 55.2193 154.115 51.0139 148.583 51.0139ZM170.487 67.0781C167.455 67.0781 164.84 64.5779 164.84 61.017C164.84 57.416 167.455 54.9535 170.487 54.9535C173.519 54.9535 176.132 57.416 176.132 61.017C176.132 64.5779 173.519 67.0781 170.487 67.0781ZM170.487 51.0139C164.955 51.0139 160.446 55.2193 160.446 61.017C160.446 66.777 164.955 71.02 170.487 71.02C176.019 71.02 180.528 66.777 180.528 61.017C180.528 55.2193 176.019 51.0139 170.487 51.0139Z" fill="white"/>
</svg>
