<svg width="312" height="230" viewBox="0 0 312 230" fill="none" xmlns="http://www.w3.org/2000/svg">
<g clip-path="url(#clip0_38_5917)">
<path d="M280.68 214.27H260.023V214.426H280.68V214.27Z" fill="#ECECEC"/>
<path d="M206.658 215.967H201.238V216.123H206.658V215.967Z" fill="#ECECEC"/>
<path d="M259.399 208.482H247.43V208.638H259.399V208.482Z" fill="#ECECEC"/>
<path d="M59.73 209.53H32.7919V209.686H59.73V209.53Z" fill="#ECECEC"/>
<path d="M69.2354 209.53H65.2873V209.686H69.2354V209.53Z" fill="#ECECEC"/>
<path d="M140.501 212.162H82.0714V212.318H140.501V212.162Z" fill="#ECECEC"/>
<path d="M147.898 176.417H27.4654C25.5008 176.417 23.9041 174.82 23.9041 172.856V3.56152C23.9041 1.59682 25.5008 0.00012207 27.4654 0.00012207H147.904C149.869 0.00012207 151.466 1.59682 151.466 3.56152V172.856C151.466 174.82 149.869 176.417 147.904 176.417H147.898ZM27.4654 0.15605C25.5881 0.15605 24.06 1.68414 24.06 3.56152V172.856C24.06 174.733 25.5881 176.261 27.4654 176.261H147.904C149.782 176.261 151.31 174.733 151.31 172.856V3.56152C151.31 1.68414 149.782 0.15605 147.904 0.15605H27.4654Z" fill="#ECECEC"/>
<path d="M282.807 176.417H162.368C160.403 176.417 158.807 174.82 158.807 172.856V3.56152C158.807 1.59682 160.403 0.00012207 162.368 0.00012207H282.807C284.772 0.00012207 286.368 1.59682 286.368 3.56152V172.856C286.368 174.82 284.772 176.417 282.807 176.417ZM162.368 0.15605C160.491 0.15605 158.963 1.68414 158.963 3.56152V172.856C158.963 174.733 160.491 176.261 162.368 176.261H282.807C284.684 176.261 286.212 174.733 286.212 172.856V3.56152C286.212 1.68414 284.684 0.15605 282.807 0.15605H162.368Z" fill="#ECECEC"/>
<path d="M311.928 204.235H0.0720215V204.391H311.928V204.235Z" fill="#ECECEC"/>
<path d="M258.2 120.185C264.851 118.615 268.971 111.95 267.401 105.299C265.831 98.6475 259.166 94.5281 252.515 96.098C245.863 97.6679 241.744 104.333 243.314 110.984C244.883 117.636 251.548 121.755 258.2 120.185Z" fill="#E7E4ED"/>
<path d="M260.125 120.185C266.777 118.615 270.896 111.951 269.326 105.299C267.756 98.6477 261.092 94.5282 254.44 96.0981C247.789 97.668 243.669 104.333 245.239 110.984C246.809 117.636 253.474 121.755 260.125 120.185Z" fill="#EEE4EE"/>
<path d="M260.927 116.919C265.781 114.909 268.085 109.345 266.075 104.492C264.065 99.6387 258.501 97.3341 253.647 99.3443C248.794 101.355 246.49 106.919 248.5 111.772C250.51 116.625 256.074 118.93 260.927 116.919Z" fill="#F5F5F5"/>
<path d="M265.349 108.133C265.349 103.125 261.476 99.0269 256.555 98.6526C256.792 98.6339 257.035 98.6152 257.278 98.6152C262.53 98.6152 266.79 102.875 266.79 108.127C266.79 113.378 262.53 117.638 257.278 117.638C257.035 117.638 256.798 117.62 256.555 117.601C261.47 117.233 265.349 113.135 265.349 108.121V108.133Z" fill="#E7E4ED"/>
<path d="M257.285 102.077L255.925 106.262H251.528L255.083 108.844L253.723 113.029L257.285 110.441L260.84 113.029L259.48 108.844L263.035 106.262H258.638L257.285 102.077Z" fill="#E7E7E7"/>
<path d="M259.279 161.691L222.778 169.45C220.466 169.941 218.991 172.213 219.482 174.524L220.847 180.948C221.339 183.26 223.611 184.735 225.922 184.244L262.423 176.485C264.735 175.994 266.21 173.722 265.719 171.411L264.353 164.987C263.862 162.675 261.59 161.2 259.279 161.691Z" fill="#ECECEC"/>
<path d="M243.089 168.583C241.261 167.398 238.816 167.916 237.631 169.743C236.446 171.571 236.964 174.016 238.791 175.201C240.407 176.249 242.503 175.962 243.787 174.621C243.856 174.808 243.968 174.982 244.149 175.101L247.305 177.153C247.742 177.434 248.322 177.315 248.609 176.879C248.889 176.442 248.771 175.862 248.334 175.575L245.178 173.523C244.997 173.404 244.792 173.373 244.592 173.392C245.297 171.671 244.711 169.637 243.089 168.589V168.583ZM243.295 173.423C242.453 174.721 240.713 175.089 239.415 174.247C238.118 173.404 237.75 171.664 238.592 170.367C239.434 169.07 241.174 168.695 242.471 169.544C243.769 170.386 244.137 172.126 243.295 173.423Z" fill="#FAFAFA"/>
<path d="M77.3 166.824C71.724 168.733 68.7552 174.802 70.67 180.378C72.1544 184.7 80.9425 190.55 84.8157 192.964C85.7638 193.557 87.0174 193.126 87.4041 192.078C88.9821 187.8 92.3315 177.783 90.8533 173.461C88.9447 167.885 82.876 164.916 77.3 166.831V166.824ZM82.4082 181.719C79.7574 182.629 76.8634 181.213 75.9528 178.563C75.0422 175.912 76.458 173.018 79.1088 172.107C81.7596 171.197 84.6536 172.612 85.5642 175.263C86.4748 177.914 85.059 180.808 82.4082 181.719Z" fill="#ECECEC"/>
<path d="M75.4351 51.4626H70.3519C69.1543 51.4626 68.0379 52.0614 67.383 53.0593L66.6408 54.182C66.0358 55.0988 65.0129 55.6477 63.9152 55.6477H50.811C49.6384 55.6477 48.6841 56.602 48.6841 57.7746V78.2385H78.2356V55.6477L77.9736 53.683C77.8052 52.4106 76.72 51.4626 75.4413 51.4626H75.4351Z" fill="#E7E4ED"/>
<path d="M76.0152 58.2299H50.8983V75.4069H76.0152V58.2299Z" fill="#FAFAFA"/>
<path d="M78.2294 78.2385H48.6779L44.3431 62.4524C44.0125 61.2549 44.9169 60.076 46.1519 60.076H70.3643C72.0608 60.076 73.5453 61.2112 73.9944 62.8453L78.2231 78.2385H78.2294Z" fill="#EEE4EE"/>
<path d="M150.792 19.2229C152.382 16.2291 151.247 12.5118 148.253 10.9151C145.26 9.32461 141.542 10.4598 139.946 13.4536C138.555 16.0669 139.247 19.2354 141.436 21.0566L141.156 24.2563L143.65 22.2355C146.382 23.0338 149.395 21.8363 150.786 19.2229H150.792Z" fill="#E7E4ED"/>
<path d="M148.977 13.859H142.091C141.954 13.859 141.848 13.965 141.848 14.1022V18.9797C141.848 19.1169 141.954 19.2229 142.091 19.2229H148.977C149.114 19.2229 149.22 19.1169 149.22 18.9797V14.1022C149.22 13.965 149.114 13.859 148.977 13.859ZM148.865 18.6117L146.794 16.541L148.865 14.4702V18.6117ZM148.609 14.2145L146.538 16.2852L145.534 17.2894L142.459 14.2145H148.609ZM142.21 14.4702L144.28 16.541L142.21 18.6117V14.4702ZM142.459 18.8674L144.53 16.7967L145.534 17.8009L146.538 16.7967L148.609 18.8674H142.459Z" fill="#FAFAFA"/>
<path d="M251.478 76.0306L241.729 68.7082L251.478 61.3858L252.289 62.4649L243.975 68.7082L252.289 74.9516L251.478 76.0306Z" fill="#E7E4ED"/>
<path d="M242.852 70.6168C243.906 70.6168 244.76 69.7623 244.76 68.7082C244.76 67.6542 243.906 66.7997 242.852 66.7997C241.798 66.7997 240.943 67.6542 240.943 68.7082C240.943 69.7623 241.798 70.6168 242.852 70.6168Z" fill="#ECECEC"/>
<path d="M253.91 61.9222C253.91 62.9763 253.056 63.8308 252.002 63.8308C250.948 63.8308 250.093 62.9763 250.093 61.9222C250.093 60.8682 250.948 60.0137 252.002 60.0137C253.056 60.0137 253.91 60.8682 253.91 61.9222Z" fill="#ECECEC"/>
<path d="M252.002 77.54C253.056 77.54 253.91 76.6855 253.91 75.6314C253.91 74.5774 253.056 73.7229 252.002 73.7229C250.948 73.7229 250.093 74.5774 250.093 75.6314C250.093 76.6855 250.948 77.54 252.002 77.54Z" fill="#ECECEC"/>
<path d="M152.994 230C219.782 230 273.925 226.839 273.925 222.94C273.925 219.04 219.782 215.879 152.994 215.879C86.2051 215.879 32.0622 219.04 32.0622 222.94C32.0622 226.839 86.2051 230 152.994 230Z" fill="#E7E4ED"/>
<path d="M112.278 48.8056H127.047L141.942 219.079H127.172C120.324 219.079 114.286 213.528 113.687 206.68L100.957 61.205C100.359 54.3566 105.423 48.8056 112.272 48.8056H112.278Z" fill="#2D002A"/>
<path d="M103.128 65.8828C103.072 65.2279 102.492 64.6915 101.837 64.6915C101.182 64.6915 100.695 65.2217 100.752 65.8828L101.75 77.2905C101.806 77.9454 102.386 78.4818 103.041 78.4818C103.696 78.4818 104.182 77.9516 104.126 77.2905L103.128 65.8828Z" fill="#4603A6"/>
<path opacity="0.3" d="M103.128 65.8828C103.072 65.2279 102.492 64.6915 101.837 64.6915C101.182 64.6915 100.695 65.2217 100.752 65.8828L101.75 77.2905C101.806 77.9454 102.386 78.4818 103.041 78.4818C103.696 78.4818 104.182 77.9516 104.126 77.2905L103.128 65.8828Z" fill="white"/>
<path d="M130.197 219.079H191.065C197.913 219.079 202.978 213.528 202.379 206.68L189.649 61.205C189.05 54.3566 183.013 48.8056 176.165 48.8056H115.297C108.448 48.8056 103.384 54.3566 103.982 61.205L116.712 206.68C117.311 213.528 123.349 219.079 130.197 219.079Z" fill="#4603A6"/>
<path d="M115.546 51.6497H131.363C132.399 51.6497 133.341 52.4169 133.565 53.446L133.671 53.9387C134.214 56.446 136.509 58.3297 139.041 58.3297H154.079C156.611 58.3297 158.582 56.446 158.682 53.9387L158.701 53.446C158.744 52.4169 159.549 51.6497 160.584 51.6497H176.408C181.684 51.6497 186.337 55.9284 186.799 61.205L199.529 206.68C199.99 211.956 196.086 216.235 190.809 216.235H129.941C124.665 216.235 120.012 211.956 119.55 206.68L106.82 61.205C106.359 55.9284 110.263 51.6497 115.54 51.6497H115.546Z" fill="#4603A6"/>
<path opacity="0.9" d="M115.546 51.6497H131.363C132.399 51.6497 133.341 52.4169 133.565 53.446L133.671 53.9387C134.214 56.446 136.509 58.3297 139.041 58.3297H154.079C156.611 58.3297 158.582 56.446 158.682 53.9387L158.701 53.446C158.744 52.4169 159.549 51.6497 160.584 51.6497H176.408C181.684 51.6497 186.337 55.9284 186.799 61.205L199.529 206.68C199.99 211.956 196.086 216.235 190.809 216.235H129.941C124.665 216.235 120.012 211.956 119.55 206.68L106.82 61.205C106.359 55.9284 110.263 51.6497 115.54 51.6497H115.546Z" fill="white"/>
<g opacity="0.2">
<path d="M149.807 53.2651C149.863 53.9325 150.455 54.4751 151.123 54.4751C151.79 54.4751 152.283 53.9325 152.227 53.2651C152.17 52.5977 151.578 52.0551 150.911 52.0551C150.243 52.0551 149.75 52.5977 149.807 53.2651Z" fill="black"/>
<path d="M141.124 52.0551H145.272C145.94 52.0551 146.526 52.5977 146.588 53.2651C146.644 53.9325 146.152 54.4751 145.484 54.4751H141.337C140.669 54.4751 140.083 53.9325 140.021 53.2651C139.964 52.5977 140.457 52.0551 141.124 52.0551Z" fill="black"/>
</g>
<g opacity="0.2">
<path d="M179.926 58.3109H178.647L178.535 57.0323H179.813L179.926 58.3109Z" fill="black"/>
<path d="M177.256 57.0323L177.368 58.3109H176.084L175.977 57.0323L175.865 55.7537H177.144L177.256 57.0323Z" fill="black"/>
<path d="M174.468 54.4751L174.58 55.7537L174.693 57.0323L174.805 58.3109H173.526L173.414 57.0323L173.302 55.7537L173.189 54.4751H174.468Z" fill="black"/>
</g>
<path opacity="0.2" d="M113.8 54.5562L114.13 58.3109H119.762L119.681 57.3754H120.305L120.143 55.498H119.519L119.438 54.5624H113.806L113.8 54.5562ZM117.012 55.498H118.889L119.051 57.3754H117.174L117.012 55.498Z" fill="black"/>
<g opacity="0.2">
<path d="M141.611 212.037H178.198C179.308 212.037 179.158 210.316 178.048 210.316H141.461C140.351 210.316 140.501 212.037 141.611 212.037Z" fill="black"/>
</g>
<path d="M221.789 113.765H182.701C180.237 113.765 178.41 111.769 178.628 109.299L180.736 85.2179C180.955 82.7542 183.125 80.7521 185.589 80.7521H224.677C227.141 80.7521 228.968 82.748 228.75 85.2179L226.642 109.299C226.423 111.763 224.253 113.765 221.789 113.765Z" fill="#4603A6"/>
<path opacity="0.4" d="M221.789 113.765H182.701C180.237 113.765 178.41 111.769 178.628 109.299L180.736 85.2179C180.955 82.7542 183.125 80.7521 185.589 80.7521H224.677C227.141 80.7521 228.968 82.748 228.75 85.2179L226.642 109.299C226.423 111.763 224.253 113.765 221.789 113.765Z" fill="white"/>
<path opacity="0.8" d="M221.639 111.988H183.175C181.566 111.988 180.375 110.684 180.512 109.075L182.358 87.9497C182.502 86.3406 183.917 85.037 185.527 85.037H223.991C225.6 85.037 226.791 86.3406 226.654 87.9497L224.808 109.075C224.664 110.684 223.249 111.988 221.639 111.988Z" fill="white"/>
<path opacity="0.8" d="M184.946 82.9226C184.909 83.3779 184.504 83.7459 184.048 83.7459C183.593 83.7459 183.256 83.3779 183.294 82.9226C183.331 82.4673 183.736 82.0993 184.192 82.0993C184.647 82.0993 184.984 82.4673 184.946 82.9226Z" fill="white"/>
<path opacity="0.8" d="M187.516 82.9226C187.479 83.3779 187.073 83.7459 186.618 83.7459C186.163 83.7459 185.826 83.3779 185.863 82.9226C185.901 82.4673 186.306 82.0993 186.761 82.0993C187.217 82.0993 187.554 82.4673 187.516 82.9226Z" fill="white"/>
<path opacity="0.8" d="M190.086 82.9226C190.048 83.3779 189.643 83.7459 189.188 83.7459C188.732 83.7459 188.396 83.3779 188.433 82.9226C188.47 82.4673 188.876 82.0993 189.331 82.0993C189.786 82.0993 190.123 82.4673 190.086 82.9226Z" fill="white"/>
<path opacity="0.1" d="M200.577 106.012H186.737L188.053 91.0059H201.886L200.577 106.012Z" fill="black"/>
<path d="M220.342 92.6775H205.672C205.211 92.6775 204.874 92.3032 204.911 91.8417C204.949 91.3801 205.361 91.0059 205.816 91.0059H220.486C220.947 91.0059 221.284 91.3801 221.246 91.8417C221.209 92.3032 220.797 92.6775 220.342 92.6775Z" fill="#4603A6"/>
<path d="M217.548 96.0081H205.379C204.918 96.0081 204.581 95.6339 204.618 95.1723C204.656 94.7108 205.067 94.3365 205.523 94.3365H217.691C218.153 94.3365 218.49 94.7108 218.452 95.1723C218.415 95.6339 218.003 96.0081 217.548 96.0081Z" fill="#4603A6"/>
<path d="M218.259 99.3449H205.086C204.625 99.3449 204.288 98.9707 204.325 98.5092C204.363 98.0476 204.774 97.6734 205.23 97.6734H218.402C218.864 97.6734 219.201 98.0476 219.163 98.5092C219.126 98.9707 218.714 99.3449 218.259 99.3449Z" fill="#4603A6"/>
<path d="M216.463 102.676H204.793C204.331 102.676 203.995 102.301 204.032 101.84C204.069 101.378 204.481 101.004 204.936 101.004H216.606C217.068 101.004 217.404 101.378 217.367 101.84C217.33 102.301 216.918 102.676 216.463 102.676Z" fill="#4603A6"/>
<path d="M218.172 106.012H204.5C204.038 106.012 203.701 105.638 203.739 105.177C203.776 104.715 204.188 104.341 204.643 104.341H218.315C218.777 104.341 219.113 104.715 219.076 105.177C219.039 105.638 218.627 106.012 218.172 106.012Z" fill="#4603A6"/>
<g opacity="0.5">
<path d="M220.342 92.6775H205.672C205.211 92.6775 204.874 92.3032 204.911 91.8417C204.949 91.3801 205.361 91.0059 205.816 91.0059H220.486C220.947 91.0059 221.284 91.3801 221.246 91.8417C221.209 92.3032 220.797 92.6775 220.342 92.6775Z" fill="white"/>
<path d="M217.548 96.0081H205.379C204.918 96.0081 204.581 95.6339 204.618 95.1723C204.656 94.7108 205.067 94.3365 205.523 94.3365H217.691C218.153 94.3365 218.49 94.7108 218.452 95.1723C218.415 95.6339 218.003 96.0081 217.548 96.0081Z" fill="white"/>
<path d="M218.259 99.3449H205.086C204.625 99.3449 204.288 98.9707 204.325 98.5092C204.363 98.0476 204.774 97.6734 205.23 97.6734H218.402C218.864 97.6734 219.201 98.0476 219.163 98.5092C219.126 98.9707 218.714 99.3449 218.259 99.3449Z" fill="white"/>
<path d="M216.463 102.676H204.793C204.331 102.676 203.995 102.301 204.032 101.84C204.069 101.378 204.481 101.004 204.936 101.004H216.606C217.068 101.004 217.404 101.378 217.367 101.84C217.33 102.301 216.918 102.676 216.463 102.676Z" fill="white"/>
<path d="M218.172 106.012H204.5C204.038 106.012 203.701 105.638 203.739 105.177C203.776 104.715 204.188 104.341 204.643 104.341H218.315C218.777 104.341 219.113 104.715 219.076 105.177C219.039 105.638 218.627 106.012 218.172 106.012Z" fill="white"/>
</g>
<path d="M197.321 94.8355C196.323 93.8376 194.701 93.8376 193.703 94.8355L192.4 96.1391L191.096 94.8355C190.098 93.8376 188.477 93.8376 187.479 94.8355C186.481 95.8335 186.481 97.4551 187.479 98.453L192.394 103.368L197.308 98.453C198.306 97.4551 198.306 95.8335 197.308 94.8355H197.321Z" fill="#4603A6"/>
<path d="M191.364 78.7063H171.075C169.797 78.7063 168.848 77.671 168.961 76.3861L170.052 63.8869C170.164 62.6083 171.293 61.5667 172.572 61.5667H192.861C194.14 61.5667 195.088 62.6021 194.976 63.8869L193.884 76.3861C193.772 77.6647 192.643 78.7063 191.364 78.7063Z" fill="#4603A6"/>
<path opacity="0.4" d="M191.364 78.7063H171.075C169.797 78.7063 168.848 77.671 168.961 76.3861L170.052 63.8869C170.164 62.6083 171.293 61.5667 172.572 61.5667H192.861C194.14 61.5667 195.088 62.6021 194.976 63.8869L193.884 76.3861C193.772 77.6647 192.643 78.7063 191.364 78.7063Z" fill="white"/>
<path opacity="0.8" d="M191.283 77.7895H171.318C170.483 77.7895 169.865 77.1096 169.94 76.2738L170.9 65.309C170.975 64.4732 171.711 63.7934 172.547 63.7934H192.512C193.348 63.7934 193.965 64.4732 193.89 65.309L192.93 76.2738C192.855 77.1096 192.119 77.7895 191.283 77.7895Z" fill="white"/>
<path opacity="0.8" d="M172.241 62.7019C172.223 62.9389 172.011 63.1322 171.774 63.1322C171.537 63.1322 171.362 62.9389 171.381 62.7019C171.399 62.4649 171.612 62.2715 171.849 62.2715C172.086 62.2715 172.26 62.4649 172.241 62.7019Z" fill="white"/>
<path opacity="0.8" d="M173.57 62.7019C173.551 62.9389 173.339 63.1322 173.102 63.1322C172.865 63.1322 172.691 62.9389 172.709 62.7019C172.728 62.4649 172.94 62.2715 173.177 62.2715C173.414 62.2715 173.589 62.4649 173.57 62.7019Z" fill="white"/>
<path opacity="0.8" d="M174.905 62.7019C174.886 62.9389 174.674 63.1322 174.437 63.1322C174.2 63.1322 174.025 62.9389 174.044 62.7019C174.063 62.4649 174.275 62.2715 174.512 62.2715C174.749 62.2715 174.923 62.4649 174.905 62.7019Z" fill="white"/>
<path d="M237.454 152.17C244.074 149.428 247.217 141.839 244.475 135.22C241.734 128.6 234.145 125.457 227.525 128.199C220.906 130.941 217.762 138.529 220.504 145.149C223.246 151.769 230.835 154.912 237.454 152.17Z" fill="#4603A6"/>
<path opacity="0.6" d="M237.454 152.17C244.074 149.428 247.217 141.839 244.475 135.22C241.734 128.6 234.145 125.457 227.525 128.199C220.906 130.941 217.762 138.529 220.504 145.149C223.246 151.769 230.835 154.912 237.454 152.17Z" fill="white"/>
<path d="M238.511 137.142C238.43 136.337 238.118 135.626 237.519 135.052C236.889 134.454 236.122 134.186 235.274 134.142C233.833 134.061 230.421 134.017 229.224 134.21C227.852 134.435 226.953 135.233 226.579 136.587C226.286 137.628 226.348 142.425 226.517 143.454C226.748 144.863 227.583 145.762 228.974 146.123C229.941 146.373 234.681 146.342 235.748 146.167C237.157 145.942 238.062 145.113 238.43 143.722C238.71 142.655 238.611 138.109 238.517 137.142H238.511ZM237.382 143.254C237.22 144.321 236.509 144.982 235.436 145.1C234.45 145.206 230.041 145.269 229.124 145.013C228.251 144.77 227.746 144.165 227.602 143.285C227.465 142.443 227.427 138.24 227.602 137.111C227.764 136.05 228.475 135.389 229.542 135.271C230.627 135.152 234.525 135.134 235.567 135.296C236.633 135.458 237.295 136.169 237.413 137.248C237.525 138.252 237.557 142.175 237.388 143.254H237.382ZM232.492 137.048C230.758 137.048 229.355 138.452 229.355 140.186C229.355 141.913 230.758 143.317 232.486 143.317C234.22 143.317 235.629 141.92 235.629 140.186C235.629 138.452 234.226 137.048 232.492 137.048ZM232.473 142.219C231.369 142.219 230.465 141.302 230.465 140.179C230.465 139.063 231.376 138.159 232.498 138.159C233.621 138.159 234.519 139.069 234.519 140.192C234.519 141.315 233.608 142.213 232.467 142.213L232.473 142.219ZM236.484 136.936C236.484 137.341 236.159 137.666 235.748 137.666C235.336 137.666 235.018 137.341 235.012 136.936C235.012 136.524 235.336 136.194 235.754 136.2C236.159 136.2 236.484 136.531 236.484 136.936Z" fill="#4603A6"/>
<path d="M233.465 32.9196L219.725 29.7138L214.068 53.9824L231.968 58.155L236.658 38.059L233.465 32.9196Z" fill="#4603A6"/>
<path opacity="0.5" d="M233.465 32.9196L219.725 29.7138L214.068 53.9824L231.968 58.155L236.658 38.059L233.465 32.9196Z" fill="white"/>
<path opacity="0.4" d="M233.465 32.9196L232.492 37.086L236.658 38.059L233.465 32.9196Z" fill="white"/>
<path d="M232.068 41.1402L221.502 38.6765C221.215 38.6079 221.034 38.321 221.103 38.0341C221.172 37.7472 221.459 37.5663 221.745 37.6349L232.311 40.0986C232.598 40.1672 232.773 40.4541 232.71 40.741C232.642 41.0279 232.355 41.2088 232.068 41.1402Z" fill="#4603A6"/>
<path d="M229.617 42.7556L221.016 40.7472C220.729 40.6786 220.554 40.3917 220.617 40.1048C220.685 39.8179 220.972 39.637 221.259 39.7056L229.86 41.714C230.147 41.7826 230.328 42.0695 230.259 42.3564C230.19 42.6433 229.904 42.8179 229.617 42.7556Z" fill="#4603A6"/>
<path d="M229.324 44.8762L220.535 42.8242C220.249 42.7556 220.074 42.4687 220.136 42.1818C220.205 41.8948 220.492 41.714 220.779 41.7826L229.567 43.8346C229.854 43.9032 230.035 44.1901 229.966 44.477C229.897 44.7639 229.61 44.9386 229.324 44.8762Z" fill="#4603A6"/>
<path d="M230.615 47.3648L220.049 44.9011C219.762 44.8325 219.581 44.5456 219.65 44.2587C219.718 43.9718 220.005 43.7909 220.292 43.8595L230.858 46.3232C231.145 46.3918 231.326 46.6787 231.257 46.9656C231.188 47.2525 230.902 47.4272 230.615 47.3648Z" fill="#4603A6"/>
<path d="M228.17 48.9865L219.569 46.9781C219.282 46.9095 219.101 46.6226 219.17 46.3357C219.238 46.0488 219.525 45.8741 219.812 45.9365L228.413 47.9449C228.7 48.0135 228.881 48.3004 228.812 48.5873C228.743 48.8742 228.457 49.0551 228.17 48.9865Z" fill="#4603A6"/>
<path d="M227.87 51.1008L219.082 49.0488C218.795 48.9802 218.621 48.6933 218.683 48.4064C218.752 48.1195 219.039 47.9449 219.325 48.0072L228.114 50.0592C228.4 50.1278 228.581 50.4148 228.513 50.7017C228.444 50.9886 228.157 51.1694 227.87 51.1008Z" fill="#4603A6"/>
<g style="mix-blend-mode:multiply">
<path fill-rule="evenodd" clip-rule="evenodd" d="M183.025 33.8053C180.743 33.7242 179.314 32.0901 178.94 30.7554C179.576 30.8739 180.2 30.8489 180.824 30.6992C180.842 30.6992 180.855 30.6867 180.886 30.668C179.651 30.3811 178.697 29.72 178.036 28.6534C177.599 27.9424 177.387 27.169 177.393 26.3145C178.011 26.6451 178.653 26.826 179.346 26.8509C178.416 26.1835 177.792 25.3041 177.537 24.1877C177.281 23.0712 177.449 22.0047 178.005 21.0067C180.381 23.8072 183.393 25.3478 187.067 25.5973C187.042 25.4226 187.017 25.2729 186.998 25.117C186.88 24.0816 187.08 23.1211 187.641 22.2417C188.339 21.144 189.337 20.4641 190.622 20.2583C192.1 20.015 193.392 20.4329 194.464 21.4808C194.539 21.5494 194.595 21.5743 194.701 21.5494C195.606 21.3498 196.454 21.0254 197.252 20.5639C197.271 20.5514 197.29 20.539 197.308 20.5327C197.308 20.5327 197.321 20.5327 197.34 20.5327C196.99 21.5556 196.36 22.3415 195.462 22.9215C196.31 22.828 197.128 22.6034 197.907 22.2604C197.913 22.2666 197.92 22.2729 197.926 22.2791C197.757 22.4974 197.595 22.7282 197.421 22.9402C196.953 23.5141 196.423 24.0193 195.824 24.4559C195.774 24.4933 195.749 24.5307 195.749 24.5931C195.774 25.2417 195.749 25.8966 195.668 26.5391C195.5 27.905 195.119 29.2085 194.539 30.4497C193.94 31.7346 193.154 32.8947 192.163 33.9113C190.491 35.639 188.47 36.7555 186.125 37.2731C185.321 37.454 184.504 37.5413 183.68 37.5663C181.148 37.6411 178.803 37.0112 176.651 35.6827C176.626 35.664 176.595 35.6453 176.545 35.6141C178.079 35.7825 179.533 35.5829 180.936 35.0091C181.678 34.7035 182.371 34.3043 183.025 33.7928V33.8053Z" fill="#4603A6"/>
</g>
<path d="M93.1298 24.749C91.2649 18.6429 84.797 15.2062 78.6909 17.0711C72.5848 18.936 69.1481 25.4039 71.013 31.51C72.6409 36.8428 77.7803 40.136 83.1192 39.6495L87.0112 44.2837L87.6412 38.2648C92.3439 35.6827 94.7577 30.0817 93.1298 24.749Z" fill="#4603A6"/>
<path d="M85.3833 25.4975L84.8594 28.5038L87.0611 28.036L86.9177 30.0131L84.4914 30.5308L83.9613 33.4997L81.9779 33.9238L82.508 30.9549L80.0506 31.4789L79.5204 34.4477L77.5557 34.8656L78.0859 31.8967L75.878 32.3645L76.0027 30.3936L78.4477 29.8759L78.9903 26.8696L76.7886 27.3374L76.932 25.3602L79.3583 24.8426L79.8884 21.8737L81.8531 21.4558L81.323 24.4247L83.7866 23.9008L84.3168 20.9319L86.2815 20.514L85.7513 23.4829L87.9717 23.0089L87.847 24.9798L85.3896 25.5037L85.3833 25.4975ZM83.4186 25.9154L80.955 26.4393L80.4123 29.4456L82.876 28.9216L83.4186 25.9154Z" fill="white"/>
<path d="M90.0141 132.59L56.3681 125.439L51.666 147.56L85.312 154.712L90.0141 132.59Z" fill="#4603A6"/>
<path opacity="0.6" d="M90.0141 132.59L56.3681 125.439L51.666 147.56L85.312 154.712L90.0141 132.59Z" fill="white"/>
<path d="M65.3185 139.942L53.1187 147.864L73.2397 152.142L65.3185 139.942Z" fill="#4603A6"/>
<path opacity="0.3" d="M65.3185 139.942L53.1187 147.864L73.2397 152.142L65.3185 139.942Z" fill="white"/>
<path d="M84.9717 154.637L78.6098 135.483L65.0067 150.39L84.9717 154.637Z" fill="#4603A6"/>
<path opacity="0.8" d="M71.0504 135.957C70.8134 137.073 69.7157 137.784 68.6055 137.547C67.489 137.31 66.778 136.213 67.015 135.102C67.252 133.986 68.3498 133.275 69.46 133.512C70.5764 133.749 71.2874 134.847 71.0504 135.957Z" fill="white"/>
<path d="M85.795 155.448L50.9295 148.038L55.888 124.699L90.7535 132.109L85.795 155.448ZM52.4077 147.078L84.8344 153.97L89.2753 133.069L56.8485 126.177L52.4077 147.078Z" fill="#4603A6"/>
<path d="M67.8826 102.2C68.8888 96.0019 64.6795 90.1614 58.481 89.1552C52.2825 88.149 46.442 92.3583 45.4359 98.5568C44.4297 104.755 48.6389 110.596 54.8374 111.602C61.0359 112.608 66.8764 108.399 67.8826 102.2Z" fill="#4603A6"/>
<path opacity="0.6" d="M67.8826 102.2C68.8888 96.0019 64.6795 90.1614 58.481 89.1552C52.2825 88.149 46.442 92.3583 45.4359 98.5568C44.4297 104.755 48.6389 110.596 54.8374 111.602C61.0359 112.608 66.8764 108.399 67.8826 102.2Z" fill="white"/>
<path fill-rule="evenodd" clip-rule="evenodd" d="M58.5699 96.2888C58.9504 96.2763 59.3371 96.2888 59.7176 96.2888H59.8735V94.2991C59.6677 94.2804 59.4556 94.2492 59.2436 94.2368C58.8506 94.218 58.4577 94.1993 58.0647 94.2118C57.466 94.2243 56.8984 94.3677 56.4057 94.7232C55.8381 95.1287 55.5262 95.7025 55.4077 96.3823C55.3578 96.663 55.3454 96.9499 55.3391 97.2368C55.3266 97.6859 55.3391 98.1287 55.3391 98.5778V98.7462H53.4368V100.967H55.3266V106.549H57.6406V100.973H59.5242C59.624 100.231 59.7176 99.5009 59.8111 98.74C59.6614 98.74 59.5242 98.74 59.387 98.74C58.8506 98.74 57.6219 98.74 57.6219 98.74C57.6219 98.74 57.6219 97.636 57.6406 97.162C57.6593 96.5071 58.046 96.3075 58.5699 96.2888Z" fill="#4603A6"/>
<path d="M143.694 88.5922C143.694 88.5922 145.752 87.1701 147.174 88.8105C148.597 90.4571 147.698 94.1245 147.698 94.1245L144.386 90.1078L143.688 88.5922H143.694Z" fill="#2D002A"/>
<path d="M188.689 110.721L184.547 110.503C183.743 113.927 182.926 117.47 181.809 120.576C181.529 121.35 181.217 122.085 180.899 122.747C180.58 123.395 180.212 123.982 179.919 124.275C179.782 124.424 179.757 124.343 179.707 124.343C179.495 124.375 178.896 124.393 178.248 124.312C176.913 124.169 175.31 123.776 173.738 123.283C172.148 122.79 170.526 122.21 168.917 121.568C167.295 120.944 165.686 120.246 164.071 119.553C162.468 118.861 160.828 118.087 159.306 117.376L155.52 124.855C157.266 125.772 158.944 126.526 160.684 127.293C162.412 128.061 164.177 128.747 165.973 129.408C167.782 130.044 169.616 130.643 171.543 131.136C173.483 131.61 175.46 132.034 177.774 132.133C178.94 132.158 180.188 132.146 181.747 131.697C182.14 131.578 182.545 131.435 182.969 131.223C183.175 131.123 183.393 131.005 183.624 130.861C183.842 130.724 184.042 130.574 184.229 130.431C184.965 129.832 185.477 129.208 185.87 128.622C186.649 127.437 187.067 126.358 187.423 125.316C187.772 124.275 187.996 123.264 188.19 122.279C188.57 120.302 188.739 118.374 188.813 116.46C188.888 114.539 188.857 112.674 188.695 110.728L188.689 110.721Z" fill="#87413C"/>
<path d="M150.15 124.811C152.563 129.763 170.227 132.957 170.227 132.957L173.514 120.239C173.514 120.239 166.21 117.021 159.237 115.873C152.071 114.701 147.505 119.372 150.156 124.805L150.15 124.811Z" fill="#4603A6"/>
<path d="M184.529 110.715L185.626 103.567L190.859 107.416C190.859 107.416 189.574 113.884 186.986 113.11L184.529 110.715Z" fill="#86413B"/>
<path d="M189.512 99.2639L192.886 104.098L190.853 107.41L185.62 103.567L189.512 99.2639Z" fill="#86413B"/>
<path opacity="0.2" d="M161.451 121.562L158.925 122.466L158.401 124.325L158.751 127.337L161.071 130.736C164.208 131.678 167.202 132.346 168.867 132.695C166.142 127.262 161.451 121.568 161.451 121.568V121.562Z" fill="black"/>
<path d="M137.688 163.425C137.688 163.425 137.445 183.802 155.925 179.579C173.539 175.556 167.981 155.828 167.981 155.828L137.694 163.425H137.688Z" fill="#2D002A"/>
<path d="M155.919 177.253C149.856 172.307 131.887 160.331 125.65 169.294C118.683 179.311 134.607 203.773 161.096 194.604C165.374 193.126 169.117 188.024 155.913 177.253H155.919Z" fill="#2D002A"/>
<path d="M178.41 163.425C204.188 158.828 205.654 166.625 201.219 173.236C196.785 179.847 182.077 195.403 155.919 193.744C146.195 193.126 146.039 169.194 178.41 163.419V163.425Z" fill="#2D002A"/>
<path opacity="0.2" d="M159.686 179.579C159.686 179.579 161.065 176.467 162.88 174.29C164.688 172.12 164.913 178.382 172.871 174.29C180.83 170.199 186.406 165.826 192.568 164.199C198.724 162.571 187.828 173.691 187.828 173.691L168.512 184.313L159.692 179.579H159.686Z" fill="black"/>
<path d="M160.173 193.438L150.63 197.099L151.428 192.272L159.306 187.12L160.173 193.438Z" fill="#86413B"/>
<path d="M206.864 167.847C206.084 162.365 197.146 160.176 189.662 166.057C183.506 170.891 161.507 185.174 154.403 189.839L155.906 195.621C162.437 193.145 175.266 188.28 184.454 184.737C197.277 179.798 207.65 173.336 206.87 167.853L206.864 167.847Z" fill="#2D002A"/>
<path opacity="0.2" d="M154.802 176.367C151.634 169.65 144.892 168.327 141.062 168.147C146.351 170.367 151.59 173.891 154.802 176.367Z" fill="black"/>
<path opacity="0.2" d="M166.285 191.673C172.235 189.409 178.984 186.839 184.454 184.731C184.66 184.65 184.865 184.569 185.077 184.488L169.204 180.272C163.828 183.864 158.8 187.176 155.925 189.066L166.291 191.673H166.285Z" fill="black"/>
<path opacity="0.2" d="M128.145 180.035C128.145 180.035 148.815 197.548 156.38 186.322L131.401 176.816L128.594 175.55L128.139 180.035H128.145Z" fill="black"/>
<path d="M181.379 192.035L190.99 193.27L189.98 187.962L180.131 185.398L181.379 192.035Z" fill="#86413B"/>
<path d="M187.853 186.534C183.138 185.317 172.46 182.635 165.861 180.06C156.961 176.585 134.276 167.174 126.798 171.577C121.621 174.627 126.979 179.143 126.979 179.143C126.979 179.143 129.399 183.322 148.36 187.313C161.913 190.164 178.672 192.29 187.129 193.27L187.853 186.534Z" fill="#2D002A"/>
<path d="M190.254 193.444L188.82 187.525C188.764 187.301 188.876 187.07 189.082 186.97L193.635 184.731C194.04 184.532 194.527 184.694 194.726 185.093C194.751 185.143 194.77 185.199 194.789 185.255C195.269 187.394 195.612 189.322 196.261 191.979C197.022 195.11 197.202 194.224 198.15 197.898C198.718 200.112 196.292 201.128 195.942 200.218C194.352 196.039 192.942 195.908 190.996 194.623C190.61 194.336 190.348 193.912 190.254 193.444Z" fill="#4603A6"/>
<path d="M152.208 196.582L153.256 190.569C153.293 190.345 153.175 190.12 152.963 190.033L148.26 188.093C147.842 187.918 147.362 188.112 147.187 188.53C147.162 188.586 147.15 188.636 147.137 188.698C146.8 190.875 146.582 192.821 146.108 195.521C145.553 198.709 145.31 197.829 144.605 201.565C144.181 203.817 146.675 204.677 146.969 203.742C148.278 199.457 149.682 199.232 151.547 197.817C151.908 197.505 152.145 197.062 152.214 196.588L152.208 196.582Z" fill="#4603A6"/>
<path d="M135.879 152.367C136.827 157.805 137.432 162.733 137.887 166.275C143.039 166.051 162.368 165.047 169.36 162.39C168.362 133.082 159.044 115.649 159.044 115.649C159.044 115.649 155.601 115.418 151.659 115.699C151.141 115.73 150.611 115.786 150.081 115.842C146.632 116.223 141.081 117.47 137.27 118.437C136.472 118.643 135.661 118.867 134.875 119.098C130.883 120.295 127.422 121.755 127.422 121.755C129.941 127.824 131.837 134.098 133.309 140.042C134.382 144.389 135.218 148.568 135.879 152.367Z" fill="#4603A6"/>
<path d="M135.761 103.755C137.363 107.715 139.621 115.106 137.264 118.443C139.796 120.196 143.282 121.412 147.898 120.377C151.428 119.578 151.129 117.065 150.075 115.848C145.266 115.68 144.729 112.243 144.917 108.882L135.761 103.755Z" fill="#86413B"/>
<path d="M147.992 120.352C147.992 120.352 147 122.341 145.771 124.356C143.189 123.607 137.039 121.456 136.609 118.343C136.721 117.389 137.794 116.597 137.794 116.597C137.794 116.597 141.923 119.142 147.998 120.352H147.992Z" fill="white"/>
<path d="M147.992 120.352C147.992 120.352 150.131 121.449 151.728 123.083C153.156 121.562 151.004 116.06 150.237 115.568C148.703 114.994 147.804 115.287 147.804 115.287C147.804 115.287 150.524 119.123 147.998 120.345L147.992 120.352Z" fill="white"/>
<path opacity="0.2" d="M139.497 105.844L144.917 108.875C144.873 109.674 144.867 110.472 144.96 111.233C143.158 111.333 140.37 109.898 139.833 108.096C139.565 107.197 139.434 106.306 139.503 105.85L139.497 105.844Z" fill="black"/>
<path d="M133.041 98.8585C135.137 104.154 136.091 107.36 139.721 109.218C145.185 112.013 151.035 107.291 150.561 101.459C150.137 96.2139 146.782 88.4362 140.8 88.062C134.906 87.694 130.945 93.5631 133.041 98.8585Z" fill="#86413B"/>
<path d="M141.717 97.6048C141.86 98.0476 142.21 98.3221 142.497 98.2285C142.784 98.1287 142.902 97.6983 142.759 97.2555C142.615 96.8127 142.266 96.5382 141.979 96.6318C141.692 96.7316 141.574 97.162 141.717 97.6048Z" fill="#2D002A"/>
<path d="M146.682 95.9332C146.825 96.3761 147.174 96.6505 147.461 96.557C147.748 96.4572 147.867 96.0268 147.723 95.584C147.58 95.1411 147.231 94.8667 146.944 94.9603C146.657 95.0601 146.538 95.4904 146.682 95.9332Z" fill="#2D002A"/>
<path d="M145.179 96.6817C145.179 96.6817 147 98.7836 148.497 99.5944C147.954 100.542 146.526 100.655 146.526 100.655L145.179 96.6817Z" fill="#6A150F"/>
<path d="M144.717 103.131C144.904 103.093 145.098 103.044 145.303 102.975C145.372 102.95 145.416 102.875 145.391 102.8C145.366 102.725 145.291 102.688 145.222 102.713C143.289 103.362 141.954 102.32 141.942 102.308C141.885 102.264 141.798 102.27 141.748 102.333C141.698 102.395 141.711 102.476 141.767 102.526C141.823 102.57 142.977 103.468 144.717 103.131Z" fill="#2D002A"/>
<path d="M139.665 96.5195C139.759 96.5008 139.84 96.4322 139.871 96.3387C140.264 95.1848 141.23 94.9228 141.243 94.9166C141.386 94.8792 141.48 94.7295 141.443 94.586C141.405 94.4426 141.255 94.3552 141.112 94.3927C141.062 94.4051 139.846 94.7357 139.359 96.1703C139.309 96.3137 139.384 96.4696 139.528 96.5133C139.571 96.5258 139.621 96.532 139.665 96.5195Z" fill="#2D002A"/>
<path d="M148.266 93.5008C148.316 93.4883 148.366 93.4696 148.403 93.4259C148.509 93.3199 148.515 93.1452 148.409 93.0392C147.362 91.9602 146.139 92.2034 146.083 92.2097C145.933 92.2409 145.84 92.3843 145.871 92.534C145.902 92.6837 146.039 92.7773 146.189 92.7461C146.239 92.7336 147.187 92.559 148.029 93.4259C148.098 93.4945 148.185 93.5195 148.272 93.5008H148.266Z" fill="#2D002A"/>
<path opacity="0.2" d="M130.852 131.254C131.787 134.223 132.598 137.173 133.309 140.048C134.089 143.217 134.744 146.292 135.299 149.198C136.322 143.317 135.698 130.237 135.698 130.237L132.474 127.125C132.474 127.125 131.613 128.678 130.852 131.248V131.254Z" fill="black"/>
<path d="M146.083 152.76L143.189 153.084C142.216 153.184 141.243 153.252 140.282 153.333C138.355 153.471 136.447 153.558 134.638 153.502C133.733 153.477 132.854 153.402 132.056 153.277C131.257 153.165 130.521 152.978 130.06 152.753C129.829 152.647 129.817 152.585 129.823 152.597C129.823 152.604 129.823 152.579 129.823 152.573L129.798 152.479C129.779 152.404 129.748 152.286 129.723 152.161C129.673 151.905 129.629 151.568 129.598 151.207C129.492 149.728 129.586 147.882 129.798 146.055C130.016 144.215 130.297 142.325 130.652 140.435C131.338 136.668 132.212 132.782 133.116 129.077L124.708 126.807C124.116 128.871 123.673 130.842 123.224 132.876C122.775 134.897 122.419 136.942 122.089 139.013C121.789 141.084 121.521 143.179 121.396 145.344C121.29 147.52 121.209 149.716 121.59 152.229C121.69 152.859 121.821 153.521 122.033 154.232C122.139 154.593 122.263 154.955 122.426 155.348C122.507 155.541 122.594 155.735 122.7 155.947L122.862 156.259L123.08 156.627C123.692 157.6 124.521 158.336 125.313 158.847C126.112 159.352 126.885 159.652 127.609 159.876C129.056 160.3 130.322 160.4 131.526 160.438C132.729 160.456 133.864 160.369 134.968 160.244C139.372 159.689 143.307 158.498 147.243 156.907L146.07 152.753L146.083 152.76Z" fill="#87413C"/>
<path d="M125.875 122.597C121.372 125.765 119.881 142.125 119.881 142.125L133.864 143.822C133.864 143.822 135.567 136.556 135.723 129.433C135.892 121.68 131.332 118.755 125.875 122.597Z" fill="#4603A6"/>
<path d="M144.661 152.947L148.759 148.805L151.31 155.722C151.31 155.722 147.043 158.467 145.347 156.34L144.661 152.947Z" fill="#86413B"/>
<path d="M153.493 148.194L155.339 154.007L151.31 155.722L148.759 148.805L153.493 148.194Z" fill="#86413B"/>
<path d="M136.609 103.567L136.971 103.505C137.931 103.337 138.305 102.183 137.644 101.466C136.858 100.605 136.085 99.4136 135.885 97.9104C135.449 94.5923 137.251 94.1307 137.014 91.8604C137.014 91.8604 141.53 91.2679 144.393 89.297C144.393 89.297 147.206 85.2304 144.954 83.3093C143.058 81.6939 140.781 83.8894 140.781 83.8894C140.781 83.8894 139.808 80.9205 137.482 81.5629C135.068 82.2241 134.201 85.3925 134.201 85.3925C134.201 85.3925 131.956 82.8977 130.266 84.1763C128.575 85.4549 129.174 88.6795 129.174 88.6795C129.174 88.6795 125.669 88.7793 125.557 90.8126C125.444 92.8459 127.534 94.6546 127.534 94.6546C127.534 94.6546 125.438 96.6131 126.018 98.2535C126.598 99.8938 128.501 100.056 128.501 100.056C128.501 100.056 127.178 102.85 128.114 103.755C129.043 104.659 130.852 104.428 130.852 104.428C130.852 104.428 130.908 107.104 133.06 107.859C134.6 108.401 135.648 107.41 135.648 107.41C135.648 107.41 136.709 108.963 137.376 108.538C138.043 108.114 136.609 103.567 136.609 103.567Z" fill="#2D002A"/>
<path d="M131.476 106.536C132.704 104.89 136.559 99.95 138.842 99.5009C138.842 99.5009 137.869 98.7212 137.339 95.0413C137.339 95.0413 136.309 96.9936 134.993 98.3408C132.929 100.449 130.833 103.15 129.96 104.441C129.96 104.441 130.259 105.37 131.476 106.536Z" fill="#4603A6"/>
<path opacity="0.6" d="M131.476 106.536C132.704 104.89 136.559 99.95 138.842 99.5009C138.842 99.5009 137.869 98.7212 137.339 95.0413C137.339 95.0413 136.309 96.9936 134.993 98.3408C132.929 100.449 130.833 103.15 129.96 104.441C129.96 104.441 130.259 105.37 131.476 106.536Z" fill="white"/>
<path d="M132.424 104.041C133.309 105.289 134.688 106.006 135.935 106.193C137.806 106.468 138.524 104.721 137.813 103.075C137.176 101.59 135.43 99.6506 133.64 100.137C131.875 100.611 131.407 102.619 132.417 104.048L132.424 104.041Z" fill="#86413B"/>
<path d="M139.166 100.05C139.166 100.05 143.239 101.728 146.438 98.6651C146.438 98.6651 149.769 99.5632 150.78 97.7545L149.769 97.4302L139.64 99.6443L139.166 100.05Z" fill="#4603A6"/>
<path d="M149.245 91.0995L138.312 93.3823C137.919 93.4633 137.576 93.7004 137.357 94.0372L137.095 94.4363C136.877 94.7731 136.796 95.1785 136.883 95.5715L137.65 99.2451C137.819 100.062 138.623 100.586 139.44 100.418L150.374 98.1349C150.767 98.0539 151.11 97.8168 151.328 97.48L151.59 97.0809C151.809 96.7441 151.89 96.3387 151.802 95.9457L151.035 92.2721C150.867 91.455 150.062 90.9311 149.245 91.0995Z" fill="#4603A6"/>
<path opacity="0.3" d="M149.245 91.0995L138.312 93.3823C137.919 93.4633 137.576 93.7004 137.357 94.0372L137.095 94.4363C136.877 94.7731 136.796 95.1785 136.883 95.5715L137.65 99.2451C137.819 100.062 138.623 100.586 139.44 100.418L150.374 98.1349C150.767 98.0539 151.11 97.8168 151.328 97.48L151.59 97.0809C151.809 96.7441 151.89 96.3387 151.802 95.9457L151.035 92.2721C150.867 91.455 150.062 90.9311 149.245 91.0995Z" fill="white"/>
<path opacity="0.2" d="M149.041 91.4027L139.798 93.3321C138.972 93.5046 138.442 94.3141 138.614 95.1402L139.193 97.9121C139.365 98.7383 140.175 99.2682 141.001 99.0958L150.245 97.1663C151.071 96.9939 151.601 96.1844 151.428 95.3582L150.85 92.5863C150.677 91.7602 149.868 91.2303 149.041 91.4027Z" fill="white"/>
</g>
<defs>
<clipPath id="clip0_38_5917">
<rect width="311.856" height="230" fill="white" transform="translate(0.0720215 0.00012207)"/>
</clipPath>
</defs>
</svg>
