<svg width="416" height="294" viewBox="0 0 416 294" fill="none" xmlns="http://www.w3.org/2000/svg">
<g clip-path="url(#clip0_85_3938)">
<path d="M332.68 246.27H312.023V246.426H332.68V246.27Z" fill="#ECECEC"/>
<path d="M258.658 247.967H253.238V248.123H258.658V247.967Z" fill="#ECECEC"/>
<path d="M311.399 240.482H299.43V240.638H311.399V240.482Z" fill="#ECECEC"/>
<path d="M111.73 241.53H84.792V241.686H111.73V241.53Z" fill="#ECECEC"/>
<path d="M121.235 241.53H117.287V241.686H121.235V241.53Z" fill="#ECECEC"/>
<path d="M192.501 244.162H134.071V244.318H192.501V244.162Z" fill="#ECECEC"/>
<path d="M199.898 208.417H79.4654C77.5008 208.417 75.9041 206.82 75.9041 204.856V35.5615C75.9041 33.5968 77.5008 32.0001 79.4654 32.0001H199.904C201.869 32.0001 203.466 33.5968 203.466 35.5615V204.856C203.466 206.82 201.869 208.417 199.904 208.417H199.898ZM79.4654 32.1561C77.5881 32.1561 76.06 33.6841 76.06 35.5615V204.856C76.06 206.733 77.5881 208.261 79.4654 208.261H199.904C201.782 208.261 203.31 206.733 203.31 204.856V35.5615C203.31 33.6841 201.782 32.1561 199.904 32.1561H79.4654Z" fill="#ECECEC"/>
<path d="M334.807 208.417H214.368C212.403 208.417 210.807 206.82 210.807 204.856V35.5615C210.807 33.5968 212.403 32.0001 214.368 32.0001H334.807C336.771 32.0001 338.368 33.5968 338.368 35.5615V204.856C338.368 206.82 336.771 208.417 334.807 208.417ZM214.368 32.1561C212.491 32.1561 210.963 33.6841 210.963 35.5615V204.856C210.963 206.733 212.491 208.261 214.368 208.261H334.807C336.684 208.261 338.212 206.733 338.212 204.856V35.5615C338.212 33.6841 336.684 32.1561 334.807 32.1561H214.368Z" fill="#ECECEC"/>
<path d="M363.928 236.235H52.072V236.391H363.928V236.235Z" fill="#ECECEC"/>
<path d="M310.2 152.185C316.851 150.615 320.971 143.95 319.401 137.299C317.831 130.648 311.166 126.528 304.515 128.098C297.863 129.668 293.744 136.333 295.314 142.984C296.883 149.636 303.548 153.755 310.2 152.185Z" fill="#E7E4ED"/>
<path d="M312.125 152.185C318.777 150.615 322.896 143.951 321.326 137.299C319.756 130.648 313.092 126.528 306.44 128.098C299.789 129.668 295.669 136.333 297.239 142.984C298.809 149.636 305.474 153.755 312.125 152.185Z" fill="#EEE4EE"/>
<path d="M312.927 148.919C317.781 146.909 320.085 141.345 318.075 136.492C316.065 131.639 310.501 129.334 305.647 131.344C300.794 133.355 298.49 138.919 300.5 143.772C302.51 148.625 308.074 150.93 312.927 148.919Z" fill="#F5F5F5"/>
<path d="M317.349 140.133C317.349 135.125 313.476 131.027 308.555 130.653C308.792 130.634 309.035 130.615 309.278 130.615C314.53 130.615 318.79 134.875 318.79 140.127C318.79 145.378 314.53 149.638 309.278 149.638C309.035 149.638 308.798 149.62 308.555 149.601C313.47 149.233 317.349 145.135 317.349 140.121V140.133Z" fill="#E7E4ED"/>
<path d="M309.285 134.077L307.925 138.262H303.528L307.083 140.844L305.723 145.029L309.285 142.441L312.84 145.029L311.48 140.844L315.035 138.262H310.638L309.285 134.077Z" fill="#E7E7E7"/>
<path d="M311.279 193.691L274.777 201.45C272.466 201.941 270.991 204.213 271.482 206.524L272.847 212.948C273.339 215.26 275.611 216.735 277.922 216.244L314.423 208.485C316.735 207.994 318.21 205.722 317.719 203.411L316.353 196.987C315.862 194.675 313.59 193.2 311.279 193.691Z" fill="#ECECEC"/>
<path d="M295.089 200.583C293.261 199.398 290.816 199.916 289.631 201.743C288.446 203.571 288.964 206.016 290.791 207.201C292.407 208.249 294.503 207.962 295.787 206.621C295.856 206.808 295.968 206.982 296.149 207.101L299.305 209.153C299.742 209.434 300.322 209.315 300.609 208.879C300.889 208.442 300.771 207.862 300.334 207.575L297.178 205.523C296.997 205.404 296.792 205.373 296.592 205.392C297.297 203.671 296.71 201.637 295.089 200.589V200.583ZM295.295 205.423C294.453 206.721 292.712 207.089 291.415 206.247C290.118 205.405 289.75 203.664 290.592 202.367C291.434 201.07 293.174 200.695 294.471 201.544C295.769 202.386 296.137 204.126 295.295 205.423Z" fill="#FAFAFA"/>
<path d="M129.3 198.824C123.724 200.733 120.755 206.802 122.67 212.378C124.154 216.7 132.943 222.55 136.816 224.964C137.764 225.557 139.018 225.126 139.404 224.078C140.982 219.8 144.332 209.783 142.853 205.461C140.945 199.885 134.876 196.916 129.3 198.831V198.824ZM134.408 213.719C131.757 214.629 128.863 213.213 127.953 210.563C127.042 207.912 128.458 205.018 131.109 204.107C133.76 203.197 136.654 204.612 137.564 207.263C138.475 209.914 137.059 212.808 134.408 213.719Z" fill="#ECECEC"/>
<path d="M127.435 83.4626H122.352C121.154 83.4626 120.038 84.0614 119.383 85.0593L118.641 86.182C118.036 87.0988 117.013 87.6477 115.915 87.6477H102.811C101.638 87.6477 100.684 88.602 100.684 89.7746V110.239H130.236V87.6477L129.974 85.683C129.805 84.4106 128.72 83.4626 127.441 83.4626H127.435Z" fill="#E7E4ED"/>
<path d="M128.015 90.2299H102.898V107.407H128.015V90.2299Z" fill="#FAFAFA"/>
<path d="M130.229 110.239H100.678L96.3431 94.4524C96.0126 93.2549 96.9169 92.076 98.1519 92.076H122.364C124.061 92.076 125.545 93.2112 125.994 94.8453L130.223 110.239H130.229Z" fill="#EEE4EE"/>
<path d="M202.792 51.2229C204.382 48.2291 203.247 44.5118 200.253 42.9151C197.26 41.3246 193.542 42.4598 191.946 45.4536C190.555 48.0669 191.247 51.2354 193.436 53.0566L193.156 56.2563L195.65 54.2355C198.382 55.0338 201.395 53.8363 202.786 51.2229H202.792Z" fill="#E7E4ED"/>
<path d="M200.977 45.859H194.091C193.954 45.859 193.848 45.965 193.848 46.1022V50.9797C193.848 51.1169 193.954 51.2229 194.091 51.2229H200.977C201.114 51.2229 201.22 51.1169 201.22 50.9797V46.1022C201.22 45.965 201.114 45.859 200.977 45.859ZM200.865 50.6117L198.794 48.541L200.865 46.4702V50.6117ZM200.609 46.2145L198.538 48.2852L197.534 49.2894L194.459 46.2145H200.609ZM194.21 46.4702L196.28 48.541L194.21 50.6117V46.4702ZM194.459 50.8674L196.53 48.7967L197.534 49.8009L198.538 48.7967L200.609 50.8674H194.459Z" fill="#FAFAFA"/>
<path d="M303.478 108.031L293.729 100.708L303.478 93.3858L304.289 94.4649L295.975 100.708L304.289 106.952L303.478 108.031Z" fill="#E7E4ED"/>
<path d="M294.852 102.617C295.906 102.617 296.76 101.762 296.76 100.708C296.76 99.6542 295.906 98.7997 294.852 98.7997C293.798 98.7997 292.943 99.6542 292.943 100.708C292.943 101.762 293.798 102.617 294.852 102.617Z" fill="#ECECEC"/>
<path d="M305.91 93.9222C305.91 94.9763 305.056 95.8308 304.002 95.8308C302.948 95.8308 302.093 94.9763 302.093 93.9222C302.093 92.8682 302.948 92.0137 304.002 92.0137C305.056 92.0137 305.91 92.8682 305.91 93.9222Z" fill="#ECECEC"/>
<path d="M304.002 109.54C305.056 109.54 305.91 108.685 305.91 107.631C305.91 106.577 305.056 105.723 304.002 105.723C302.948 105.723 302.093 106.577 302.093 107.631C302.093 108.685 302.948 109.54 304.002 109.54Z" fill="#ECECEC"/>
<path d="M204.994 262C271.782 262 325.925 258.839 325.925 254.94C325.925 251.04 271.782 247.879 204.994 247.879C138.205 247.879 84.0623 251.04 84.0623 254.94C84.0623 258.839 138.205 262 204.994 262Z" fill="#E7E4ED"/>
<path d="M164.278 80.8056H179.047L193.941 251.079H179.172C172.324 251.079 166.286 245.528 165.687 238.68L152.957 93.205C152.359 86.3566 157.423 80.8056 164.272 80.8056H164.278Z" fill="#2D002A"/>
<path d="M155.128 97.8828C155.072 97.2279 154.492 96.6915 153.837 96.6915C153.182 96.6915 152.695 97.2217 152.752 97.8828L153.75 109.29C153.806 109.945 154.386 110.482 155.041 110.482C155.696 110.482 156.182 109.952 156.126 109.29L155.128 97.8828Z" fill="#4603A6"/>
<path opacity="0.3" d="M155.128 97.8828C155.072 97.2279 154.492 96.6915 153.837 96.6915C153.182 96.6915 152.695 97.2217 152.752 97.8828L153.75 109.29C153.806 109.945 154.386 110.482 155.041 110.482C155.696 110.482 156.182 109.952 156.126 109.29L155.128 97.8828Z" fill="white"/>
<path d="M182.197 251.079H243.065C249.913 251.079 254.978 245.528 254.379 238.68L241.649 93.205C241.05 86.3566 235.013 80.8056 228.165 80.8056H167.297C160.448 80.8056 155.384 86.3566 155.982 93.205L168.712 238.68C169.311 245.528 175.349 251.079 182.197 251.079Z" fill="#4603A6"/>
<path d="M167.546 83.6497H183.363C184.399 83.6497 185.34 84.4169 185.565 85.446L185.671 85.9387C186.214 88.446 188.509 90.3297 191.041 90.3297H206.079C208.611 90.3297 210.582 88.446 210.682 85.9387L210.701 85.446C210.744 84.4169 211.549 83.6497 212.584 83.6497H228.408C233.684 83.6497 238.337 87.9284 238.799 93.205L251.529 238.68C251.99 243.956 248.086 248.235 242.809 248.235H181.941C176.665 248.235 172.012 243.956 171.55 238.68L158.82 93.205C158.359 87.9284 162.263 83.6497 167.54 83.6497H167.546Z" fill="#4603A6"/>
<path opacity="0.9" d="M167.546 83.6497H183.363C184.399 83.6497 185.34 84.4169 185.565 85.446L185.671 85.9387C186.214 88.446 188.509 90.3297 191.041 90.3297H206.079C208.611 90.3297 210.582 88.446 210.682 85.9387L210.701 85.446C210.744 84.4169 211.549 83.6497 212.584 83.6497H228.408C233.684 83.6497 238.337 87.9284 238.799 93.205L251.529 238.68C251.99 243.956 248.086 248.235 242.809 248.235H181.941C176.665 248.235 172.012 243.956 171.55 238.68L158.82 93.205C158.359 87.9284 162.263 83.6497 167.54 83.6497H167.546Z" fill="white"/>
<g opacity="0.2">
<path d="M201.806 85.2651C201.863 85.9325 202.455 86.4751 203.123 86.4751C203.79 86.4751 204.283 85.9325 204.226 85.2651C204.17 84.5977 203.578 84.0551 202.91 84.0551C202.243 84.0551 201.75 84.5977 201.806 85.2651Z" fill="black"/>
<path d="M193.124 84.0551H197.272C197.939 84.0551 198.526 84.5977 198.588 85.2651C198.644 85.9325 198.152 86.4751 197.484 86.4751H193.337C192.669 86.4751 192.083 85.9325 192.02 85.2651C191.964 84.5977 192.457 84.0551 193.124 84.0551Z" fill="black"/>
</g>
<g opacity="0.2">
<path d="M231.926 90.3109H230.647L230.535 89.0323H231.813L231.926 90.3109Z" fill="black"/>
<path d="M229.256 89.0323L229.368 90.3109H228.084L227.977 89.0323L227.865 87.7537H229.144L229.256 89.0323Z" fill="black"/>
<path d="M226.468 86.4751L226.58 87.7537L226.693 89.0323L226.805 90.3109H225.526L225.414 89.0323L225.302 87.7537L225.189 86.4751H226.468Z" fill="black"/>
</g>
<path opacity="0.2" d="M165.8 86.5562L166.13 90.3109H171.762L171.681 89.3754H172.305L172.143 87.498H171.519L171.438 86.5624H165.806L165.8 86.5562ZM169.012 87.498H170.889L171.051 89.3754H169.174L169.012 87.498Z" fill="black"/>
<g opacity="0.2">
<path d="M193.611 244.037H230.198C231.308 244.037 231.158 242.316 230.048 242.316H193.461C192.351 242.316 192.501 244.037 193.611 244.037Z" fill="black"/>
</g>
<path d="M273.789 145.765H234.701C232.237 145.765 230.41 143.769 230.628 141.299L232.736 117.218C232.955 114.754 235.125 112.752 237.589 112.752H276.677C279.141 112.752 280.968 114.748 280.75 117.218L278.642 141.299C278.423 143.763 276.253 145.765 273.789 145.765Z" fill="#4603A6"/>
<path opacity="0.4" d="M273.789 145.765H234.701C232.237 145.765 230.41 143.769 230.628 141.299L232.736 117.218C232.955 114.754 235.125 112.752 237.589 112.752H276.677C279.141 112.752 280.968 114.748 280.75 117.218L278.642 141.299C278.423 143.763 276.253 145.765 273.789 145.765Z" fill="white"/>
<path opacity="0.8" d="M273.639 143.988H235.175C233.566 143.988 232.375 142.684 232.512 141.075L234.358 119.95C234.502 118.341 235.917 117.037 237.527 117.037H275.991C277.6 117.037 278.791 118.341 278.654 119.95L276.808 141.075C276.664 142.684 275.249 143.988 273.639 143.988Z" fill="white"/>
<path opacity="0.8" d="M236.946 114.923C236.909 115.378 236.504 115.746 236.048 115.746C235.593 115.746 235.256 115.378 235.294 114.923C235.331 114.467 235.736 114.099 236.192 114.099C236.647 114.099 236.984 114.467 236.946 114.923Z" fill="white"/>
<path opacity="0.8" d="M239.516 114.923C239.479 115.378 239.073 115.746 238.618 115.746C238.163 115.746 237.826 115.378 237.863 114.923C237.901 114.467 238.306 114.099 238.761 114.099C239.217 114.099 239.554 114.467 239.516 114.923Z" fill="white"/>
<path opacity="0.8" d="M242.086 114.923C242.048 115.378 241.643 115.746 241.188 115.746C240.732 115.746 240.396 115.378 240.433 114.923C240.47 114.467 240.876 114.099 241.331 114.099C241.786 114.099 242.123 114.467 242.086 114.923Z" fill="white"/>
<path opacity="0.1" d="M252.577 138.012H238.737L240.053 123.006H253.887L252.577 138.012Z" fill="black"/>
<path d="M272.342 124.677H257.672C257.211 124.677 256.874 124.303 256.912 123.842C256.949 123.38 257.361 123.006 257.816 123.006H272.486C272.947 123.006 273.284 123.38 273.247 123.842C273.209 124.303 272.797 124.677 272.342 124.677Z" fill="#4603A6"/>
<path d="M269.548 128.008H257.379C256.918 128.008 256.581 127.634 256.618 127.172C256.656 126.711 257.067 126.337 257.523 126.337H269.691C270.153 126.337 270.49 126.711 270.452 127.172C270.415 127.634 270.003 128.008 269.548 128.008Z" fill="#4603A6"/>
<path d="M270.259 131.345H257.086C256.625 131.345 256.288 130.971 256.325 130.509C256.363 130.048 256.774 129.673 257.23 129.673H270.402C270.864 129.673 271.201 130.048 271.163 130.509C271.126 130.971 270.714 131.345 270.259 131.345Z" fill="#4603A6"/>
<path d="M268.463 134.676H256.793C256.331 134.676 255.995 134.301 256.032 133.84C256.069 133.378 256.481 133.004 256.936 133.004H268.606C269.068 133.004 269.404 133.378 269.367 133.84C269.33 134.301 268.918 134.676 268.463 134.676Z" fill="#4603A6"/>
<path d="M270.172 138.012H256.5C256.038 138.012 255.701 137.638 255.739 137.177C255.776 136.715 256.188 136.341 256.643 136.341H270.315C270.777 136.341 271.113 136.715 271.076 137.177C271.039 137.638 270.627 138.012 270.172 138.012Z" fill="#4603A6"/>
<g opacity="0.5">
<path d="M272.342 124.677H257.672C257.211 124.677 256.874 124.303 256.912 123.842C256.949 123.38 257.361 123.006 257.816 123.006H272.486C272.947 123.006 273.284 123.38 273.247 123.842C273.209 124.303 272.797 124.677 272.342 124.677Z" fill="white"/>
<path d="M269.548 128.008H257.379C256.918 128.008 256.581 127.634 256.618 127.172C256.656 126.711 257.067 126.337 257.523 126.337H269.691C270.153 126.337 270.49 126.711 270.452 127.172C270.415 127.634 270.003 128.008 269.548 128.008Z" fill="white"/>
<path d="M270.259 131.345H257.086C256.625 131.345 256.288 130.971 256.325 130.509C256.363 130.048 256.774 129.673 257.23 129.673H270.402C270.864 129.673 271.201 130.048 271.163 130.509C271.126 130.971 270.714 131.345 270.259 131.345Z" fill="white"/>
<path d="M268.463 134.676H256.793C256.331 134.676 255.995 134.301 256.032 133.84C256.069 133.378 256.481 133.004 256.936 133.004H268.606C269.068 133.004 269.404 133.378 269.367 133.84C269.33 134.301 268.918 134.676 268.463 134.676Z" fill="white"/>
<path d="M270.172 138.012H256.5C256.038 138.012 255.701 137.638 255.739 137.177C255.776 136.715 256.188 136.341 256.643 136.341H270.315C270.777 136.341 271.113 136.715 271.076 137.177C271.039 137.638 270.627 138.012 270.172 138.012Z" fill="white"/>
</g>
<path d="M249.321 126.836C248.323 125.838 246.701 125.838 245.703 126.836L244.4 128.139L243.096 126.836C242.098 125.838 240.477 125.838 239.479 126.836C238.481 127.833 238.481 129.455 239.479 130.453L244.394 135.368L249.309 130.453C250.306 129.455 250.306 127.833 249.309 126.836H249.321Z" fill="#4603A6"/>
<path d="M243.364 110.706H223.075C221.796 110.706 220.848 109.671 220.961 108.386L222.052 95.8869C222.164 94.6083 223.293 93.5667 224.572 93.5667H244.861C246.14 93.5667 247.088 94.6021 246.976 95.8869L245.884 108.386C245.772 109.665 244.643 110.706 243.364 110.706Z" fill="#4603A6"/>
<path opacity="0.4" d="M243.364 110.706H223.075C221.796 110.706 220.848 109.671 220.961 108.386L222.052 95.8869C222.164 94.6083 223.293 93.5667 224.572 93.5667H244.861C246.14 93.5667 247.088 94.6021 246.976 95.8869L245.884 108.386C245.772 109.665 244.643 110.706 243.364 110.706Z" fill="white"/>
<path opacity="0.8" d="M243.283 109.789H223.318C222.482 109.789 221.865 109.11 221.94 108.274L222.9 97.309C222.975 96.4732 223.711 95.7934 224.547 95.7934H244.512C245.348 95.7934 245.965 96.4732 245.89 97.309L244.93 108.274C244.855 109.11 244.119 109.789 243.283 109.789Z" fill="white"/>
<path opacity="0.8" d="M224.241 94.7019C224.223 94.9389 224.011 95.1322 223.774 95.1322C223.537 95.1322 223.362 94.9389 223.381 94.7019C223.399 94.4649 223.611 94.2715 223.848 94.2715C224.085 94.2715 224.26 94.4649 224.241 94.7019Z" fill="white"/>
<path opacity="0.8" d="M225.57 94.7019C225.551 94.9389 225.339 95.1322 225.102 95.1322C224.865 95.1322 224.691 94.9389 224.709 94.7019C224.728 94.4649 224.94 94.2715 225.177 94.2715C225.414 94.2715 225.589 94.4649 225.57 94.7019Z" fill="white"/>
<path opacity="0.8" d="M226.905 94.7019C226.886 94.9389 226.674 95.1322 226.437 95.1322C226.2 95.1322 226.025 94.9389 226.044 94.7019C226.063 94.4649 226.275 94.2715 226.512 94.2715C226.749 94.2715 226.923 94.4649 226.905 94.7019Z" fill="white"/>
<path d="M289.454 184.17C296.074 181.428 299.217 173.839 296.475 167.22C293.734 160.6 286.145 157.457 279.525 160.199C272.906 162.941 269.762 170.529 272.504 177.149C275.246 183.769 282.835 186.912 289.454 184.17Z" fill="#4603A6"/>
<path opacity="0.6" d="M289.454 184.17C296.074 181.428 299.217 173.839 296.475 167.22C293.734 160.6 286.145 157.457 279.525 160.199C272.906 162.941 269.762 170.529 272.504 177.149C275.246 183.769 282.835 186.912 289.454 184.17Z" fill="white"/>
<path d="M290.511 169.142C290.43 168.337 290.118 167.626 289.519 167.052C288.889 166.454 288.122 166.186 287.274 166.142C285.833 166.061 282.421 166.017 281.224 166.21C279.852 166.435 278.953 167.233 278.579 168.587C278.286 169.628 278.348 174.425 278.517 175.454C278.748 176.863 279.583 177.762 280.974 178.123C281.941 178.373 286.681 178.342 287.748 178.167C289.157 177.942 290.062 177.113 290.43 175.722C290.71 174.655 290.611 170.109 290.517 169.142H290.511ZM289.382 175.254C289.22 176.321 288.509 176.982 287.436 177.1C286.45 177.206 282.041 177.269 281.124 177.013C280.251 176.77 279.745 176.165 279.602 175.285C279.465 174.443 279.427 170.24 279.602 169.111C279.764 168.05 280.475 167.389 281.542 167.271C282.627 167.152 286.525 167.134 287.567 167.296C288.633 167.458 289.295 168.169 289.413 169.248C289.525 170.252 289.556 174.175 289.388 175.254H289.382ZM284.492 169.048C282.758 169.048 281.355 170.452 281.355 172.186C281.355 173.913 282.758 175.317 284.486 175.317C286.22 175.317 287.629 173.92 287.629 172.186C287.629 170.452 286.226 169.048 284.492 169.048ZM284.473 174.219C283.369 174.219 282.465 173.302 282.465 172.179C282.465 171.063 283.375 170.159 284.498 170.159C285.621 170.159 286.519 171.069 286.519 172.192C286.519 173.315 285.608 174.213 284.467 174.213L284.473 174.219ZM288.484 168.936C288.484 169.341 288.159 169.666 287.748 169.666C287.336 169.666 287.018 169.341 287.012 168.936C287.012 168.524 287.336 168.194 287.754 168.2C288.159 168.2 288.484 168.531 288.484 168.936Z" fill="#4603A6"/>
<path d="M285.465 64.9196L271.725 61.7138L266.068 85.9824L283.968 90.155L288.658 70.059L285.465 64.9196Z" fill="#4603A6"/>
<path opacity="0.5" d="M285.465 64.9196L271.725 61.7138L266.068 85.9824L283.968 90.155L288.658 70.059L285.465 64.9196Z" fill="white"/>
<path opacity="0.4" d="M285.465 64.9196L284.492 69.086L288.658 70.059L285.465 64.9196Z" fill="white"/>
<path d="M284.068 73.1402L273.502 70.6765C273.215 70.6079 273.035 70.321 273.103 70.0341C273.172 69.7472 273.459 69.5663 273.746 69.6349L284.311 72.0986C284.598 72.1672 284.773 72.4541 284.71 72.741C284.642 73.0279 284.355 73.2088 284.068 73.1402Z" fill="#4603A6"/>
<path d="M281.617 74.7556L273.016 72.7472C272.729 72.6786 272.554 72.3917 272.617 72.1048C272.685 71.8179 272.972 71.637 273.259 71.7056L281.86 73.714C282.147 73.7826 282.328 74.0695 282.259 74.3564C282.191 74.6433 281.904 74.8179 281.617 74.7556Z" fill="#4603A6"/>
<path d="M281.324 76.8762L272.536 74.8242C272.249 74.7556 272.074 74.4687 272.136 74.1818C272.205 73.8949 272.492 73.714 272.779 73.7826L281.567 75.8346C281.854 75.9032 282.035 76.1901 281.966 76.477C281.897 76.7639 281.611 76.9386 281.324 76.8762Z" fill="#4603A6"/>
<path d="M282.615 79.3648L272.049 76.9011C271.762 76.8325 271.581 76.5456 271.65 76.2587C271.719 75.9718 272.005 75.7909 272.292 75.8595L282.858 78.3232C283.145 78.3918 283.326 78.6787 283.257 78.9656C283.189 79.2525 282.902 79.4272 282.615 79.3648Z" fill="#4603A6"/>
<path d="M280.17 80.9865L271.569 78.9781C271.282 78.9095 271.101 78.6226 271.17 78.3357C271.238 78.0488 271.525 77.8741 271.812 77.9365L280.413 79.9449C280.7 80.0135 280.881 80.3004 280.812 80.5873C280.744 80.8742 280.457 81.0551 280.17 80.9865Z" fill="#4603A6"/>
<path d="M279.87 83.1008L271.082 81.0488C270.795 80.9802 270.621 80.6933 270.683 80.4064C270.752 80.1195 271.039 79.9449 271.326 80.0072L280.114 82.0592C280.401 82.1279 280.581 82.4148 280.513 82.7017C280.444 82.9886 280.157 83.1695 279.87 83.1008Z" fill="#4603A6"/>
<g style="mix-blend-mode:multiply">
<path fill-rule="evenodd" clip-rule="evenodd" d="M235.025 65.8053C232.743 65.7242 231.314 64.0901 230.94 62.7554C231.576 62.8739 232.2 62.8489 232.824 62.6992C232.842 62.6992 232.855 62.6867 232.886 62.668C231.651 62.3811 230.697 61.72 230.036 60.6534C229.599 59.9424 229.387 59.169 229.393 58.3145C230.011 58.6451 230.653 58.826 231.346 58.8509C230.416 58.1835 229.792 57.3041 229.537 56.1877C229.281 55.0712 229.449 54.0047 230.005 53.0067C232.381 55.8072 235.393 57.3478 239.067 57.5973C239.042 57.4226 239.017 57.2729 238.998 57.117C238.88 56.0816 239.08 55.1211 239.641 54.2417C240.339 53.144 241.337 52.4641 242.622 52.2583C244.1 52.015 245.392 52.4329 246.464 53.4808C246.539 53.5494 246.595 53.5743 246.701 53.5494C247.606 53.3498 248.454 53.0254 249.252 52.5639C249.271 52.5514 249.29 52.539 249.308 52.5327C249.308 52.5327 249.321 52.5327 249.34 52.5327C248.99 53.5556 248.36 54.3415 247.462 54.9215C248.31 54.828 249.128 54.6034 249.907 54.2604C249.913 54.2666 249.92 54.2729 249.926 54.2791C249.757 54.4974 249.595 54.7282 249.421 54.9402C248.953 55.5141 248.423 56.0193 247.824 56.4559C247.774 56.4933 247.749 56.5307 247.749 56.5931C247.774 57.2417 247.749 57.8966 247.668 58.5391C247.5 59.905 247.119 61.2085 246.539 62.4497C245.94 63.7346 245.154 64.8947 244.163 65.9113C242.491 67.639 240.47 68.7555 238.125 69.2731C237.321 69.454 236.504 69.5413 235.68 69.5663C233.148 69.6411 230.803 69.0112 228.651 67.6827C228.626 67.664 228.595 67.6453 228.545 67.6141C230.079 67.7825 231.533 67.5829 232.936 67.0091C233.678 66.7034 234.371 66.3043 235.025 65.7928V65.8053Z" fill="#4603A6"/>
</g>
<path d="M145.13 56.749C143.265 50.6429 136.797 47.2062 130.691 49.0711C124.585 50.936 121.148 57.4039 123.013 63.51C124.641 68.8428 129.78 72.136 135.119 71.6495L139.011 76.2837L139.641 70.2648C144.344 67.6827 146.758 62.0818 145.13 56.749Z" fill="#4603A6"/>
<path d="M137.383 57.4975L136.859 60.5038L139.061 60.036L138.918 62.0131L136.491 62.5308L135.961 65.4997L133.978 65.9238L134.508 62.9549L132.051 63.4789L131.52 66.4477L129.556 66.8656L130.086 63.8967L127.878 64.3645L128.003 62.3936L130.448 61.8759L130.99 58.8696L128.789 59.3374L128.932 57.3602L131.358 56.8426L131.888 53.8737L133.853 53.4558L133.323 56.4247L135.787 55.9008L136.317 52.9319L138.281 52.514L137.751 55.4829L139.972 55.0089L139.847 56.9798L137.39 57.5037L137.383 57.4975ZM135.419 57.9154L132.955 58.4393L132.412 61.4456L134.876 60.9216L135.419 57.9154Z" fill="white"/>
<path d="M142.014 164.59L108.368 157.439L103.666 179.56L137.312 186.712L142.014 164.59Z" fill="#4603A6"/>
<path opacity="0.6" d="M142.014 164.59L108.368 157.439L103.666 179.56L137.312 186.712L142.014 164.59Z" fill="white"/>
<path d="M117.318 171.942L105.119 179.864L125.24 184.142L117.318 171.942Z" fill="#4603A6"/>
<path opacity="0.3" d="M117.318 171.942L105.119 179.864L125.24 184.142L117.318 171.942Z" fill="white"/>
<path d="M136.972 186.637L130.61 167.483L117.007 182.39L136.972 186.637Z" fill="#4603A6"/>
<path opacity="0.8" d="M123.05 167.957C122.813 169.073 121.716 169.784 120.605 169.547C119.489 169.31 118.778 168.213 119.015 167.102C119.252 165.986 120.35 165.275 121.46 165.512C122.576 165.749 123.287 166.847 123.05 167.957Z" fill="white"/>
<path d="M137.795 187.448L102.929 180.038L107.888 156.699L142.753 164.109L137.795 187.448ZM104.408 179.078L136.834 185.97L141.275 165.069L108.848 158.177L104.408 179.078Z" fill="#4603A6"/>
<path d="M119.883 134.2C120.889 128.002 116.679 122.161 110.481 121.155C104.283 120.149 98.442 124.358 97.4358 130.557C96.4297 136.755 100.639 142.596 106.837 143.602C113.036 144.608 118.876 140.399 119.883 134.2Z" fill="#4603A6"/>
<path opacity="0.6" d="M119.883 134.2C120.889 128.002 116.679 122.161 110.481 121.155C104.283 120.149 98.442 124.358 97.4358 130.557C96.4297 136.755 100.639 142.596 106.837 143.602C113.036 144.608 118.876 140.399 119.883 134.2Z" fill="white"/>
<path fill-rule="evenodd" clip-rule="evenodd" d="M110.57 128.289C110.95 128.276 111.337 128.289 111.718 128.289H111.873V126.299C111.668 126.28 111.456 126.249 111.244 126.237C110.851 126.218 110.458 126.199 110.065 126.212C109.466 126.224 108.898 126.368 108.406 126.723C107.838 127.129 107.526 127.702 107.408 128.382C107.358 128.663 107.345 128.95 107.339 129.237C107.327 129.686 107.339 130.129 107.339 130.578V130.746H105.437V132.967H107.327V138.549H109.641V132.973H111.524C111.624 132.231 111.718 131.501 111.811 130.74C111.661 130.74 111.524 130.74 111.387 130.74C110.851 130.74 109.622 130.74 109.622 130.74C109.622 130.74 109.622 129.636 109.641 129.162C109.659 128.507 110.046 128.307 110.57 128.289Z" fill="#4603A6"/>
<path d="M195.694 120.592C195.694 120.592 197.752 119.17 199.175 120.81C200.597 122.457 199.698 126.124 199.698 126.124L196.387 122.108L195.688 120.592H195.694Z" fill="#2D002A"/>
<path d="M240.689 142.721L236.547 142.503C235.743 145.927 234.926 149.47 233.809 152.576C233.528 153.35 233.217 154.085 232.898 154.747C232.58 155.395 232.212 155.982 231.919 156.275C231.782 156.424 231.757 156.343 231.707 156.343C231.495 156.375 230.896 156.393 230.248 156.312C228.913 156.169 227.31 155.776 225.738 155.283C224.148 154.79 222.526 154.21 220.917 153.568C219.295 152.944 217.686 152.246 216.071 151.553C214.468 150.861 212.827 150.087 211.306 149.376L207.52 156.855C209.266 157.772 210.944 158.526 212.684 159.293C214.412 160.061 216.177 160.747 217.973 161.408C219.782 162.044 221.616 162.643 223.543 163.136C225.483 163.61 227.46 164.034 229.774 164.133C230.94 164.158 232.187 164.146 233.747 163.697C234.14 163.578 234.545 163.435 234.969 163.223C235.175 163.123 235.393 163.005 235.624 162.861C235.842 162.724 236.042 162.574 236.229 162.431C236.965 161.832 237.477 161.208 237.869 160.622C238.649 159.437 239.067 158.358 239.423 157.316C239.772 156.275 239.996 155.264 240.19 154.279C240.57 152.302 240.739 150.374 240.813 148.46C240.888 146.539 240.857 144.674 240.695 142.728L240.689 142.721Z" fill="#87413C"/>
<path d="M202.15 156.811C204.563 161.763 222.227 164.957 222.227 164.957L225.514 152.239C225.514 152.239 218.21 149.021 211.237 147.873C204.071 146.701 199.505 151.372 202.156 156.805L202.15 156.811Z" fill="#4603A6"/>
<path d="M236.529 142.715L237.626 135.567L242.859 139.416C242.859 139.416 241.574 145.884 238.986 145.11L236.529 142.715Z" fill="#86413B"/>
<path d="M241.512 131.264L244.886 136.098L242.853 139.41L237.62 135.567L241.512 131.264Z" fill="#86413B"/>
<path opacity="0.2" d="M213.451 153.562L210.925 154.466L210.401 156.325L210.751 159.337L213.071 162.736C216.208 163.678 219.202 164.346 220.867 164.695C218.142 159.262 213.451 153.568 213.451 153.568V153.562Z" fill="black"/>
<path d="M189.688 195.425C189.688 195.425 189.445 215.802 207.925 211.579C225.539 207.556 219.982 187.828 219.982 187.828L189.694 195.425H189.688Z" fill="#2D002A"/>
<path d="M207.919 209.253C201.856 204.307 183.887 192.331 177.65 201.294C170.683 211.311 186.607 235.773 213.096 226.604C217.374 225.126 221.117 220.024 207.913 209.253H207.919Z" fill="#2D002A"/>
<path d="M230.41 195.425C256.188 190.828 257.654 198.625 253.219 205.236C248.785 211.847 234.077 227.403 207.919 225.744C198.195 225.126 198.039 201.194 230.41 195.419V195.425Z" fill="#2D002A"/>
<path opacity="0.2" d="M211.686 211.579C211.686 211.579 213.065 208.467 214.88 206.29C216.688 204.12 216.913 210.382 224.871 206.29C232.83 202.199 238.406 197.826 244.568 196.199C250.724 194.571 239.828 205.691 239.828 205.691L220.512 216.313L211.692 211.579H211.686Z" fill="black"/>
<path d="M212.173 225.438L202.63 229.099L203.428 224.272L211.306 219.12L212.173 225.438Z" fill="#86413B"/>
<path d="M258.864 199.847C258.084 194.365 249.146 192.176 241.662 198.057C235.506 202.891 213.507 217.174 206.403 221.839L207.906 227.621C214.437 225.145 227.266 220.28 236.454 216.737C249.277 211.798 259.65 205.336 258.87 199.853L258.864 199.847Z" fill="#2D002A"/>
<path opacity="0.2" d="M206.803 208.367C203.634 201.65 196.892 200.327 193.062 200.147C198.351 202.367 203.59 205.891 206.803 208.367Z" fill="black"/>
<path opacity="0.2" d="M218.285 223.673C224.235 221.409 230.984 218.839 236.454 216.731C236.66 216.65 236.865 216.569 237.077 216.488L221.204 212.272C215.828 215.864 210.8 219.176 207.925 221.066L218.291 223.673H218.285Z" fill="black"/>
<path opacity="0.2" d="M180.145 212.035C180.145 212.035 200.815 229.548 208.38 218.322L183.401 208.816L180.594 207.55L180.139 212.035H180.145Z" fill="black"/>
<path d="M233.379 224.035L242.99 225.27L241.98 219.962L232.131 217.398L233.379 224.035Z" fill="#86413B"/>
<path d="M239.853 218.534C235.138 217.317 224.46 214.635 217.861 212.06C208.961 208.585 186.276 199.174 178.798 203.577C173.621 206.627 178.979 211.143 178.979 211.143C178.979 211.143 181.399 215.322 200.36 219.313C213.913 222.164 230.672 224.29 239.129 225.27L239.853 218.534Z" fill="#2D002A"/>
<path d="M242.254 225.444L240.82 219.525C240.764 219.301 240.876 219.07 241.082 218.97L245.635 216.731C246.04 216.532 246.527 216.694 246.726 217.093C246.751 217.143 246.77 217.199 246.789 217.255C247.269 219.394 247.612 221.322 248.261 223.979C249.022 227.11 249.202 226.224 250.15 229.898C250.718 232.112 248.292 233.129 247.942 232.218C246.352 228.039 244.942 227.908 242.996 226.623C242.61 226.336 242.348 225.912 242.254 225.444Z" fill="#4603A6"/>
<path d="M204.208 228.582L205.256 222.569C205.293 222.345 205.175 222.12 204.963 222.033L200.26 220.093C199.842 219.918 199.362 220.112 199.187 220.53C199.162 220.586 199.15 220.636 199.137 220.698C198.8 222.875 198.582 224.821 198.108 227.521C197.553 230.709 197.31 229.829 196.605 233.565C196.181 235.817 198.676 236.677 198.969 235.742C200.278 231.457 201.682 231.232 203.547 229.817C203.908 229.505 204.145 229.062 204.214 228.588L204.208 228.582Z" fill="#4603A6"/>
<path d="M187.879 184.367C188.827 189.805 189.432 194.733 189.887 198.275C195.039 198.051 214.368 197.047 221.36 194.39C220.362 165.082 211.044 147.649 211.044 147.649C211.044 147.649 207.601 147.418 203.659 147.699C203.141 147.73 202.611 147.786 202.081 147.842C198.632 148.223 193.081 149.47 189.27 150.437C188.472 150.643 187.661 150.867 186.875 151.098C182.883 152.295 179.422 153.755 179.422 153.755C181.941 159.824 183.837 166.098 185.309 172.042C186.382 176.389 187.218 180.568 187.879 184.367Z" fill="#4603A6"/>
<path d="M187.761 135.755C189.364 139.715 191.621 147.106 189.264 150.443C191.796 152.196 195.283 153.412 199.898 152.377C203.428 151.578 203.129 149.065 202.075 147.848C197.266 147.68 196.73 144.243 196.917 140.882L187.761 135.755Z" fill="#86413B"/>
<path d="M199.992 152.352C199.992 152.352 199 154.341 197.771 156.356C195.189 155.607 189.039 153.456 188.609 150.343C188.721 149.389 189.794 148.597 189.794 148.597C189.794 148.597 193.923 151.142 199.998 152.352H199.992Z" fill="white"/>
<path d="M199.992 152.352C199.992 152.352 202.131 153.449 203.728 155.083C205.156 153.562 203.004 148.06 202.237 147.568C200.703 146.994 199.804 147.287 199.804 147.287C199.804 147.287 202.524 151.123 199.998 152.345L199.992 152.352Z" fill="white"/>
<path opacity="0.2" d="M191.497 137.844L196.917 140.875C196.873 141.674 196.867 142.472 196.96 143.233C195.158 143.333 192.37 141.898 191.833 140.096C191.565 139.197 191.434 138.306 191.503 137.85L191.497 137.844Z" fill="black"/>
<path d="M185.041 130.858C187.137 136.154 188.091 139.36 191.721 141.218C197.185 144.013 203.035 139.291 202.561 133.459C202.137 128.214 198.782 120.436 192.8 120.062C186.906 119.694 182.945 125.563 185.041 130.858Z" fill="#86413B"/>
<path d="M193.717 129.605C193.86 130.048 194.21 130.322 194.497 130.229C194.784 130.129 194.902 129.698 194.759 129.256C194.615 128.813 194.266 128.538 193.979 128.632C193.692 128.732 193.574 129.162 193.717 129.605Z" fill="#2D002A"/>
<path d="M198.682 127.933C198.825 128.376 199.174 128.651 199.461 128.557C199.748 128.457 199.867 128.027 199.723 127.584C199.58 127.141 199.231 126.867 198.944 126.96C198.657 127.06 198.538 127.49 198.682 127.933Z" fill="#2D002A"/>
<path d="M197.179 128.682C197.179 128.682 199 130.784 200.497 131.594C199.954 132.542 198.526 132.655 198.526 132.655L197.179 128.682Z" fill="#6A150F"/>
<path d="M196.717 135.131C196.904 135.093 197.098 135.044 197.303 134.975C197.372 134.95 197.416 134.875 197.391 134.8C197.366 134.725 197.291 134.688 197.222 134.713C195.289 135.362 193.954 134.32 193.942 134.308C193.885 134.264 193.798 134.27 193.748 134.333C193.698 134.395 193.711 134.476 193.767 134.526C193.823 134.57 194.977 135.468 196.717 135.131Z" fill="#2D002A"/>
<path d="M191.665 128.52C191.758 128.501 191.84 128.432 191.871 128.339C192.264 127.185 193.23 126.923 193.243 126.917C193.386 126.879 193.48 126.729 193.443 126.586C193.405 126.443 193.255 126.355 193.112 126.393C193.062 126.405 191.846 126.736 191.359 128.17C191.309 128.314 191.384 128.47 191.528 128.513C191.571 128.526 191.621 128.532 191.665 128.52Z" fill="#2D002A"/>
<path d="M200.266 125.501C200.316 125.488 200.366 125.47 200.403 125.426C200.509 125.32 200.516 125.145 200.409 125.039C199.362 123.96 198.139 124.203 198.083 124.21C197.933 124.241 197.84 124.384 197.871 124.534C197.902 124.684 198.039 124.777 198.189 124.746C198.239 124.734 199.187 124.559 200.029 125.426C200.098 125.495 200.185 125.519 200.272 125.501H200.266Z" fill="#2D002A"/>
<path opacity="0.2" d="M182.852 163.254C183.787 166.223 184.598 169.173 185.309 172.048C186.089 175.217 186.744 178.292 187.299 181.198C188.322 175.317 187.698 162.237 187.698 162.237L184.474 159.125C184.474 159.125 183.613 160.678 182.852 163.248V163.254Z" fill="black"/>
<path d="M198.083 184.76L195.189 185.084C194.216 185.184 193.243 185.252 192.283 185.333C190.355 185.471 188.447 185.558 186.638 185.502C185.734 185.477 184.854 185.402 184.056 185.277C183.257 185.165 182.521 184.978 182.06 184.753C181.829 184.647 181.817 184.585 181.823 184.597C181.823 184.604 181.823 184.579 181.823 184.573L181.798 184.479C181.779 184.404 181.748 184.286 181.723 184.161C181.673 183.905 181.63 183.568 181.598 183.207C181.492 181.728 181.586 179.882 181.798 178.055C182.016 176.215 182.297 174.325 182.652 172.435C183.338 168.668 184.212 164.782 185.116 161.077L176.708 158.807C176.116 160.871 175.673 162.842 175.224 164.876C174.775 166.897 174.419 168.942 174.089 171.013C173.789 173.084 173.521 175.179 173.397 177.344C173.29 179.52 173.209 181.716 173.59 184.229C173.69 184.859 173.821 185.521 174.033 186.232C174.139 186.593 174.263 186.955 174.426 187.348C174.507 187.541 174.594 187.735 174.7 187.947L174.862 188.259L175.081 188.627C175.692 189.6 176.521 190.336 177.313 190.847C178.112 191.352 178.885 191.652 179.609 191.876C181.056 192.3 182.322 192.4 183.526 192.438C184.729 192.456 185.865 192.369 186.968 192.244C191.372 191.689 195.308 190.498 199.243 188.907L198.071 184.753L198.083 184.76Z" fill="#87413C"/>
<path d="M177.875 154.597C173.372 157.765 171.881 174.125 171.881 174.125L185.864 175.822C185.864 175.822 187.567 168.556 187.723 161.433C187.892 153.68 183.332 150.755 177.875 154.597Z" fill="#4603A6"/>
<path d="M196.661 184.947L200.759 180.805L203.31 187.722C203.31 187.722 199.043 190.467 197.347 188.34L196.661 184.947Z" fill="#86413B"/>
<path d="M205.493 180.194L207.339 186.007L203.31 187.722L200.759 180.805L205.493 180.194Z" fill="#86413B"/>
<path d="M188.609 135.567L188.971 135.505C189.931 135.337 190.305 134.183 189.644 133.466C188.858 132.605 188.085 131.414 187.885 129.91C187.449 126.592 189.251 126.131 189.014 123.86C189.014 123.86 193.53 123.268 196.393 121.297C196.393 121.297 199.206 117.23 196.954 115.309C195.058 113.694 192.781 115.889 192.781 115.889C192.781 115.889 191.808 112.921 189.482 113.563C187.068 114.224 186.201 117.393 186.201 117.393C186.201 117.393 183.956 114.898 182.266 116.176C180.575 117.455 181.174 120.679 181.174 120.679C181.174 120.679 177.669 120.779 177.557 122.813C177.444 124.846 179.534 126.655 179.534 126.655C179.534 126.655 177.438 128.613 178.018 130.253C178.598 131.894 180.501 132.056 180.501 132.056C180.501 132.056 179.178 134.85 180.114 135.755C181.043 136.659 182.852 136.428 182.852 136.428C182.852 136.428 182.908 139.104 185.06 139.859C186.6 140.401 187.648 139.41 187.648 139.41C187.648 139.41 188.709 140.963 189.376 140.538C190.043 140.114 188.609 135.567 188.609 135.567Z" fill="#2D002A"/>
<path d="M183.476 138.536C184.704 136.89 188.559 131.95 190.842 131.501C190.842 131.501 189.869 130.721 189.339 127.041C189.339 127.041 188.309 128.994 186.993 130.341C184.929 132.449 182.833 135.15 181.96 136.441C181.96 136.441 182.259 137.37 183.476 138.536Z" fill="#4603A6"/>
<path opacity="0.6" d="M183.476 138.536C184.704 136.89 188.559 131.95 190.842 131.501C190.842 131.501 189.869 130.721 189.339 127.041C189.339 127.041 188.309 128.994 186.993 130.341C184.929 132.449 182.833 135.15 181.96 136.441C181.96 136.441 182.259 137.37 183.476 138.536Z" fill="white"/>
<path d="M184.424 136.041C185.309 137.289 186.688 138.006 187.935 138.193C189.806 138.468 190.524 136.721 189.813 135.075C189.176 133.59 187.43 131.651 185.64 132.137C183.875 132.611 183.407 134.619 184.417 136.048L184.424 136.041Z" fill="#86413B"/>
<path d="M191.166 132.05C191.166 132.05 195.239 133.728 198.438 130.665C198.438 130.665 201.769 131.563 202.78 129.754L201.769 129.43L191.64 131.644L191.166 132.05Z" fill="#4603A6"/>
<path d="M201.245 123.099L190.312 125.382C189.919 125.463 189.576 125.7 189.357 126.037L189.095 126.436C188.877 126.773 188.796 127.179 188.883 127.571L189.65 131.245C189.819 132.062 190.623 132.586 191.44 132.418L202.374 130.135C202.767 130.054 203.11 129.817 203.328 129.48L203.59 129.081C203.809 128.744 203.89 128.339 203.802 127.946L203.035 124.272C202.867 123.455 202.062 122.931 201.245 123.099Z" fill="#4603A6"/>
<path opacity="0.3" d="M201.245 123.099L190.312 125.382C189.919 125.463 189.576 125.7 189.357 126.037L189.095 126.436C188.877 126.773 188.796 127.179 188.883 127.571L189.65 131.245C189.819 132.062 190.623 132.586 191.44 132.418L202.374 130.135C202.767 130.054 203.11 129.817 203.328 129.48L203.59 129.081C203.809 128.744 203.89 128.339 203.802 127.946L203.035 124.272C202.867 123.455 202.062 122.931 201.245 123.099Z" fill="white"/>
<path opacity="0.2" d="M201.042 123.403L191.798 125.332C190.972 125.505 190.442 126.314 190.614 127.14L191.193 129.912C191.365 130.738 192.175 131.268 193.001 131.096L202.245 129.166C203.071 128.994 203.601 128.184 203.428 127.358L202.85 124.586C202.677 123.76 201.868 123.23 201.042 123.403Z" fill="white"/>
</g>
<defs>
<clipPath id="clip0_85_3938">
<rect width="311.856" height="230" fill="white" transform="translate(52.072 32.0001)"/>
</clipPath>
</defs>
</svg>
