<svg width="76" height="86" viewBox="0 0 76 86" fill="none" xmlns="http://www.w3.org/2000/svg">
<path d="M20.1429 18C16.2031 18 13 21.2031 13 25.1429V60.8571C13 64.7969 16.2031 68 20.1429 68H31.1027V51.7277H25.2098V43H31.1027V39.2388C31.1027 29.5179 35.5 25.0089 45.0536 25.0089C46.8616 25.0089 49.9866 25.3661 51.2701 25.7232V33.625C50.6004 33.558 49.4286 33.5134 47.9665 33.5134C43.279 33.5134 41.471 35.2879 41.471 39.8973V43H50.8013L49.1942 51.7277H41.4598V68H55.8571C59.7969 68 63 64.7969 63 60.8571V25.1429C63 21.2031 59.7969 18 55.8571 18H20.1429Z" fill="white"/>
</svg>
