<svg width="76" height="86" viewBox="0 0 76 86" fill="none" xmlns="http://www.w3.org/2000/svg">
<path d="M34.6964 38.0558C34.0464 38.4904 33.4884 39.0487 33.0541 39.6989C32.6199 40.3492 32.318 41.0786 32.1656 41.8455C31.858 43.3943 32.1782 45.002 33.0558 46.3147C33.9334 47.6275 35.2966 48.5378 36.8455 48.8455C38.3943 49.1532 40.002 48.833 41.3147 47.9554C42.6275 47.0777 43.5378 45.7145 43.8455 44.1657C44.1532 42.6168 43.833 41.0092 42.9554 39.6964C42.0777 38.3837 40.7145 37.4733 39.1657 37.1656C37.6168 36.858 36.0092 37.1782 34.6964 38.0558ZM50.5781 30.4219C49.9978 29.8415 49.2946 29.3839 48.5246 29.0826C46.5045 28.2902 42.096 28.3237 39.25 28.3571C38.7924 28.3571 38.3683 28.3683 38 28.3683C37.6317 28.3683 37.1964 28.3683 36.7277 28.3571C33.8817 28.3237 29.4955 28.279 27.4754 29.0826C26.7054 29.3839 26.0134 29.8415 25.4219 30.4219C24.8304 31.0022 24.3839 31.7054 24.0826 32.4754C23.2902 34.4955 23.3348 38.9152 23.3571 41.7612C23.3571 42.2188 23.3683 42.6429 23.3683 43C23.3683 43.3571 23.3683 43.7812 23.3571 44.2388C23.3348 47.0848 23.2902 51.5045 24.0826 53.5246C24.3839 54.2946 24.8415 54.9866 25.4219 55.5781C26.0022 56.1696 26.7054 56.6161 27.4754 56.9174C29.4955 57.7098 33.904 57.6763 36.75 57.6429C37.2076 57.6429 37.6317 57.6317 38 57.6317C38.3683 57.6317 38.8036 57.6317 39.2723 57.6429C42.1183 57.6763 46.5045 57.721 48.5246 56.9174C49.2946 56.6161 49.9866 56.1585 50.5781 55.5781C51.1696 54.9978 51.6161 54.2946 51.9174 53.5246C52.721 51.5156 52.6763 47.1183 52.6429 44.2612C52.6429 43.7924 52.6317 43.3571 52.6317 42.9888C52.6317 42.6205 52.6317 42.1964 52.6429 41.7165C52.6763 38.8705 52.721 34.4732 51.9174 32.4531C51.6161 31.683 51.1585 30.9911 50.5781 30.3996V30.4219ZM43.0893 35.3884C45.108 36.7382 46.5079 38.8346 46.9809 41.2164C47.4539 43.5983 46.9614 46.0706 45.6116 48.0893C44.9433 49.0889 44.0846 49.947 43.0846 50.6147C42.0846 51.2824 40.9629 51.7467 39.7836 51.9809C37.4017 52.4539 34.9294 51.9614 32.9107 50.6116C30.892 49.2633 29.4916 47.1683 29.0175 44.7875C28.5434 42.4067 29.0345 39.935 30.3828 37.9163C31.7311 35.8976 33.8261 34.4971 36.2069 34.0231C38.5878 33.549 41.0594 34.0401 43.0781 35.3884H43.0893ZM46.3482 35.2433C46.0022 35.0089 45.7232 34.6741 45.5558 34.2835C45.3884 33.8929 45.3549 33.4688 45.433 33.0446C45.5112 32.6205 45.7232 32.2522 46.0134 31.9509C46.3036 31.6496 46.6942 31.4487 47.1071 31.3705C47.5201 31.2924 47.9554 31.3259 48.346 31.4933C48.7366 31.6607 49.0714 31.9286 49.3058 32.2746C49.5402 32.6205 49.6629 33.0335 49.6629 33.4576C49.6629 33.7366 49.6071 34.0156 49.5067 34.2723C49.4062 34.529 49.2388 34.7634 49.0491 34.9643C48.8594 35.1652 48.6138 35.3214 48.3571 35.433C48.1004 35.5446 47.8214 35.6004 47.5424 35.6004C47.1183 35.6004 46.7054 35.4777 46.3594 35.2433H46.3482ZM63 25.1429C63 21.2031 59.7969 18 55.8571 18H20.1429C16.2031 18 13 21.2031 13 25.1429V60.8571C13 64.7969 16.2031 68 20.1429 68H55.8571C59.7969 68 63 64.7969 63 60.8571V25.1429ZM52.8438 57.8438C50.7567 59.9308 48.2232 60.5893 45.3661 60.7344C42.4196 60.9018 33.5804 60.9018 30.6339 60.7344C27.7768 60.5893 25.2433 59.9308 23.1562 57.8438C21.0692 55.7567 20.4107 53.2232 20.2768 50.3661C20.1094 47.4196 20.1094 38.5804 20.2768 35.6339C20.4219 32.7768 21.0692 30.2433 23.1562 28.1562C25.2433 26.0692 27.7879 25.4107 30.6339 25.2768C33.5804 25.1094 42.4196 25.1094 45.3661 25.2768C48.2232 25.4219 50.7567 26.0692 52.8438 28.1562C54.9308 30.2433 55.5893 32.7768 55.7232 35.6339C55.8906 38.5692 55.8906 47.3973 55.7232 50.3549C55.5781 53.2121 54.9308 55.7455 52.8438 57.8326V57.8438Z" fill="white"/>
</svg>
