<svg width="76" height="86" viewBox="0 0 76 86" fill="none" xmlns="http://www.w3.org/2000/svg">
<path d="M20.1429 18C16.2031 18 13 21.2031 13 25.1429V60.8571C13 64.7969 16.2031 68 20.1429 68H55.8571C59.7969 68 63 64.7969 63 60.8571V25.1429C63 21.2031 59.7969 18 55.8571 18H20.1429ZM53.3013 27.375L41.7165 40.6116L55.3438 58.625H44.6741L36.3259 47.6987L26.7612 58.625H21.4598L33.8482 44.4621L20.779 27.375H31.7165L39.2723 37.3638L48 27.375H53.3013ZM49.0826 55.4554L30.1205 30.3772H26.9621L46.1362 55.4554H49.0714H49.0826Z" fill="white"/>
</svg>
